<?xml version="1.0" standalone="no"?>
<!DOCTYPE svg PUBLIC "-//W3C//DTD SVG 1.1//EN" "http://www.w3.org/Graphics/SVG/1.1/DTD/svg11.dtd" >
<svg xmlns="http://www.w3.org/2000/svg" xmlns:xlink="http://www.w3.org/1999/xlink" version="1.1">
<metadata>
Created by FontForge 20150824 at Wed Mar  9 11:29:26 2016
 By Everything Fonts
(c)1991,1993 Tilde Ltd. AG Fonts collection.
</metadata>
<defs>
<font id="AGNewHandbook" horiz-adv-x="556" >
  <font-face 
    font-family="AGNewHandbook"
    font-weight="400"
    font-stretch="normal"
    units-per-em="1000"
    panose-1="0 0 0 0 0 0 0 0 0 0"
    ascent="800"
    descent="-200"
    x-height="464"
    cap-height="722"
    bbox="-82 -206 1124 957"
    underline-thickness="20"
    underline-position="-163"
    unicode-range="U+0020-2122"
  />
<missing-glyph horiz-adv-x="800" 
d="M50 0v800h700v-800h-700zM700 50v700h-600v-700h600z" />
    <glyph glyph-name=".notdef" horiz-adv-x="800" 
d="M50 0v800h700v-800h-700zM700 50v700h-600v-700h600z" />
    <glyph glyph-name=".null" horiz-adv-x="0" 
 />
    <glyph glyph-name="nonmarkingreturn" horiz-adv-x="278" 
 />
    <glyph glyph-name="space" unicode=" " horiz-adv-x="278" 
 />
    <glyph glyph-name="exclam" unicode="!" horiz-adv-x="296" 
d="M209 650v-16q0 -20 -4 -43l-7 -43l-17 -89q-6 -35 -7.5 -47.5t-1.5 -34.5q0 -32 -1 -65l-2 -66l-1 -54h-40l1 49q0 63 -4 123t-14 115.5t-14 84.5q-9 56 -9 88t14.5 58.5t44.5 26.5q33 0 49 -28q13 -23 13 -59zM212 47q0 -26 -18 -44t-45 -18q-24 0 -43 18t-19 44
q0 25 18.5 43.5t43.5 18.5t44 -18t19 -44z" />
    <glyph glyph-name="quotedbl" unicode="&#x22;" horiz-adv-x="389" 
d="M328 693l-33 -196h-20l-33 196q-3 15 10.5 29.5t32.5 14.5q18 0 32 -14t11 -30zM147 693l-33 -196h-20l-33 196q-3 15 10.5 29.5t32.5 14.5q18 0 32 -14t11 -30z" />
    <glyph glyph-name="numbersign" unicode="#" 
d="M524 414h-104l-17 -124h96v-68h-106l-34 -222h-66l34 222h-122l-34 -222h-66l34 222h-106v68h116l18 124h-107v68h116l31 208h66l-31 -208h122l30 208h66l-30 -208h94v-68zM354 414h-121l-18 -124h122z" />
    <glyph glyph-name="dollar" unicode="$" 
d="M510 201q0 -94 -59.5 -151.5t-153.5 -57.5v-121h-47v121q-40 0 -72.5 8.5t-62.5 28.5t-50 52t-20 65q0 35 18 61.5t53 26.5q27 0 43 -18t16 -45q0 -21 -11 -34.5t-32 -25.5q-7 -4 -12 -13q1 -5 1 -7t1 -3q18 -30 53 -43t75 -13v284q-83 17 -133 63q-58 53 -58 133
q0 81 56 132q51 47 135 54v106h47v-106q38 0 71 -10q48 -16 78 -51q15 -19 25 -39.5t10 -40.5q0 -32 -16 -52.5t-47 -20.5q-25 0 -41.5 16.5t-16.5 41.5q0 19 6.5 29t23.5 21q12 12 12 13q0 24 -40 39.5t-65 11.5v-250q103 -27 149 -63q64 -50 64 -142zM250 422v234
q-56 -9 -87 -35q-36 -31 -36 -84q0 -44 41 -77q34 -28 82 -38zM439 168q0 57 -44 92q-35 28 -98 42v-268q58 0 100 38t42 96z" />
    <glyph glyph-name="percent" unicode="%" horiz-adv-x="833" 
d="M789 289q3 -17 3 -32q0 -32 -11 -65q-27 -80 -73 -130q-57 -62 -132 -62q-58 0 -93.5 32.5t-35.5 91.5q0 89 68 172q72 88 160 88q46 0 76.5 -24.5t37.5 -70.5zM650 707l-415 -724h-49l372 649l-13 -8q-44 -29 -96 -29q-32 0 -66 13q3 -9 4.5 -20.5t1.5 -26.5
q0 -87 -63 -168q-68 -87 -152 -87q-57 0 -93 36t-36 93q0 50 18.5 91t55 81.5t70.5 60.5q43 25 91 25q39 0 68 -24l20 -23q16 -10 41.5 -16t46.5 -6q39 0 83 25t67 58h44zM764 266q0 22 -9 42t-26 33q-7 6 -18.5 9t-21.5 3q-30 0 -65 -41q-21 -25 -45 -68q-29 -54 -36 -70
q-20 -46 -20 -76q0 -33 18.5 -50.5t48.5 -17.5q17 0 30 5q61 21 104 94q40 68 40 137zM361 569q0 16 -1 26.5t-7 23.5q-41 14 -66 45q-33 -6 -61 -39q-15 -17 -39.5 -59.5t-39.5 -77.5q-23 -52 -23 -81q0 -32 17.5 -51.5t48.5 -19.5q35 0 72 30q30 24 52 58t34.5 71.5
t12.5 73.5z" />
    <glyph glyph-name="ampersand" unicode="&#x26;" horiz-adv-x="815" 
d="M775 161q-1 -14 -6 -30.5t-13 -34.5q-25 -56 -58.5 -80.5t-92.5 -24.5q-40 0 -79 18t-65 49q-41 -33 -91 -53t-99 -20q-46 0 -87 13t-70 42q-63 63 -63 148q0 73 54 135q46 53 121 87q-18 36 -29 69q-14 42 -14 74q0 45 9.5 75t38.5 61q24 26 53.5 37t67.5 11
q32 0 60 -6.5t50.5 -25t36.5 -44t14 -55.5q0 -70 -55 -122q-46 -43 -121 -68q60 -105 98 -163q29 -44 68 -92q28 35 47 70q24 45 24 80q0 41 -51 48l-50 4v43h282v-43q-51 0 -76.5 -18t-50.5 -65l-20 -39q-33 -62 -76 -113q24 -21 49 -41q30 -22 59 -22q27 0 46 14.5
t32 39.5q9 24 10.5 28.5t5.5 21.5zM434 602q0 40 -21 66t-60 26t-59 -28.5t-20 -69.5q0 -30 13.5 -72t30.5 -69q54 18 85 55t31 92zM432 89q-115 127 -188 284l-11 -6q-77 -46 -77 -127q0 -66 48.5 -127t113.5 -61q31 0 57.5 9t56.5 28z" />
    <glyph glyph-name="quotesingle" unicode="'" horiz-adv-x="204" 
d="M145 693l-33 -196h-20l-33 196q-3 15 10.5 29.5t32.5 14.5q18 0 32 -14t11 -30z" />
    <glyph glyph-name="parenleft" unicode="(" horiz-adv-x="333" 
d="M279 709q-30 -20 -60 -53.5t-48.5 -67t-29.5 -72.5q-7 -26 -17 -78q-5 -29 -6.5 -59.5t-1.5 -75.5q0 -85 11 -152q15 -91 50 -142q21 -30 47 -58t54 -48v-27q-117 72 -179.5 185.5t-62.5 252.5q0 65 18 129.5t49 119t77 99.5q43 41 99 75v-28z" />
    <glyph glyph-name="parenright" unicode=")" horiz-adv-x="333" 
d="M297 291q0 -65 -17.5 -126.5t-52.5 -120.5q-29 -50 -74.5 -93t-98.5 -75v28l17 11q51 50 71 77q31 42 47 94.5t22.5 106t6.5 116.5q0 54 -1.5 80t-8.5 64q-17 93 -48 147t-104 111v26q117 -71 179 -188t62 -258z" />
    <glyph glyph-name="asterisk" unicode="*" horiz-adv-x="500" 
d="M443 431q0 -15 -11 -26t-27 -13q-35 0 -53 35q-11 22 -28 36q-8 7 -38 26l-21 13l-6 -4v-27q0 -13 0.5 -24.5t3.5 -24.5l7 -22l5 -10l7 -15q3 -10 5 -16t2 -15q0 -12 -8 -25q-14 -13 -33 -13q-18 0 -29 10t-11 29t7 30l5 10q12 25 16 43.5t4 46.5v24l-6 4l-23 -14
q-14 -9 -27 -19q-18 -14 -35 -37q-9 -13 -16 -20q-17 -17 -36 -17q-11 0 -20.5 5t-15.5 16q-5 6 -5 17q0 9 5 21l10 13l16 8q18 3 31.5 5t22.5 2q15 0 32 7q8 3 31 16l22 11l-1 10l-22 13q-14 9 -22 12q-13 6 -26 8l-57 9l-15 5q-12 4 -19.5 17t-4.5 25q2 12 8 18q5 8 12 12
q11 4 22 4q15 0 25.5 -8.5t21.5 -25.5t14 -20q9 -11 24 -23q9 -7 28 -19l20 -13l9 4v26q0 45 -20 84q-7 15 -9 22.5t-2 16.5q0 4 2 12q8 31 37 31q20 0 30.5 -13t10.5 -34q0 -8 -3.5 -17t-6.5 -16q-13 -25 -17 -42t-4 -46v-25l6 -5l22 14q8 5 16 11q19 12 27 19q21 29 32 43
q21 26 46 22q10 -2 15 -7q18 -11 18 -35q0 -10 -5 -18q-8 -16 -21.5 -20.5t-35.5 -4.5q-25 0 -46 -8q-9 -3 -42 -21l-18 -10l1 -8l22 -13q23 -13 39 -18.5t31.5 -7t26.5 -3t24 -6.5l11 -9q13 -9 13 -28z" />
    <glyph glyph-name="plus" unicode="+" horiz-adv-x="606" 
d="M555 203h-214v-216h-76v216h-214v76h214v213h76v-213h214v-76z" />
    <glyph glyph-name="comma" unicode="," horiz-adv-x="278" 
d="M218 7q0 -44 -25 -85q-31 -51 -107 -106l-22 29q29 25 40 35q23 22 36 41q9 12 16 27q11 22 11 34q0 7 -3 10l-3 2l-9 -1q-7 -1 -17 -1q-14 0 -34 7q-29 20 -29 52q0 23 18.5 40.5t42.5 17.5q43 0 64 -28.5t21 -73.5z" />
    <glyph glyph-name="hyphen" unicode="-" horiz-adv-x="333" 
d="M291 197h-249v82h249v-82z" />
    <glyph glyph-name="period" unicode="." horiz-adv-x="278" 
d="M199 47q0 -24 -18 -43t-43 -19q-26 0 -45 18t-19 44t19 44t44 18t43.5 -18.5t18.5 -43.5z" />
    <glyph glyph-name="slash" unicode="/" horiz-adv-x="278" 
d="M302 737l-270 -752h-55l267 752h58z" />
    <glyph glyph-name="zero" unicode="0" 
d="M514 343q0 -64 -14 -127t-42 -113q-31 -55 -73 -84q-48 -34 -107 -34q-29 0 -59 9.5t-52 26.5q-43 35 -77 95q-24 46 -36 106.5t-12 122.5q0 69 13.5 126t45.5 114q29 53 72 84q49 36 105 36q49 0 88 -23t71 -66q26 -35 42.5 -77.5t24.5 -90.5q4 -23 7 -52t3 -53z
M405 356l-2 80q0 111 -39 174q-32 52 -86 52q-70 0 -102 -85q-23 -61 -23 -145l-2 -78l2 -91q0 -92 20 -148q31 -87 105 -87q48 0 81 45q27 37 34 84t9.5 94.5t2.5 104.5z" />
    <glyph glyph-name="one" unicode="1" 
d="M494 0h-385v45h45q25 0 41 1.5t28.5 4.5t16.5 8q9 9 11 19.5t2 31.5v403v21q0 35 -10 45t-53 10h-88v42q63 0 118.5 18t99.5 56h34l-6 -588q0 -11 0.5 -23t2.5 -18.5t4 -10.5t5 -6.5t18 -10.5l43 -3h73v-45z" />
    <glyph glyph-name="two" unicode="2" 
d="M505 212l-18 -216q-36 0 -120 2t-90 2q-42 0 -138.5 -2t-103.5 -2v28l11 15l96 119l144 156q49 53 73 97q31 58 31 118q0 62 -37.5 96.5t-100.5 34.5q-50 0 -90 -26q-47 -30 -47 -77q0 -4 1 -7q3 -3 3 -4l11 -7q13 -5 18.5 -7t13.5 -8q14 -8 21 -23t7 -32
q0 -26 -19.5 -41.5t-46.5 -15.5q-37 0 -57 38q-16 30 -16 70q0 44 23 82q15 26 40.5 47.5t51.5 33.5t56 17t57 5q86 0 150 -50q70 -55 70 -140q0 -68 -35 -123q-27 -43 -89 -94l-150 -124l-54 -52l-33 -34h235q46 0 58 11t21 58l11 55h42z" />
    <glyph glyph-name="three" unicode="3" 
d="M498 185q0 -94 -71 -149q-66 -51 -163 -51q-91 0 -151 38q-71 45 -71 132q0 31 19 55t49 24q25 0 44.5 -16.5t19.5 -41.5t-7 -34.5t-31 -24.5q-15 -10 -17 -12t-4 -8q-4 -5 0 -11q3 -14 23 -28q12 -8 32 -16t37.5 -10.5t43.5 -2.5q71 0 105 43.5t34 115.5q0 69 -26 108
q-32 47 -99 47l-48 -2q-5 -1 -15 -1q-6 0 -18 3.5t-12 19.5q0 17 9 22.5t25 5.5q16 -1 23 -1h31q31 0 49.5 5t36 24.5t25 49.5t7.5 62q0 61 -27 95.5t-88 34.5q-33 0 -64 -10.5t-46 -32.5q-3 -1 -4 -6t-1 -8q0 -5 7 -14l8 -6q13 -8 20.5 -20.5t7.5 -26.5q0 -26 -15 -44
t-42 -18q-29 0 -47 21t-18 50q0 38 22 72q19 30 54 53q28 19 59.5 26.5t70.5 7.5q86 0 142 -43q62 -47 62 -131q0 -63 -39.5 -105.5t-103.5 -58.5q75 -12 118.5 -59.5t43.5 -122.5z" />
    <glyph glyph-name="four" unicode="4" 
d="M527 175h-124v-50v-28q0 -13 2 -24t9 -20q13 -7 29.5 -8.5t41.5 -1.5h11q4 0 3.5 -7t-0.5 -18v-18h-294v43h39q20 0 32 1.5t23 9.5q7 7 9 19t2 25v15v63h-282v54l342 475h41q-2 -22 -4 -48t-2 -46l-2 -56v-326h124v-54zM310 229v312l-224 -312h224z" />
    <glyph glyph-name="five" unicode="5" 
d="M502 222q0 -106 -68.5 -171.5t-175.5 -65.5q-49 0 -84 8t-67 33q-62 48 -62 130q0 29 19 52t48 23q26 0 45 -15.5t19 -41.5q0 -22 -8 -34.5t-29 -26.5l-7 -4l-9.5 -9.5t-4.5 -9.5q0 -31 53 -50q41 -15 79 -15q76 0 114 62q31 51 31 132q0 79 -32 127q-38 57 -114 57
q-63 0 -109 -38q0 -18 -5 -29l-10 -19q-11 -9 -17 -11q-8 -4 -19 0q-22 7 -22 34q0 7 6 20t13 18l8 10l24 266l2 51h10q58 -15 106 -23t97 -8q64 0 119 24l13 6l12 -1v-13q-20 -56 -70 -85t-112 -29l-51 3q-21 0 -37 3t-46 12l-16 -175q36 15 65 23t61 8q104 0 167.5 -62.5
t63.5 -165.5z" />
    <glyph glyph-name="six" unicode="6" 
d="M516 224q0 -101 -63 -170t-164 -69q-120 0 -188 101q-59 88 -59 215q0 74 15.5 141t51.5 128t93.5 98t127.5 37q65 0 111 -27q56 -33 56 -94q0 -28 -18.5 -48.5t-47.5 -20.5q-24 0 -41 17t-17 42q0 12 4 22t8 18l7 17q3 18 -14.5 24.5t-40.5 6.5q-53 0 -90 -28t-57.5 -74
t-29.5 -89t-9 -89l-2 -50q30 48 71 72.5t96 24.5q87 0 143.5 -58.5t56.5 -146.5zM410 218q0 65 -26 104q-32 48 -93 48q-69 0 -103 -52q-30 -45 -30 -117q0 -59 26 -106q20 -35 44 -51.5t63 -16.5q64 0 95 67q24 52 24 124z" />
    <glyph glyph-name="seven" unicode="7" 
d="M508 672l-69 -147q-27 -57 -53 -125q-32 -83 -43 -128q-3 -12 -5 -25t-3.5 -22t-1.5 -20.5v-17.5v-23l-2 -83q0 -44 -11 -66q-15 -30 -55 -30q-30 0 -45 21.5t-15 53.5q0 61 45 173q31 78 95 203q79 155 86 170h-111h-29h-11q-43 0 -78 4q-21 2 -34 2q-16 0 -22 -5
l-9 -10q-8 -16 -13.5 -38.5t-8.5 -34.5l-14 -68l-42 6l30 243q63 -6 141.5 -9t144.5 -3h17h14q56 0 102 7v-28z" />
    <glyph glyph-name="eight" unicode="8" 
d="M513 196q0 -45 -20 -89t-55 -72q-31 -25 -75.5 -37.5t-89.5 -12.5q-48 0 -89 11t-74 37q-69 55 -69 141q0 64 46 109q41 40 106 60q-55 23 -86.5 68t-31.5 103q0 41 18.5 81t48 63.5t67 35t76.5 11.5q82 0 136 -39q62 -45 62 -124q0 -50 -32.5 -91t-82.5 -62
q70 -26 107.5 -73t37.5 -120zM412 538q0 59 -36 92t-95 33q-54 0 -93 -27.5t-39 -80.5q0 -49 38 -85q47 -45 147 -67q40 32 57 58q21 33 21 77zM436 159q0 61 -49 103q-12 9 -31 18q-8 4 -58 22l-65 23q-56 -25 -83.5 -62.5t-27.5 -96.5q0 -70 40 -105.5t111 -35.5
q69 0 113 32q50 36 50 102z" />
    <glyph glyph-name="nine" unicode="9" 
d="M513 375q0 -72 -15.5 -137t-51.5 -124t-93 -94t-126 -35q-30 0 -61 6.5t-54 21t-38.5 38.5t-15.5 52q0 29 19 49t48 20q26 0 42 -17t16 -43q0 -9 -3.5 -18.5t-9.5 -21.5t-6 -19q0 -15 25 -22q15 -4 36 -4q39 0 70.5 18t52.5 52q16 26 28 64q9 29 17 70q13 67 13 125
q-29 -47 -72.5 -72.5t-97.5 -25.5q-86 0 -141.5 59.5t-55.5 146.5q0 98 64.5 169.5t162.5 71.5q125 0 191 -107q56 -90 56 -223zM396 477q0 74 -26 122q-34 62 -101 62q-70 0 -100 -64q-23 -48 -23 -127q0 -66 28 -107q32 -47 96 -47q31 0 57.5 14t42 40.5t21 50t5.5 56.5z
" />
    <glyph glyph-name="colon" unicode=":" horiz-adv-x="278" 
d="M211 412q0 -25 -18.5 -43.5t-43.5 -18.5t-44 18t-19 44q0 25 18 44t44 19t44.5 -18.5t18.5 -44.5zM211 47q0 -26 -18 -44t-44 -18q-25 0 -44 18t-19 44q0 25 18.5 43.5t43.5 18.5t44 -18t19 -44z" />
    <glyph glyph-name="semicolon" unicode=";" horiz-adv-x="278" 
d="M209 412q0 -26 -18.5 -44.5t-45.5 -18.5q-26 0 -45 18t-19 45q0 26 17.5 44.5t43.5 18.5q29 0 48 -17t19 -46zM226 2q0 -43 -25 -84q-32 -53 -107 -107l-22 29q31 26 40 35q22 21 36 41q7 11 14 26q11 22 11 34q0 9 -4 13l-9 -1q-7 -1 -17 -1q-14 0 -34 7q-29 20 -29 52
q0 23 18.5 40.5t42.5 17.5q43 0 64 -28.5t21 -73.5z" />
    <glyph glyph-name="less" unicode="&#x3c;" horiz-adv-x="606" 
d="M558 -25l-509 232v64l509 232v-73l-414 -191l414 -191v-73z" />
    <glyph glyph-name="equal" unicode="=" horiz-adv-x="606" 
d="M555 299h-504v75h504v-75zM555 104h-504v75h504v-75z" />
    <glyph glyph-name="greater" unicode="&#x3e;" horiz-adv-x="606" 
d="M557 207l-509 -232v73l414 191l-414 191v73l509 -232v-64z" />
    <glyph glyph-name="question" unicode="?" horiz-adv-x="444" 
d="M411 560q0 -57 -38 -107q-23 -30 -83 -81q-38 -32 -52 -54q-20 -31 -20 -73l-2 -50h-42q0 73 10 113.5t48 92.5l33 44q21 28 32 57t11 62q0 63 -28 96.5t-90 33.5q-28 0 -59 -13.5t-31 -37.5q0 -5 4 -15l8 -6q15 -12 24 -26t9 -31q0 -24 -16 -39t-40 -15q-28 0 -46 24
t-18 53q0 26 13.5 54.5t36 47.5t45 28t49.5 14t52 5q82 0 136 -48t54 -129zM256 47q0 -26 -18 -44t-45 -18q-24 0 -43 18t-19 44q0 25 18.5 43.5t43.5 18.5t44 -18t19 -44z" />
    <glyph glyph-name="at" unicode="@" horiz-adv-x="737" 
d="M705 436q0 -57 -16.5 -108.5t-51.5 -91.5q-30 -34 -70 -59q-47 -30 -83 -30q-34 0 -52.5 26t-18.5 63q-30 -44 -49 -60q-28 -23 -67 -23q-24 0 -47.5 11.5t-42.5 33.5t-27.5 47t-8.5 60q0 89 62 163t143 74q32 0 54 -20t28 -54l16 65h94l-74 -297q-3 -14 -3 -24
q0 -12 4.5 -21t15.5 -9q25 0 61 40q17 19 28 35q25 39 39.5 85.5t14.5 91.5q0 48 -21 91.5t-57 78.5q-75 71 -178 71q-128 0 -213 -88t-85 -227q0 -143 90 -230q87 -84 220 -84q68 0 127.5 38t98.5 102h64q-43 -92 -124.5 -146.5t-176.5 -54.5q-149 0 -251 102
q-105 105 -105 266q0 163 99.5 273.5t249.5 110.5q116 0 208 -76q105 -84 105 -225zM439 434q0 29 -10 49q-13 26 -37 26q-51 0 -91 -95q-35 -82 -35 -145q0 -33 9 -54q13 -30 41 -30t56 36q19 24 35 62q12 31 22 74.5t10 76.5z" />
    <glyph glyph-name="A" unicode="A" horiz-adv-x="722" 
d="M731 0h-307v45q21 0 41 0.5t43 5.5q8 1 14.5 7.5t6.5 14.5l-4 17l-59 145h-270l-20 -50q-7 -21 -10 -31q-9 -25 -9 -26q-3 -11 -3 -26q0 -36 36 -49q22 -8 66 -8v-45h-264v45q40 0 64.5 19.5t39.5 58.5l242 614h39l265 -648q13 -31 34 -39q14 -5 55 -5v-45zM447 286
l-118 294l-114 -294h232z" />
    <glyph glyph-name="B" unicode="B" horiz-adv-x="722" 
d="M670 199q0 -32 -9.5 -62.5t-28.5 -52.5q-22 -26 -40 -37t-54 -25q-12 -5 -32.5 -9t-30.5 -6q-45 -6 -91 -6l-42 -1h-312v45h21q18 0 32.5 1t31.5 5t24 24q2 8 2 22.5v21.5v508l-1 15q0 22 -27 31q-14 0 -47.5 2t-35.5 2v45h362q65 0 100.5 -9t62.5 -26q36 -24 57.5 -59
t21.5 -77q0 -76 -49.5 -120.5t-127.5 -53.5q89 -8 145 -47q68 -48 68 -131zM520 538q0 39 -13 69q-16 36 -46 52q-23 12 -58 15.5t-74 3.5q-14 0 -26.5 -0.5t-27.5 -3.5q-11 -6 -15.5 -13t-7.5 -13q-1 -9 -1.5 -19.5t-0.5 -16.5v-216l42 -1h18q53 0 85 3t57 14q37 17 54 51
q14 29 14 75zM550 192q0 100 -63 134q-46 25 -155 25l-82 -3v-233q0 -53 15 -63q10 -7 70 -7q58 0 82 3q48 6 76.5 23t42.5 51t14 70z" />
    <glyph glyph-name="C" unicode="C" horiz-adv-x="722" 
d="M668 246q-18 -124 -91 -192.5t-196 -68.5q-147 0 -241.5 105.5t-94.5 253.5q0 78 21 145t67 122q50 61 108 92q64 34 139 34q54 0 99.5 -16.5t81.5 -52.5l41 63h37l14 -289l-43 -2q-9 31 -14 49.5t-15 42.5q-19 46 -29 63q-17 28 -46 52q-54 45 -125 45
q-58 0 -103.5 -32.5t-67 -86.5t-28.5 -106.5t-7 -123.5q0 -137 41 -213q54 -100 180 -100q98 0 157 64q53 58 69 160z" />
    <glyph glyph-name="D" unicode="D" horiz-adv-x="778" 
d="M732 352q0 -104 -45 -190q-50 -96 -139 -132q-51 -20 -89 -25t-106 -5h-324v45h32l55 2q5 1 15 7q6 10 8.5 21.5t2.5 27.5q-1 17 -1 25v456q1 20 1 31q0 15 -2 27.5t-9 22.5q-9 6 -14 7.5t-17 1.5l-69 3v45h330q127 0 198 -33q87 -41 135 -145q21 -47 29.5 -92t8.5 -100z
M603 367q0 54 -7 102q-10 71 -31 109q-26 49 -82 74q-29 14 -64.5 19.5t-76.5 5.5q-20 0 -42.5 -0.5t-31.5 -4t-12 -8.5t-4.5 -13t-1.5 -20v-17v-528q0 -18 3.5 -25t18.5 -12q5 -2 22.5 -3t29.5 -1h30h11q25 0 45.5 1t37.5 5q39 7 62.5 25t46.5 54q28 45 39 114q7 46 7 123z
" />
    <glyph glyph-name="E" unicode="E" horiz-adv-x="722" 
d="M663 265l-19 -265h-615v45h30q34 0 47 3q27 6 32 29q2 14 2 43v484l-1 43q-2 14 -9.5 19.5t-30 8t-49.5 2.5h-19v45h602l14 -256h-42q-24 139 -75 177q-45 34 -187 34h-34t-36 -3l-10 -5q-9 -5 -11.5 -13.5t-2.5 -21.5v-13v-224q90 0 126 25q43 30 43 112h45v-329h-45
l-1 13q0 46 -18 80q-22 41 -64 49q-14 3 -36.5 4t-42.5 1h-7v-269q0 -8 1.5 -12t8.5 -13q9 -6 19 -7.5t27 -1.5q11 -2 31 -3t33 -1h20q15 0 30.5 1t31.5 4q75 7 113 56q29 37 49 121q4 20 9 40z" />
    <glyph glyph-name="F" unicode="F" horiz-adv-x="667" 
d="M638 466l-42 -3q-6 40 -12 64t-19 54q-22 51 -61 73.5t-150 22.5l-69 -2q-22 0 -29 -9t-7 -29v-25v-216q91 0 126 24q43 29 43 112h44v-327h-44l-1 9q0 39 -12 68q-15 37 -45 53q-16 8 -38 11.5t-45 3.5h-28v-264q0 -19 9 -27q3 -3 8.5 -5t14.5 -4.5t26.5 -3.5t66.5 -1
v-45h-345v45h21q18 0 32.5 1t27.5 4t18 9q9 7 10.5 16.5t1.5 27.5v519q0 17 -2 25l-8 17q-8 7 -21.5 9t-26.5 2l-51 2v45h593z" />
    <glyph glyph-name="G" unicode="G" horiz-adv-x="778" 
d="M772 283q-20 0 -38.5 -0.5t-36.5 -4.5t-23.5 -8.5t-9.5 -29.5v-255h-37l-38 93q-39 -46 -96 -69.5t-120 -23.5q-70 0 -132.5 28.5t-109 79.5t-68 115t-21.5 135q0 81 23 151t74 124q55 60 110 88q60 31 137 31q57 0 103 -16.5t84 -54.5l39 65h37l15 -281l-42 -2
q-29 110 -76 168q-62 76 -163 76q-117 0 -172 -114q-41 -86 -41 -219q0 -69 7.5 -120.5t32 -101t71.5 -78.5t105 -29q35 0 63 8.5t54 27.5q30 23 41 44.5t17 61.5q2 10 2 21.5v16.5q0 30 -2 39q-5 23 -23.5 27.5t-35.5 5.5t-40 1h-11v45h321v-45z" />
    <glyph glyph-name="H" unicode="H" horiz-adv-x="833" 
d="M804 677q-23 0 -46 -0.5t-44.5 -4t-21.5 -22.5v-572q0 -10 7.5 -17t21.5 -10.5t27.5 -4.5t53.5 -1v-45h-331v45q7 1 27 1h14q33 0 47 5q23 8 23 30l1 266h-334v-272q0 -22 18 -25t47 -4t45 -1v-45h-330v45q38 0 74.5 7t36.5 26v567q0 20 -22 25.5t-60 5.5q-22 0 -29 1v45
h332v-45q-18 0 -44.5 -1t-39.5 -2.5t-20.5 -11t-7.5 -19.5v-244h334v251q0 17 -14.5 21t-43.5 5t-32 1h-20v45h331v-45z" />
    <glyph glyph-name="I" unicode="I" horiz-adv-x="407" 
d="M369 677h-39t-42 -3q-19 -5 -28 -23q-2 -8 -2 -18v-15v-520q0 -21 2 -26t3.5 -8t5.5 -6q9 -7 24.5 -10t29.5 -3q19 1 28 1q11 0 16 -1v-45h-329v45h20q22 0 39 1t26 5q18 7 22 16.5t4 33.5v522q0 16 -1.5 24.5t-9.5 17.5q-11 7 -22 9.5t-29 2.5q-9 0 -18 -0.5t-18 -0.5
q-8 0 -12 1v45h330v-45z" />
    <glyph glyph-name="J" unicode="J" 
d="M537 677l-67 -2q-27 0 -34 -14t-7 -45v-380q0 -76 -12.5 -116.5t-36.5 -68.5q-30 -34 -76.5 -50t-98.5 -16q-87 0 -140 42q-60 47 -60 132q0 46 25.5 81.5t70.5 35.5q33 0 54.5 -19.5t21.5 -52.5q0 -31 -17 -51t-48 -20q-8 0 -21.5 2.5t-16.5 2.5l-8 -2l-6 -6
q-2 -6 -2 -10q0 -13 12 -30.5t24 -26.5q18 -17 42.5 -25t50.5 -8q96 0 121 90q7 25 9.5 69t2.5 85v338v17q0 12 -2 18q-5 21 -26 27q-33 3 -66 3h-22v45h333v-45z" />
    <glyph glyph-name="K" unicode="K" horiz-adv-x="778" 
d="M803 0h-340v45h34q18 0 30.5 1.5t21.5 4t11.5 5t4 6t1.5 6.5q0 8 -8 21q-2 4 -13 19l-179 262l-117 -121v-110v-38.5t2 -30.5l9 -14l13 -7l18 -2l68 -2v-45h-329v45h21h39q16 3 23 4q16 6 21 12t5 14l1 30v514v12q0 6 -2 20q-5 14 -13 18t-26 5.5t-30.5 2t-21.5 0.5h-17
v45h329v-45q-22 0 -42.5 -0.5t-43.5 -3.5l-15 -9q-5 -7 -7 -18.5t-2 -22.5v-14v-288l256 259q21 25 25 31q16 22 16 35q0 11 -9.5 19.5t-21.5 8.5l-60 3v45h308v-45q-53 0 -98 -24q-38 -20 -81 -64l-142 -141l239 -346q7 -10 11.5 -17t10.5 -12q13 -19 38 -24q26 -2 38 -3
t24 -1v-45z" />
    <glyph glyph-name="L" unicode="L" horiz-adv-x="667" 
d="M646 272l-21 -272h-590v45l71 3q24 0 32 17q5 11 5 40v532q0 17 -7 25q-9 7 -13 10q-16 3 -41 4t-47 1v45h330v-45l-63 -1q-13 0 -21.5 -1.5t-16.5 -7.5q-4 -2 -9 -15q-1 -4 -2 -11.5t-1 -20.5v-508q0 -26 3.5 -41t19.5 -21q15 -3 40 -4t47 -1q48 0 83.5 5t65 23t47.5 51
q10 18 25 63t21 87z" />
    <glyph glyph-name="M" unicode="M" horiz-adv-x="944" 
d="M913 677q-22 0 -42.5 -0.5t-45.5 -4.5q-13 -5 -17 -17t-5 -23.5t-1 -27.5v-17v-499q0 -18 5 -26t21.5 -11t37 -4.5t45.5 -1.5v-45h-329v45h18h16q10 2 15 2q40 0 51 9.5t11 48.5v564l-228 -669h-37l-241 671l-1 -485q0 -78 18 -105q24 -36 99 -36v-45h-281v45q29 0 54 8
q33 11 44 34t14.5 49.5t3.5 62.5v431q-2 21 -5 28t-18 16q-6 2 -17.5 2t-18.5 1h-55v45h257l195 -541l185 541h252v-45z" />
    <glyph glyph-name="N" unicode="N" horiz-adv-x="815" 
d="M794 677q-70 0 -93 -28.5t-23 -99.5v-564h-39l-450 612v-414q0 -46 3.5 -67.5t22.5 -44.5q16 -13 41.5 -19.5t51.5 -6.5v-45h-289v45q17 2 33.5 4.5t34.5 8.5q33 12 44 62q7 31 7 82v442q-13 18 -29.5 25t-40.5 7l-49 1v45h209l399 -539v379q0 64 -24.5 89.5t-89.5 25.5
v45h281v-45z" />
    <glyph glyph-name="O" unicode="O" horiz-adv-x="778" 
d="M733 366q0 -68 -26 -140t-70 -125q-97 -116 -249 -116q-147 0 -247 115q-96 111 -96 260t96 260q101 117 247 117q76 0 137 -28t112 -85q44 -50 70 -120t26 -138zM605 359v16q0 54 -8.5 106.5t-19.5 79.5q-14 36 -46 71q-27 31 -62 45.5t-78 14.5q-47 0 -83.5 -15.5
t-65 -51t-41.5 -72.5q-8 -24 -19 -82q-5 -24 -7 -61t-2 -70q0 -125 44 -206q56 -104 171 -104q123 0 177 111q40 82 40 218z" />
    <glyph glyph-name="P" unicode="P" horiz-adv-x="667" 
d="M649 522q0 -80 -57 -137q-23 -24 -55.5 -38t-70.5 -21q-27 -4 -39.5 -4.5t-19.5 -0.5l-49 -1l-110 2v-199q0 -21 1.5 -37t7.5 -27q2 -4 6 -6t11.5 -4t27 -3t31.5 -1h32v-45h-337v45h32q35 0 45 2q28 6 31 27l3 30v518v15q0 9 -2 14q-6 15 -25.5 20t-47.5 5h-24
q-9 1 -12 1v45h364q30 0 61 -4t60 -13q64 -19 100 -67.5t36 -115.5zM529 523q0 76 -34 114t-108 38q-17 1 -29.5 1.5t-20.5 0.5h-17q-12 0 -23.5 -0.5t-24.5 -4.5l-12 -4q-6 -4 -9 -11.5t-3 -25.5v-264l96 -2q94 0 136 31q49 36 49 127z" />
    <glyph glyph-name="Q" unicode="Q" horiz-adv-x="778" 
d="M748 -31l-1 -14q0 -26 -9.5 -56.5t-27 -48t-41 -28.5t-49.5 -11q-71 0 -106 62q-28 50 -28 126q-5 0 -15 -4q-40 -10 -84 -10q-143 0 -242.5 113t-99.5 258q0 153 95 264q99 117 245 117q150 0 252 -113q45 -51 70.5 -118.5t25.5 -136.5q0 -97 -41.5 -184t-117.5 -143
l15 -40q15 -44 23 -60q17 -38 37 -50l18 -3l16 7q13 14 18 38q1 4 5 43h42v-8zM604 333v32v12q0 20 -1 40.5t-4 45t-10 54t-20 59.5q-24 56 -69.5 86t-106.5 30q-35 0 -62.5 -7t-49.5 -23t-40.5 -38t-30.5 -46q-17 -36 -26.5 -100.5t-9.5 -115.5q0 -75 12 -136
q16 -81 51 -124q-2 18 -2 26q0 60 40 98t103 38q67 0 113 -44q43 -41 58 -109q27 45 41 104t14 118zM481 51q0 97 -33 136q-27 32 -79 32q-42 0 -66.5 -29.5t-24.5 -71.5q0 -46 31.5 -67t79.5 -21q39 0 83 16z" />
    <glyph glyph-name="R" unicode="R" horiz-adv-x="722" 
d="M713 159q0 -76 -24 -119q-31 -55 -102 -55q-21 0 -46 11t-36 28q-25 35 -33 82l-7 69q0 88 -34 130q-38 47 -127 47h-56v-249q0 -28 2.5 -37.5t17.5 -13.5t31 -5.5t36 -1.5h21v-45h-330v45q7 1 21 1h22q21 0 34.5 2.5t25.5 11.5q5 4 7 11.5t2 17.5t1 16v513v18
q-2 10 -4 17q-7 17 -22 19.5t-22 2.5l-63 2v45h364q100 0 166 -38q82 -47 82 -140q0 -90 -75 -138q-64 -41 -158 -41q122 -13 154 -136l17 -65q6 -25 13 -51t20 -45q12 -8 23 -8q22 0 32 40q6 24 6 59h41zM520 536q0 61 -22 95q-27 42 -84 42q-18 0 -61.5 2t-47.5 2
q-11 0 -28 -2.5t-20 -6.5q-6 -10 -7.5 -27t-1.5 -23v-219q13 0 41.5 -1t43.5 -1q16 0 35 2t42.5 4.5t47.5 13.5t38 31q10 14 17 40.5t7 47.5z" />
    <glyph glyph-name="S" unicode="S" horiz-adv-x="667" 
d="M590 199q0 -99 -68 -156.5t-177 -57.5q-74 0 -137 30q-39 19 -70 47l-44 -69h-37l-6 281l43 3q20 -112 82 -177q67 -70 169 -70q67 0 112 29q55 35 55 102q0 97 -115 134q-108 29 -215 58q-116 49 -116 176q0 106 71 162q60 47 149 47q57 0 110 -23q44 -19 73 -48l40 63
h36l12 -261h-43q-24 113 -94 173q-59 51 -135 51q-59 0 -101.5 -33.5t-42.5 -86.5q0 -86 116 -120q108 -31 216 -61q117 -56 117 -193z" />
    <glyph glyph-name="T" unicode="T" horiz-adv-x="667" 
d="M648 443h-40q-8 46 -16 77q-11 41 -26 73q-18 39 -52.5 61.5t-77.5 22.5q-21 0 -31.5 -5.5t-14.5 -15.5q-2 -18 -2 -32v-11v-499v-19q0 -18 2.5 -27.5t12.5 -14t24 -6.5t25 -2h29h25v-45h-349v45l74 3q25 0 36 7q7 6 9.5 15.5t2.5 22.5v14v521q0 19 -2 28
q-5 12 -18.5 16.5t-29.5 4.5q-41 0 -71.5 -18.5t-52.5 -54.5q-16 -23 -29 -73q-6 -21 -11 -48l-7 -37h-39l18 276h595z" />
    <glyph glyph-name="U" unicode="U" horiz-adv-x="815" 
d="M799 677q-77 0 -100 -45q-14 -28 -14 -114v-219q0 -101 -14 -147t-46 -84q-37 -44 -97 -65q-52 -18 -118 -18q-38 0 -51 1.5t-46.5 7.5t-64.5 20t-57 38q-34 33 -48.5 65.5t-14.5 77.5v433v12q0 11 -2.5 17t-12 11.5t-26.5 7t-38 1.5h-32v45h334v-45q-46 -3 -73 -5
t-34 -7t-7 -12v-401q0 -75 12.5 -108t38.5 -57q32 -28 67.5 -39t83.5 -11q51 0 96.5 23t70.5 66q12 20 20 51.5t8 56.5v319q0 71 -23 97.5t-94 26.5v45h282v-45z" />
    <glyph glyph-name="V" unicode="V" horiz-adv-x="722" 
d="M731 677q-9 1 -14 1q-41 0 -66 -26q-18 -19 -37 -68l-232 -599h-37l-248 621q-20 49 -35.5 60t-69.5 11v45h311v-45h-44q-28 0 -43 -4.5t-15 -26.5q0 -5 6 -21.5t8 -21.5l179 -456l148 397q12 31 16.5 49t4.5 30q0 35 -36 47q-21 7 -65 7v45h269v-45z" />
    <glyph glyph-name="W" unicode="W" horiz-adv-x="981" 
d="M976 677q-51 0 -76 -36q-15 -21 -33 -83l-171 -573h-40l-164 506l-149 -506h-41l-215 648q-11 31 -21.5 37.5t-45.5 6.5h-14v45h280v-45l-39 1h-16.5t-22.5 -4q-12 -8 -12 -21l8 -29l144 -451l121 401l-30 84q-4 9 -13.5 12.5t-41.5 6.5h-31v45h289v-45q-17 0 -33.5 -0.5
t-35.5 -3.5q-12 -5 -13 -6.5t-6 -15.5q0 -10 1.5 -17t11.5 -35l134 -425l117 398q4 16 7 29t3 21q0 36 -33 48q-19 7 -62 7v45h243v-45z" />
    <glyph glyph-name="X" unicode="X" horiz-adv-x="704" 
d="M716 0h-327v45l63 2q17 0 26 2q8 6 8 16q0 9 -7 21q-1 3 -13 19l-142 204l-102 -142q-11 -17 -22 -33q-13 -23 -13 -37q0 -16 4 -23.5t16 -18.5q10 -6 22.5 -8t25.5 -2h23v-45h-284v45q44 0 74.5 18t58.5 58l168 231l-197 283q-14 20 -15 21q-9 10 -21 14.5t-24 5.5
t-27 1h-17v45h307v-45l-60 -2q-27 0 -27 -13q0 -7 13 -27l134 -193l108 156q11 16 13.5 20t2.5 15q0 31 -29 39q-39 4 -56 5v45h275v-45q-54 0 -86 -21q-26 -17 -61 -66l-139 -191l207 -297q6 -10 13 -19.5t16 -19.5t30 -14q25 -3 36 -4h25v-45z" />
    <glyph glyph-name="Y" unicode="Y" horiz-adv-x="704" 
d="M713 677q-53 0 -84 -24q-25 -20 -54 -72l-159 -284v-190q0 -42 9 -52t51 -10h56v-45h-343v45h30h23q25 0 42 5t20 18.5t3 28v22.5v169l-201 319q-18 30 -22 35q-16 22 -32.5 28.5t-40.5 6.5h-24v45h320v-45h-32h-12t-13 1q-14 0 -25 -2.5t-14 -7.5t-3 -11q0 -7 2.5 -13.5
t6 -12.5t5.5 -9l168 -269l118 210l20 40q4 18 4 28t-3 19q-10 12 -14 15q-18 7 -38 9.5t-46 2.5v45h282v-45z" />
    <glyph glyph-name="Z" unicode="Z" horiz-adv-x="611" 
d="M575 274l-18 -274h-533v39l411 638h-137q-108 0 -149 -52q-27 -34 -55 -157h-41l18 254h496v-38l-413 -639h155q53 0 80.5 6t50.5 19q32 18 50 58q8 17 18 46t14 56l9 47z" />
    <glyph glyph-name="bracketleft" unicode="[" horiz-adv-x="333" 
d="M297 -105l-231 -4v831l229 -2v-30h-156v-768l158 3v-30z" />
    <glyph glyph-name="backslash" unicode="\" horiz-adv-x="606" 
d="M532 0h-86l-372 737h86z" />
    <glyph glyph-name="bracketright" unicode="]" horiz-adv-x="333" 
d="M266 -108l-230 4v30l157 -3v769h-155v29l228 2v-831z" />
    <glyph glyph-name="asciicircum" unicode="^" horiz-adv-x="606" 
d="M554 317h-82l-169 310l-169 -310h-82l212 405h78z" />
    <glyph glyph-name="underscore" unicode="_" horiz-adv-x="500" 
d="M500 -134h-500v61h500v-61z" />
    <glyph glyph-name="grave" unicode="`" horiz-adv-x="333" 
d="M242 528h-41l-144 91q-16 10 -25 18q-15 14 -15 28q0 7 2 12.5t5 10.5l10 8q6 3 20 3q12 0 27 -11q8 -6 23 -21z" />
    <glyph glyph-name="a" unicode="a" 
d="M543 45q-8 -24 -34.5 -39t-54.5 -15q-37 0 -58 18t-31 56q-32 -39 -79.5 -59.5t-100.5 -20.5q-61 0 -99 28q-42 31 -42 91q0 86 121 136q72 30 195 47q1 6 1 17q0 9 -1 27t-1 27q0 42 -33 61q-26 15 -74 15q-29 0 -50.5 -4t-35.5 -17q-7 -7 -7 -13q0 -5 6 -15t11 -21.5
t5 -20.5q0 -24 -15.5 -36.5t-40.5 -12.5q-26 0 -39.5 17.5t-13.5 45.5q0 31 20.5 56.5t51 39.5t60.5 20t63 6q26 0 49.5 -3t46.5 -11q56 -20 74 -58q14 -29 14 -95l-3 -173l1 -43q0 -13 4.5 -24.5t15.5 -16.5q8 -7 21 -7q4 0 12 2l28 10q13 -3 13 -15zM360 203v44
q-111 -21 -138 -32q-80 -32 -80 -102q0 -35 24.5 -56.5t59.5 -21.5q31 0 61 16t49 41q14 19 19 40.5t5 50.5v20z" />
    <glyph glyph-name="b" unicode="b" 
d="M520 238q0 -53 -13.5 -97.5t-44 -79.5t-71 -55.5t-84.5 -20.5q-98 0 -153 81l-49 -81h-37q14 50 14 112l3 60v481q0 31 -8 39t-33 8h-22h-14v42l169 10v-341q19 38 56.5 60.5t81.5 22.5q49 0 97 -28q54 -32 81 -88.5t27 -124.5zM418 222q0 111 -35 162q-31 45 -86 45
q-71 0 -102 -74q-22 -52 -22 -135q0 -81 28 -131q35 -62 107 -62q60 0 89 69q21 51 21 126z" />
    <glyph glyph-name="c" unicode="c" horiz-adv-x="444" 
d="M426 130q-19 -50 -44 -82q-32 -39 -76 -52q-18 -6 -34.5 -8.5t-33.5 -2.5q-91 0 -147.5 69t-56.5 162q0 117 56 187q61 76 175 76q33 0 59 -9t51 -30q17 -14 28 -33.5t11 -39.5q0 -31 -14 -51.5t-45 -20.5q-25 0 -42.5 14.5t-17.5 40.5q0 13 5 23q1 3 13 19l9 15
q0 15 -21.5 23.5t-36.5 8.5q-67 0 -101 -69q-27 -55 -27 -130q0 -84 26 -132q34 -63 111 -63q43 0 74 30q26 25 43 70z" />
    <glyph glyph-name="d" unicode="d" horiz-adv-x="574" 
d="M554 0l-173 -10v87q-6 -12 -8 -17q-5 -10 -11 -16q-18 -30 -49.5 -44.5t-69.5 -14.5q-47 0 -82.5 18.5t-67.5 56.5q-25 30 -37.5 74.5t-12.5 91.5q0 49 11.5 93t38 79.5t66.5 58t83 22.5q45 0 80.5 -19.5t58.5 -57.5v243q0 12 -1 16.5t-8 13.5q-7 5 -16 7t-32 2l-45 1v42
l194 10v-643q0 -35 11.5 -43t49.5 -8l20 -1v-42zM381 228q0 50 -6 82t-17 51q-15 30 -37 46q-26 19 -58 19q-66 0 -96 -68q-22 -50 -22 -127q0 -44 3.5 -72t17.5 -58t37.5 -46.5t57.5 -16.5q65 0 96 65q24 50 24 125z" />
    <glyph glyph-name="e" unicode="e" horiz-adv-x="500" 
d="M465 124q-32 -69 -81 -104t-122 -35q-50 0 -93.5 16.5t-75.5 52.5t-45 76.5t-13 94.5q0 103 60 176q64 78 164 78q54 0 96 -26.5t71 -74.5q13 -21 21 -53q5 -20 12 -57q3 -14 4 -21t1 -22h-327q0 -79 31 -129q37 -60 111 -60q43 0 73.5 16.5t56.5 52.5l12 21l10 17z
M359 303q0 55 -23 92q-27 44 -80 44q-60 0 -92 -60q-25 -47 -25 -113h168h12q23 0 31.5 6t8.5 31z" />
    <glyph glyph-name="f" unicode="f" horiz-adv-x="333" 
d="M433 643q0 -25 -15 -42t-41 -17q-22 0 -38 15t-16 36q0 12 6 24l5 9l5 8v8l-7 8q-12 6 -28 6q-15 0 -24 -4q-45 -11 -65 -70q-15 -43 -15 -100l-1 -60h110v-44h-110v-326q0 -43 5.5 -51t38.5 -8h26h26v-35h-270v35h26q18 1 31.5 2.5t19.5 9.5q5 15 5 38v23v312h-88v44h87
q0 122 37 188q48 85 160 85q52 0 87 -21q43 -26 43 -73z" />
    <glyph glyph-name="g" unicode="g" horiz-adv-x="537" 
d="M542 440q0 -22 -13 -35t-33 -13q-11 0 -19 4q-17 7 -22 23l-4 18q-4 6 -16 4l-13 -8l-17 -17q20 -17 28.5 -42t8.5 -55q0 -45 -19 -80t-58 -57q-32 -17 -70 -22t-87 -5q-42 0 -60 -5q-37 -10 -37 -39q0 -37 37 -37l84 -2l59 -1l81 -3q49 0 80.5 -31.5t31.5 -81.5
q0 -86 -75 -127q-60 -33 -153 -33q-92 0 -144 15q-89 26 -89 94q0 17 10 32.5t27 30.5q10 7 23.5 13t29.5 11l9 3q-75 13 -75 89q0 40 26 64q21 19 63 32l9 3q-87 37 -87 137q0 76 62 122q26 19 61.5 28.5t70.5 9.5q37 0 69 -8.5t59 -29.5q25 24 44 36q27 17 53 17
q25 0 45 -14.5t20 -39.5zM353 315q0 59 -21 89q-25 36 -81 36q-50 0 -77 -35.5t-27 -87.5q0 -56 25.5 -91t79.5 -35q50 0 77 38q24 34 24 86zM416 -77q0 32 -23 49t-55 17l-57 3q-26 0 -66.5 -2.5t-46.5 -2.5q-30 -14 -45 -31q-19 -22 -19 -52q0 -25 22 -42
q18 -14 43.5 -19.5t57 -6.5t37.5 -1q26 0 52 5t47.5 14.5t37 28t15.5 40.5z" />
    <glyph glyph-name="h" unicode="h" horiz-adv-x="611" 
d="M593 0h-254v35h26l40 4q9 0 12.5 13t3.5 31v15v188v12q0 24 -3.5 43.5t-14.5 35.5q-27 40 -74 40q-75 0 -111 -67q-17 -31 -20 -75t-4 -56v-116q0 -15 0.5 -29.5t6.5 -30.5q6 -4 21 -6l52 -2v-35h-252v35h21l37 3l14 5q10 9 10 31v15v552q0 23 -3 29q-6 12 -25 12l-61 3
v42l181 10v-357q21 44 65.5 71.5t93.5 27.5q41 0 74.5 -15.5t54.5 -48.5q18 -26 23.5 -59t5.5 -73v-188v-25q0 -18 2 -23.5t7 -7t16 -2.5l55 -2v-35z" />
    <glyph glyph-name="i" unicode="i" horiz-adv-x="315" 
d="M213 657q0 -23 -18 -41t-42 -18q-23 0 -40.5 18.5t-17.5 42.5q0 23 18 40t41 17q24 0 41.5 -17.5t17.5 -41.5zM289 0h-263v35h27q17 2 30.5 3t21.5 5q5 11 6.5 22.5t1.5 28.5v18v230v14q0 10 -0.5 20t-4.5 22q-4 7 -14.5 9t-15.5 3l-60 2v42l187 10v-384v-15q0 -16 5 -22
t24 -6q8 0 26.5 -1t28.5 -1v-35z" />
    <glyph glyph-name="j" unicode="j" horiz-adv-x="296" 
d="M218 659q0 -23 -17 -41t-41 -18q-25 0 -42 17t-17 42t16 41t42 16q25 0 42 -16t17 -41zM208 92l-2 -79q0 -36 -7.5 -71t-20.5 -61.5t-36 -46t-52 -29.5t-60 -10q-43 0 -74 18q-38 22 -38 62q0 27 15 43t39 16q13 0 28 -6q26 -11 26 -41q0 -7 -1 -10q-4 -9 -7.5 -17
t-2.5 -14q7 -12 26 -12q7 1 13.5 2.5t16.5 5.5q23 14 33 44t10 63q0 19 1 58t1 58v278v15v13q-2 9 -2 13q-5 18 -22.5 23t-47.5 5h-30v42l194 10v-372z" />
    <glyph glyph-name="k" unicode="k" horiz-adv-x="593" 
d="M587 0h-264v35l53 3l9 4q4 4 4 10q0 7 -4 11l-14 19l-112 159l-63 -58v-94v-14q0 -17 3 -26.5t14 -10.5l37 -3h21v-35h-248v35h25l32 2q20 4 23 19l1 33v537v13q0 14 -2.5 23t-12.5 14.5t-33.5 7t-30.5 1.5h-11v42l182 10v-500l140 137q16 15 17 16q8 10 8 22
q0 10 -12.5 13.5t-30.5 3.5h-13h-26v35h262v-35q-9 0 -13 -2q-50 0 -93 -30q-15 -11 -48 -39l-62 -59l130 -178q36 -49 53 -62q31 -24 79 -24v-35z" />
    <glyph glyph-name="l" unicode="l" horiz-adv-x="315" 
d="M287 0h-259v35h17q25 0 49 3q10 4 16 15q2 8 2 22v21v547q0 6 -0.5 13.5t-8.5 18.5q-7 6 -17.5 8t-21.5 2h-19h-26v42l185 10v-668q0 -17 3.5 -23t13.5 -9q11 -1 22.5 -1.5t23.5 -0.5h20v-35z" />
    <glyph glyph-name="m" unicode="m" horiz-adv-x="889" 
d="M868 0h-248v35q24 0 37 2t25.5 3t14.5 25v23v201q0 29 -1 40t-5 27q-8 32 -30.5 48t-45.5 16q-31 0 -56.5 -17t-41.5 -47q-12 -23 -16.5 -55t-4.5 -64v-165q0 -23 8 -29.5t27 -6.5h24l18 -1v-35h-247v35l57 3q10 0 15.5 7t5.5 27v15v202q0 29 -1 40t-5 27q-8 32 -30.5 48
t-45.5 16q-31 0 -56.5 -17t-41.5 -47q-12 -23 -16.5 -55t-4.5 -64v-140l2 -35q2 -20 12.5 -22t21.5 -3t21 -1l20 -1v-35h-251v35l19 1l37 2q16 0 21.5 12.5t5.5 32.5q-1 17 -1 23v236v14q0 10 -0.5 20t-4.5 22q-4 7 -13.5 9t-14.5 3l-55 2v42l177 10v-77q21 40 62 66t87 26
q49 0 86.5 -26.5t47.5 -65.5l3 -10l6 10q31 50 79 74q36 18 71 18q40 0 76 -20q44 -25 58 -72q4 -15 8.5 -30.5t4.5 -31.5v-262q2 -14 6.5 -19.5t16.5 -7t20 -1.5h12h24v-35z" />
    <glyph glyph-name="n" unicode="n" horiz-adv-x="611" 
d="M593 0h-253v35q8 0 25 1t25 1q17 0 24 8q4 7 6 10l1 15v217q0 18 -1 31.5t-4.5 39.5t-30 44t-60.5 18q-31 0 -58.5 -18t-43 -45.5t-19 -53.5t-3.5 -65v-167l2 -17q1 -11 13 -14.5t29 -3.5h18l19 -1v-35h-255v35h25q17 2 29 3t20 5t8 20v279v14q0 10 -0.5 20t-4 19.5
t-12.5 11.5t-14 3l-51 2v42l172 10v-85q33 57 78 81q35 19 77 19q41 0 78 -20q49 -27 68 -80q13 -36 13 -95v-215l1 -15q2 -14 18 -16l43 -2l18 -1v-35z" />
    <glyph glyph-name="o" unicode="o" horiz-adv-x="500" 
d="M466 227q0 -104 -57 -171q-60 -71 -162 -71q-97 0 -157 74q-56 69 -56 169q0 56 12.5 94t45.5 80q29 36 68 56.5t85 20.5q102 0 164 -76q57 -70 57 -176zM364 227v19q0 37 -3.5 64t-14.5 56q-14 35 -36.5 54t-58.5 19q-69 0 -97 -76q-18 -50 -18 -136q0 -76 19 -128
q28 -76 91 -76q70 0 99 72q19 48 19 132z" />
    <glyph glyph-name="p" unicode="p" horiz-adv-x="574" 
d="M535 230q0 -95 -51 -166q-57 -79 -148 -79q-43 0 -79 19.5t-58 55.5v-193q0 -23 6 -28t33 -9h46v-35h-254v35l20 1l27 2q15 2 21.5 6t6.5 17l2 36v485q-3 21 -14 27.5t-32 6.5h-14l-19 1v42l168 10l-2 -78q23 43 60.5 68t83.5 25q97 0 156 -93q14 -26 21 -45t11 -35
q9 -36 9 -76zM433 235q0 19 -1 36t-4 38q-8 50 -33 80q-30 36 -77 36q-69 0 -99 -71q-21 -50 -21 -132q0 -35 5.5 -66t20.5 -55q16 -29 39.5 -45.5t54.5 -16.5q65 0 94 69q21 51 21 127z" />
    <glyph glyph-name="q" unicode="q" 
d="M548 -205h-257v35h20q49 0 58 8t9 54v171q-43 -78 -138 -78q-51 0 -87.5 19.5t-69.5 62.5q-24 30 -35.5 72t-11.5 86q0 104 57 176q62 78 163 78q43 0 85 -23.5t62 -61.5l47 70h37q-7 -30 -12 -56.5t-5 -46.5v-479v-31q3 -20 35 -20l43 -1v-35zM379 246q0 75 -23 124
q-31 66 -98 66q-71 0 -100 -72q-20 -50 -20 -134q0 -44 4.5 -72.5t19.5 -58t40 -46t55 -16.5q73 0 102 73q20 50 20 136z" />
    <glyph glyph-name="r" unicode="r" horiz-adv-x="444" 
d="M435 401q0 -29 -15.5 -48.5t-44.5 -19.5q-22 0 -37 16t-15 38t14 41l7 8q-81 -9 -118 -128q-26 -83 -26 -194v-28.5t2.5 -27.5t18 -18.5t34.5 -4.5h18h26v-35h-270v35l36 2q35 0 43 11q5 7 5 48v277q-5 25 -19.5 32t-40.5 7h-12h-20v42l176 10v-142q19 67 54 107
q43 50 105 50q34 0 56.5 -21.5t22.5 -56.5z" />
    <glyph glyph-name="s" unicode="s" horiz-adv-x="463" 
d="M421 138q0 -41 -10.5 -66t-40.5 -51q-20 -17 -51 -26.5t-61 -9.5q-41 0 -75.5 11.5t-63.5 37.5l-35 -44h-33v190h37q18 -71 58 -110q45 -45 115 -45q37 0 66 19q34 22 34 58q0 26 -12.5 41t-37.5 25t-52 16.5t-44 10.5l-42 10q-47 13 -60 20t-27.5 25.5t-21 41t-6.5 48.5
q0 64 40.5 101.5t105.5 37.5q72 0 122 -41l30 37h33v-167h-36q-16 60 -50 93q-39 38 -98 38q-37 0 -62 -17q-30 -21 -30 -56t37 -54q21 -11 67 -20l59 -13q40 -7 61.5 -15.5t44.5 -29.5q39 -38 39 -96z" />
    <glyph glyph-name="t" unicode="t" horiz-adv-x="389" 
d="M374 180q0 -88 -31 -136q-38 -59 -120 -59q-52 0 -87.5 30.5t-35.5 77.5v327h-82v44q72 0 107 69q27 54 27 133h40v-202h149v-44h-149v-299q0 -34 8 -49q15 -28 57 -28t62 49q15 37 15 87h40z" />
    <glyph glyph-name="u" unicode="u" horiz-adv-x="611" 
d="M594 10l-180 -10v78q-25 -42 -66 -67.5t-88 -25.5q-55 0 -97.5 26.5t-50.5 66.5q-5 7 -7 34.5t-2 50.5v215q0 17 -7 23t-17.5 8.5t-23.5 2.5h-14h-20v42l174 10v-286l1 -56q0 -38 24 -57.5t64 -19.5q76 0 109 67q15 32 18 55t3 73v141q-2 15 -5.5 20.5t-15 7t-28 2
t-30.5 1.5h-18v42l189 10v-353q0 -19 1.5 -29t8.5 -17.5t16 -9.5l41 -2h21v-43z" />
    <glyph glyph-name="v" unicode="v" horiz-adv-x="537" 
d="M528 429q-40 0 -67 -38q-12 -17 -37 -74l-136 -332h-32l-165 384q-5 10 -9 19.5t-11 19.5q-12 16 -20 18.5t-31 2.5h-12v35h236v-35h-14h-28q-19 -2 -25 -13q-2 -8 -2 -12q0 -8 8 -24l113 -267l86 220q7 16 11.5 31t4.5 30q0 25 -17 29.5t-32 4.5l-20 1v35h199v-35z" />
    <glyph glyph-name="w" unicode="w" horiz-adv-x="778" 
d="M763 429l-14 -1q-28 -4 -42 -22q-9 -11 -21 -44l-142 -377h-30l-124 322l-119 -322h-31l-157 404q-4 13 -5 15q-4 7 -11 13q-4 5 -13.5 8t-21 3.5t-17.5 0.5v35h219v-35l-20 -1q-20 0 -29 -3q-11 -6 -11 -19q0 -6 4.5 -19t8.5 -24l92 -236l89 240l-6 18l-12 29
q-9 10 -20.5 12.5t-31.5 2.5h-10v35h224v-35l-19 -1h-20.5t-15.5 -2q-13 -9 -13 -20q0 -9 8 -31q3 -9 7 -18l91 -235l79 217q7 19 11 33.5t2 28.5q-3 19 -14 23.5t-34 4.5h-18v35h187v-35z" />
    <glyph glyph-name="x" unicode="x" horiz-adv-x="537" 
d="M529 0h-251v35q16 0 26 1t29 4q4 2 7 9t1 11q-1 4 -10 16q-5 8 -7 11l-76 101l-71 -86q-5 -6 -11 -13.5t-10 -13.5q-3 -8 -3 -13q0 -6 10 -19q8 -5 22 -6t16 -1l19 -1v-35h-211v35q35 0 53 11q10 6 40 38l20 24l98 114l-120 155l-24 30l-22 15q-23 7 -40 7v35h236v-35
h-21q-20 0 -28.5 -3.5t-9.5 -8.5q-1 -9 4 -18q2 -4 13 -16l72 -94l65 79q5 6 9 11q9 12 9 25q0 17 -13.5 21t-34.5 4h-14v35h206v-35q-14 -2 -27 -3q-17 -3 -25.5 -7.5t-17.5 -13.5q-4 -4 -14 -15l-116 -135l120 -160q25 -32 43 -44q24 -16 59 -16v-35z" />
    <glyph glyph-name="y" unicode="y" horiz-adv-x="537" 
d="M531 429q-29 0 -47.5 -13.5t-41.5 -67.5l-124 -306l-33 -72q-45 -98 -96 -140q-43 -35 -94 -35q-40 0 -64 18q-28 21 -28 60q0 25 18 41t43 16q18 0 32.5 -12.5t14.5 -29.5q0 -19 -5 -30l-2 -3q-1 -3 1 -9l5 -4q44 -5 89 62q8 12 56 104l-161 367q-15 35 -29 44.5
t-52 9.5v35h236v-35l-18 -1h-17q-15 0 -23.5 -5t-8.5 -19q0 -5 3 -12t8 -18l108 -255l82 206l10 25q1 2 6.5 17t5.5 20q0 26 -12.5 34t-40.5 8h-18v35h197v-35z" />
    <glyph glyph-name="z" unicode="z" horiz-adv-x="481" 
d="M435 178l-10 -178h-386v37l277 384h-85q-36 0 -58.5 -6t-42.5 -27q-15 -15 -24 -39t-9 -46v-6h-38l9 167h361v-35l-279 -386h110q35 0 59 7q33 10 47 32t22.5 48t8.5 48h38z" />
    <glyph glyph-name="braceleft" unicode="{" horiz-adv-x="333" 
d="M297 -109q-88 0 -120 27q-35 30 -35 118v156q0 52 -13 74q-16 26 -63 39q44 13 60 37.5t16 73.5v172q0 81 40 110q33 24 115 24q-48 -12 -65.5 -39t-17.5 -81v-172q0 -56 -14 -81q-18 -31 -67 -44q50 -13 67 -47q14 -27 14 -86v-162q0 -52 18.5 -80.5t64.5 -38.5z" />
    <glyph glyph-name="bar" unicode="|" horiz-adv-x="606" 
d="M342 0h-78v737h78v-737z" />
    <glyph glyph-name="braceright" unicode="}" horiz-adv-x="333" 
d="M267 305q-48 -13 -62 -36t-14 -77v-156q0 -88 -35 -118q-31 -27 -120 -27q45 9 64 38.5t19 80.5v162q0 60 13 86q17 34 68 47q-49 13 -65 41t-16 84v172q0 52 -18 80t-65 40q83 0 115 -23q40 -29 40 -111v-172q0 -50 15 -74t61 -37z" />
    <glyph glyph-name="asciitilde" unicode="~" horiz-adv-x="606" 
d="M555 282q-27 -49 -57 -76q-39 -35 -85 -35q-28 0 -86 23q-37 16 -49 21q-22 9 -44.5 17t-39.5 8q-41 0 -73 -43q-9 -12 -29 -47l-41 48q30 55 56 80q39 38 87 38q38 0 117 -35t103 -35q30 0 59 28q22 21 40 55z" />
    <glyph glyph-name="c128" horiz-adv-x="814" 
d="M789 200q0 -67 -35.5 -115.5t-100.5 -67.5q-27 -8 -58.5 -12.5t-62.5 -4.5h-375v45l74 3q25 0 36 7q7 6 9.5 15.5t2.5 22.5v14v521q0 19 -2 28q-5 12 -18.5 16.5t-29.5 4.5q-41 0 -71.5 -18.5t-52.5 -54.5q-16 -23 -29 -73q-6 -21 -11 -48l-7 -37h-39l18 276h595l16 -257
h-40q-12 66 -42 128q-18 39 -52.5 61.5t-77.5 22.5q-21 0 -31.5 -5.5t-14.5 -15.5q-2 -18 -2 -32v-11v-213l110 2l49 -1q13 0 34.5 -2.5t24.5 -2.5q42 -8 71.5 -20.5t54.5 -38.5q57 -57 57 -137zM669 199q0 91 -49 127q-42 31 -136 31l-96 -2v-264q0 -15 2 -23t10 -14
q8 -4 12 -4q8 -3 21.5 -4t26.5 -1l67 2q73 0 107.5 38.5t34.5 113.5z" />
    <glyph glyph-name="c128" unicode="&#x402;" horiz-adv-x="814" 
d="M789 200q0 -67 -35.5 -115.5t-100.5 -67.5q-27 -8 -58.5 -12.5t-62.5 -4.5h-375v45l74 3q25 0 36 7q7 6 9.5 15.5t2.5 22.5v14v521q0 19 -2 28q-5 12 -18.5 16.5t-29.5 4.5q-41 0 -71.5 -18.5t-52.5 -54.5q-16 -23 -29 -73q-6 -21 -11 -48l-7 -37h-39l18 276h595l16 -257
h-40q-12 66 -42 128q-18 39 -52.5 61.5t-77.5 22.5q-21 0 -31.5 -5.5t-14.5 -15.5q-2 -18 -2 -32v-11v-213l110 2l49 -1q13 0 34.5 -2.5t24.5 -2.5q42 -8 71.5 -20.5t54.5 -38.5q57 -57 57 -137zM669 199q0 91 -49 127q-42 31 -136 31l-96 -2v-264q0 -15 2 -23t10 -14
q8 -4 12 -4q8 -3 21.5 -4t26.5 -1l67 2q73 0 107.5 38.5t34.5 113.5z" />
    <glyph glyph-name="c129" horiz-adv-x="667" 
d="M638 466l-42 -3q-6 40 -12 64t-19 54q-22 51 -61 73.5t-150 22.5l-69 -2q-22 0 -29 -9t-7 -29v-25v-526q0 -11 1 -16t8 -11q3 -3 8.5 -5t14.5 -4.5t26.5 -3.5t66.5 -1v-45h-345v45h21q18 0 32.5 1t27.5 4t18 9q9 7 10.5 16.5t1.5 27.5v519q0 17 -2 25l-8 17q-8 7 -21.5 9
t-26.5 2l-51 2v45h593zM317 786h-41l138 139l12 12q11 10 22 15q6 5 20 5q34 0 34 -32q0 -11 -7 -20t-15.5 -15.5t-18.5 -12.5z" />
    <glyph glyph-name="c129" unicode="&#x403;" horiz-adv-x="667" 
d="M638 466l-42 -3q-6 40 -12 64t-19 54q-22 51 -61 73.5t-150 22.5l-69 -2q-22 0 -29 -9t-7 -29v-25v-526q0 -11 1 -16t8 -11q3 -3 8.5 -5t14.5 -4.5t26.5 -3.5t66.5 -1v-45h-345v45h21q18 0 32.5 1t27.5 4t18 9q9 7 10.5 16.5t1.5 27.5v519q0 17 -2 25l-8 17q-8 7 -21.5 9
t-26.5 2l-51 2v45h593zM317 786h-41l138 139l12 12q11 10 22 15q6 5 20 5q34 0 34 -32q0 -11 -7 -20t-15.5 -15.5t-18.5 -12.5z" />
    <glyph glyph-name="c141" horiz-adv-x="778" 
d="M793 0h-330v45h34q18 0 30.5 1.5t21.5 4t11.5 5t4 6t1.5 6.5q0 8 -8 21q-2 4 -13 19l-179 262l-117 -121v-110v-38.5t2 -30.5l9 -14l13 -7l18 -2l68 -2v-45h-329v45h21h39q16 3 23 4q16 6 21 12t5 14l1 30v514v12q0 6 -2 20q-5 14 -13 18t-26 5.5t-30.5 2t-21.5 0.5h-17
v45h329v-45q-22 0 -42.5 -0.5t-43.5 -3.5l-15 -9q-5 -7 -7 -18.5t-2 -22.5v-14v-288l256 259q21 25 25 31q16 22 16 35q0 11 -9.5 19.5t-21.5 8.5l-60 3v45h308v-45q-53 0 -98 -24q-38 -20 -81 -64l-142 -141l239 -346q7 -10 11.5 -17t10.5 -12q13 -19 35 -23t30 -4.5
t25 -0.5v-45zM355 786h-41l138 139l12 12q11 10 22 15q6 5 20 5q34 0 34 -32q0 -11 -7 -20t-15.5 -15.5t-18.5 -12.5z" />
    <glyph glyph-name="c141" unicode="&#x40c;" horiz-adv-x="778" 
d="M793 0h-330v45h34q18 0 30.5 1.5t21.5 4t11.5 5t4 6t1.5 6.5q0 8 -8 21q-2 4 -13 19l-179 262l-117 -121v-110v-38.5t2 -30.5l9 -14l13 -7l18 -2l68 -2v-45h-329v45h21h39q16 3 23 4q16 6 21 12t5 14l1 30v514v12q0 6 -2 20q-5 14 -13 18t-26 5.5t-30.5 2t-21.5 0.5h-17
v45h329v-45q-22 0 -42.5 -0.5t-43.5 -3.5l-15 -9q-5 -7 -7 -18.5t-2 -22.5v-14v-288l256 259q21 25 25 31q16 22 16 35q0 11 -9.5 19.5t-21.5 8.5l-60 3v45h308v-45q-53 0 -98 -24q-38 -20 -81 -64l-142 -141l239 -346q7 -10 11.5 -17t10.5 -12q13 -19 35 -23t30 -4.5
t25 -0.5v-45zM355 786h-41l138 139l12 12q11 10 22 15q6 5 20 5q34 0 34 -32q0 -11 -7 -20t-15.5 -15.5t-18.5 -12.5z" />
    <glyph glyph-name="c142" horiz-adv-x="943" 
d="M928 0h-331v45q56 0 71 2q40 5 40 43v181q0 52 -33 73.5t-92 21.5q-51 0 -99 -16.5t-96 -47.5v-188v-19q0 -18 2.5 -27.5t12.5 -14t24 -6.5t25 -2h29h25v-45h-349v45l74 3q25 0 36 7q7 6 9.5 15.5t2.5 22.5v14v521q0 19 -2 28q-5 12 -18.5 16.5t-29.5 4.5
q-41 0 -71.5 -18.5t-52.5 -54.5q-16 -23 -29 -73q-6 -21 -11 -48l-7 -37h-39l18 276h595l16 -257h-40q-12 66 -42 128q-18 39 -52.5 61.5t-77.5 22.5q-21 0 -31.5 -5.5t-14.5 -15.5q-2 -18 -2 -32v-11v-257q50 29 108 48q68 22 126 22q80 0 132 -34q63 -41 63 -121v-181
q0 -38 38 -43q14 -2 73 -2v-45z" />
    <glyph glyph-name="c142" unicode="&#x40b;" horiz-adv-x="943" 
d="M928 0h-331v45q56 0 71 2q40 5 40 43v181q0 52 -33 73.5t-92 21.5q-51 0 -99 -16.5t-96 -47.5v-188v-19q0 -18 2.5 -27.5t12.5 -14t24 -6.5t25 -2h29h25v-45h-349v45l74 3q25 0 36 7q7 6 9.5 15.5t2.5 22.5v14v521q0 19 -2 28q-5 12 -18.5 16.5t-29.5 4.5
q-41 0 -71.5 -18.5t-52.5 -54.5q-16 -23 -29 -73q-6 -21 -11 -48l-7 -37h-39l18 276h595l16 -257h-40q-12 66 -42 128q-18 39 -52.5 61.5t-77.5 22.5q-21 0 -31.5 -5.5t-14.5 -15.5q-2 -18 -2 -32v-11v-257q50 29 108 48q68 22 126 22q80 0 132 -34q63 -41 63 -121v-181
q0 -38 38 -43q14 -2 73 -2v-45z" />
    <glyph glyph-name="c143" horiz-adv-x="833" 
d="M804 45l-1 -47l-332 1v-193h-109v193l-334 1l1 45q56 0 71 2q40 5 40 43v542q0 38 -26 41.5t-85 3.5v45h331v-45q-56 0 -83.5 -3.5t-27.5 -41.5v-542q0 -38 38 -43q14 -2 73 -2h113q56 0 71 2q40 5 40 43v542q0 38 -26 41.5t-85 3.5v45h331v-45q-56 0 -83.5 -3.5
t-27.5 -41.5v-542q0 -38 38 -43q14 -2 73 -2z" />
    <glyph glyph-name="c143" unicode="&#x40f;" horiz-adv-x="833" 
d="M804 45l-1 -47l-332 1v-193h-109v193l-334 1l1 45q56 0 71 2q40 5 40 43v542q0 38 -26 41.5t-85 3.5v45h331v-45q-56 0 -83.5 -3.5t-27.5 -41.5v-542q0 -38 38 -43q14 -2 73 -2h113q56 0 71 2q40 5 40 43v542q0 38 -26 41.5t-85 3.5v45h331v-45q-56 0 -83.5 -3.5
t-27.5 -41.5v-542q0 -38 38 -43q14 -2 73 -2z" />
    <glyph glyph-name="c144" horiz-adv-x="611" 
d="M513 95l-2 -82q0 -36 -7.5 -71t-20.5 -61.5t-36 -46t-52 -29.5t-60 -10q-43 0 -74 18q-38 22 -38 62q0 27 15 43t39 16q13 0 28 -6q26 -11 26 -41q0 -7 -1 -10q-4 -9 -7.5 -17t-2.5 -14q7 -12 26 -12q7 1 13.5 2.5t16.5 5.5q23 14 33 44t10 63q0 19 1 58t1 58v221v12
q0 24 -3.5 43.5t-14.5 35.5q-27 40 -74 40q-75 0 -111 -67q-17 -31 -20 -75t-4 -56v-116q0 -15 0.5 -29.5t6.5 -30.5q6 -4 21 -6l52 -2v-35h-252v35h21l37 3l14 5q10 9 10 31v15v479h-86v44h86v29q0 23 -3 29q-6 12 -25 12l-61 3v42l181 10v-125h217v-44h-217v-188
q21 44 65.5 71.5t93.5 27.5q41 0 74.5 -15.5t54.5 -48.5q18 -26 23.5 -59t5.5 -73v-188z" />
    <glyph glyph-name="c144" unicode="&#x452;" horiz-adv-x="611" 
d="M513 95l-2 -82q0 -36 -7.5 -71t-20.5 -61.5t-36 -46t-52 -29.5t-60 -10q-43 0 -74 18q-38 22 -38 62q0 27 15 43t39 16q13 0 28 -6q26 -11 26 -41q0 -7 -1 -10q-4 -9 -7.5 -17t-2.5 -14q7 -12 26 -12q7 1 13.5 2.5t16.5 5.5q23 14 33 44t10 63q0 19 1 58t1 58v221v12
q0 24 -3.5 43.5t-14.5 35.5q-27 40 -74 40q-75 0 -111 -67q-17 -31 -20 -75t-4 -56v-116q0 -15 0.5 -29.5t6.5 -30.5q6 -4 21 -6l52 -2v-35h-252v35h21l37 3l14 5q10 9 10 31v15v479h-86v44h86v29q0 23 -3 29q-6 12 -25 12l-61 3v42l181 10v-125h217v-44h-217v-188
q21 44 65.5 71.5t93.5 27.5q41 0 74.5 -15.5t54.5 -48.5q18 -26 23.5 -59t5.5 -73v-188z" />
    <glyph glyph-name="c157" horiz-adv-x="592" 
d="M588 0h-259v35q55 0 55 18q0 9 -13 25l-122 149l-47 -44v-113q0 -24 13.5 -29.5t61.5 -5.5v-35h-247v35q47 0 54 1q26 4 26 34v324q0 24 -14 29.5t-66 5.5v35h247v-35q-43 0 -59 -2.5t-16 -32.5v-157l152 137q27 26 27 39q0 11 -15 13.5t-43 2.5v35h236v-35
q-39 0 -75.5 -17t-78.5 -54l-80 -73l131 -168q35 -41 60 -59q33 -23 72 -23v-35zM271 528h-41l138 139l12 12q11 10 22 15q6 5 20 5q34 0 34 -32q0 -11 -7 -20t-15.5 -15.5t-18.5 -12.5z" />
    <glyph glyph-name="c157" unicode="&#x45c;" horiz-adv-x="592" 
d="M588 0h-259v35q55 0 55 18q0 9 -13 25l-122 149l-47 -44v-113q0 -24 13.5 -29.5t61.5 -5.5v-35h-247v35q47 0 54 1q26 4 26 34v324q0 24 -14 29.5t-66 5.5v35h247v-35q-43 0 -59 -2.5t-16 -32.5v-157l152 137q27 26 27 39q0 11 -15 13.5t-43 2.5v35h236v-35
q-39 0 -75.5 -17t-78.5 -54l-80 -73l131 -168q35 -41 60 -59q33 -23 72 -23v-35zM271 528h-41l138 139l12 12q11 10 22 15q6 5 20 5q34 0 34 -32q0 -11 -7 -20t-15.5 -15.5t-18.5 -12.5z" />
    <glyph glyph-name="c158" horiz-adv-x="611" 
d="M593 0h-254v35h26l40 4q9 0 12.5 13t3.5 31v15v188v12q0 24 -3.5 43.5t-14.5 35.5q-27 40 -74 40q-75 0 -111 -67q-17 -31 -20 -75t-4 -56v-116q0 -15 0.5 -29.5t6.5 -30.5q6 -4 21 -6l52 -2v-35h-252v35h21l37 3l14 5q10 9 10 31v15v479h-86v44h86v29q0 23 -3 29
q-6 12 -25 12l-61 3v42l181 10v-125h217v-44h-217v-188q21 44 65.5 71.5t93.5 27.5q41 0 74.5 -15.5t54.5 -48.5q18 -26 23.5 -59t5.5 -73v-188v-25q0 -18 2 -23.5t7 -7t16 -2.5l55 -2v-35z" />
    <glyph glyph-name="c158" unicode="&#x45b;" horiz-adv-x="611" 
d="M593 0h-254v35h26l40 4q9 0 12.5 13t3.5 31v15v188v12q0 24 -3.5 43.5t-14.5 35.5q-27 40 -74 40q-75 0 -111 -67q-17 -31 -20 -75t-4 -56v-116q0 -15 0.5 -29.5t6.5 -30.5q6 -4 21 -6l52 -2v-35h-252v35h21l37 3l14 5q10 9 10 31v15v479h-86v44h86v29q0 23 -3 29
q-6 12 -25 12l-61 3v42l181 10v-125h217v-44h-217v-188q21 44 65.5 71.5t93.5 27.5q41 0 74.5 -15.5t54.5 -48.5q18 -26 23.5 -59t5.5 -73v-188v-25q0 -18 2 -23.5t7 -7t16 -2.5l55 -2v-35z" />
    <glyph glyph-name="nonbreakingspace" unicode="&#xa0;" horiz-adv-x="278" 
 />
    <glyph glyph-name="exclamdown" unicode="&#xa1;" horiz-adv-x="722" 
d="M526 921q0 -69 -35 -111q-38 -46 -109 -46q-66 0 -102.5 44.5t-36.5 112.5h31q16 -97 114 -97q44 0 71 26t37 71h30zM738 677q-55 0 -84.5 -22t-53.5 -74l-186 -398q-46 -99 -82 -141q-49 -57 -113 -57q-63 0 -99 42q-31 37 -31 87q0 44 23.5 73.5t62.5 29.5
q32 0 50.5 -19.5t18.5 -49.5q0 -36 -45 -65q-22 -14 -22 -28q0 -10 11.5 -17.5t30.5 -7.5q38 0 70.5 35.5t70.5 117.5l-249 424q-30 50 -48.5 60t-70.5 10v45h320v-45h-42q-23 0 -28 -1q-24 -5 -24 -25q0 -13 11 -32l186 -316l118 260q11 23 15 33q11 26 11 42
q0 20 -21.5 29.5t-71.5 9.5v45h272v-45z" />
    <glyph glyph-name="exclamdown" unicode="&#x40e;" horiz-adv-x="722" 
d="M526 921q0 -69 -35 -111q-38 -46 -109 -46q-66 0 -102.5 44.5t-36.5 112.5h31q16 -97 114 -97q44 0 71 26t37 71h30zM738 677q-55 0 -84.5 -22t-53.5 -74l-186 -398q-46 -99 -82 -141q-49 -57 -113 -57q-63 0 -99 42q-31 37 -31 87q0 44 23.5 73.5t62.5 29.5
q32 0 50.5 -19.5t18.5 -49.5q0 -36 -45 -65q-22 -14 -22 -28q0 -10 11.5 -17.5t30.5 -7.5q38 0 70.5 35.5t70.5 117.5l-249 424q-30 50 -48.5 60t-70.5 10v45h320v-45h-42q-23 0 -28 -1q-24 -5 -24 -25q0 -13 11 -32l186 -316l118 260q11 23 15 33q11 26 11 42
q0 20 -21.5 29.5t-71.5 9.5v45h272v-45z" />
    <glyph glyph-name="cent" unicode="&#xa2;" horiz-adv-x="537" 
d="M438 677q0 -69 -35 -111q-38 -46 -109 -46q-66 0 -102.5 44.5t-36.5 112.5h31q16 -97 114 -97q44 0 71 26t37 71h30zM531 429q-37 0 -58 -23q-14 -16 -31 -58l-141 -378q-65 -176 -159 -176q-36 0 -59.5 20.5t-23.5 57.5q0 26 17.5 43.5t43.5 17.5q22 0 37 -14t15 -35
q0 -5 -3.5 -15.5t-3.5 -13.5q0 -6 7 -6q34 0 93 159l-171 367q-16 35 -29.5 44.5t-51.5 9.5v35h236v-35q-39 0 -53 -3.5t-14 -16.5q0 -11 16 -46l113 -244l72 206q20 55 20 75q0 17 -15 23t-54 6v35h197v-35z" />
    <glyph glyph-name="cent" unicode="&#x45e;" horiz-adv-x="537" 
d="M438 677q0 -69 -35 -111q-38 -46 -109 -46q-66 0 -102.5 44.5t-36.5 112.5h31q16 -97 114 -97q44 0 71 26t37 71h30zM531 429q-37 0 -58 -23q-14 -16 -31 -58l-141 -378q-65 -176 -159 -176q-36 0 -59.5 20.5t-23.5 57.5q0 26 17.5 43.5t43.5 17.5q22 0 37 -14t15 -35
q0 -5 -3.5 -15.5t-3.5 -13.5q0 -6 7 -6q34 0 93 159l-171 367q-16 35 -29.5 44.5t-51.5 9.5v35h236v-35q-39 0 -53 -3.5t-14 -16.5q0 -11 16 -46l113 -244l72 206q20 55 20 75q0 17 -15 23t-54 6v35h197v-35z" />
    <glyph glyph-name="sterling" unicode="&#xa3;" 
d="M537 677l-67 -2q-27 0 -34 -14t-7 -45v-380q0 -76 -12.5 -116.5t-36.5 -68.5q-30 -34 -76.5 -50t-98.5 -16q-87 0 -140 42q-60 47 -60 132q0 46 25.5 81.5t70.5 35.5q33 0 54.5 -19.5t21.5 -52.5q0 -31 -17 -51t-48 -20q-8 0 -21.5 2.5t-16.5 2.5l-8 -2l-6 -6
q-2 -6 -2 -10q0 -13 12 -30.5t24 -26.5q18 -17 42.5 -25t50.5 -8q96 0 121 90q7 25 9.5 69t2.5 85v338v17q0 12 -2 18q-5 21 -26 27q-33 3 -66 3h-22v45h333v-45z" />
    <glyph glyph-name="sterling" unicode="&#x408;" 
d="M537 677l-67 -2q-27 0 -34 -14t-7 -45v-380q0 -76 -12.5 -116.5t-36.5 -68.5q-30 -34 -76.5 -50t-98.5 -16q-87 0 -140 42q-60 47 -60 132q0 46 25.5 81.5t70.5 35.5q33 0 54.5 -19.5t21.5 -52.5q0 -31 -17 -51t-48 -20q-8 0 -21.5 2.5t-16.5 2.5l-8 -2l-6 -6
q-2 -6 -2 -10q0 -13 12 -30.5t24 -26.5q18 -17 42.5 -25t50.5 -8q96 0 121 90q7 25 9.5 69t2.5 85v338v17q0 12 -2 18q-5 21 -26 27q-33 3 -66 3h-22v45h333v-45z" />
    <glyph glyph-name="currency" unicode="&#xa4;" 
d="M530 152l-49 -51l-53 53q-31 -25 -68.5 -38.5t-78.5 -13.5q-87 0 -151 52l-53 -53l-51 51l53 53q-48 65 -48 144q0 42 11.5 80t37.5 68l-54 54l51 52l54 -55q30 25 70.5 38t80.5 13q83 0 144 -49l53 53l51 -52l-54 -52q26 -30 39 -68.5t13 -79.5q0 -40 -12 -77.5
t-38 -68.5zM447 351q0 68 -48.5 117.5t-116.5 49.5q-71 0 -120.5 -48.5t-49.5 -120.5q0 -70 49 -118t120 -48q69 0 117.5 49.5t48.5 118.5z" />
    <glyph glyph-name="yen" unicode="&#xa5;" horiz-adv-x="667" 
d="M638 466l-42 -3q-6 40 -12 64t-19 54q-22 51 -61 73.5t-150 22.5l-69 -2q-22 0 -29 -9t-7 -29v-25v-526q0 -11 1 -16t8 -11q3 -3 8.5 -5t14.5 -4.5t26.5 -3.5t66.5 -1v-45h-345v45h21q18 0 32.5 1t27.5 4t18 9q9 7 10.5 16.5t1.5 27.5v519q0 17 -2 25l-8 17q-8 7 -21.5 9
t-26.5 2l-51 2v45h395q44 0 80 24t47 59q18 49 24 110h40z" />
    <glyph glyph-name="yen" unicode="&#x490;" horiz-adv-x="667" 
d="M638 466l-42 -3q-6 40 -12 64t-19 54q-22 51 -61 73.5t-150 22.5l-69 -2q-22 0 -29 -9t-7 -29v-25v-526q0 -11 1 -16t8 -11q3 -3 8.5 -5t14.5 -4.5t26.5 -3.5t66.5 -1v-45h-345v45h21q18 0 32.5 1t27.5 4t18 9q9 7 10.5 16.5t1.5 27.5v519q0 17 -2 25l-8 17q-8 7 -21.5 9
t-26.5 2l-51 2v45h395q44 0 80 24t47 59q18 49 24 110h40z" />
    <glyph glyph-name="brokenbar" unicode="&#xa6;" horiz-adv-x="606" 
d="M342 471h-78v266h78v-266zM342 0h-78v266h78v-266z" />
    <glyph glyph-name="section" unicode="&#xa7;" horiz-adv-x="500" 
d="M448 281q0 -57 -36.5 -97.5t-90.5 -40.5q-13 0 -27 3q50 -34 77 -69q34 -45 34 -97q0 -32 -15 -57.5t-42 -43.5q-20 -14 -45 -20t-52 -6q-56 0 -97 32q-17 14 -29 32.5t-12 38.5q0 27 15 43t40 16q9 0 20 -3l16 -10q8 -5 12 -15t4 -20q0 -17 -10 -30q-15 -15 -22 -23
q-3 -3 1 -15l11 -9q23 -12 54 -12q29 0 55 15q12 8 21 24t9 31q0 32 -16 55q-6 9 -24 26t-43 38q-19 16 -28 23l-53 42q-59 49 -81 79q-36 49 -36 106q0 53 36.5 91.5t86.5 38.5q10 0 28 -4l-25 21q-39 35 -56 63q-22 36 -22 81q0 71 66 109q19 11 42 15.5t49 4.5
q40 0 70.5 -14.5t50.5 -46.5q12 -18 12 -42q0 -32 -23 -51q-7 -5 -16 -7t-19 -2q-7 0 -19 2q-31 11 -31 46q0 10 3 16.5t9 14.5t10 13l13 10l2 5l-1 5q-7 12 -29.5 19.5t-38.5 7.5q-28 0 -52 -15.5t-28.5 -34t-4.5 -27.5q0 -24 18 -48q12 -16 38 -38l53 -45q91 -79 108 -97
q60 -65 60 -127zM389 241q0 29 -27 65q-17 23 -49 51t-54 42q-36 23 -62 23q-34 0 -56.5 -18.5t-22.5 -52.5q0 -32 23 -64q15 -21 48 -50t58 -45q39 -25 66 -25q33 0 54.5 20.5t21.5 53.5z" />
    <glyph glyph-name="dieresis" unicode="&#xa8;" horiz-adv-x="722" 
d="M511 852q0 -20 -15 -35t-35 -15t-35 15t-15 35q0 19 15.5 34.5t34.5 15.5q20 0 35 -15t15 -35zM312 852q0 -20 -15 -35t-35 -15t-35 15t-15 35q0 19 15.5 34.5t34.5 15.5q20 0 35 -15t15 -35zM663 265l-19 -265h-615v45h30q34 0 47 3q27 6 32 29q2 14 2 43v484l-1 43
q-2 14 -9.5 19.5t-30 8t-49.5 2.5h-19v45h602l14 -256h-42q-24 139 -75 177q-45 34 -187 34h-34t-36 -3l-10 -5q-9 -5 -11.5 -13.5t-2.5 -21.5v-13v-224q90 0 126 25q43 30 43 112h45v-329h-45l-1 13q0 46 -18 80q-22 41 -64 49q-14 3 -36.5 4t-42.5 1h-7v-269q0 -8 1.5 -12
t8.5 -13q9 -6 19 -7.5t27 -1.5q11 -2 31 -3t33 -1h20q15 0 30.5 1t31.5 4q75 7 113 56q29 37 49 121q4 20 9 40z" />
    <glyph glyph-name="dieresis" unicode="&#x401;" horiz-adv-x="722" 
d="M511 852q0 -20 -15 -35t-35 -15t-35 15t-15 35q0 19 15.5 34.5t34.5 15.5q20 0 35 -15t15 -35zM312 852q0 -20 -15 -35t-35 -15t-35 15t-15 35q0 19 15.5 34.5t34.5 15.5q20 0 35 -15t15 -35zM663 265l-19 -265h-615v45h30q34 0 47 3q27 6 32 29q2 14 2 43v484l-1 43
q-2 14 -9.5 19.5t-30 8t-49.5 2.5h-19v45h602l14 -256h-42q-24 139 -75 177q-45 34 -187 34h-34t-36 -3l-10 -5q-9 -5 -11.5 -13.5t-2.5 -21.5v-13v-224q90 0 126 25q43 30 43 112h45v-329h-45l-1 13q0 46 -18 80q-22 41 -64 49q-14 3 -36.5 4t-42.5 1h-7v-269q0 -8 1.5 -12
t8.5 -13q9 -6 19 -7.5t27 -1.5q11 -2 31 -3t33 -1h20q15 0 30.5 1t31.5 4q75 7 113 56q29 37 49 121q4 20 9 40z" />
    <glyph glyph-name="copyright" unicode="&#xa9;" horiz-adv-x="737" 
d="M744 360q0 -155 -111 -265t-267 -110q-154 0 -264 110t-110 265t110 266t264 111q157 0 267.5 -109.5t110.5 -267.5zM692 360q0 136 -95.5 230.5t-230.5 94.5q-134 0 -228 -95t-94 -230q0 -134 94.5 -228.5t227.5 -94.5q135 0 230.5 94.5t95.5 228.5zM539 247
q-20 -49 -68 -75t-104 -26q-90 0 -145.5 59.5t-55.5 150.5q0 95 58.5 154.5t154.5 59.5q35 0 73.5 -7.5t75.5 -20.5v-110h-32q0 48 -29 77t-79 29q-69 0 -107 -53q-33 -46 -33 -118q0 -74 36 -126q41 -59 112 -59q37 0 69.5 20.5t48.5 53.5z" />
    <glyph glyph-name="ordfeminine" unicode="&#xaa;" horiz-adv-x="722" 
d="M668 246q-18 -124 -91 -192.5t-196 -68.5q-147 0 -241.5 105.5t-94.5 253.5q0 78 21 145t67 122q50 61 108 92q64 34 139 34q54 0 99.5 -16.5t81.5 -52.5l41 63h37l14 -289l-43 -2q-9 31 -14 49.5t-15 42.5q-19 46 -29 63q-17 28 -46 52q-54 45 -125 45
q-58 0 -103.5 -32.5t-67.5 -87.5q-34 -84 -34 -173h290v-52h-291q0 -140 41 -216q54 -101 180 -101q98 0 157 64q53 58 69 160z" />
    <glyph glyph-name="ordfeminine" unicode="&#x404;" horiz-adv-x="722" 
d="M668 246q-18 -124 -91 -192.5t-196 -68.5q-147 0 -241.5 105.5t-94.5 253.5q0 78 21 145t67 122q50 61 108 92q64 34 139 34q54 0 99.5 -16.5t81.5 -52.5l41 63h37l14 -289l-43 -2q-9 31 -14 49.5t-15 42.5q-19 46 -29 63q-17 28 -46 52q-54 45 -125 45
q-58 0 -103.5 -32.5t-67.5 -87.5q-34 -84 -34 -173h290v-52h-291q0 -140 41 -216q54 -101 180 -101q98 0 157 64q53 58 69 160z" />
    <glyph glyph-name="guillemotleft" unicode="&#xab;" horiz-adv-x="426" 
d="M388 391q0 -7 -5 -14.5t-7 -11.5l-24 -37l-61 -88q28 -40 57 -80l26 -42q6 -9 10.5 -18t1.5 -14l-6 -5q-11 0 -19 7q-10 11 -15 16l-35 35l-75 72l-30 25l-1 7l31 25l103 99q9 9 18 19q6 5 14 11q3 2 10 0t7 -6zM221 391q0 -7 -5 -14.5t-7 -11.5l-24 -37l-61 -88
q28 -40 57 -80l26 -42q6 -9 10.5 -18t1.5 -14l-6 -5q-11 0 -19 7q-10 11 -15 16l-35 35l-75 72l-30 25l-1 7l31 25l103 99q9 9 18 19q6 5 14 11q3 2 10 0t7 -6z" />
    <glyph glyph-name="logicalnot" unicode="&#xac;" horiz-adv-x="606" 
d="M555 104h-75v195h-429v75h504v-270z" />
    <glyph glyph-name="minus" unicode="&#xad;" horiz-adv-x="333" 
d="M323 568h-313v54h313v-54z" />
    <glyph glyph-name="registered" unicode="&#xae;" horiz-adv-x="737" 
d="M744 362q0 -156 -109.5 -266.5t-265.5 -110.5t-266.5 110.5t-110.5 266.5q0 155 110 265t267 110q155 0 265 -110t110 -265zM692 362q0 134 -94.5 228.5t-228.5 94.5q-135 0 -229.5 -94.5t-94.5 -228.5q0 -135 94 -230t230 -95q133 0 228 95t95 230zM568 168h-28h-17
q-21 0 -32.5 3t-18.5 8q-12 9 -26 36q-6 11 -16.5 37.5t-19.5 48.5q-13 28 -23 38.5t-21 13t-28 2.5h-11h-18v-139q0 -28 30 -28l19 -1v-19h-164v19l20 1q19 0 24 5t5 24v314q0 13 -5 19t-26 6h-18v20h164q42 0 68.5 -3t48 -16t33.5 -35t12 -47q0 -46 -31.5 -73.5
t-79.5 -34.5q29 -5 54 -40q13 -18 32 -59t21 -44q8 -15 15 -23q11 -13 37 -13v-20zM453 468q0 44 -25 65.5t-70 21.5h-26q-14 0 -17.5 -8.5t-5.5 -15.5v-152h24q56 0 84 16q36 21 36 73z" />
    <glyph glyph-name="macron" unicode="&#xaf;" horiz-adv-x="407" 
d="M353 852q0 -20 -15 -35t-35 -15t-35 15t-15 35q0 19 15.5 34.5t34.5 15.5q20 0 35 -15t15 -35zM154 852q0 -20 -15 -35t-35 -15t-35 15t-15 35q0 19 15.5 34.5t34.5 15.5q20 0 35 -15t15 -35zM369 677h-39t-42 -3q-19 -5 -28 -23q-2 -8 -2 -18v-15v-520q0 -21 2 -26
t3.5 -8t5.5 -6q9 -7 24.5 -10t29.5 -3q19 1 28 1q11 0 16 -1v-45h-329v45h20q22 0 39 1t26 5q18 7 22 16.5t4 33.5v522q0 16 -1.5 24.5t-9.5 17.5q-11 7 -22 9.5t-29 2.5q-9 0 -18 -0.5t-18 -0.5q-8 0 -12 1v45h330v-45z" />
    <glyph glyph-name="macron" unicode="&#x407;" horiz-adv-x="407" 
d="M353 852q0 -20 -15 -35t-35 -15t-35 15t-15 35q0 19 15.5 34.5t34.5 15.5q20 0 35 -15t15 -35zM154 852q0 -20 -15 -35t-35 -15t-35 15t-15 35q0 19 15.5 34.5t34.5 15.5q20 0 35 -15t15 -35zM369 677h-39t-42 -3q-19 -5 -28 -23q-2 -8 -2 -18v-15v-520q0 -21 2 -26
t3.5 -8t5.5 -6q9 -7 24.5 -10t29.5 -3q19 1 28 1q11 0 16 -1v-45h-329v45h20q22 0 39 1t26 5q18 7 22 16.5t4 33.5v522q0 16 -1.5 24.5t-9.5 17.5q-11 7 -22 9.5t-29 2.5q-9 0 -18 -0.5t-18 -0.5q-8 0 -12 1v45h330v-45z" />
    <glyph glyph-name="degree" unicode="&#xb0;" horiz-adv-x="400" 
d="M350 555q0 -62 -44 -106t-106 -44t-106 44t-44 106t44 106t106 44t106 -44t44 -106zM310 555q0 45 -32.5 77.5t-78.5 32.5q-45 0 -77 -32t-32 -78t32 -78t78 -32q45 0 77.5 32.5t32.5 77.5z" />
    <glyph glyph-name="plusminus" unicode="&#xb1;" horiz-adv-x="606" 
d="M555 281h-214v-139h-76v139h-214v76h214v135h76v-135h214v-76zM555 0h-504v76h504v-76z" />
    <glyph glyph-name="twosuperior" unicode="&#xb2;" horiz-adv-x="407" 
d="M369 677h-39t-42 -3q-19 -5 -28 -23q-2 -8 -2 -18v-15v-520q0 -21 2 -26t3.5 -8t5.5 -6q9 -7 24.5 -10t29.5 -3q19 1 28 1q11 0 16 -1v-45h-329v45h20q22 0 39 1t26 5q18 7 22 16.5t4 33.5v522q0 16 -1.5 24.5t-9.5 17.5q-11 7 -22 9.5t-29 2.5q-9 0 -18 -0.5t-18 -0.5
q-8 0 -12 1v45h330v-45z" />
    <glyph glyph-name="twosuperior" unicode="&#x406;" horiz-adv-x="407" 
d="M369 677h-39t-42 -3q-19 -5 -28 -23q-2 -8 -2 -18v-15v-520q0 -21 2 -26t3.5 -8t5.5 -6q9 -7 24.5 -10t29.5 -3q19 1 28 1q11 0 16 -1v-45h-329v45h20q22 0 39 1t26 5q18 7 22 16.5t4 33.5v522q0 16 -1.5 24.5t-9.5 17.5q-11 7 -22 9.5t-29 2.5q-9 0 -18 -0.5t-18 -0.5
q-8 0 -12 1v45h330v-45z" />
    <glyph glyph-name="threesuperior" unicode="&#xb3;" horiz-adv-x="315" 
d="M213 657q0 -23 -18 -41t-42 -18q-23 0 -40.5 18.5t-17.5 42.5q0 23 18 40t41 17q24 0 41.5 -17.5t17.5 -41.5zM289 0h-263v35h27q17 2 30.5 3t21.5 5q5 11 6.5 22.5t1.5 28.5v18v230v14q0 10 -0.5 20t-4.5 22q-4 7 -14.5 9t-15.5 3l-60 2v42l187 10v-384v-15q0 -16 5 -22
t24 -6q8 0 26.5 -1t28.5 -1v-35z" />
    <glyph glyph-name="threesuperior" unicode="&#x456;" horiz-adv-x="315" 
d="M213 657q0 -23 -18 -41t-42 -18q-23 0 -40.5 18.5t-17.5 42.5q0 23 18 40t41 17q24 0 41.5 -17.5t17.5 -41.5zM289 0h-263v35h27q17 2 30.5 3t21.5 5q5 11 6.5 22.5t1.5 28.5v18v230v14q0 10 -0.5 20t-4.5 22q-4 7 -14.5 9t-15.5 3l-60 2v42l187 10v-384v-15q0 -16 5 -22
t24 -6q8 0 26.5 -1t28.5 -1v-35z" />
    <glyph glyph-name="acute" unicode="&#xb4;" horiz-adv-x="463" 
d="M453 297h-38q-10 65 -27 88q-30 41 -107 41q-54 0 -66.5 -4.5t-12.5 -27.5v-324q0 -24 14 -29.5t66 -5.5v-35h-252v35q47 0 54 1q26 4 26 34v324q0 24 -14 29.5t-66 5.5v35h268q60 0 83 38q17 28 17 86h38z" />
    <glyph glyph-name="acute" unicode="&#x491;" horiz-adv-x="463" 
d="M453 297h-38q-10 65 -27 88q-30 41 -107 41q-54 0 -66.5 -4.5t-12.5 -27.5v-324q0 -24 14 -29.5t66 -5.5v-35h-252v35q47 0 54 1q26 4 26 34v324q0 24 -14 29.5t-66 5.5v35h268q60 0 83 38q17 28 17 86h38z" />
    <glyph glyph-name="mu" unicode="&#xb5;" horiz-adv-x="611" 
d="M594 10l-180 -10v78q-25 -42 -66 -67.5t-88 -25.5q-34 0 -66.5 12t-52.5 31v-42q0 -26 18 -75q10 -27 10 -41q0 -32 -8 -50q-11 -25 -39 -25t-37.5 21.5t-9.5 53.5q0 15 18 68q10 29 10 48v392q0 17 -7 23t-17.5 8.5t-23.5 2.5h-14h-20v42l174 10v-286l1 -56
q0 -38 24 -57.5t64 -19.5q76 0 109 67q15 32 18 55t3 73v141q-2 15 -5.5 20.5t-15 7t-28 2t-30.5 1.5h-18v42l189 10v-353q0 -19 1.5 -29t8.5 -17.5t16 -9.5l41 -2h21v-43z" />
    <glyph glyph-name="paragraph" unicode="&#xb6;" horiz-adv-x="606" 
d="M557 -147h-355v35l20 1l27 2q15 2 21.5 6t6.5 17l2 36v375l-36 -2q-89 0 -140 50q-54 53 -54 152q0 55 20 101.5t60 69.5q28 16 63.5 21t81.5 5h29h254v-35l-17 -1l-22 -2q-9 -1 -16 -4t-7 -19l-2 -36v-675l2 -36q0 -12 5.5 -16.5t17.5 -6.5l22 -2l17 -1v-35zM279 356
v331q-57 0 -78 -35q-17 -29 -17 -95v-72q0 -57 15 -89q20 -42 66 -42zM430 -112v799h-88v-799h88z" />
    <glyph glyph-name="periodcentered" unicode="&#xb7;" horiz-adv-x="278" 
d="M201 239q0 -24 -18 -43t-43 -19t-44.5 18.5t-19.5 43.5q0 26 18.5 44.5t44.5 18.5t44 -19t18 -44z" />
    <glyph glyph-name="periodcentered" unicode="&#x2219;" horiz-adv-x="278" 
d="M201 239q0 -24 -18 -43t-43 -19t-44.5 18.5t-19.5 43.5q0 26 18.5 44.5t44.5 18.5t44 -19t18 -44z" />
    <glyph glyph-name="cedilla" unicode="&#xb8;" horiz-adv-x="500" 
d="M400 594q0 -20 -15 -35t-35 -15t-35 15t-15 35q0 19 15.5 34.5t34.5 15.5q20 0 35 -15t15 -35zM201 594q0 -20 -15 -35t-35 -15t-35 15t-15 35q0 19 15.5 34.5t34.5 15.5q20 0 35 -15t15 -35zM465 124q-32 -69 -81 -104t-122 -35q-50 0 -93.5 16.5t-75.5 52.5t-45 76.5
t-13 94.5q0 103 60 176q64 78 164 78q54 0 96 -26.5t71 -74.5q13 -21 21 -53q5 -20 12 -57q3 -14 4 -21t1 -22h-327q0 -79 31 -129q37 -60 111 -60q43 0 73.5 16.5t56.5 52.5l12 21l10 17zM359 303q0 55 -23 92q-27 44 -80 44q-60 0 -92 -60q-25 -47 -25 -113h168h12
q23 0 31.5 6t8.5 31z" />
    <glyph glyph-name="cedilla" unicode="&#x451;" horiz-adv-x="500" 
d="M400 594q0 -20 -15 -35t-35 -15t-35 15t-15 35q0 19 15.5 34.5t34.5 15.5q20 0 35 -15t15 -35zM201 594q0 -20 -15 -35t-35 -15t-35 15t-15 35q0 19 15.5 34.5t34.5 15.5q20 0 35 -15t15 -35zM465 124q-32 -69 -81 -104t-122 -35q-50 0 -93.5 16.5t-75.5 52.5t-45 76.5
t-13 94.5q0 103 60 176q64 78 164 78q54 0 96 -26.5t71 -74.5q13 -21 21 -53q5 -20 12 -57q3 -14 4 -21t1 -22h-327q0 -79 31 -129q37 -60 111 -60q43 0 73.5 16.5t56.5 52.5l12 21l10 17zM359 303q0 55 -23 92q-27 44 -80 44q-60 0 -92 -60q-25 -47 -25 -113h168h12
q23 0 31.5 6t8.5 31z" />
    <glyph glyph-name="onesuperior" unicode="&#xb9;" horiz-adv-x="1110" 
d="M1101 574q0 -61 -38 -102t-104 -41q-63 0 -101 42.5t-38 101.5q0 57 38 102q18 20 45 32.5t55 12.5q67 0 105 -42.5t38 -105.5zM1090 324h-260v38h260v-38zM794 677q-70 0 -93 -28.5t-23 -99.5v-564h-39l-450 612v-414q0 -46 3.5 -67.5t22.5 -44.5q16 -13 41.5 -19.5
t51.5 -6.5v-45h-289v45q17 2 33.5 4.5t34.5 8.5q33 12 44 62q7 31 7 82v442q-13 18 -29.5 25t-40.5 7l-49 1v45h209l399 -539v379q0 64 -24.5 89.5t-89.5 25.5v45h281v-45zM1034 574v11q0 27 -1.5 38.5t-10 32t-23 32t-38.5 11.5q-44 0 -62 -45q-12 -31 -12 -80
q0 -45 12 -75q18 -45 59 -45q46 0 64 42q12 28 12 78z" />
    <glyph glyph-name="onesuperior" unicode="&#x2116;" horiz-adv-x="1110" 
d="M1101 574q0 -61 -38 -102t-104 -41q-63 0 -101 42.5t-38 101.5q0 57 38 102q18 20 45 32.5t55 12.5q67 0 105 -42.5t38 -105.5zM1090 324h-260v38h260v-38zM794 677q-70 0 -93 -28.5t-23 -99.5v-564h-39l-450 612v-414q0 -46 3.5 -67.5t22.5 -44.5q16 -13 41.5 -19.5
t51.5 -6.5v-45h-289v45q17 2 33.5 4.5t34.5 8.5q33 12 44 62q7 31 7 82v442q-13 18 -29.5 25t-40.5 7l-49 1v45h209l399 -539v379q0 64 -24.5 89.5t-89.5 25.5v45h281v-45zM1034 574v11q0 27 -1.5 38.5t-10 32t-23 32t-38.5 11.5q-44 0 -62 -45q-12 -31 -12 -80
q0 -45 12 -75q18 -45 59 -45q46 0 64 42q12 28 12 78z" />
    <glyph glyph-name="ordmasculine" unicode="&#xba;" horiz-adv-x="481" 
d="M456 130q-31 -68 -82 -107.5t-119 -39.5q-90 0 -150 63q-66 69 -66 185q0 103 64.5 175.5t157.5 72.5q32 0 60.5 -10t49.5 -26l25 30h33l9 -173h-40q-17 68 -49 103.5t-80 35.5q-60 0 -95 -61q-30 -52 -30 -120h204v-43h-205q0 -73 37.5 -126.5t92.5 -53.5q48 0 88 32
t57 79z" />
    <glyph glyph-name="ordmasculine" unicode="&#x454;" horiz-adv-x="481" 
d="M456 130q-31 -68 -82 -107.5t-119 -39.5q-90 0 -150 63q-66 69 -66 185q0 103 64.5 175.5t157.5 72.5q32 0 60.5 -10t49.5 -26l25 30h33l9 -173h-40q-17 68 -49 103.5t-80 35.5q-60 0 -95 -61q-30 -52 -30 -120h204v-43h-205q0 -73 37.5 -126.5t92.5 -53.5q48 0 88 32
t57 79z" />
    <glyph glyph-name="guillemotright" unicode="&#xbb;" horiz-adv-x="426" 
d="M388 243l-1 -7l-30 -25l-57 -55l-52 -52q-8 -9 -11.5 -12.5t-12.5 -9.5q-5 -3 -12 -1l-4 5q-5 4 5 20q3 5 7 11l26 42l56 81q-30 39 -61 87l-23 38q-3 4 -7.5 12t-4.5 13q0 6 4 7q7 3 13 0l32 -30l102 -99zM221 243l-1 -7l-30 -25l-57 -55l-52 -52q-8 -9 -11.5 -12.5
t-12.5 -9.5q-5 -3 -12 -1l-4 5q-5 4 5 20q3 5 7 11l26 42l56 81q-30 39 -61 87l-23 38q-3 4 -7.5 12t-4.5 13q0 6 4 7q7 3 13 0l32 -30l102 -99z" />
    <glyph glyph-name="onequarter" unicode="&#xbc;" horiz-adv-x="296" 
d="M218 659q0 -23 -17 -41t-41 -18q-25 0 -42 17t-17 42t16 41t42 16q25 0 42 -16t17 -41zM208 92l-2 -79q0 -36 -7.5 -71t-20.5 -61.5t-36 -46t-52 -29.5t-60 -10q-43 0 -74 18q-38 22 -38 62q0 27 15 43t39 16q13 0 28 -6q26 -11 26 -41q0 -7 -1 -10q-4 -9 -7.5 -17
t-2.5 -14q7 -12 26 -12q7 1 13.5 2.5t16.5 5.5q23 14 33 44t10 63q0 19 1 58t1 58v278v15v13q-2 9 -2 13q-5 18 -22.5 23t-47.5 5h-30v42l194 10v-372z" />
    <glyph glyph-name="onequarter" unicode="&#x458;" horiz-adv-x="296" 
d="M218 659q0 -23 -17 -41t-41 -18q-25 0 -42 17t-17 42t16 41t42 16q25 0 42 -16t17 -41zM208 92l-2 -79q0 -36 -7.5 -71t-20.5 -61.5t-36 -46t-52 -29.5t-60 -10q-43 0 -74 18q-38 22 -38 62q0 27 15 43t39 16q13 0 28 -6q26 -11 26 -41q0 -7 -1 -10q-4 -9 -7.5 -17
t-2.5 -14q7 -12 26 -12q7 1 13.5 2.5t16.5 5.5q23 14 33 44t10 63q0 19 1 58t1 58v278v15v13q-2 9 -2 13q-5 18 -22.5 23t-47.5 5h-30v42l194 10v-372z" />
    <glyph glyph-name="onehalf" unicode="&#xbd;" horiz-adv-x="667" 
d="M590 199q0 -99 -68 -156.5t-177 -57.5q-74 0 -137 30q-39 19 -70 47l-44 -69h-37l-6 281l43 3q20 -112 82 -177q67 -70 169 -70q67 0 112 29q55 35 55 102q0 97 -115 134q-108 29 -215 58q-116 49 -116 176q0 106 71 162q60 47 149 47q57 0 110 -23q44 -19 73 -48l40 63
h36l12 -261h-43q-24 113 -94 173q-59 51 -135 51q-59 0 -101.5 -33.5t-42.5 -86.5q0 -86 116 -120q108 -31 216 -61q117 -56 117 -193z" />
    <glyph glyph-name="onehalf" unicode="&#x405;" horiz-adv-x="667" 
d="M590 199q0 -99 -68 -156.5t-177 -57.5q-74 0 -137 30q-39 19 -70 47l-44 -69h-37l-6 281l43 3q20 -112 82 -177q67 -70 169 -70q67 0 112 29q55 35 55 102q0 97 -115 134q-108 29 -215 58q-116 49 -116 176q0 106 71 162q60 47 149 47q57 0 110 -23q44 -19 73 -48l40 63
h36l12 -261h-43q-24 113 -94 173q-59 51 -135 51q-59 0 -101.5 -33.5t-42.5 -86.5q0 -86 116 -120q108 -31 216 -61q117 -56 117 -193z" />
    <glyph glyph-name="threequarters" unicode="&#xbe;" horiz-adv-x="463" 
d="M421 138q0 -41 -10.5 -66t-40.5 -51q-20 -17 -51 -26.5t-61 -9.5q-41 0 -75.5 11.5t-63.5 37.5l-35 -44h-33v190h37q18 -71 58 -110q45 -45 115 -45q37 0 66 19q34 22 34 58q0 26 -12.5 41t-37.5 25t-52 16.5t-44 10.5l-42 10q-47 13 -60 20t-27.5 25.5t-21 41t-6.5 48.5
q0 64 40.5 101.5t105.5 37.5q72 0 122 -41l30 37h33v-167h-36q-16 60 -50 93q-39 38 -98 38q-37 0 -62 -17q-30 -21 -30 -56t37 -54q21 -11 67 -20l59 -13q40 -7 61.5 -15.5t44.5 -29.5q39 -38 39 -96z" />
    <glyph glyph-name="threequarters" unicode="&#x455;" horiz-adv-x="463" 
d="M421 138q0 -41 -10.5 -66t-40.5 -51q-20 -17 -51 -26.5t-61 -9.5q-41 0 -75.5 11.5t-63.5 37.5l-35 -44h-33v190h37q18 -71 58 -110q45 -45 115 -45q37 0 66 19q34 22 34 58q0 26 -12.5 41t-37.5 25t-52 16.5t-44 10.5l-42 10q-47 13 -60 20t-27.5 25.5t-21 41t-6.5 48.5
q0 64 40.5 101.5t105.5 37.5q72 0 122 -41l30 37h33v-167h-36q-16 60 -50 93q-39 38 -98 38q-37 0 -62 -17q-30 -21 -30 -56t37 -54q21 -11 67 -20l59 -13q40 -7 61.5 -15.5t44.5 -29.5q39 -38 39 -96z" />
    <glyph glyph-name="questiondown" unicode="&#xbf;" horiz-adv-x="315" 
d="M307 594q0 -20 -15 -35t-35 -15t-35 15t-15 35q0 19 15.5 34.5t34.5 15.5q20 0 35 -15t15 -35zM108 594q0 -20 -15 -35t-35 -15t-35 15t-15 35q0 19 15.5 34.5t34.5 15.5q20 0 35 -15t15 -35zM289 0h-263v35h27q17 2 30.5 3t21.5 5q5 11 6.5 22.5t1.5 28.5v18v230v14
q0 10 -0.5 20t-4.5 22q-4 7 -14.5 9t-15.5 3l-60 2v42l187 10v-384v-15q0 -16 5 -22t24 -6q8 0 26.5 -1t28.5 -1v-35z" />
    <glyph glyph-name="questiondown" unicode="&#x457;" horiz-adv-x="315" 
d="M307 594q0 -20 -15 -35t-35 -15t-35 15t-15 35q0 19 15.5 34.5t34.5 15.5q20 0 35 -15t15 -35zM108 594q0 -20 -15 -35t-35 -15t-35 15t-15 35q0 19 15.5 34.5t34.5 15.5q20 0 35 -15t15 -35zM289 0h-263v35h27q17 2 30.5 3t21.5 5q5 11 6.5 22.5t1.5 28.5v18v230v14
q0 10 -0.5 20t-4.5 22q-4 7 -14.5 9t-15.5 3l-60 2v42l187 10v-384v-15q0 -16 5 -22t24 -6q8 0 26.5 -1t28.5 -1v-35z" />
    <glyph glyph-name="Agrave" unicode="&#xc0;" horiz-adv-x="722" 
d="M731 0h-307v45q21 0 41 0.5t43 5.5q8 1 14.5 7.5t6.5 14.5l-4 17l-59 145h-270l-20 -50q-7 -21 -10 -31q-9 -25 -9 -26q-3 -11 -3 -26q0 -36 36 -49q22 -8 66 -8v-45h-264v45q40 0 64.5 19.5t39.5 58.5l242 614h39l265 -648q13 -31 34 -39q14 -5 55 -5v-45zM447 286
l-118 294l-114 -294h232z" />
    <glyph glyph-name="Agrave" unicode="&#x410;" horiz-adv-x="722" 
d="M731 0h-307v45q21 0 41 0.5t43 5.5q8 1 14.5 7.5t6.5 14.5l-4 17l-59 145h-270l-20 -50q-7 -21 -10 -31q-9 -25 -9 -26q-3 -11 -3 -26q0 -36 36 -49q22 -8 66 -8v-45h-264v45q40 0 64.5 19.5t39.5 58.5l242 614h39l265 -648q13 -31 34 -39q14 -5 55 -5v-45zM447 286
l-118 294l-114 -294h232z" />
    <glyph glyph-name="Aacute" unicode="&#xc1;" horiz-adv-x="667" 
d="M649 200q0 -67 -35.5 -115.5t-95.5 -66.5t-126 -18h-364v45q5 1 12.5 1h11.5h12q31 0 48.5 4t24.5 21l2 29v532q0 31 -21 38t-90 7v45h573l14 -256l-42 -3q-6 40 -12 64t-19 54q-22 51 -61 73.5t-150 22.5q-43 0 -53 -2q-30 -6 -30 -43v-232l110 2l49 -1q13 0 34.5 -2.5
t24.5 -2.5q42 -8 71.5 -20.5t54.5 -38.5q57 -57 57 -137zM529 199q0 91 -49 127q-42 31 -136 31l-96 -2v-264q0 -15 2 -23t10 -14q8 -4 12 -4q8 -3 21.5 -4t26.5 -1l67 2q73 0 107.5 38.5t34.5 113.5z" />
    <glyph glyph-name="Aacute" unicode="&#x411;" horiz-adv-x="667" 
d="M649 200q0 -67 -35.5 -115.5t-95.5 -66.5t-126 -18h-364v45q5 1 12.5 1h11.5h12q31 0 48.5 4t24.5 21l2 29v532q0 31 -21 38t-90 7v45h573l14 -256l-42 -3q-6 40 -12 64t-19 54q-22 51 -61 73.5t-150 22.5q-43 0 -53 -2q-30 -6 -30 -43v-232l110 2l49 -1q13 0 34.5 -2.5
t24.5 -2.5q42 -8 71.5 -20.5t54.5 -38.5q57 -57 57 -137zM529 199q0 91 -49 127q-42 31 -136 31l-96 -2v-264q0 -15 2 -23t10 -14q8 -4 12 -4q8 -3 21.5 -4t26.5 -1l67 2q73 0 107.5 38.5t34.5 113.5z" />
    <glyph glyph-name="Acircumflex" unicode="&#xc2;" horiz-adv-x="722" 
d="M669 199q0 -32 -9.5 -62.5t-28.5 -52.5q-22 -26 -40 -37t-54 -25q-12 -5 -32.5 -9t-30.5 -6q-45 -6 -91 -6l-42 -1h-312v45h21q18 0 32.5 1t31.5 5t24 24q2 8 2 22.5v21.5v508l-1 15q0 22 -27 31q-14 0 -47.5 2t-35.5 2v45h362q65 0 100.5 -9t62.5 -26q36 -24 57.5 -59
t21.5 -77q0 -76 -49.5 -120.5t-127.5 -53.5q89 -8 145 -47q68 -48 68 -131zM519 538q0 39 -13 69q-16 36 -46 52q-23 12 -58 15.5t-74 3.5q-14 0 -26.5 -0.5t-27.5 -3.5q-11 -6 -15.5 -13t-7.5 -13q-1 -9 -1.5 -19.5t-0.5 -16.5v-216l42 -1h18q53 0 85 3t57 14q37 17 54 51
q14 29 14 75zM549 192q0 100 -63 134q-46 25 -155 25l-82 -3v-233q0 -53 15 -63q10 -7 70 -7q58 0 82 3q48 6 76.5 23t42.5 51t14 70z" />
    <glyph glyph-name="Acircumflex" unicode="&#x412;" horiz-adv-x="722" 
d="M669 199q0 -32 -9.5 -62.5t-28.5 -52.5q-22 -26 -40 -37t-54 -25q-12 -5 -32.5 -9t-30.5 -6q-45 -6 -91 -6l-42 -1h-312v45h21q18 0 32.5 1t31.5 5t24 24q2 8 2 22.5v21.5v508l-1 15q0 22 -27 31q-14 0 -47.5 2t-35.5 2v45h362q65 0 100.5 -9t62.5 -26q36 -24 57.5 -59
t21.5 -77q0 -76 -49.5 -120.5t-127.5 -53.5q89 -8 145 -47q68 -48 68 -131zM519 538q0 39 -13 69q-16 36 -46 52q-23 12 -58 15.5t-74 3.5q-14 0 -26.5 -0.5t-27.5 -3.5q-11 -6 -15.5 -13t-7.5 -13q-1 -9 -1.5 -19.5t-0.5 -16.5v-216l42 -1h18q53 0 85 3t57 14q37 17 54 51
q14 29 14 75zM549 192q0 100 -63 134q-46 25 -155 25l-82 -3v-233q0 -53 15 -63q10 -7 70 -7q58 0 82 3q48 6 76.5 23t42.5 51t14 70z" />
    <glyph glyph-name="Atilde" unicode="&#xc3;" horiz-adv-x="667" 
d="M638 466l-42 -3q-6 40 -12 64t-19 54q-22 51 -61 73.5t-150 22.5l-69 -2q-22 0 -29 -9t-7 -29v-25v-526q0 -11 1 -16t8 -11q3 -3 8.5 -5t14.5 -4.5t26.5 -3.5t66.5 -1v-45h-345v45h21q18 0 32.5 1t27.5 4t18 9q9 7 10.5 16.5t1.5 27.5v519q0 17 -2 25l-8 17q-8 7 -21.5 9
t-26.5 2l-51 2v45h593z" />
    <glyph glyph-name="Atilde" unicode="&#x413;" horiz-adv-x="667" 
d="M638 466l-42 -3q-6 40 -12 64t-19 54q-22 51 -61 73.5t-150 22.5l-69 -2q-22 0 -29 -9t-7 -29v-25v-526q0 -11 1 -16t8 -11q3 -3 8.5 -5t14.5 -4.5t26.5 -3.5t66.5 -1v-45h-345v45h21q18 0 32.5 1t27.5 4t18 9q9 7 10.5 16.5t1.5 27.5v519q0 17 -2 25l-8 17q-8 7 -21.5 9
t-26.5 2l-51 2v45h593z" />
    <glyph glyph-name="Adieresis" unicode="&#xc4;" horiz-adv-x="778" 
d="M763 -194h-40q-12 58 -37 110q-19 40 -57 62t-100 22h-291q-54 0 -87.5 -18.5t-56.5 -54.5q-14 -20 -24 -57q-4 -14 -14 -64h-40l13 239h93q50 28 71 92q17 52 17 137v287q0 82 -26 102q-18 14 -90 14v45h655v-45q-56 0 -83.5 -3.5t-27.5 -41.5v-542q0 -38 38 -43
q14 -2 73 -2zM529 90v542q0 26 -13.5 35.5t-49.5 9.5h-91q-87 0 -101.5 -14.5t-14.5 -101.5v-285q0 -88 -17.5 -144t-50.5 -87h227q56 0 71 2q40 5 40 43z" />
    <glyph glyph-name="Adieresis" unicode="&#x414;" horiz-adv-x="778" 
d="M763 -194h-40q-12 58 -37 110q-19 40 -57 62t-100 22h-291q-54 0 -87.5 -18.5t-56.5 -54.5q-14 -20 -24 -57q-4 -14 -14 -64h-40l13 239h93q50 28 71 92q17 52 17 137v287q0 82 -26 102q-18 14 -90 14v45h655v-45q-56 0 -83.5 -3.5t-27.5 -41.5v-542q0 -38 38 -43
q14 -2 73 -2zM529 90v542q0 26 -13.5 35.5t-49.5 9.5h-91q-87 0 -101.5 -14.5t-14.5 -101.5v-285q0 -88 -17.5 -144t-50.5 -87h227q56 0 71 2q40 5 40 43z" />
    <glyph glyph-name="Aring" unicode="&#xc5;" horiz-adv-x="722" 
d="M663 265l-19 -265h-615v45h30q34 0 47 3q27 6 32 29q2 14 2 43v484l-1 43q-2 14 -9.5 19.5t-30 8t-49.5 2.5h-19v45h602l14 -256h-42q-24 139 -75 177q-45 34 -187 34h-34t-36 -3l-10 -5q-9 -5 -11.5 -13.5t-2.5 -21.5v-13v-224q90 0 126 25q43 30 43 112h45v-329h-45
l-1 13q0 46 -18 80q-22 41 -64 49q-14 3 -36.5 4t-42.5 1h-7v-269q0 -8 1.5 -12t8.5 -13q9 -6 19 -7.5t27 -1.5q11 -2 31 -3t33 -1h20q15 0 30.5 1t31.5 4q75 7 113 56q29 37 49 121q4 20 9 40z" />
    <glyph glyph-name="Aring" unicode="&#x415;" horiz-adv-x="722" 
d="M663 265l-19 -265h-615v45h30q34 0 47 3q27 6 32 29q2 14 2 43v484l-1 43q-2 14 -9.5 19.5t-30 8t-49.5 2.5h-19v45h602l14 -256h-42q-24 139 -75 177q-45 34 -187 34h-34t-36 -3l-10 -5q-9 -5 -11.5 -13.5t-2.5 -21.5v-13v-224q90 0 126 25q43 30 43 112h45v-329h-45
l-1 13q0 46 -18 80q-22 41 -64 49q-14 3 -36.5 4t-42.5 1h-7v-269q0 -8 1.5 -12t8.5 -13q9 -6 19 -7.5t27 -1.5q11 -2 31 -3t33 -1h20q15 0 30.5 1t31.5 4q75 7 113 56q29 37 49 121q4 20 9 40z" />
    <glyph glyph-name="AE" unicode="&#xc6;" horiz-adv-x="1111" 
d="M1124 0h-340v45h34q18 0 30.5 1.5t25.5 5.5q3 0 5.5 2t5.5 5q6 12 -5 28.5t-14 20.5l-171 248l-85 -107v-110l2 -69q0 -2 4.5 -7.5t4.5 -6.5q9 -7 13 -7l18 -2l68 -2v-45h-329v45l68 2l18 2q9 7 13 7q0 2 4.5 6.5t4.5 7.5l2 69v110l-85 107l-171 -248q-7 -10 -14 -21
t-7 -20l2 -8q3 -2 6 -4.5t5 -2.5q15 -5 30.5 -6t36.5 -1h23v-45h-340v45q10 0 31 2t31 2t20.5 6.5t17.5 17.5q7 6 12 13q2 3 10 16l233 338l-136 149q-40 44 -82 66t-97 22v45h308v-45l-60 -3q-11 0 -21 -8t-10 -20q0 -10 9 -25q5 -8 32 -41l216 -259v288v14q0 15 -1.5 23
t-7.5 18q-2 0 -7.5 4.5t-7.5 4.5q-15 2 -35.5 3t-39.5 1h-11v45h329v-45q-22 0 -42.5 -0.5t-43.5 -3.5q-2 0 -7.5 -4.5t-7.5 -4.5q-5 -7 -7 -18.5t-2 -22.5v-14v-288l216 259q21 25 25 31q16 22 16 35q0 11 -9.5 19.5t-21.5 8.5l-60 3v45h308v-45q-55 0 -97 -22t-82 -66
l-136 -149l233 -338q4 -8 9 -14.5t13 -14.5q8 -11 17 -17.5t21 -6.5q10 0 31 -2t31 -2v-45z" />
    <glyph glyph-name="AE" unicode="&#x416;" horiz-adv-x="1111" 
d="M1124 0h-340v45h34q18 0 30.5 1.5t25.5 5.5q3 0 5.5 2t5.5 5q6 12 -5 28.5t-14 20.5l-171 248l-85 -107v-110l2 -69q0 -2 4.5 -7.5t4.5 -6.5q9 -7 13 -7l18 -2l68 -2v-45h-329v45l68 2l18 2q9 7 13 7q0 2 4.5 6.5t4.5 7.5l2 69v110l-85 107l-171 -248q-7 -10 -14 -21
t-7 -20l2 -8q3 -2 6 -4.5t5 -2.5q15 -5 30.5 -6t36.5 -1h23v-45h-340v45q10 0 31 2t31 2t20.5 6.5t17.5 17.5q7 6 12 13q2 3 10 16l233 338l-136 149q-40 44 -82 66t-97 22v45h308v-45l-60 -3q-11 0 -21 -8t-10 -20q0 -10 9 -25q5 -8 32 -41l216 -259v288v14q0 15 -1.5 23
t-7.5 18q-2 0 -7.5 4.5t-7.5 4.5q-15 2 -35.5 3t-39.5 1h-11v45h329v-45q-22 0 -42.5 -0.5t-43.5 -3.5q-2 0 -7.5 -4.5t-7.5 -4.5q-5 -7 -7 -18.5t-2 -22.5v-14v-288l216 259q21 25 25 31q16 22 16 35q0 11 -9.5 19.5t-21.5 8.5l-60 3v45h308v-45q-55 0 -97 -22t-82 -66
l-136 -149l233 -338q4 -8 9 -14.5t13 -14.5q8 -11 17 -17.5t21 -6.5q10 0 31 -2t31 -2v-45z" />
    <glyph glyph-name="Ccedilla" unicode="&#xc7;" horiz-adv-x="685" 
d="M635 197q0 -101 -91 -159q-83 -53 -209 -53q-105 0 -178.5 58t-103.5 158l44 13q24 -83 84.5 -133.5t148.5 -50.5q84 0 134.5 45.5t50.5 121.5t-51 115q-46 35 -128 35h-87v52h86q71 0 116 34q50 38 50 108q0 74 -49 115q-43 36 -108 36q-77 0 -130 -45q-33 -29 -60 -78
t-42 -104h-45l14 266h37l41 -63q34 34 87 51.5t109 17.5q110 0 181 -49q78 -54 78 -147q0 -75 -59 -120q-51 -38 -128 -47q79 0 137 -40q71 -49 71 -137z" />
    <glyph glyph-name="Ccedilla" unicode="&#x417;" horiz-adv-x="685" 
d="M635 197q0 -101 -91 -159q-83 -53 -209 -53q-105 0 -178.5 58t-103.5 158l44 13q24 -83 84.5 -133.5t148.5 -50.5q84 0 134.5 45.5t50.5 121.5t-51 115q-46 35 -128 35h-87v52h86q71 0 116 34q50 38 50 108q0 74 -49 115q-43 36 -108 36q-77 0 -130 -45q-33 -29 -60 -78
t-42 -104h-45l14 266h37l41 -63q34 34 87 51.5t109 17.5q110 0 181 -49q78 -54 78 -147q0 -75 -59 -120q-51 -38 -128 -47q79 0 137 -40q71 -49 71 -137z" />
    <glyph glyph-name="Egrave" unicode="&#xc8;" horiz-adv-x="833" 
d="M804 0h-331v45q56 0 71 2q40 5 40 43v402l-335 -332v-70q0 -38 38 -43q14 -2 73 -2v-45h-331v45q56 0 71 2q40 5 40 43v542q0 38 -26 41.5t-85 3.5v45h331v-45q-56 0 -83.5 -3.5t-27.5 -41.5v-402l335 332v70q0 38 -26 41.5t-85 3.5v45h331v-45q-56 0 -83.5 -3.5
t-27.5 -41.5v-542q0 -38 38 -43q14 -2 73 -2v-45z" />
    <glyph glyph-name="Egrave" unicode="&#x418;" horiz-adv-x="833" 
d="M804 0h-331v45q56 0 71 2q40 5 40 43v402l-335 -332v-70q0 -38 38 -43q14 -2 73 -2v-45h-331v45q56 0 71 2q40 5 40 43v542q0 38 -26 41.5t-85 3.5v45h331v-45q-56 0 -83.5 -3.5t-27.5 -41.5v-402l335 332v70q0 38 -26 41.5t-85 3.5v45h331v-45q-56 0 -83.5 -3.5
t-27.5 -41.5v-542q0 -38 38 -43q14 -2 73 -2v-45z" />
    <glyph glyph-name="Eacute" unicode="&#xc9;" horiz-adv-x="833" 
d="M566 921q0 -69 -35 -111q-38 -46 -109 -46q-66 0 -102.5 44.5t-36.5 112.5h31q16 -97 114 -97q44 0 71 26t37 71h30zM804 0h-331v45q56 0 71 2q40 5 40 43v402l-335 -332v-70q0 -38 38 -43q14 -2 73 -2v-45h-331v45q56 0 71 2q40 5 40 43v542q0 38 -26 41.5t-85 3.5v45
h331v-45q-56 0 -83.5 -3.5t-27.5 -41.5v-402l335 332v70q0 38 -26 41.5t-85 3.5v45h331v-45q-56 0 -83.5 -3.5t-27.5 -41.5v-542q0 -38 38 -43q14 -2 73 -2v-45z" />
    <glyph glyph-name="Eacute" unicode="&#x419;" horiz-adv-x="833" 
d="M566 921q0 -69 -35 -111q-38 -46 -109 -46q-66 0 -102.5 44.5t-36.5 112.5h31q16 -97 114 -97q44 0 71 26t37 71h30zM804 0h-331v45q56 0 71 2q40 5 40 43v402l-335 -332v-70q0 -38 38 -43q14 -2 73 -2v-45h-331v45q56 0 71 2q40 5 40 43v542q0 38 -26 41.5t-85 3.5v45
h331v-45q-56 0 -83.5 -3.5t-27.5 -41.5v-402l335 332v70q0 38 -26 41.5t-85 3.5v45h331v-45q-56 0 -83.5 -3.5t-27.5 -41.5v-542q0 -38 38 -43q14 -2 73 -2v-45z" />
    <glyph glyph-name="Ecircumflex" unicode="&#xca;" horiz-adv-x="778" 
d="M793 0h-330v45h34q18 0 30.5 1.5t21.5 4t11.5 5t4 6t1.5 6.5q0 8 -8 21q-2 4 -13 19l-179 262l-117 -121v-110v-38.5t2 -30.5l9 -14l13 -7l18 -2l68 -2v-45h-329v45h21h39q16 3 23 4q16 6 21 12t5 14l1 30v514v12q0 6 -2 20q-5 14 -13 18t-26 5.5t-30.5 2t-21.5 0.5h-17
v45h329v-45q-22 0 -42.5 -0.5t-43.5 -3.5l-15 -9q-5 -7 -7 -18.5t-2 -22.5v-14v-288l256 259q21 25 25 31q16 22 16 35q0 11 -9.5 19.5t-21.5 8.5l-60 3v45h308v-45q-53 0 -98 -24q-38 -20 -81 -64l-142 -141l239 -346q7 -10 11.5 -17t10.5 -12q13 -19 35 -23t30 -4.5
t25 -0.5v-45z" />
    <glyph glyph-name="Ecircumflex" unicode="&#x41a;" horiz-adv-x="778" 
d="M793 0h-330v45h34q18 0 30.5 1.5t21.5 4t11.5 5t4 6t1.5 6.5q0 8 -8 21q-2 4 -13 19l-179 262l-117 -121v-110v-38.5t2 -30.5l9 -14l13 -7l18 -2l68 -2v-45h-329v45h21h39q16 3 23 4q16 6 21 12t5 14l1 30v514v12q0 6 -2 20q-5 14 -13 18t-26 5.5t-30.5 2t-21.5 0.5h-17
v45h329v-45q-22 0 -42.5 -0.5t-43.5 -3.5l-15 -9q-5 -7 -7 -18.5t-2 -22.5v-14v-288l256 259q21 25 25 31q16 22 16 35q0 11 -9.5 19.5t-21.5 8.5l-60 3v45h308v-45q-53 0 -98 -24q-38 -20 -81 -64l-142 -141l239 -346q7 -10 11.5 -17t10.5 -12q13 -19 35 -23t30 -4.5
t25 -0.5v-45z" />
    <glyph glyph-name="Edieresis" unicode="&#xcb;" horiz-adv-x="778" 
d="M749 0h-331v45q56 0 71 2q40 5 40 43v542q0 26 -13.5 35.5t-49.5 9.5h-91q-87 0 -101.5 -14.5t-14.5 -100.5v-286q0 -159 -52 -232q-42 -59 -115 -59q-62 0 -97 44q-29 37 -29 86q0 44 23.5 73t62.5 29q32 0 50.5 -19.5t18.5 -49.5q0 -36 -45 -65q-22 -14 -22 -28
q0 -10 11.5 -17.5t30.5 -7.5q43 0 71 39q43 60 43 205v288q0 81 -22 100q-18 15 -94 15v45h655v-45q-56 0 -83.5 -3.5t-27.5 -41.5v-542q0 -38 38 -43q14 -2 73 -2v-45z" />
    <glyph glyph-name="Edieresis" unicode="&#x41b;" horiz-adv-x="778" 
d="M749 0h-331v45q56 0 71 2q40 5 40 43v542q0 26 -13.5 35.5t-49.5 9.5h-91q-87 0 -101.5 -14.5t-14.5 -100.5v-286q0 -159 -52 -232q-42 -59 -115 -59q-62 0 -97 44q-29 37 -29 86q0 44 23.5 73t62.5 29q32 0 50.5 -19.5t18.5 -49.5q0 -36 -45 -65q-22 -14 -22 -28
q0 -10 11.5 -17.5t30.5 -7.5q43 0 71 39q43 60 43 205v288q0 81 -22 100q-18 15 -94 15v45h655v-45q-56 0 -83.5 -3.5t-27.5 -41.5v-542q0 -38 38 -43q14 -2 73 -2v-45z" />
    <glyph glyph-name="Igrave" unicode="&#xcc;" horiz-adv-x="944" 
d="M913 677q-22 0 -42.5 -0.5t-45.5 -4.5q-13 -5 -17 -17t-5 -23.5t-1 -27.5v-17v-499q0 -18 5 -26t21.5 -11t37 -4.5t45.5 -1.5v-45h-329v45h18h16q10 2 15 2q40 0 51 9.5t11 48.5v564l-228 -669h-37l-240 669l-1 -483q0 -79 17 -105q23 -36 99 -36v-45h-281v45q29 0 54 8
q33 11 44 34t14.5 49.5t3.5 62.5v431q-2 21 -5 28t-18 16q-6 2 -17.5 2t-18.5 1h-55v45h257l195 -541l185 541h252v-45z" />
    <glyph glyph-name="Igrave" unicode="&#x41c;" horiz-adv-x="944" 
d="M913 677q-22 0 -42.5 -0.5t-45.5 -4.5q-13 -5 -17 -17t-5 -23.5t-1 -27.5v-17v-499q0 -18 5 -26t21.5 -11t37 -4.5t45.5 -1.5v-45h-329v45h18h16q10 2 15 2q40 0 51 9.5t11 48.5v564l-228 -669h-37l-240 669l-1 -483q0 -79 17 -105q23 -36 99 -36v-45h-281v45q29 0 54 8
q33 11 44 34t14.5 49.5t3.5 62.5v431q-2 21 -5 28t-18 16q-6 2 -17.5 2t-18.5 1h-55v45h257l195 -541l185 541h252v-45z" />
    <glyph glyph-name="Iacute" unicode="&#xcd;" horiz-adv-x="833" 
d="M804 0h-331v45q56 0 71 2q40 5 40 43v257h-335v-257q0 -38 38 -43q14 -2 73 -2v-45h-331v45q56 0 71 2q40 5 40 43v542q0 38 -26 41.5t-85 3.5v45h331v-45q-56 0 -83.5 -3.5t-27.5 -41.5v-233h335v233q0 38 -26 41.5t-85 3.5v45h331v-45q-56 0 -83.5 -3.5t-27.5 -41.5
v-542q0 -38 38 -43q14 -2 73 -2v-45z" />
    <glyph glyph-name="Iacute" unicode="&#x41d;" horiz-adv-x="833" 
d="M804 0h-331v45q56 0 71 2q40 5 40 43v257h-335v-257q0 -38 38 -43q14 -2 73 -2v-45h-331v45q56 0 71 2q40 5 40 43v542q0 38 -26 41.5t-85 3.5v45h331v-45q-56 0 -83.5 -3.5t-27.5 -41.5v-233h335v233q0 38 -26 41.5t-85 3.5v45h331v-45q-56 0 -83.5 -3.5t-27.5 -41.5
v-542q0 -38 38 -43q14 -2 73 -2v-45z" />
    <glyph glyph-name="Icircumflex" unicode="&#xce;" horiz-adv-x="778" 
d="M733 366q0 -68 -26 -140t-70 -125q-97 -116 -249 -116q-147 0 -247 115q-96 111 -96 260t96 260q101 117 247 117q76 0 137 -28t112 -85q44 -50 70 -120t26 -138zM605 359v16q0 54 -8.5 106.5t-19.5 79.5q-14 36 -46 71q-27 31 -62 45.5t-78 14.5q-47 0 -83.5 -15.5
t-65 -51t-41.5 -72.5q-8 -24 -19 -82q-5 -24 -7 -61t-2 -70q0 -125 44 -206q56 -104 171 -104q123 0 177 111q40 82 40 218z" />
    <glyph glyph-name="Icircumflex" unicode="&#x41e;" horiz-adv-x="778" 
d="M733 366q0 -68 -26 -140t-70 -125q-97 -116 -249 -116q-147 0 -247 115q-96 111 -96 260t96 260q101 117 247 117q76 0 137 -28t112 -85q44 -50 70 -120t26 -138zM605 359v16q0 54 -8.5 106.5t-19.5 79.5q-14 36 -46 71q-27 31 -62 45.5t-78 14.5q-47 0 -83.5 -15.5
t-65 -51t-41.5 -72.5q-8 -24 -19 -82q-5 -24 -7 -61t-2 -70q0 -125 44 -206q56 -104 171 -104q123 0 177 111q40 82 40 218z" />
    <glyph glyph-name="Idieresis" unicode="&#xcf;" horiz-adv-x="833" 
d="M804 0h-331v45q56 0 71 2q40 5 40 43v542q0 38 -26 41.5t-85 3.5h-113q-56 0 -83.5 -3.5t-27.5 -41.5v-542q0 -38 38 -43q14 -2 73 -2v-45h-331v45q56 0 71 2q40 5 40 43v542q0 38 -26 41.5t-85 3.5v45h775v-45q-56 0 -83.5 -3.5t-27.5 -41.5v-542q0 -38 38 -43
q14 -2 73 -2v-45z" />
    <glyph glyph-name="Idieresis" unicode="&#x41f;" horiz-adv-x="833" 
d="M804 0h-331v45q56 0 71 2q40 5 40 43v542q0 38 -26 41.5t-85 3.5h-113q-56 0 -83.5 -3.5t-27.5 -41.5v-542q0 -38 38 -43q14 -2 73 -2v-45h-331v45q56 0 71 2q40 5 40 43v542q0 38 -26 41.5t-85 3.5v45h775v-45q-56 0 -83.5 -3.5t-27.5 -41.5v-542q0 -38 38 -43
q14 -2 73 -2v-45z" />
    <glyph glyph-name="Eth" unicode="&#xd0;" horiz-adv-x="667" 
d="M649 522q0 -80 -57 -137q-23 -24 -55.5 -38t-70.5 -21q-27 -4 -39.5 -4.5t-19.5 -0.5l-49 -1l-110 2v-199q0 -21 1.5 -37t7.5 -27q2 -4 6 -6t11.5 -4t27 -3t31.5 -1h32v-45h-337v45h32q35 0 45 2q28 6 31 27l3 30v518v15q0 9 -2 14q-6 15 -25.5 20t-47.5 5h-24
q-9 1 -12 1v45h364q30 0 61 -4t60 -13q64 -19 100 -67.5t36 -115.5zM529 523q0 76 -34 114t-108 38q-17 1 -29.5 1.5t-20.5 0.5h-17q-12 0 -23.5 -0.5t-24.5 -4.5l-12 -4q-6 -4 -9 -11.5t-3 -25.5v-264l96 -2q94 0 136 31q49 36 49 127z" />
    <glyph glyph-name="Eth" unicode="&#x420;" horiz-adv-x="667" 
d="M649 522q0 -80 -57 -137q-23 -24 -55.5 -38t-70.5 -21q-27 -4 -39.5 -4.5t-19.5 -0.5l-49 -1l-110 2v-199q0 -21 1.5 -37t7.5 -27q2 -4 6 -6t11.5 -4t27 -3t31.5 -1h32v-45h-337v45h32q35 0 45 2q28 6 31 27l3 30v518v15q0 9 -2 14q-6 15 -25.5 20t-47.5 5h-24
q-9 1 -12 1v45h364q30 0 61 -4t60 -13q64 -19 100 -67.5t36 -115.5zM529 523q0 76 -34 114t-108 38q-17 1 -29.5 1.5t-20.5 0.5h-17q-12 0 -23.5 -0.5t-24.5 -4.5l-12 -4q-6 -4 -9 -11.5t-3 -25.5v-264l96 -2q94 0 136 31q49 36 49 127z" />
    <glyph glyph-name="Ntilde" unicode="&#xd1;" horiz-adv-x="722" 
d="M668 246q-18 -124 -91 -192.5t-196 -68.5q-147 0 -241.5 105.5t-94.5 253.5q0 78 21 145t67 122q50 61 108 92q64 34 139 34q54 0 99.5 -16.5t81.5 -52.5l41 63h37l14 -289l-43 -2q-9 31 -14 49.5t-15 42.5q-19 46 -29 63q-17 28 -46 52q-54 45 -125 45
q-58 0 -103.5 -32.5t-67 -86.5t-28.5 -106.5t-7 -123.5q0 -137 41 -213q54 -100 180 -100q98 0 157 64q53 58 69 160z" />
    <glyph glyph-name="Ntilde" unicode="&#x421;" horiz-adv-x="722" 
d="M668 246q-18 -124 -91 -192.5t-196 -68.5q-147 0 -241.5 105.5t-94.5 253.5q0 78 21 145t67 122q50 61 108 92q64 34 139 34q54 0 99.5 -16.5t81.5 -52.5l41 63h37l14 -289l-43 -2q-9 31 -14 49.5t-15 42.5q-19 46 -29 63q-17 28 -46 52q-54 45 -125 45
q-58 0 -103.5 -32.5t-67 -86.5t-28.5 -106.5t-7 -123.5q0 -137 41 -213q54 -100 180 -100q98 0 157 64q53 58 69 160z" />
    <glyph glyph-name="Ograve" unicode="&#xd2;" horiz-adv-x="667" 
d="M648 443h-40q-8 46 -16 77q-11 41 -26 73q-18 39 -52.5 61.5t-77.5 22.5q-21 0 -31.5 -5.5t-14.5 -15.5q-2 -18 -2 -32v-11v-499v-19q0 -18 2.5 -27.5t12.5 -14t24 -6.5t25 -2h29h25v-45h-349v45l74 3q25 0 36 7q7 6 9.5 15.5t2.5 22.5v14v521q0 19 -2 28
q-5 12 -18.5 16.5t-29.5 4.5q-41 0 -71.5 -18.5t-52.5 -54.5q-16 -23 -29 -73q-6 -21 -11 -48l-7 -37h-39l18 276h595z" />
    <glyph glyph-name="Ograve" unicode="&#x422;" horiz-adv-x="667" 
d="M648 443h-40q-8 46 -16 77q-11 41 -26 73q-18 39 -52.5 61.5t-77.5 22.5q-21 0 -31.5 -5.5t-14.5 -15.5q-2 -18 -2 -32v-11v-499v-19q0 -18 2.5 -27.5t12.5 -14t24 -6.5t25 -2h29h25v-45h-349v45l74 3q25 0 36 7q7 6 9.5 15.5t2.5 22.5v14v521q0 19 -2 28
q-5 12 -18.5 16.5t-29.5 4.5q-41 0 -71.5 -18.5t-52.5 -54.5q-16 -23 -29 -73q-6 -21 -11 -48l-7 -37h-39l18 276h595z" />
    <glyph glyph-name="Oacute" unicode="&#xd3;" horiz-adv-x="722" 
d="M738 677q-55 0 -84.5 -22t-53.5 -74l-186 -398q-46 -99 -82 -141q-49 -57 -113 -57q-63 0 -99 42q-31 37 -31 87q0 44 23.5 73.5t62.5 29.5q32 0 50.5 -19.5t18.5 -49.5q0 -36 -45 -65q-22 -14 -22 -28q0 -10 11.5 -17.5t30.5 -7.5q38 0 70.5 35.5t70.5 117.5l-249 424
q-30 50 -48.5 60t-70.5 10v45h320v-45h-42q-23 0 -28 -1q-24 -5 -24 -25q0 -13 11 -32l186 -316l118 260q11 23 15 33q11 26 11 42q0 20 -21.5 29.5t-71.5 9.5v45h272v-45z" />
    <glyph glyph-name="Oacute" unicode="&#x423;" horiz-adv-x="722" 
d="M738 677q-55 0 -84.5 -22t-53.5 -74l-186 -398q-46 -99 -82 -141q-49 -57 -113 -57q-63 0 -99 42q-31 37 -31 87q0 44 23.5 73.5t62.5 29.5q32 0 50.5 -19.5t18.5 -49.5q0 -36 -45 -65q-22 -14 -22 -28q0 -10 11.5 -17.5t30.5 -7.5q38 0 70.5 35.5t70.5 117.5l-249 424
q-30 50 -48.5 60t-70.5 10v45h320v-45h-42q-23 0 -28 -1q-24 -5 -24 -25q0 -13 11 -32l186 -316l118 260q11 23 15 33q11 26 11 42q0 20 -21.5 29.5t-71.5 9.5v45h272v-45z" />
    <glyph glyph-name="Ocircumflex" unicode="&#xd4;" horiz-adv-x="889" 
d="M846 367q0 -121 -108 -196q-100 -70 -239 -70v-11q0 -38 39 -43q14 -2 73 -2v-45h-332v45q57 0 72 2q40 5 40 43v11q-138 0 -238 68q-109 74 -109 192q0 117 109 191q101 69 238 69v11q0 38 -26.5 41.5t-85.5 3.5v45h332v-45q-57 0 -84.5 -3.5t-27.5 -41.5v-11
q140 0 240 -68q107 -73 107 -186zM718 360q0 86 -50 145q-60 71 -169 71v-428q110 0 169 69q50 58 50 143zM391 148v428q-115 0 -172 -75q-47 -61 -47 -155q0 -75 54 -132q62 -66 165 -66z" />
    <glyph glyph-name="Ocircumflex" unicode="&#x424;" horiz-adv-x="889" 
d="M846 367q0 -121 -108 -196q-100 -70 -239 -70v-11q0 -38 39 -43q14 -2 73 -2v-45h-332v45q57 0 72 2q40 5 40 43v11q-138 0 -238 68q-109 74 -109 192q0 117 109 191q101 69 238 69v11q0 38 -26.5 41.5t-85.5 3.5v45h332v-45q-57 0 -84.5 -3.5t-27.5 -41.5v-11
q140 0 240 -68q107 -73 107 -186zM718 360q0 86 -50 145q-60 71 -169 71v-428q110 0 169 69q50 58 50 143zM391 148v428q-115 0 -172 -75q-47 -61 -47 -155q0 -75 54 -132q62 -66 165 -66z" />
    <glyph glyph-name="Otilde" unicode="&#xd5;" horiz-adv-x="704" 
d="M716 0h-327v45l63 2q17 0 26 2q8 6 8 16q0 9 -7 21q-1 3 -13 19l-142 204l-102 -142q-11 -17 -22 -33q-13 -23 -13 -37q0 -16 4 -23.5t16 -18.5q10 -6 22.5 -8t25.5 -2h23v-45h-284v45q44 0 74.5 18t58.5 58l168 231l-197 283q-14 20 -15 21q-9 10 -21 14.5t-24 5.5
t-27 1h-17v45h307v-45l-60 -2q-27 0 -27 -13q0 -7 13 -27l134 -193l108 156q11 16 13.5 20t2.5 15q0 31 -29 39q-39 4 -56 5v45h275v-45q-54 0 -86 -21q-26 -17 -61 -66l-139 -191l207 -297q6 -10 13 -19.5t16 -19.5t30 -14q25 -3 36 -4h25v-45z" />
    <glyph glyph-name="Otilde" unicode="&#x425;" horiz-adv-x="704" 
d="M716 0h-327v45l63 2q17 0 26 2q8 6 8 16q0 9 -7 21q-1 3 -13 19l-142 204l-102 -142q-11 -17 -22 -33q-13 -23 -13 -37q0 -16 4 -23.5t16 -18.5q10 -6 22.5 -8t25.5 -2h23v-45h-284v45q44 0 74.5 18t58.5 58l168 231l-197 283q-14 20 -15 21q-9 10 -21 14.5t-24 5.5
t-27 1h-17v45h307v-45l-60 -2q-27 0 -27 -13q0 -7 13 -27l134 -193l108 156q11 16 13.5 20t2.5 15q0 31 -29 39q-39 4 -56 5v45h275v-45q-54 0 -86 -21q-26 -17 -61 -66l-139 -191l207 -297q6 -10 13 -19.5t16 -19.5t30 -14q25 -3 36 -4h25v-45z" />
    <glyph glyph-name="Odieresis" unicode="&#xd6;" horiz-adv-x="833" 
d="M825 -194h-40q-12 58 -37 110q-19 41 -56 61q-42 23 -108 23h-555v45q56 0 71 2q40 5 40 43v542q0 38 -26 41.5t-85 3.5v45h331v-45q-56 0 -83.5 -3.5t-27.5 -41.5v-542q0 -38 38 -43q14 -2 73 -2h113q56 0 71 2q40 5 40 43v542q0 38 -26 41.5t-85 3.5v45h331v-45
q-56 0 -83.5 -3.5t-27.5 -41.5v-542q0 -38 38 -43q14 -2 73 -2z" />
    <glyph glyph-name="Odieresis" unicode="&#x426;" horiz-adv-x="833" 
d="M825 -194h-40q-12 58 -37 110q-19 41 -56 61q-42 23 -108 23h-555v45q56 0 71 2q40 5 40 43v542q0 38 -26 41.5t-85 3.5v45h331v-45q-56 0 -83.5 -3.5t-27.5 -41.5v-542q0 -38 38 -43q14 -2 73 -2h113q56 0 71 2q40 5 40 43v542q0 38 -26 41.5t-85 3.5v45h331v-45
q-56 0 -83.5 -3.5t-27.5 -41.5v-542q0 -38 38 -43q14 -2 73 -2z" />
    <glyph glyph-name="multiply" unicode="&#xd7;" horiz-adv-x="815" 
d="M786 0h-341v45q58 0 75 2q46 5 46 43v254q-50 -29 -115 -49.5t-124 -20.5q-80 0 -132 34q-63 41 -63 121v203q0 38 -26 41.5t-85 3.5v45h331v-45q-56 0 -83.5 -3.5t-27.5 -41.5v-203q0 -53 35 -76q29 -19 90 -19q51 0 102 16.5t98 47.5v234q0 38 -26 41.5t-85 3.5v45h331
v-45q-56 0 -83.5 -3.5t-27.5 -41.5v-542q0 -38 38 -43q14 -2 73 -2v-45z" />
    <glyph glyph-name="multiply" unicode="&#x427;" horiz-adv-x="815" 
d="M786 0h-341v45q58 0 75 2q46 5 46 43v254q-50 -29 -115 -49.5t-124 -20.5q-80 0 -132 34q-63 41 -63 121v203q0 38 -26 41.5t-85 3.5v45h331v-45q-56 0 -83.5 -3.5t-27.5 -41.5v-203q0 -53 35 -76q29 -19 90 -19q51 0 102 16.5t98 47.5v234q0 38 -26 41.5t-85 3.5v45h331
v-45q-56 0 -83.5 -3.5t-27.5 -41.5v-542q0 -38 38 -43q14 -2 73 -2v-45z" />
    <glyph glyph-name="Oslash" unicode="&#xd8;" horiz-adv-x="1111" 
d="M1082 0h-1053v45q56 0 71 2q40 5 40 43v542q0 38 -26 41.5t-85 3.5v45h316v-45q-49 0 -72.5 -3.5t-23.5 -41.5v-542q0 -38 38 -43q14 -2 73 -2h30q55 0 70 2q41 5 41 43v542q0 38 -23 41.5t-73 3.5v45h301v-45q-49 0 -72.5 -3.5t-23.5 -41.5v-542q0 -38 39 -43
q14 -2 72 -2h30q56 0 71 2q40 5 40 43v542q0 38 -22.5 41.5t-73.5 3.5v45h316v-45q-56 0 -83.5 -3.5t-27.5 -41.5v-542q0 -38 38 -43q14 -2 73 -2v-45z" />
    <glyph glyph-name="Oslash" unicode="&#x428;" horiz-adv-x="1111" 
d="M1082 0h-1053v45q56 0 71 2q40 5 40 43v542q0 38 -26 41.5t-85 3.5v45h316v-45q-49 0 -72.5 -3.5t-23.5 -41.5v-542q0 -38 38 -43q14 -2 73 -2h30q55 0 70 2q41 5 41 43v542q0 38 -23 41.5t-73 3.5v45h301v-45q-49 0 -72.5 -3.5t-23.5 -41.5v-542q0 -38 39 -43
q14 -2 72 -2h30q56 0 71 2q40 5 40 43v542q0 38 -22.5 41.5t-73.5 3.5v45h316v-45q-56 0 -83.5 -3.5t-27.5 -41.5v-542q0 -38 38 -43q14 -2 73 -2v-45z" />
    <glyph glyph-name="Ugrave" unicode="&#xd9;" horiz-adv-x="1111" 
d="M1096 -194h-40q-12 58 -37 110q-19 40 -57 62t-100 22h-833v45q56 0 71 2q40 5 40 43v542q0 38 -26 41.5t-85 3.5v45h316v-45q-49 0 -72.5 -3.5t-23.5 -41.5v-542q0 -38 38 -43q14 -2 73 -2h30q55 0 70 2q41 5 41 43v542q0 38 -23 41.5t-73 3.5v45h301v-45
q-49 0 -72.5 -3.5t-23.5 -41.5v-542q0 -38 39 -43q14 -2 72 -2h30q56 0 71 2q40 5 40 43v542q0 38 -22.5 41.5t-73.5 3.5v45h316v-45q-56 0 -83.5 -3.5t-27.5 -41.5v-542q0 -38 36 -43q13 -2 68 -2z" />
    <glyph glyph-name="Ugrave" unicode="&#x429;" horiz-adv-x="1111" 
d="M1096 -194h-40q-12 58 -37 110q-19 40 -57 62t-100 22h-833v45q56 0 71 2q40 5 40 43v542q0 38 -26 41.5t-85 3.5v45h316v-45q-49 0 -72.5 -3.5t-23.5 -41.5v-542q0 -38 38 -43q14 -2 73 -2h30q55 0 70 2q41 5 41 43v542q0 38 -23 41.5t-73 3.5v45h301v-45
q-49 0 -72.5 -3.5t-23.5 -41.5v-542q0 -38 39 -43q14 -2 72 -2h30q56 0 71 2q40 5 40 43v542q0 38 -22.5 41.5t-73.5 3.5v45h316v-45q-56 0 -83.5 -3.5t-27.5 -41.5v-542q0 -38 36 -43q13 -2 68 -2z" />
    <glyph glyph-name="Uacute" unicode="&#xda;" horiz-adv-x="778" 
d="M760 200q0 -67 -35.5 -115.5t-95.5 -66.5t-126 -18h-364v45q5 1 12.5 1h11.5h12q31 0 48.5 4t24.5 21l2 29v518q0 39 -13 51q-9 8 -28 8q-28 0 -58 -22q-25 -19 -46 -51q-16 -23 -29 -73q-6 -21 -11 -48q0 -4 -3.5 -17t-3.5 -20h-39l18 276h439v-45h-32q-15 0 -30 -0.5
t-31 -3.5q-15 0 -15 -10q-3 -6 -6 -23t-3 -41v-199l110 2l49 -1q13 0 34.5 -2.5t24.5 -2.5q42 -8 71.5 -20.5t54.5 -38.5q57 -57 57 -137zM640 199q0 91 -49 127q-42 31 -136 31l-96 -2v-264q0 -15 2 -23t10 -14q8 -4 12 -4q8 -3 21.5 -4t26.5 -1l67 2q73 0 107.5 38.5
t34.5 113.5z" />
    <glyph glyph-name="Uacute" unicode="&#x42a;" horiz-adv-x="778" 
d="M760 200q0 -67 -35.5 -115.5t-95.5 -66.5t-126 -18h-364v45q5 1 12.5 1h11.5h12q31 0 48.5 4t24.5 21l2 29v518q0 39 -13 51q-9 8 -28 8q-28 0 -58 -22q-25 -19 -46 -51q-16 -23 -29 -73q-6 -21 -11 -48q0 -4 -3.5 -17t-3.5 -20h-39l18 276h439v-45h-32q-15 0 -30 -0.5
t-31 -3.5q-15 0 -15 -10q-3 -6 -6 -23t-3 -41v-199l110 2l49 -1q13 0 34.5 -2.5t24.5 -2.5q42 -8 71.5 -20.5t54.5 -38.5q57 -57 57 -137zM640 199q0 91 -49 127q-42 31 -136 31l-96 -2v-264q0 -15 2 -23t10 -14q8 -4 12 -4q8 -3 21.5 -4t26.5 -1l67 2q73 0 107.5 38.5
t34.5 113.5z" />
    <glyph glyph-name="Ucircumflex" unicode="&#xdb;" horiz-adv-x="1018" 
d="M989 0h-331v45q56 0 71 2q40 5 40 43v542q0 38 -26 41.5t-85 3.5v45h331v-45q-56 0 -83.5 -3.5t-27.5 -41.5v-542q0 -38 38 -43q14 -2 73 -2v-45zM650 200q0 -67 -35.5 -115.5t-95.5 -66.5t-126 -18h-364v45q5 1 12.5 1h11.5h12q31 0 48.5 4t24.5 21q2 5 2 14.5v14.5v518
l-3 30q-3 18 -21 23.5t-42 5.5h-13h-32v45h337v-45h-32q-15 0 -30 -0.5t-31 -3.5q-7 -4 -10 -5.5t-6 -6t-5.5 -21t-2.5 -40.5v-200l110 2l49 -1q18 0 28 -1t31 -4q42 -8 71.5 -20.5t54.5 -38.5q57 -57 57 -137zM529 199q0 91 -49 127q-42 31 -136 31l-96 -2v-264
q0 -15 2 -23t10 -14l12 -4q8 -3 21.5 -4t26.5 -1h25h26q11 2 16 2q73 0 107.5 38.5t34.5 113.5z" />
    <glyph glyph-name="Ucircumflex" unicode="&#x42b;" horiz-adv-x="1018" 
d="M989 0h-331v45q56 0 71 2q40 5 40 43v542q0 38 -26 41.5t-85 3.5v45h331v-45q-56 0 -83.5 -3.5t-27.5 -41.5v-542q0 -38 38 -43q14 -2 73 -2v-45zM650 200q0 -67 -35.5 -115.5t-95.5 -66.5t-126 -18h-364v45q5 1 12.5 1h11.5h12q31 0 48.5 4t24.5 21q2 5 2 14.5v14.5v518
l-3 30q-3 18 -21 23.5t-42 5.5h-13h-32v45h337v-45h-32q-15 0 -30 -0.5t-31 -3.5q-7 -4 -10 -5.5t-6 -6t-5.5 -21t-2.5 -40.5v-200l110 2l49 -1q18 0 28 -1t31 -4q42 -8 71.5 -20.5t54.5 -38.5q57 -57 57 -137zM529 199q0 91 -49 127q-42 31 -136 31l-96 -2v-264
q0 -15 2 -23t10 -14l12 -4q8 -3 21.5 -4t26.5 -1h25h26q11 2 16 2q73 0 107.5 38.5t34.5 113.5z" />
    <glyph glyph-name="Udieresis" unicode="&#xdc;" horiz-adv-x="667" 
d="M649 200q0 -67 -35.5 -115.5t-95.5 -66.5t-126 -18h-364v45q5 1 12.5 1h11.5h12q31 0 48.5 4t24.5 21q2 5 2 14.5v14.5v518l-3 30q-3 18 -21 23.5t-42 5.5h-13h-32v45h337v-45h-32q-15 0 -30 -0.5t-31 -3.5q-7 -4 -10 -5.5t-5.5 -6t-5.5 -21.5t-3 -41v-199l110 2l49 -1
q18 0 28 -1t31 -4q42 -8 71.5 -20.5t54.5 -38.5q57 -57 57 -137zM529 199q0 91 -49 127q-42 31 -136 31l-96 -2v-264q0 -15 2 -23t10 -14l12 -4q8 -3 21.5 -4t26.5 -1h25h26q11 2 16 2q73 0 107.5 38.5t34.5 113.5z" />
    <glyph glyph-name="Udieresis" unicode="&#x42c;" horiz-adv-x="667" 
d="M649 200q0 -67 -35.5 -115.5t-95.5 -66.5t-126 -18h-364v45q5 1 12.5 1h11.5h12q31 0 48.5 4t24.5 21q2 5 2 14.5v14.5v518l-3 30q-3 18 -21 23.5t-42 5.5h-13h-32v45h337v-45h-32q-15 0 -30 -0.5t-31 -3.5q-7 -4 -10 -5.5t-5.5 -6t-5.5 -21.5t-3 -41v-199l110 2l49 -1
q18 0 28 -1t31 -4q42 -8 71.5 -20.5t54.5 -38.5q57 -57 57 -137zM529 199q0 91 -49 127q-42 31 -136 31l-96 -2v-264q0 -15 2 -23t10 -14l12 -4q8 -3 21.5 -4t26.5 -1h25h26q11 2 16 2q73 0 107.5 38.5t34.5 113.5z" />
    <glyph glyph-name="Yacute" unicode="&#xdd;" horiz-adv-x="722" 
d="M670 344q0 -149 -92 -252q-96 -107 -244 -107q-123 0 -196 68.5t-91 192.5l46 8q16 -103 68 -160q58 -64 158 -64q125 0 179 100q42 78 42 214l-291 3v52h290q0 89 -34 173q-22 56 -67 88t-104 32q-71 0 -125 -45q-28 -23 -45 -51q-12 -19 -30 -64q-5 -14 -14 -42
t-15 -50l-43 2l14 289h37l41 -63q34 34 82 51.5t99 17.5q76 0 136 -32t111 -94q46 -55 67 -122t21 -145z" />
    <glyph glyph-name="Yacute" unicode="&#x42d;" horiz-adv-x="722" 
d="M670 344q0 -149 -92 -252q-96 -107 -244 -107q-123 0 -196 68.5t-91 192.5l46 8q16 -103 68 -160q58 -64 158 -64q125 0 179 100q42 78 42 214l-291 3v52h290q0 89 -34 173q-22 56 -67 88t-104 32q-71 0 -125 -45q-28 -23 -45 -51q-12 -19 -30 -64q-5 -14 -14 -42
t-15 -50l-43 2l14 289h37l41 -63q34 34 82 51.5t99 17.5q76 0 136 -32t111 -94q46 -55 67 -122t21 -145z" />
    <glyph glyph-name="Thorn" unicode="&#xde;" horiz-adv-x="1111" 
d="M1066 366q0 -68 -26 -140t-70 -125q-97 -116 -249 -116q-144 0 -243.5 109.5t-99.5 252.5h-129v-257q0 -38 38 -43q14 -2 73 -2v-45h-331v45q56 0 71 2q40 5 40 43v542q0 38 -26 41.5t-85 3.5v45h331v-45q-56 0 -83.5 -3.5t-27.5 -41.5v-233h131q14 139 107 236
q98 102 234 102q76 0 137 -28t112 -85q44 -50 70 -120t26 -138zM938 359v16q0 54 -8.5 106.5t-19.5 79.5q-14 36 -46 71q-27 31 -62 45.5t-78 14.5q-47 0 -83.5 -15.5t-65 -51t-41.5 -72.5q-8 -24 -19 -82q-5 -24 -7 -61t-2 -70q0 -125 44 -206q56 -104 171 -104
q123 0 177 111q40 82 40 218z" />
    <glyph glyph-name="Thorn" unicode="&#x42e;" horiz-adv-x="1111" 
d="M1066 366q0 -68 -26 -140t-70 -125q-97 -116 -249 -116q-144 0 -243.5 109.5t-99.5 252.5h-129v-257q0 -38 38 -43q14 -2 73 -2v-45h-331v45q56 0 71 2q40 5 40 43v542q0 38 -26 41.5t-85 3.5v45h331v-45q-56 0 -83.5 -3.5t-27.5 -41.5v-233h131q14 139 107 236
q98 102 234 102q76 0 137 -28t112 -85q44 -50 70 -120t26 -138zM938 359v16q0 54 -8.5 106.5t-19.5 79.5q-14 36 -46 71q-27 31 -62 45.5t-78 14.5q-47 0 -83.5 -15.5t-65 -51t-41.5 -72.5q-8 -24 -19 -82q-5 -24 -7 -61t-2 -70q0 -125 44 -206q56 -104 171 -104
q123 0 177 111q40 82 40 218z" />
    <glyph glyph-name="germandbls" unicode="&#xdf;" horiz-adv-x="722" 
d="M692 0h-330v45h32q16 0 28 1t27 5.5t18 16t3 35.5v246h-56q-89 0 -127 -45q-34 -40 -34 -129l-7 -69q-8 -47 -33 -82q-11 -16 -36 -27.5t-46 -11.5q-71 0 -102 55q-24 43 -24 119h41q0 -34 6 -58q10 -41 33 -41q10 0 22 8q15 20 24 58q6 26 9 38l17 65q16 62 53.5 95.5
t100.5 40.5q-93 0 -157 41q-76 48 -76 138q0 92 82 139q67 39 166 39h364v-45q-54 0 -71 -3q-40 -7 -40 -56v-513q0 -21 2.5 -31t7.5 -14q13 -9 27.5 -11.5t36.5 -2.5h20.5t18.5 -1v-45zM470 399v233q0 31 -17.5 38t-79.5 7q-90 0 -129 -27q-46 -32 -46 -114q0 -83 57 -115
q42 -24 130 -24q14 0 42.5 1t42.5 1z" />
    <glyph glyph-name="germandbls" unicode="&#x42f;" horiz-adv-x="722" 
d="M692 0h-330v45h32q16 0 28 1t27 5.5t18 16t3 35.5v246h-56q-89 0 -127 -45q-34 -40 -34 -129l-7 -69q-8 -47 -33 -82q-11 -16 -36 -27.5t-46 -11.5q-71 0 -102 55q-24 43 -24 119h41q0 -34 6 -58q10 -41 33 -41q10 0 22 8q15 20 24 58q6 26 9 38l17 65q16 62 53.5 95.5
t100.5 40.5q-93 0 -157 41q-76 48 -76 138q0 92 82 139q67 39 166 39h364v-45q-54 0 -71 -3q-40 -7 -40 -56v-513q0 -21 2.5 -31t7.5 -14q13 -9 27.5 -11.5t36.5 -2.5h20.5t18.5 -1v-45zM470 399v233q0 31 -17.5 38t-79.5 7q-90 0 -129 -27q-46 -32 -46 -114q0 -83 57 -115
q42 -24 130 -24q14 0 42.5 1t42.5 1z" />
    <glyph glyph-name="agrave" unicode="&#xe0;" 
d="M547 44q-12 -18 -22 -26q-31 -27 -71 -27q-37 0 -58 18t-31 56q-32 -39 -79.5 -59.5t-100.5 -20.5q-61 0 -99 28q-42 31 -42 91q0 86 121 136q72 30 195 47v61q0 47 -28 66.5t-80 19.5q-42 0 -67 -9t-25 -23q0 -7 14 -34q7 -14 7 -25q0 -23 -15.5 -36.5t-36.5 -13.5
q-24 0 -40.5 16t-16.5 48q0 43 44 78q55 44 151 44q109 0 153 -49q31 -35 31 -98v-236q0 -48 39 -48q15 0 31 10q2 1 7 5zM360 163v84q-140 -25 -179 -53.5t-39 -80.5q0 -36 24 -57t59 -21q53 0 94 39t41 89z" />
    <glyph glyph-name="agrave" unicode="&#x430;" 
d="M547 44q-12 -18 -22 -26q-31 -27 -71 -27q-37 0 -58 18t-31 56q-32 -39 -79.5 -59.5t-100.5 -20.5q-61 0 -99 28q-42 31 -42 91q0 86 121 136q72 30 195 47v61q0 47 -28 66.5t-80 19.5q-42 0 -67 -9t-25 -23q0 -7 14 -34q7 -14 7 -25q0 -23 -15.5 -36.5t-36.5 -13.5
q-24 0 -40.5 16t-16.5 48q0 43 44 78q55 44 151 44q109 0 153 -49q31 -35 31 -98v-236q0 -48 39 -48q15 0 31 10q2 1 7 5zM360 163v84q-140 -25 -179 -53.5t-39 -80.5q0 -36 24 -57t59 -21q53 0 94 39t41 89z" />
    <glyph glyph-name="aacute" unicode="&#xe1;" horiz-adv-x="518" 
d="M486 231q0 -103 -66.5 -175.5t-160.5 -72.5t-159 72t-65 176q0 176 49 289q60 139 181 139h71q49 0 65.5 5t16.5 23h29q0 -55 -38 -86q-48 -39 -154 -39q-75 0 -117 -49q-36 -41 -51 -120q32 40 76.5 63t95.5 23q94 0 160.5 -72.5t66.5 -175.5zM382 231q0 87 -18 134
q-28 74 -105 74q-76 0 -105 -74q-18 -46 -18 -134q0 -87 18 -134q28 -74 105 -74q76 0 105 74q18 46 18 134z" />
    <glyph glyph-name="aacute" unicode="&#x431;" horiz-adv-x="518" 
d="M486 231q0 -103 -66.5 -175.5t-160.5 -72.5t-159 72t-65 176q0 176 49 289q60 139 181 139h71q49 0 65.5 5t16.5 23h29q0 -55 -38 -86q-48 -39 -154 -39q-75 0 -117 -49q-36 -41 -51 -120q32 40 76.5 63t95.5 23q94 0 160.5 -72.5t66.5 -175.5zM382 231q0 87 -18 134
q-28 74 -105 74q-76 0 -105 -74q-18 -46 -18 -134q0 -87 18 -134q28 -74 105 -74q76 0 105 74q18 46 18 134z" />
    <glyph glyph-name="acircumflex" unicode="&#xe2;" 
d="M510 127q0 -68 -66 -100q-56 -27 -159 -27h-256v35q49 0 64.5 5.5t15.5 29.5v324q0 24 -15.5 29.5t-64.5 5.5v35h288q74 0 120.5 -33.5t46.5 -87.5q0 -48 -34 -76q-28 -23 -73 -27q70 -7 105 -41q28 -27 28 -72zM391 343q0 45 -28 65.5t-78 20.5q-47 0 -65.5 -2.5
t-18.5 -32.5v-137h84q49 0 77.5 20t28.5 66zM411 127q0 55 -39 76q-29 16 -87 16h-84v-149q0 -24 16.5 -29.5t67.5 -5.5q57 0 89 20q37 23 37 72z" />
    <glyph glyph-name="acircumflex" unicode="&#x432;" 
d="M510 127q0 -68 -66 -100q-56 -27 -159 -27h-256v35q49 0 64.5 5.5t15.5 29.5v324q0 24 -15.5 29.5t-64.5 5.5v35h288q74 0 120.5 -33.5t46.5 -87.5q0 -48 -34 -76q-28 -23 -73 -27q70 -7 105 -41q28 -27 28 -72zM391 343q0 45 -28 65.5t-78 20.5q-47 0 -65.5 -2.5
t-18.5 -32.5v-137h84q49 0 77.5 20t28.5 66zM411 127q0 55 -39 76q-29 16 -87 16h-84v-149q0 -24 16.5 -29.5t67.5 -5.5q57 0 89 20q37 23 37 72z" />
    <glyph glyph-name="atilde" unicode="&#xe3;" horiz-adv-x="463" 
d="M453 297h-38q-10 65 -27 88q-30 41 -107 41q-54 0 -66.5 -4.5t-12.5 -27.5v-324q0 -24 14 -29.5t66 -5.5v-35h-252v35q47 0 54 1q26 4 26 34v324q0 24 -14 29.5t-66 5.5v35h414z" />
    <glyph glyph-name="atilde" unicode="&#x433;" horiz-adv-x="463" 
d="M453 297h-38q-10 65 -27 88q-30 41 -107 41q-54 0 -66.5 -4.5t-12.5 -27.5v-324q0 -24 14 -29.5t66 -5.5v-35h-252v35q47 0 54 1q26 4 26 34v324q0 24 -14 29.5t-66 5.5v35h414z" />
    <glyph glyph-name="adieresis" unicode="&#xe4;" horiz-adv-x="537" 
d="M516 -124h-38q-12 75 -40 99.5t-74 24.5h-205q-58 0 -85 -38q-20 -27 -29 -86h-38l9 159q44 0 78.5 40t34.5 104v214q0 25 -15.5 31t-64.5 6v34h458v-35q-47 0 -63.5 -2.5t-16.5 -32.5v-324q0 -24 14 -29.5t66 -5.5zM335 70v324q0 22 -14.5 27t-66.5 5q-53 0 -68 -6
t-15 -26v-215q0 -43 -17.5 -85t-37.5 -57h139q48 0 64 6.5t16 26.5z" />
    <glyph glyph-name="adieresis" unicode="&#x434;" horiz-adv-x="537" 
d="M516 -124h-38q-12 75 -40 99.5t-74 24.5h-205q-58 0 -85 -38q-20 -27 -29 -86h-38l9 159q44 0 78.5 40t34.5 104v214q0 25 -15.5 31t-64.5 6v34h458v-35q-47 0 -63.5 -2.5t-16.5 -32.5v-324q0 -24 14 -29.5t66 -5.5zM335 70v324q0 22 -14.5 27t-66.5 5q-53 0 -68 -6
t-15 -26v-215q0 -43 -17.5 -85t-37.5 -57h139q48 0 64 6.5t16 26.5z" />
    <glyph glyph-name="aring" unicode="&#xe5;" horiz-adv-x="500" 
d="M465 124q-32 -69 -81 -104t-122 -35q-50 0 -93.5 16.5t-75.5 52.5t-45 76.5t-13 94.5q0 103 60 176q64 78 164 78q102 0 156 -75q49 -68 49 -179h-327q0 -79 31 -129q37 -60 111 -60q54 0 90.5 27t61.5 80zM359 303q0 55 -23 92q-27 44 -80 44q-60 0 -92 -60
q-25 -47 -25 -113h168q40 0 46 4t6 33z" />
    <glyph glyph-name="aring" unicode="&#x435;" horiz-adv-x="500" 
d="M465 124q-32 -69 -81 -104t-122 -35q-50 0 -93.5 16.5t-75.5 52.5t-45 76.5t-13 94.5q0 103 60 176q64 78 164 78q102 0 156 -75q49 -68 49 -179h-327q0 -79 31 -129q37 -60 111 -60q54 0 90.5 27t61.5 80zM359 303q0 55 -23 92q-27 44 -80 44q-60 0 -92 -60
q-25 -47 -25 -113h168q40 0 46 4t6 33z" />
    <glyph glyph-name="ae" unicode="&#xe6;" horiz-adv-x="814" 
d="M819 0h-259v35q55 0 55 18q0 9 -13 25l-113 143l-36 -38v-113q0 -25 9.5 -30t55.5 -5v-35h-222v35q47 0 56 4.5t9 30.5v113l-36 38l-113 -143q-13 -16 -13 -25q0 -18 55 -18v-35h-259v35q40 0 66.5 17t65.5 65l134 164l-78 77q-54 47 -93 62q-24 9 -61 9v35h226v-35
q-27 0 -40.5 -2.5t-13.5 -13.5q0 -15 29 -45l131 -131v157q0 25 -9.5 30t-55.5 5v35h222v-35q-47 0 -56 -4.5t-9 -30.5v-157l131 131q29 30 29 45q0 11 -13.5 13.5t-40.5 2.5v35h226v-35q-37 0 -61 -9q-39 -15 -93 -62l-78 -77l134 -164q39 -48 65.5 -65t66.5 -17v-35z" />
    <glyph glyph-name="ae" unicode="&#x436;" horiz-adv-x="814" 
d="M819 0h-259v35q55 0 55 18q0 9 -13 25l-113 143l-36 -38v-113q0 -25 9.5 -30t55.5 -5v-35h-222v35q47 0 56 4.5t9 30.5v113l-36 38l-113 -143q-13 -16 -13 -25q0 -18 55 -18v-35h-259v35q40 0 66.5 17t65.5 65l134 164l-78 77q-54 47 -93 62q-24 9 -61 9v35h226v-35
q-27 0 -40.5 -2.5t-13.5 -13.5q0 -15 29 -45l131 -131v157q0 25 -9.5 30t-55.5 5v35h222v-35q-47 0 -56 -4.5t-9 -30.5v-157l131 131q29 30 29 45q0 11 -13.5 13.5t-40.5 2.5v35h226v-35q-37 0 -61 -9q-39 -15 -93 -62l-78 -77l134 -164q39 -48 65.5 -65t66.5 -17v-35z" />
    <glyph glyph-name="ccedilla" unicode="&#xe7;" horiz-adv-x="481" 
d="M447 125q0 -58 -61.5 -100.5t-151.5 -42.5q-76 0 -134 41t-76 108l38 14q15 -53 59.5 -86t103.5 -33q55 0 87 29t32 70q0 49 -30.5 70t-87.5 21h-84v41h84q107 0 107 91q0 41 -26.5 66.5t-70.5 25.5q-114 0 -153 -140h-40l9 173h32l26 -31q48 37 127 37q83 0 138.5 -36.5
t55.5 -94.5q0 -48 -30.5 -75t-82.5 -33q55 0 92 -29.5t37 -85.5z" />
    <glyph glyph-name="ccedilla" unicode="&#x437;" horiz-adv-x="481" 
d="M447 125q0 -58 -61.5 -100.5t-151.5 -42.5q-76 0 -134 41t-76 108l38 14q15 -53 59.5 -86t103.5 -33q55 0 87 29t32 70q0 49 -30.5 70t-87.5 21h-84v41h84q107 0 107 91q0 41 -26.5 66.5t-70.5 25.5q-114 0 -153 -140h-40l9 173h32l26 -31q48 37 127 37q83 0 138.5 -36.5
t55.5 -94.5q0 -48 -30.5 -75t-82.5 -33q55 0 92 -29.5t37 -85.5z" />
    <glyph glyph-name="egrave" unicode="&#xe8;" horiz-adv-x="592" 
d="M563 0h-247v35q52 0 63.5 4.5t11.5 30.5v231l-190 -200v-31q0 -25 12 -30t63 -5v-35h-247v35q47 0 54 1q26 4 26 34v324q0 24 -14 29.5t-66 5.5v35h247v-35q-52 0 -63.5 -4.5t-11.5 -30.5v-230l190 200v30q0 25 -12 30t-63 5v35h247v-35q-47 0 -63.5 -2.5t-16.5 -32.5
v-324q0 -24 14 -29.5t66 -5.5v-35z" />
    <glyph glyph-name="egrave" unicode="&#x438;" horiz-adv-x="592" 
d="M563 0h-247v35q52 0 63.5 4.5t11.5 30.5v231l-190 -200v-31q0 -25 12 -30t63 -5v-35h-247v35q47 0 54 1q26 4 26 34v324q0 24 -14 29.5t-66 5.5v35h247v-35q-52 0 -63.5 -4.5t-11.5 -30.5v-230l190 200v30q0 25 -12 30t-63 5v35h247v-35q-47 0 -63.5 -2.5t-16.5 -32.5
v-324q0 -24 14 -29.5t66 -5.5v-35z" />
    <glyph glyph-name="eacute" unicode="&#xe9;" horiz-adv-x="592" 
d="M438 677q0 -69 -35 -111q-38 -46 -109 -46q-66 0 -102.5 44.5t-36.5 112.5h31q16 -97 114 -97q44 0 71 26t37 71h30zM563 0h-247v35q52 0 63.5 4.5t11.5 30.5v227l-190 -192v-35q0 -25 12 -30t63 -5v-35h-247v35q47 0 54 1q26 4 26 34v324q0 24 -14 29.5t-66 5.5v35h247
v-35q-52 0 -63.5 -4.5t-11.5 -30.5v-226l190 192v34q0 25 -12 30t-63 5v35h247v-35q-47 0 -63.5 -2.5t-16.5 -32.5v-324q0 -24 14 -29.5t66 -5.5v-35z" />
    <glyph glyph-name="eacute" unicode="&#x439;" horiz-adv-x="592" 
d="M438 677q0 -69 -35 -111q-38 -46 -109 -46q-66 0 -102.5 44.5t-36.5 112.5h31q16 -97 114 -97q44 0 71 26t37 71h30zM563 0h-247v35q52 0 63.5 4.5t11.5 30.5v227l-190 -192v-35q0 -25 12 -30t63 -5v-35h-247v35q47 0 54 1q26 4 26 34v324q0 24 -14 29.5t-66 5.5v35h247
v-35q-52 0 -63.5 -4.5t-11.5 -30.5v-226l190 192v34q0 25 -12 30t-63 5v35h247v-35q-47 0 -63.5 -2.5t-16.5 -32.5v-324q0 -24 14 -29.5t66 -5.5v-35z" />
    <glyph glyph-name="ecircumflex" unicode="&#xea;" horiz-adv-x="592" 
d="M588 0h-259v35q55 0 55 18q0 9 -13 25l-122 149l-47 -44v-113q0 -24 13.5 -29.5t61.5 -5.5v-35h-247v35q47 0 54 1q26 4 26 34v324q0 24 -14 29.5t-66 5.5v35h247v-35q-43 0 -59 -2.5t-16 -32.5v-157l152 137q27 26 27 39q0 11 -15 13.5t-43 2.5v35h236v-35
q-39 0 -75.5 -17t-78.5 -54l-80 -73l131 -168q35 -41 60 -59q33 -23 72 -23v-35z" />
    <glyph glyph-name="ecircumflex" unicode="&#x43a;" horiz-adv-x="592" 
d="M588 0h-259v35q55 0 55 18q0 9 -13 25l-122 149l-47 -44v-113q0 -24 13.5 -29.5t61.5 -5.5v-35h-247v35q47 0 54 1q26 4 26 34v324q0 24 -14 29.5t-66 5.5v35h247v-35q-43 0 -59 -2.5t-16 -32.5v-157l152 137q27 26 27 39q0 11 -15 13.5t-43 2.5v35h236v-35
q-39 0 -75.5 -17t-78.5 -54l-80 -73l131 -168q35 -41 60 -59q33 -23 72 -23v-35z" />
    <glyph glyph-name="edieresis" unicode="&#xeb;" 
d="M526 0h-252v35q47 0 54 1q26 4 26 34v324q0 21 -15.5 26.5t-65.5 5.5q-53 0 -68 -6t-15 -26v-251q0 -80 -41 -123q-33 -35 -78 -35q-34 0 -60 18q-32 22 -32 62q0 25 17 42t44 17q21 0 36 -14t15 -38q0 -8 -3 -16t-6 -18q0 -7 10 -7q23 0 39.5 37.5t16.5 90.5v234
q0 24 -18 30t-62 6v35h458v-35q-47 0 -63.5 -2.5t-16.5 -32.5v-324q0 -24 14 -29.5t66 -5.5v-35z" />
    <glyph glyph-name="edieresis" unicode="&#x43b;" 
d="M526 0h-252v35q47 0 54 1q26 4 26 34v324q0 21 -15.5 26.5t-65.5 5.5q-53 0 -68 -6t-15 -26v-251q0 -80 -41 -123q-33 -35 -78 -35q-34 0 -60 18q-32 22 -32 62q0 25 17 42t44 17q21 0 36 -14t15 -38q0 -8 -3 -16t-6 -18q0 -7 10 -7q23 0 39.5 37.5t16.5 90.5v234
q0 24 -18 30t-62 6v35h458v-35q-47 0 -63.5 -2.5t-16.5 -32.5v-324q0 -24 14 -29.5t66 -5.5v-35z" />
    <glyph glyph-name="igrave" unicode="&#xec;" horiz-adv-x="667" 
d="M639 0h-247v35q52 0 63.5 4.5t11.5 30.5v298l-146 -369l-22 1l-147 368v-298q0 -25 12 -30t62 -5v-35h-197v35q47 0 54 1q26 4 26 34v324q0 24 -14 29.5t-66 5.5v35h182l123 -313l123 313h182v-35q-47 0 -63.5 -2.5t-16.5 -32.5v-324q0 -24 14 -29.5t66 -5.5v-35z" />
    <glyph glyph-name="igrave" unicode="&#x43c;" horiz-adv-x="667" 
d="M639 0h-247v35q52 0 63.5 4.5t11.5 30.5v298l-146 -369l-22 1l-147 368v-298q0 -25 12 -30t62 -5v-35h-197v35q47 0 54 1q26 4 26 34v324q0 24 -14 29.5t-66 5.5v35h182l123 -313l123 313h182v-35q-47 0 -63.5 -2.5t-16.5 -32.5v-324q0 -24 14 -29.5t66 -5.5v-35z" />
    <glyph glyph-name="iacute" unicode="&#xed;" horiz-adv-x="592" 
d="M563 0h-247v35q52 0 63.5 4.5t11.5 30.5v145h-190v-145q0 -25 12 -30t63 -5v-35h-247v35q47 0 54 1q26 4 26 34v324q0 24 -14 29.5t-66 5.5v35h247v-35q-52 0 -63.5 -4.5t-11.5 -30.5v-136h190v136q0 25 -12 30t-63 5v35h247v-35q-47 0 -63.5 -2.5t-16.5 -32.5v-324
q0 -24 14 -29.5t66 -5.5v-35z" />
    <glyph glyph-name="iacute" unicode="&#x43d;" horiz-adv-x="592" 
d="M563 0h-247v35q52 0 63.5 4.5t11.5 30.5v145h-190v-145q0 -25 12 -30t63 -5v-35h-247v35q47 0 54 1q26 4 26 34v324q0 24 -14 29.5t-66 5.5v35h247v-35q-52 0 -63.5 -4.5t-11.5 -30.5v-136h190v136q0 25 -12 30t-63 5v35h247v-35q-47 0 -63.5 -2.5t-16.5 -32.5v-324
q0 -24 14 -29.5t66 -5.5v-35z" />
    <glyph glyph-name="icircumflex" unicode="&#xee;" horiz-adv-x="518" 
d="M486 231q0 -103 -66.5 -175.5t-160.5 -72.5t-160.5 72.5t-66.5 175.5t66.5 175.5t160.5 72.5t160.5 -72.5t66.5 -175.5zM382 231q0 87 -18 134q-28 74 -105 74q-76 0 -105 -74q-18 -46 -18 -134q0 -87 18 -134q28 -74 105 -74q76 0 105 74q18 46 18 134z" />
    <glyph glyph-name="icircumflex" unicode="&#x43e;" horiz-adv-x="518" 
d="M486 231q0 -103 -66.5 -175.5t-160.5 -72.5t-160.5 72.5t-66.5 175.5t66.5 175.5t160.5 72.5t160.5 -72.5t66.5 -175.5zM382 231q0 87 -18 134q-28 74 -105 74q-76 0 -105 -74q-18 -46 -18 -134q0 -87 18 -134q28 -74 105 -74q76 0 105 74q18 46 18 134z" />
    <glyph glyph-name="idieresis" unicode="&#xef;" horiz-adv-x="611" 
d="M580 0h-252v35q47 0 54 1q26 4 26 34v324q0 23 -14 27.5t-67 4.5h-46q-44 0 -62 -2.5t-18 -29.5v-324q0 -24 14 -29.5t66 -5.5v-35h-252v35q47 0 54 1q26 4 26 34v324q0 24 -14 29.5t-66 5.5v35h551v-35q-47 0 -63.5 -2.5t-16.5 -32.5v-324q0 -24 14 -29.5t66 -5.5v-35z
" />
    <glyph glyph-name="idieresis" unicode="&#x43f;" horiz-adv-x="611" 
d="M580 0h-252v35q47 0 54 1q26 4 26 34v324q0 23 -14 27.5t-67 4.5h-46q-44 0 -62 -2.5t-18 -29.5v-324q0 -24 14 -29.5t66 -5.5v-35h-252v35q47 0 54 1q26 4 26 34v324q0 24 -14 29.5t-66 5.5v35h551v-35q-47 0 -63.5 -2.5t-16.5 -32.5v-324q0 -24 14 -29.5t66 -5.5v-35z
" />
    <glyph glyph-name="eth" unicode="&#xf0;" horiz-adv-x="574" 
d="M535 230q0 -95 -51 -166q-57 -79 -148 -79q-43 0 -79 19.5t-58 55.5v-193q0 -23 6 -28t33 -9h46v-35h-254v35l20 1l27 2q15 2 21.5 6t6.5 17l2 36v485q-3 21 -14 27.5t-32 6.5h-14l-19 1v42l168 10l-2 -78q23 43 60.5 68t83.5 25q97 0 156 -93q14 -26 21 -45t11 -35
q9 -36 9 -76zM433 235q0 19 -1 36t-4 38q-8 50 -33 80q-30 36 -77 36q-69 0 -99 -71q-21 -50 -21 -132q0 -35 5.5 -66t20.5 -55q16 -29 39.5 -45.5t54.5 -16.5q65 0 94 69q21 51 21 127z" />
    <glyph glyph-name="eth" unicode="&#x440;" horiz-adv-x="574" 
d="M535 230q0 -95 -51 -166q-57 -79 -148 -79q-43 0 -79 19.5t-58 55.5v-193q0 -23 6 -28t33 -9h46v-35h-254v35l20 1l27 2q15 2 21.5 6t6.5 17l2 36v485q-3 21 -14 27.5t-32 6.5h-14l-19 1v42l168 10l-2 -78q23 43 60.5 68t83.5 25q97 0 156 -93q14 -26 21 -45t11 -35
q9 -36 9 -76zM433 235q0 19 -1 36t-4 38q-8 50 -33 80q-30 36 -77 36q-69 0 -99 -71q-21 -50 -21 -132q0 -35 5.5 -66t20.5 -55q16 -29 39.5 -45.5t54.5 -16.5q65 0 94 69q21 51 21 127z" />
    <glyph glyph-name="ntilde" unicode="&#xf1;" horiz-adv-x="444" 
d="M421 130q-23 -61 -55 -94q-50 -51 -133 -51q-87 0 -146 69.5t-59 161.5q0 110 61 184q65 79 171 79q71 0 114 -42q35 -35 35 -70q0 -30 -16 -51t-43 -21t-43.5 14.5t-16.5 40.5q0 22 18 41q9 9 9 16q0 17 -17 24.5t-41 7.5q-66 0 -101 -69q-27 -54 -27 -130
q0 -82 28 -132q35 -63 109 -63q43 0 74 30q26 25 43 70z" />
    <glyph glyph-name="ntilde" unicode="&#x441;" horiz-adv-x="444" 
d="M421 130q-23 -61 -55 -94q-50 -51 -133 -51q-87 0 -146 69.5t-59 161.5q0 110 61 184q65 79 171 79q71 0 114 -42q35 -35 35 -70q0 -30 -16 -51t-43 -21t-43.5 14.5t-16.5 40.5q0 22 18 41q9 9 9 16q0 17 -17 24.5t-41 7.5q-66 0 -101 -69q-27 -54 -27 -130
q0 -82 28 -132q35 -63 109 -63q43 0 74 30q26 25 43 70z" />
    <glyph glyph-name="ograve" unicode="&#xf2;" horiz-adv-x="500" 
d="M487 297h-38q-12 75 -40 99.5t-74 24.5q-30 0 -34.5 -3t-4.5 -24v-324q0 -24 14 -29.5t66 -5.5v-35h-252v35q47 0 54 1q26 4 26 34v324q0 20 -5 23.5t-34 3.5q-58 0 -85 -38q-20 -27 -29 -86h-38l9 167h456z" />
    <glyph glyph-name="ograve" unicode="&#x442;" horiz-adv-x="500" 
d="M487 297h-38q-12 75 -40 99.5t-74 24.5q-30 0 -34.5 -3t-4.5 -24v-324q0 -24 14 -29.5t66 -5.5v-35h-252v35q47 0 54 1q26 4 26 34v324q0 20 -5 23.5t-34 3.5q-58 0 -85 -38q-20 -27 -29 -86h-38l9 167h456z" />
    <glyph glyph-name="oacute" unicode="&#xf3;" horiz-adv-x="537" 
d="M531 429q-37 0 -58 -23q-14 -16 -31 -58l-141 -378q-65 -176 -159 -176q-36 0 -59.5 20.5t-23.5 57.5q0 26 17.5 43.5t43.5 17.5q22 0 37 -14t15 -35q0 -5 -3.5 -15.5t-3.5 -13.5q0 -6 7 -6q34 0 93 159l-171 367q-16 35 -29.5 44.5t-51.5 9.5v35h236v-35q-39 0 -53 -3.5
t-14 -16.5q0 -11 16 -46l113 -244l72 206q20 55 20 75q0 17 -15 23t-54 6v35h197v-35z" />
    <glyph glyph-name="oacute" unicode="&#x443;" horiz-adv-x="537" 
d="M531 429q-37 0 -58 -23q-14 -16 -31 -58l-141 -378q-65 -176 -159 -176q-36 0 -59.5 20.5t-23.5 57.5q0 26 17.5 43.5t43.5 17.5q22 0 37 -14t15 -35q0 -5 -3.5 -15.5t-3.5 -13.5q0 -6 7 -6q34 0 93 159l-171 367q-16 35 -29.5 44.5t-51.5 9.5v35h236v-35q-39 0 -53 -3.5
t-14 -16.5q0 -11 16 -46l113 -244l72 206q20 55 20 75q0 17 -15 23t-54 6v35h197v-35z" />
    <glyph glyph-name="ocircumflex" unicode="&#xf4;" horiz-adv-x="778" 
d="M741 230q0 -98 -43 -166q-50 -79 -141 -79q-41 0 -71 19t-51 56v-193q0 -26 13.5 -31.5t71.5 -5.5v-35h-262v35q60 0 72.5 4.5t12.5 32.5v193q-41 -75 -122 -75q-89 0 -140 79q-44 69 -44 166q0 103 43 171q49 78 139 78q44 0 76.5 -25t52.5 -68q-2 20 -2 33q-3 52 -3 80
v101q0 24 -12 29.5t-48 5.5h-41v42l193 10v-188q0 -45 -1 -69t-4 -44q20 44 50 67q34 26 79 26q90 0 139 -77q43 -68 43 -172zM639 235q0 99 -31 149q-25 41 -69 41q-63 0 -88 -71q-17 -48 -17 -132q0 -104 30 -146q26 -37 75 -37q46 0 71 42q29 49 29 154zM344 222
q0 85 -16 131q-25 72 -89 72q-56 0 -81 -67q-19 -50 -19 -123q0 -82 15 -126q24 -70 85 -70q62 0 87 60q18 44 18 123z" />
    <glyph glyph-name="ocircumflex" unicode="&#x444;" horiz-adv-x="778" 
d="M741 230q0 -98 -43 -166q-50 -79 -141 -79q-41 0 -71 19t-51 56v-193q0 -26 13.5 -31.5t71.5 -5.5v-35h-262v35q60 0 72.5 4.5t12.5 32.5v193q-41 -75 -122 -75q-89 0 -140 79q-44 69 -44 166q0 103 43 171q49 78 139 78q44 0 76.5 -25t52.5 -68q-2 20 -2 33q-3 52 -3 80
v101q0 24 -12 29.5t-48 5.5h-41v42l193 10v-188q0 -45 -1 -69t-4 -44q20 44 50 67q34 26 79 26q90 0 139 -77q43 -68 43 -172zM639 235q0 99 -31 149q-25 41 -69 41q-63 0 -88 -71q-17 -48 -17 -132q0 -104 30 -146q26 -37 75 -37q46 0 71 42q29 49 29 154zM344 222
q0 85 -16 131q-25 72 -89 72q-56 0 -81 -67q-19 -50 -19 -123q0 -82 15 -126q24 -70 85 -70q62 0 87 60q18 44 18 123z" />
    <glyph glyph-name="otilde" unicode="&#xf5;" horiz-adv-x="537" 
d="M529 0h-251v35q16 0 26 1t29 4q4 2 7 9t1 11q-1 4 -10 16q-5 8 -7 11l-76 101l-71 -86q-5 -6 -11 -13.5t-10 -13.5q-3 -8 -3 -13q0 -6 10 -19q8 -5 22 -6t16 -1l19 -1v-35h-211v35q35 0 53 11q10 6 40 38l20 24l98 114l-120 155l-24 30l-22 15q-23 7 -40 7v35h236v-35
h-21q-20 0 -28.5 -3.5t-9.5 -8.5q-1 -9 4 -18q2 -4 13 -16l72 -94l65 79q5 6 9 11q9 12 9 25q0 17 -13.5 21t-34.5 4h-14v35h206v-35q-14 -2 -27 -3q-17 -3 -25.5 -7.5t-17.5 -13.5q-4 -4 -14 -15l-116 -135l120 -160q25 -32 43 -44q24 -16 59 -16v-35z" />
    <glyph glyph-name="otilde" unicode="&#x445;" horiz-adv-x="537" 
d="M529 0h-251v35q16 0 26 1t29 4q4 2 7 9t1 11q-1 4 -10 16q-5 8 -7 11l-76 101l-71 -86q-5 -6 -11 -13.5t-10 -13.5q-3 -8 -3 -13q0 -6 10 -19q8 -5 22 -6t16 -1l19 -1v-35h-211v35q35 0 53 11q10 6 40 38l20 24l98 114l-120 155l-24 30l-22 15q-23 7 -40 7v35h236v-35
h-21q-20 0 -28.5 -3.5t-9.5 -8.5q-1 -9 4 -18q2 -4 13 -16l72 -94l65 79q5 6 9 11q9 12 9 25q0 17 -13.5 21t-34.5 4h-14v35h206v-35q-14 -2 -27 -3q-17 -3 -25.5 -7.5t-17.5 -13.5q-4 -4 -14 -15l-116 -135l120 -160q25 -32 43 -44q24 -16 59 -16v-35z" />
    <glyph glyph-name="odieresis" unicode="&#xf6;" horiz-adv-x="592" 
d="M572 -124h-38q-12 75 -40 99.5t-74 24.5h-391v35q47 0 54 1q26 4 26 34v324q0 24 -14 29.5t-66 5.5v35h247v-35q-43 0 -59 -2.5t-16 -32.5v-324q0 -23 12.5 -27.5t57.5 -4.5h49q46 0 58.5 4.5t12.5 27.5v324q0 24 -13.5 29.5t-61.5 5.5v35h247v-35q-47 0 -63.5 -2.5
t-16.5 -32.5v-324q0 -24 14 -29.5t66 -5.5z" />
    <glyph glyph-name="odieresis" unicode="&#x446;" horiz-adv-x="592" 
d="M572 -124h-38q-12 75 -40 99.5t-74 24.5h-391v35q47 0 54 1q26 4 26 34v324q0 24 -14 29.5t-66 5.5v35h247v-35q-43 0 -59 -2.5t-16 -32.5v-324q0 -23 12.5 -27.5t57.5 -4.5h49q46 0 58.5 4.5t12.5 27.5v324q0 24 -13.5 29.5t-61.5 5.5v35h247v-35q-47 0 -63.5 -2.5
t-16.5 -32.5v-324q0 -24 14 -29.5t66 -5.5z" />
    <glyph glyph-name="divide" unicode="&#xf7;" horiz-adv-x="574" 
d="M545 0h-257v35q48 0 55 1q30 4 30 34v141q-27 -13 -64 -23t-77 -10q-52 0 -90 23q-43 26 -43 72v121q0 24 -14 29.5t-66 5.5v35h247v-35q-52 0 -63.5 -4.5t-11.5 -30.5v-121q0 -24 25 -36t55 -12q28 0 53.5 8t48.5 21v140q0 25 -12 30t-63 5v35h247v-35q-47 0 -63.5 -2.5
t-16.5 -32.5v-324q0 -24 14 -29.5t66 -5.5v-35z" />
    <glyph glyph-name="divide" unicode="&#x447;" horiz-adv-x="574" 
d="M545 0h-257v35q48 0 55 1q30 4 30 34v141q-27 -13 -64 -23t-77 -10q-52 0 -90 23q-43 26 -43 72v121q0 24 -14 29.5t-66 5.5v35h247v-35q-52 0 -63.5 -4.5t-11.5 -30.5v-121q0 -24 25 -36t55 -12q28 0 53.5 8t48.5 21v140q0 25 -12 30t-63 5v35h247v-35q-47 0 -63.5 -2.5
t-16.5 -32.5v-324q0 -24 14 -29.5t66 -5.5v-35z" />
    <glyph glyph-name="oslash" unicode="&#xf8;" horiz-adv-x="852" 
d="M819 0h-790v35q47 0 54 1q26 4 26 34v324q0 24 -14 29.5t-66 5.5v35h242v-35q-40 0 -55 -2.5t-15 -32.5v-324q0 -23 12.5 -27.5t57.5 -4.5h36q46 0 58.5 4.5t12.5 27.5v324q0 24 -13 29.5t-57 5.5v35h232v-35q-40 0 -55 -2.5t-15 -32.5v-324q0 -23 12.5 -27.5t57.5 -4.5
h36q46 0 58.5 4.5t12.5 27.5v324q0 24 -13 29.5t-57 5.5v35h242v-35q-47 0 -63.5 -2.5t-16.5 -32.5v-324q0 -24 14 -29.5t66 -5.5v-35z" />
    <glyph glyph-name="oslash" unicode="&#x448;" horiz-adv-x="852" 
d="M819 0h-790v35q47 0 54 1q26 4 26 34v324q0 24 -14 29.5t-66 5.5v35h242v-35q-40 0 -55 -2.5t-15 -32.5v-324q0 -23 12.5 -27.5t57.5 -4.5h36q46 0 58.5 4.5t12.5 27.5v324q0 24 -13 29.5t-57 5.5v35h232v-35q-40 0 -55 -2.5t-15 -32.5v-324q0 -23 12.5 -27.5t57.5 -4.5
h36q46 0 58.5 4.5t12.5 27.5v324q0 24 -13 29.5t-57 5.5v35h242v-35q-47 0 -63.5 -2.5t-16.5 -32.5v-324q0 -24 14 -29.5t66 -5.5v-35z" />
    <glyph glyph-name="ugrave" unicode="&#xf9;" horiz-adv-x="852" 
d="M828 -124h-38q-12 75 -40 99.5t-74 24.5h-647v35q47 0 54 1q26 4 26 34v324q0 24 -14 29.5t-66 5.5v35h242v-35q-40 0 -55 -2.5t-15 -32.5v-324q0 -23 12.5 -27.5t57.5 -4.5h36q46 0 58.5 4.5t12.5 27.5v324q0 24 -13 29.5t-57 5.5v35h232v-35q-40 0 -55 -2.5t-15 -32.5
v-324q0 -23 12.5 -27.5t57.5 -4.5h36q46 0 58.5 4.5t12.5 27.5v324q0 24 -13 29.5t-57 5.5v35h242v-35q-47 0 -63.5 -2.5t-16.5 -32.5v-324q0 -24 14 -29.5t66 -5.5z" />
    <glyph glyph-name="ugrave" unicode="&#x449;" horiz-adv-x="852" 
d="M828 -124h-38q-12 75 -40 99.5t-74 24.5h-647v35q47 0 54 1q26 4 26 34v324q0 24 -14 29.5t-66 5.5v35h242v-35q-40 0 -55 -2.5t-15 -32.5v-324q0 -23 12.5 -27.5t57.5 -4.5h36q46 0 58.5 4.5t12.5 27.5v324q0 24 -13 29.5t-57 5.5v35h232v-35q-40 0 -55 -2.5t-15 -32.5
v-324q0 -23 12.5 -27.5t57.5 -4.5h36q46 0 58.5 4.5t12.5 27.5v324q0 24 -13 29.5t-57 5.5v35h242v-35q-47 0 -63.5 -2.5t-16.5 -32.5v-324q0 -24 14 -29.5t66 -5.5z" />
    <glyph glyph-name="uacute" unicode="&#xfa;" horiz-adv-x="592" 
d="M557 127q0 -63 -50.5 -95t-136.5 -32h-267v35q49 0 64.5 5.5t15.5 29.5v324q0 18 -7.5 22.5t-29.5 4.5q-45 0 -70 -40q-19 -30 -27 -84h-38l9 167h330v-35q-51 0 -63 -5t-12 -30v-137h99q86 0 134.5 -31.5t48.5 -98.5zM458 127q0 48 -28.5 70t-79.5 22h-75v-149
q0 -24 13.5 -29.5t61.5 -5.5q47 0 77.5 24.5t30.5 67.5z" />
    <glyph glyph-name="uacute" unicode="&#x44a;" horiz-adv-x="592" 
d="M557 127q0 -63 -50.5 -95t-136.5 -32h-267v35q49 0 64.5 5.5t15.5 29.5v324q0 18 -7.5 22.5t-29.5 4.5q-45 0 -70 -40q-19 -30 -27 -84h-38l9 167h330v-35q-51 0 -63 -5t-12 -30v-137h99q86 0 134.5 -31.5t48.5 -98.5zM458 127q0 48 -28.5 70t-79.5 22h-75v-149
q0 -24 13.5 -29.5t61.5 -5.5q47 0 77.5 24.5t30.5 67.5z" />
    <glyph glyph-name="ucircumflex" unicode="&#xfb;" horiz-adv-x="778" 
d="M749 0h-252v35q47 0 54 1q26 4 26 34v324q0 24 -14 29.5t-66 5.5v35h252v-35q-47 0 -63.5 -2.5t-16.5 -32.5v-324q0 -24 14 -29.5t66 -5.5v-35zM483 127q0 -63 -50.5 -95t-136.5 -32h-267v35q49 0 64.5 5.5t15.5 29.5v324q0 24 -15.5 29.5t-64.5 5.5v35h247v-35
q-51 0 -63 -5t-12 -30v-137h99q86 0 134.5 -31.5t48.5 -98.5zM384 127q0 48 -28.5 70t-79.5 22h-75v-149q0 -24 13.5 -29.5t61.5 -5.5q47 0 77.5 24.5t30.5 67.5z" />
    <glyph glyph-name="ucircumflex" unicode="&#x44b;" horiz-adv-x="778" 
d="M749 0h-252v35q47 0 54 1q26 4 26 34v324q0 24 -14 29.5t-66 5.5v35h252v-35q-47 0 -63.5 -2.5t-16.5 -32.5v-324q0 -24 14 -29.5t66 -5.5v-35zM483 127q0 -63 -50.5 -95t-136.5 -32h-267v35q49 0 64.5 5.5t15.5 29.5v324q0 24 -15.5 29.5t-64.5 5.5v35h247v-35
q-51 0 -63 -5t-12 -30v-137h99q86 0 134.5 -31.5t48.5 -98.5zM384 127q0 48 -28.5 70t-79.5 22h-75v-149q0 -24 13.5 -29.5t61.5 -5.5q47 0 77.5 24.5t30.5 67.5z" />
    <glyph glyph-name="udieresis" unicode="&#xfc;" horiz-adv-x="500" 
d="M483 127q0 -63 -50.5 -95t-136.5 -32h-267v35q49 0 64.5 5.5t15.5 29.5v324q0 24 -15.5 29.5t-64.5 5.5v35h247v-35q-51 0 -63 -5t-12 -30v-137h99q86 0 134.5 -31.5t48.5 -98.5zM384 127q0 48 -28.5 70t-79.5 22h-75v-149q0 -24 13.5 -29.5t61.5 -5.5q47 0 77.5 24.5
t30.5 67.5z" />
    <glyph glyph-name="udieresis" unicode="&#x44c;" horiz-adv-x="500" 
d="M483 127q0 -63 -50.5 -95t-136.5 -32h-267v35q49 0 64.5 5.5t15.5 29.5v324q0 24 -15.5 29.5t-64.5 5.5v35h247v-35q-51 0 -63 -5t-12 -30v-137h99q86 0 134.5 -31.5t48.5 -98.5zM384 127q0 48 -28.5 70t-79.5 22h-75v-149q0 -24 13.5 -29.5t61.5 -5.5q47 0 77.5 24.5
t30.5 67.5z" />
    <glyph glyph-name="yacute" unicode="&#xfd;" horiz-adv-x="481" 
d="M442 231q0 -115 -66 -184q-61 -64 -150 -64q-68 0 -119 39.5t-82 107.5l38 16q16 -46 56.5 -78.5t88.5 -32.5q55 0 92.5 53.5t37.5 126.5h-205v43h204q0 68 -29 119q-36 62 -96 62q-47 0 -79.5 -36.5t-49.5 -102.5h-40l9 173h33l25 -30q19 14 49 25t61 11q94 0 158 -72
t64 -176z" />
    <glyph glyph-name="yacute" unicode="&#x44d;" horiz-adv-x="481" 
d="M442 231q0 -115 -66 -184q-61 -64 -150 -64q-68 0 -119 39.5t-82 107.5l38 16q16 -46 56.5 -78.5t88.5 -32.5q55 0 92.5 53.5t37.5 126.5h-205v43h204q0 68 -29 119q-36 62 -96 62q-47 0 -79.5 -36.5t-49.5 -102.5h-40l9 173h33l25 -30q19 14 49 25t61 11q94 0 158 -72
t64 -176z" />
    <glyph glyph-name="thorn" unicode="&#xfe;" horiz-adv-x="759" 
d="M726 231q0 -104 -62 -176t-155 -72q-90 0 -153.5 66.5t-63.5 161.5h-91v-141q0 -24 14 -29.5t66 -5.5v-35h-252v35q47 0 54 1q26 4 26 34v324q0 24 -14 29.5t-66 5.5v35h252v-35q-47 0 -63.5 -2.5t-16.5 -32.5v-140h92q0 95 63 160t153 65q93 0 155 -72t62 -176zM622 231
q0 89 -16 134q-26 74 -97 74q-70 0 -96 -74q-17 -48 -17 -134q0 -89 16 -134q26 -74 97 -74q70 0 96 74q17 48 17 134z" />
    <glyph glyph-name="thorn" unicode="&#x44e;" horiz-adv-x="759" 
d="M726 231q0 -104 -62 -176t-155 -72q-90 0 -153.5 66.5t-63.5 161.5h-91v-141q0 -24 14 -29.5t66 -5.5v-35h-252v35q47 0 54 1q26 4 26 34v324q0 24 -14 29.5t-66 5.5v35h252v-35q-47 0 -63.5 -2.5t-16.5 -32.5v-140h92q0 95 63 160t153 65q93 0 155 -72t62 -176zM622 231
q0 89 -16 134q-26 74 -97 74q-70 0 -96 -74q-17 -48 -17 -134q0 -89 16 -134q26 -74 97 -74q70 0 96 74q17 48 17 134z" />
    <glyph glyph-name="ydieresis" unicode="&#xff;" horiz-adv-x="537" 
d="M509 0h-247v35q51 0 63 5t12 30v137h-48q-31 0 -53 -20t-30 -55q-16 -76 -39 -107q-26 -35 -72 -35q-51 0 -75 33q-20 28 -20 79h40q0 -27 5 -44.5t18 -17.5q16 0 31 41q11 34 23 69q11 27 34 48q27 25 57 25q-55 0 -98 25q-55 32 -55 89q0 63 50.5 95t136.5 32h267v-35
q-49 0 -64.5 -5.5t-15.5 -29.5v-324q0 -24 15.5 -29.5t64.5 -5.5v-35zM337 245v149q0 24 -13.5 29.5t-61.5 5.5q-47 0 -77.5 -24.5t-30.5 -67.5q0 -48 28.5 -70t79.5 -22h75z" />
    <glyph glyph-name="ydieresis" unicode="&#x44f;" horiz-adv-x="537" 
d="M509 0h-247v35q51 0 63 5t12 30v137h-48q-31 0 -53 -20t-30 -55q-16 -76 -39 -107q-26 -35 -72 -35q-51 0 -75 33q-20 28 -20 79h40q0 -27 5 -44.5t18 -17.5q16 0 31 41q11 34 23 69q11 27 34 48q27 25 57 25q-55 0 -98 25q-55 32 -55 89q0 63 50.5 95t136.5 32h267v-35
q-49 0 -64.5 -5.5t-15.5 -29.5v-324q0 -24 15.5 -29.5t64.5 -5.5v-35zM337 245v149q0 24 -13.5 29.5t-61.5 5.5q-47 0 -77.5 -24.5t-30.5 -67.5q0 -48 28.5 -70t79.5 -22h75z" />
    <glyph glyph-name="OE" unicode="&#x152;" horiz-adv-x="1110" 
d="M1094 200q0 -67 -35.5 -115.5t-95.5 -66.5t-126 -18h-364v45q56 0 71 2q40 5 40 43v257h-335v-257q0 -38 38 -43q14 -2 73 -2v-45h-331v45q56 0 71 2q40 5 40 43v542q0 38 -26 41.5t-85 3.5v45h331v-45q-56 0 -83.5 -3.5t-27.5 -41.5v-233h335v233q0 38 -26 41.5t-85 3.5
v45h337v-45h-32q-15 0 -30 -0.5t-31 -3.5q-7 -4 -10 -5.5t-5.5 -6t-5.5 -21.5t-3 -41v-199l110 2l49 -1q18 0 28 -1t31 -4q42 -8 71.5 -20.5t54.5 -38.5q57 -57 57 -137zM974 199q0 91 -49 127q-42 31 -136 31l-96 -2v-264q0 -24 21 -35t51 -11h25h26q11 2 16 2
q73 0 107.5 38.5t34.5 113.5z" />
    <glyph glyph-name="OE" unicode="&#x40a;" horiz-adv-x="1110" 
d="M1094 200q0 -67 -35.5 -115.5t-95.5 -66.5t-126 -18h-364v45q56 0 71 2q40 5 40 43v257h-335v-257q0 -38 38 -43q14 -2 73 -2v-45h-331v45q56 0 71 2q40 5 40 43v542q0 38 -26 41.5t-85 3.5v45h331v-45q-56 0 -83.5 -3.5t-27.5 -41.5v-233h335v233q0 38 -26 41.5t-85 3.5
v45h337v-45h-32q-15 0 -30 -0.5t-31 -3.5q-7 -4 -10 -5.5t-5.5 -6t-5.5 -21.5t-3 -41v-199l110 2l49 -1q18 0 28 -1t31 -4q42 -8 71.5 -20.5t54.5 -38.5q57 -57 57 -137zM974 199q0 91 -49 127q-42 31 -136 31l-96 -2v-264q0 -24 21 -35t51 -11h25h26q11 2 16 2
q73 0 107.5 38.5t34.5 113.5z" />
    <glyph glyph-name="oe" unicode="&#x153;" horiz-adv-x="777" 
d="M765 127q0 -63 -50.5 -95t-136.5 -32h-262v35q52 0 63.5 4.5t11.5 30.5v145h-190v-145q0 -25 12 -30t63 -5v-35h-247v35q47 0 54 1q26 4 26 34v324q0 24 -14 29.5t-66 5.5v35h247v-35q-52 0 -63.5 -4.5t-11.5 -30.5v-136h190v136q0 25 -12 30t-63 5v35h242v-35
q-51 0 -63 -5t-12 -30v-137h99q86 0 134.5 -31.5t48.5 -98.5zM666 127q0 48 -28.5 70t-79.5 22h-75v-149q0 -24 13.5 -29.5t61.5 -5.5q47 0 77.5 24.5t30.5 67.5z" />
    <glyph glyph-name="oe" unicode="&#x45a;" horiz-adv-x="777" 
d="M765 127q0 -63 -50.5 -95t-136.5 -32h-262v35q52 0 63.5 4.5t11.5 30.5v145h-190v-145q0 -25 12 -30t63 -5v-35h-247v35q47 0 54 1q26 4 26 34v324q0 24 -14 29.5t-66 5.5v35h247v-35q-52 0 -63.5 -4.5t-11.5 -30.5v-136h190v136q0 25 -12 30t-63 5v35h242v-35
q-51 0 -63 -5t-12 -30v-137h99q86 0 134.5 -31.5t48.5 -98.5zM666 127q0 48 -28.5 70t-79.5 22h-75v-149q0 -24 13.5 -29.5t61.5 -5.5q47 0 77.5 24.5t30.5 67.5z" />
    <glyph glyph-name="Scaron" unicode="&#x160;" horiz-adv-x="1054" 
d="M1039 200q0 -67 -35.5 -115.5t-95.5 -66.5t-126 -18h-364v45q5 1 12.5 1h11.5h12q31 0 48.5 4t24.5 21q2 5 2 14.5v14.5v532q0 26 -13.5 35.5t-49.5 9.5h-91q-87 0 -101.5 -14.5t-14.5 -100.5v-286q0 -159 -52 -232q-42 -59 -115 -59q-62 0 -97 44q-29 37 -29 86
q0 44 23.5 73t62.5 29q32 0 50.5 -19.5t18.5 -49.5q0 -36 -45 -65q-22 -14 -22 -28q0 -10 11.5 -17.5t30.5 -7.5q43 0 71 39q43 60 43 205v288q0 81 -22 100q-18 15 -94 15v45h655v-45q-56 0 -83.5 -3.5t-27.5 -41.5v-232l110 2l49 -1q18 0 28 -1t31 -4q42 -8 71.5 -20.5
t54.5 -38.5q57 -57 57 -137zM919 199q0 91 -49 127q-42 31 -136 31l-96 -2v-264q0 -15 2 -23t10 -14l12 -4q8 -3 21.5 -4t26.5 -1h25h26q11 2 16 2q73 0 107.5 38.5t34.5 113.5z" />
    <glyph glyph-name="Scaron" unicode="&#x409;" horiz-adv-x="1054" 
d="M1039 200q0 -67 -35.5 -115.5t-95.5 -66.5t-126 -18h-364v45q5 1 12.5 1h11.5h12q31 0 48.5 4t24.5 21q2 5 2 14.5v14.5v532q0 26 -13.5 35.5t-49.5 9.5h-91q-87 0 -101.5 -14.5t-14.5 -100.5v-286q0 -159 -52 -232q-42 -59 -115 -59q-62 0 -97 44q-29 37 -29 86
q0 44 23.5 73t62.5 29q32 0 50.5 -19.5t18.5 -49.5q0 -36 -45 -65q-22 -14 -22 -28q0 -10 11.5 -17.5t30.5 -7.5q43 0 71 39q43 60 43 205v288q0 81 -22 100q-18 15 -94 15v45h655v-45q-56 0 -83.5 -3.5t-27.5 -41.5v-232l110 2l49 -1q18 0 28 -1t31 -4q42 -8 71.5 -20.5
t54.5 -38.5q57 -57 57 -137zM919 199q0 91 -49 127q-42 31 -136 31l-96 -2v-264q0 -15 2 -23t10 -14l12 -4q8 -3 21.5 -4t26.5 -1h25h26q11 2 16 2q73 0 107.5 38.5t34.5 113.5z" />
    <glyph glyph-name="scaron" unicode="&#x161;" horiz-adv-x="740" 
d="M728 127q0 -63 -50.5 -95t-136.5 -32h-267v35q49 0 64.5 5.5t15.5 29.5v324q0 21 -12 26.5t-48 5.5h-21q-53 0 -68 -6t-15 -26v-251q0 -80 -41 -123q-33 -35 -78 -35q-34 0 -60 18q-32 22 -32 62q0 25 17 42t44 17q21 0 36 -14t15 -38q0 -8 -3 -16t-6 -18q0 -7 10 -7
q23 0 39.5 37.5t16.5 90.5v234q0 24 -18 30t-62 6v35h458v-35q-48 0 -64 -2.5t-16 -32.5v-137h99q86 0 134.5 -31.5t48.5 -98.5zM629 127q0 48 -28.5 70t-79.5 22h-75v-149q0 -20 18.5 -31.5t47.5 -11.5q45 0 78 24q39 28 39 76z" />
    <glyph glyph-name="scaron" unicode="&#x459;" horiz-adv-x="740" 
d="M728 127q0 -63 -50.5 -95t-136.5 -32h-267v35q49 0 64.5 5.5t15.5 29.5v324q0 21 -12 26.5t-48 5.5h-21q-53 0 -68 -6t-15 -26v-251q0 -80 -41 -123q-33 -35 -78 -35q-34 0 -60 18q-32 22 -32 62q0 25 17 42t44 17q21 0 36 -14t15 -38q0 -8 -3 -16t-6 -18q0 -7 10 -7
q23 0 39.5 37.5t16.5 90.5v234q0 24 -18 30t-62 6v35h458v-35q-48 0 -64 -2.5t-16 -32.5v-137h99q86 0 134.5 -31.5t48.5 -98.5zM629 127q0 48 -28.5 70t-79.5 22h-75v-149q0 -20 18.5 -31.5t47.5 -11.5q45 0 78 24q39 28 39 76z" />
    <glyph glyph-name="Ydieresis" unicode="&#x178;" horiz-adv-x="592" 
d="M563 0h-221v-124h-92v124h-221v35q47 0 54 1q26 4 26 34v324q0 24 -14 29.5t-66 5.5v35h247v-35q-43 0 -59 -2.5t-16 -32.5v-324q0 -23 12.5 -27.5t57.5 -4.5h49q46 0 58.5 4.5t12.5 27.5v324q0 24 -13.5 29.5t-61.5 5.5v35h247v-35q-47 0 -63.5 -2.5t-16.5 -32.5v-324
q0 -24 14 -29.5t66 -5.5v-35z" />
    <glyph glyph-name="Ydieresis" unicode="&#x45f;" horiz-adv-x="592" 
d="M563 0h-221v-124h-92v124h-221v35q47 0 54 1q26 4 26 34v324q0 24 -14 29.5t-66 5.5v35h247v-35q-43 0 -59 -2.5t-16 -32.5v-324q0 -23 12.5 -27.5t57.5 -4.5h49q46 0 58.5 4.5t12.5 27.5v324q0 24 -13.5 29.5t-61.5 5.5v35h247v-35q-47 0 -63.5 -2.5t-16.5 -32.5v-324
q0 -24 14 -29.5t66 -5.5v-35z" />
    <glyph glyph-name="florin" unicode="&#x192;" horiz-adv-x="463" 
d="M453 297h-38q-10 65 -27 88q-30 41 -107 41q-54 0 -66.5 -4.5t-12.5 -27.5v-324q0 -24 14 -29.5t66 -5.5v-35h-252v35q47 0 54 1q26 4 26 34v324q0 24 -14 29.5t-66 5.5v35h414zM191 528h-41l138 139l12 12q11 10 22 15q6 5 20 5q34 0 34 -32q0 -11 -7 -20t-15.5 -15.5
t-18.5 -12.5z" />
    <glyph glyph-name="florin" unicode="&#x453;" horiz-adv-x="463" 
d="M453 297h-38q-10 65 -27 88q-30 41 -107 41q-54 0 -66.5 -4.5t-12.5 -27.5v-324q0 -24 14 -29.5t66 -5.5v-35h-252v35q47 0 54 1q26 4 26 34v324q0 24 -14 29.5t-66 5.5v35h414zM191 528h-41l138 139l12 12q11 10 22 15q6 5 20 5q34 0 34 -32q0 -11 -7 -20t-15.5 -15.5
t-18.5 -12.5z" />
    <glyph glyph-name="endash" unicode="&#x2013;" 
d="M556 208h-556v61h556v-61z" />
    <glyph glyph-name="emdash" unicode="&#x2014;" horiz-adv-x="1000" 
d="M1000 208h-1000v61h1000v-61z" />
    <glyph glyph-name="quoteleft" unicode="&#x2018;" horiz-adv-x="204" 
d="M181 708q-38 -28 -64 -59q-38 -44 -38 -78q0 -7 1 -10l3 -3l9 1l21 2q26 0 42.5 -17.5t16.5 -43.5q0 -25 -20 -41t-46 -16q-36 0 -58 29t-22 66q0 62 41 115q29 37 92 84z" />
    <glyph glyph-name="quoteright" unicode="&#x2019;" horiz-adv-x="204" 
d="M178 635q0 -57 -42 -110q-31 -39 -90 -82l-22 29q35 25 64 59q38 45 38 78q0 7 -1 10l-3 3h-5l-4 -1q-5 -1 -13 -1.5t-11 -0.5q-23 0 -40 18t-17 42t19 41t43 17q44 0 64 -28.5t20 -73.5z" />
    <glyph glyph-name="quotesinglbase" unicode="&#x201a;" horiz-adv-x="204" 
d="M178 2q0 -53 -38 -104q-27 -37 -82 -79l-12 -8l-22 29q37 27 64 59q38 44 38 78q0 7 -1 10l-3 2l-9 -1q-7 -1 -18 -1q-14 0 -34 7q-29 19 -29 52q0 24 19 41t43 17q44 0 64 -28.5t20 -73.5z" />
    <glyph glyph-name="quotedblleft" unicode="&#x201c;" horiz-adv-x="389" 
d="M365 708q-38 -28 -64 -59q-38 -44 -38 -78q0 -7 1 -10l3 -3l9 1l21 2q26 0 42.5 -17.5t16.5 -43.5q0 -25 -20 -41t-46 -16q-36 0 -58 29t-22 66q0 62 41 115q29 37 92 84zM181 708q-38 -28 -64 -59q-38 -44 -38 -78q0 -7 1 -10l3 -3l9 1l21 2q26 0 42.5 -17.5t16.5 -43.5
q0 -25 -20 -41t-46 -16q-36 0 -58 29t-22 66q0 62 41 115q29 37 92 84z" />
    <glyph glyph-name="quotedblright" unicode="&#x201d;" horiz-adv-x="389" 
d="M362 635q0 -57 -42 -110q-31 -39 -90 -82l-22 29q36 28 63 59q39 45 39 77q0 7 -1 11l-3 3h-5l-4 -1q-5 -1 -13 -1.5t-11 -0.5q-23 0 -40 18t-17 42t19 41t43 17q44 0 64 -28.5t20 -73.5zM178 635q0 -57 -42 -110q-31 -39 -90 -82l-22 29q35 25 64 59q38 45 38 78
q0 7 -1 10l-3 3h-5l-4 -1q-5 -1 -13 -1.5t-11 -0.5q-23 0 -40 18t-17 42t19 41t43 17q44 0 64 -28.5t20 -73.5z" />
    <glyph glyph-name="quotedblbase" unicode="&#x201e;" horiz-adv-x="389" 
d="M362 2q0 -53 -38 -104q-27 -37 -82 -79l-12 -8l-22 29q37 27 64 59q38 44 38 78q0 7 -1 10l-3 2l-9 -1q-7 -1 -18 -1q-14 0 -34 7q-29 19 -29 52q0 24 19 41t43 17q44 0 64 -28.5t20 -73.5zM178 2q0 -53 -38 -104q-27 -37 -82 -79l-12 -8l-22 29q37 27 64 59q38 44 38 78
q0 7 -1 10l-3 2l-9 -1q-7 -1 -18 -1q-14 0 -34 7q-29 19 -29 52q0 24 19 41t43 17q44 0 64 -28.5t20 -73.5z" />
    <glyph glyph-name="dagger" unicode="&#x2020;" horiz-adv-x="500" 
d="M460 492q0 -22 -15 -35t-37 -13q-10 0 -21.5 4t-28.5 11q-30 13 -48 17.5t-47 4.5q0 -67 6 -100q10 -55 41 -95l-3 -6q-21 -55 -29.5 -115t-8.5 -126l-4 -186h-22l-1 102q0 49 -3 84.5t-11 112.5q-4 36 -11.5 69.5t-20.5 64.5q19 24 29.5 49t10.5 52q4 44 4.5 63.5
t0.5 30.5q-29 0 -47 -4.5t-48 -17.5q-10 -4 -26 -9.5t-24 -5.5q-22 0 -37 13t-15 35q0 23 13 36t36 13q13 0 31 -7q27 -12 55 -23q30 -9 62 -9q0 70 -26 140q-5 13 -8.5 22.5t-3.5 31.5q0 17 14 29t32 12q52 0 52 -54q0 -16 -6 -30.5t-8 -20.5q-12 -29 -18 -63.5t-6 -66.5
q32 0 62 9q37 15 56.5 22.5t29.5 7.5q23 0 36 -13t13 -36z" />
    <glyph glyph-name="daggerdbl" unicode="&#x2021;" horiz-adv-x="500" 
d="M459 75q-4 -17 -25 -26q-14 -4 -21 -4q-11 0 -18 1.5t-23 8.5t-25 11q-18 8 -30 10.5t-25 4.5t-27 2l1 -41q0 -21 8 -49q5 -16 17 -48q3 -9 7.5 -21t4.5 -30q0 -20 -15.5 -32.5t-36.5 -12.5l-23 7q-24 17 -24 44q0 16 5.5 30t9.5 24q24 66 24 129q-25 0 -46 -4.5
t-43 -14.5q-17 -7 -33 -12.5t-31 -5.5q-22 0 -38 21q-6 14 -6 28q0 17 10 30q14 18 37 18q8 0 17 -3l31 -12q22 -8 44 -15q52 -13 58 -9q0 60 -7 97q-10 54 -40 92q23 29 35 70t12 119q-5 3 -57 -9q-23 -8 -45 -15l-31 -12q-6 -2 -17 -2q-25 0 -36 16t-11 33q0 12 6 26
q16 21 38 21q17 0 33 -5q3 -1 31 -13q22 -11 42 -15t47 -4q0 35 -6 65t-18 64q-5 13 -10 26.5t-5 27.5q0 27 24 44l23 7q21 0 36.5 -12.5t15.5 -32.5q0 -15 -1 -20.5t-11 -30.5q-13 -33 -17 -47q-8 -27 -8 -50l-1 -41q12 0 25 1.5t26.5 4.5t33 12t25.5 11l29 9
q16 2 33.5 -5.5t21 -21.5t3.5 -23q0 -23 -18 -36q-13 -10 -35 -10q-13 0 -25 4l-25 10q-24 10 -47.5 16.5t-46.5 6.5q0 -67 5 -95q9 -49 40 -94q-30 -43 -37.5 -85t-7.5 -104q26 0 46 5.5t48 17.5l25 10q12 4 32 4q16 0 31 -11.5t15 -35.5q0 -8 -3 -19z" />
    <glyph glyph-name="bullet" unicode="&#x2022;" horiz-adv-x="606" 
d="M471 386q0 -70 -49.5 -119.5t-119.5 -49.5t-119 49t-49 120q0 70 49 119t119 49q69 0 119 -49t50 -119z" />
    <glyph glyph-name="ellipsis" unicode="&#x2026;" horiz-adv-x="1000" 
d="M895 47q0 -24 -18 -43t-43 -19q-26 0 -45 18t-19 44t19 44t44 18t43.5 -18.5t18.5 -43.5zM562 47q0 -24 -18 -43t-43 -19q-26 0 -45 18t-19 44t19 44t44 18t43.5 -18.5t18.5 -43.5zM229 47q0 -24 -18 -43t-43 -19q-26 0 -45 18t-19 44t19 44t44 18t43.5 -18.5t18.5 -43.5
z" />
    <glyph glyph-name="perthousand" unicode="&#x2030;" horiz-adv-x="1000" 
d="M991 233q0 -31 -12 -68t-29 -64q-21 -32 -40.5 -51t-50.5 -37q-13 -7 -30 -10t-33 -3q-31 0 -49 6.5t-39 27.5q-16 16 -23 36t-7 43q0 41 19 84q16 36 45 71.5t67 56t81 20.5q48 0 74.5 -31.5t26.5 -80.5zM641 233q0 -27 -8 -54q-17 -59 -44 -96q-30 -42 -80 -70
q-12 -7 -29.5 -10t-32.5 -3q-30 0 -48 5.5t-38 24.5q-32 32 -32 80q0 45 17.5 85t51 77t61.5 53q35 20 82 20q48 0 74 -31t26 -81zM558 699l-402 -699h-47l356 620l-11 -7q-37 -26 -86 -26q-30 0 -60 11l3 -11q4 -13 4 -32q0 -33 -13 -67t-33 -66q-25 -41 -65.5 -68.5
t-85.5 -27.5q-51 0 -83.5 35.5t-32.5 87.5q0 76 68.5 151.5t143.5 75.5q49 0 78 -38l3 -5q11 -7 35 -13.5t39 -6.5q44 0 82.5 23.5t67.5 62.5h39zM965 238q0 33 -17.5 56t-49.5 23q-29 0 -59 -36q-14 -17 -40 -62q-15 -26 -24 -44q-27 -55 -27 -83q0 -27 9 -41.5t34 -21.5
q7 -2 19 -2q51 0 97 57q40 49 52 104q2 14 4 26.5t2 23.5zM289 558q0 23 -4 42l-4 9q-19 7 -33 16t-26 24q-35 -5 -63 -42q-11 -15 -41 -69q-16 -28 -28 -59q-15 -38 -15 -63q0 -17 2.5 -24t13.5 -23q18 -15 43 -15q31 0 64 26q23 18 48 52q18 25 30.5 60.5t12.5 65.5z
M616 238q0 33 -18 56t-50 23q-28 0 -58 -36q-17 -20 -41 -62q-15 -26 -24 -44q-27 -55 -27 -83q0 -66 65 -66q13 0 32.5 8.5t31 17.5t23.5 24t21 28q22 32 33.5 65t11.5 69z" />
    <glyph glyph-name="guilsinglleft" unicode="&#x2039;" horiz-adv-x="259" 
d="M221 391q0 -5 -2.5 -9.5t-9.5 -16.5l-24 -38l-61 -87q28 -41 57 -81l26 -42q1 -1 7.5 -14t4.5 -17l-5 -5q-3 -1 -11 1q-4 3 -12 10.5t-12 11.5l-35 35l-75 72l-30 25l-1 7l31 25l103 99q9 9 18 19q6 5 14 11q3 2 10 0t7 -6z" />
    <glyph glyph-name="guilsinglright" unicode="&#x203a;" horiz-adv-x="259" 
d="M221 236l-31 -25l-57 -55l-52 -52l-24 -22q-13 -2 -16 4q-5 4 5 20q3 5 7 11l26 42l56 81q-30 39 -61 87l-23 38q-4 5 -8 12.5t-4 12.5q0 3 4 7q7 3 13 0l32 -30l102 -99l31 -25v-7z" />
    <glyph glyph-name="trademark" unicode="&#x2122;" horiz-adv-x="1000" 
d="M955 333h-165v23q34 0 43 8t9 39v288l-149 -358h-9l-152 358v-284q0 -34 7 -42.5t43 -8.5v-23h-127v23h10q22 0 30.5 6t8.5 28v290v14q0 13 -4.5 17.5t-21.5 4.5h-15v21h120l124 -293l125 293h123v-21h-21q-20 0 -24 -7t-4 -29v-276q0 -32 8 -40t41 -8v-23zM397 638h-26
q0 42 -15.5 56.5t-57.5 14.5h-45v-308v-21q2 -13 9.5 -17t20.5 -5.5t26 -1.5h7v-23h-190v23h7q11 0 23.5 0.5t22.5 6t10 27.5v11v308h-45q-42 0 -57.5 -14.5t-15.5 -56.5h-26v99h352v-99z" />
    </font>
</defs>
</svg>
