<?xml version="1.0" standalone="no"?>
<!DOCTYPE svg PUBLIC "-//W3C//DTD SVG 1.1//EN" "http://www.w3.org/Graphics/SVG/1.1/DTD/svg11.dtd" >
<svg xmlns="http://www.w3.org/2000/svg" xmlns:xlink="http://www.w3.org/1999/xlink" version="1.1">
<metadata>
Created by FontForge 20150824 at Tue Mar  8 22:20:30 2016
 By Everything Fonts
(c) 1992, SMENA-SPSL Corp. 
</metadata>
<defs>
<font id="AmbassadoreType" horiz-adv-x="341" >
  <font-face 
    font-family="AmbassadoreType"
    font-weight="400"
    font-stretch="normal"
    units-per-em="1000"
    panose-1="0 0 0 0 0 0 0 0 0 0"
    ascent="800"
    descent="-200"
    x-height="464"
    cap-height="605"
    bbox="-101 -234 981 722"
    underline-thickness="50"
    underline-position="-155"
    unicode-range="U+0020-2219"
  />
<missing-glyph 
d="M307 208v-94l-279 152v102l279 151v-95l-179 -107l179 -109v0z" />
    <glyph glyph-name=".notdef" 
d="M307 208v-94l-279 152v102l279 151v-95l-179 -107l179 -109v0z" />
    <glyph glyph-name="glyph1" horiz-adv-x="0" 
 />
    <glyph glyph-name="glyph2" horiz-adv-x="416" 
 />
    <glyph glyph-name="glyph3" unicode=" " horiz-adv-x="416" 
 />
    <glyph glyph-name="glyph4" unicode="!" horiz-adv-x="133" 
d="M114 87v-87h-98v87h98v0zM108 144h-86l-15 461h116l-15 -461v0z" />
    <glyph glyph-name="glyph5" unicode="&#x22;" 
d="M215 513l44 131h97l-77 -131h-64v0zM120 645h97l-77 -131h-64l44 131v0z" />
    <glyph glyph-name="glyph6" unicode="#" horiz-adv-x="445" 
d="M192 501h128l17 104h86l-17 -104h40l-9 -69h-42l-34 -217h40l-12 -71h-40l-22 -144h-87l23 144h-128l-23 -144h-83l23 144h-42l12 71h40l34 217h-40l10 69h40l16 104h86l-16 -104v0zM274 215l35 217h-128l-35 -217h128v0z" />
    <glyph glyph-name="glyph7" unicode="$" horiz-adv-x="425" 
d="M256 375q73 -14 116.5 -53t47.5 -91q0 -2 0.5 -4.5t0.5 -4.5q0 -5 0.5 -9.5t0.5 -8.5q0 -58 -40.5 -105.5t-125.5 -63.5v-81h-67v79h-2h-2q-1 -1 -2 -1h-2h-1.5h-1.5q-32 0 -62.5 7t-54.5 15q-21 8 -35.5 14t-17.5 8l29 88q2 -2 15.5 -7.5t33.5 -12.5q11 -3 24.5 -7
t26.5 -7q14 -2 27 -4t25 -2v173q-86 21 -121.5 58t-35.5 101v10q6 59 49.5 88.5t107.5 33.5v81h67v-81q13 0 29.5 -1t34.5 -4q23 -3 44.5 -8.5t33.5 -13.5l-21 -81q-14 6 -30 11t-33 8q-15 2 -30 3.5t-28 1.5v-129v0zM324 198v1q0 3 -0.5 6.5t-0.5 7.5q-5 22 -22 41t-44 27
l-1 -156q35 12 51.5 31.5t16.5 41.5v0zM190 504h-4t-4 -1q-19 -3 -35.5 -16.5t-18.5 -31.5v-1v-1v-1v0q-1 -1 -1 -2v-1v-3.5t1 -3.5q2 -13 15.5 -25.5t46.5 -21.5v109v0z" />
    <glyph glyph-name="glyph8" unicode="%" horiz-adv-x="690" 
d="M514 -11q-61 1 -112 39.5t-51 118.5t51 120t112 40t111.5 -40t50.5 -120t-50.5 -118.5t-111.5 -38.5v-1zM514 53q44 0 64 27t20 67q0 39 -23 66t-61 27t-61.5 -27t-23.5 -66q0 -40 20.5 -67t64.5 -27v0zM477 605h82l-350 -605h-82l350 605v0zM172 611h1.5h1.5
q60 -1 110 -41t50 -119t-50 -118.5t-110 -40.5h-1.5h-1.5q-61 0 -112 40t-51 119q0 80 51 120t112 40v0zM257 451q0 40 -22 67t-63 27q-40 0 -62.5 -27t-22.5 -67t24 -66.5t61 -26.5q38 0 61.5 26.5t23.5 66.5v0z" />
    <glyph glyph-name="glyph9" unicode="&#x26;" horiz-adv-x="653" 
d="M517 381q11 -14 18.5 -29.5t11.5 -31.5q2 -11 3.5 -20.5t1.5 -19.5v-4v-4q-1 -3 -1 -5v-4q-3 -49 -30.5 -88t-78.5 -75q9 -11 18 -18t18 -10q5 -3 11 -4t12 -1t12.5 1.5t13.5 2.5q9 5 17.5 12t14.5 15q6 7 10 14t6 12q6 -3 14 -5.5t16 -4.5q14 -3 26 -5.5t18 -3.5
q-11 -16 -21.5 -30t-21.5 -25q-24 -26 -48 -39t-51 -14l-14 -1q-35 1 -67 11t-60 38q-23 -19 -56.5 -31.5t-69.5 -16.5q-12 -2 -24 -3t-23 -1l-3 -1q-32 1 -59.5 13.5t-47.5 27.5q-4 4 -8 7.5t-8 6.5q-20 19 -32 42.5t-19 50.5q-3 11 -4.5 21t-1.5 19q0 24 8 45t18 41
q4 9 17.5 26.5t32.5 36.5q12 11 24.5 22t25.5 21q7 5 13.5 9t12.5 7q-9 28 -14 54.5t-5 50.5q0 29 6.5 55t16.5 44q11 18 32.5 30.5t45.5 16.5q6 1 11.5 1.5t10.5 0.5h5.5h5.5t5.5 -0.5t5.5 -1.5q32 -7 56.5 -25.5t33.5 -50.5q2 -7 3.5 -16t2.5 -18v-4.5v-4.5
q0 -14 -2.5 -29t-8.5 -31l-4 -10t-5 -10q-2 -3 -22 -27t-76 -62q2 -5 3.5 -10t3.5 -10q18 -49 47.5 -96t61.5 -84q30 22 50 42t31 39q5 10 7.5 19.5t2.5 19.5q0 7 -1.5 14.5t-3.5 14.5h-79v81h128v0zM188 307q-1 -1 -2.5 -2t-3.5 -2q-30 -22 -55.5 -53.5t-28.5 -65.5v-3v-4
q0 -5 1 -10l2 -10l4 -10t5 -10q14 -26 39 -40.5t56 -14.5q22 0 48.5 7.5t54.5 22.5q-11 10 -24.5 26.5t-27.5 36.5q-17 25 -33 54.5t-28 59.5q-2 5 -3.5 9.5t-3.5 8.5v0zM300 495q0 2 0.5 4t0.5 5q1 2 1 4v4q0 11 -3.5 22t-9.5 20q-6 5 -12.5 8.5t-13.5 3.5h-2.5t-2.5 -1
q-8 -1 -15 -7.5t-12 -16.5q-3 -6 -4.5 -14.5t-1.5 -17.5v-2.5v-3.5v-7.5t1 -7.5q0 -11 1.5 -21t3.5 -18q1 -9 2.5 -15t2.5 -8q20 15 37.5 32.5t26.5 36.5v0z" />
    <glyph glyph-name="glyph10" unicode="'" horiz-adv-x="124" 
d="M56 644h97l-77 -131h-64l44 131v0z" />
    <glyph glyph-name="glyph11" unicode="(" horiz-adv-x="180" 
d="M96 -53q-43 71 -65.5 156.5t-22.5 173.5v13.5v12.5q4 82 26 161.5t62 145.5h81q-38 -90 -57.5 -171.5t-19.5 -161.5q0 -79 19.5 -160.5t57.5 -168.5l-81 -1v0zM96 -53q-43 71 -65.5 156.5t-22.5 173.5v13.5v12.5q4 82 26 161.5t62 145.5h81q-38 -90 -57.5 -171.5
t-19.5 -161.5q0 -79 19.5 -160.5t57.5 -168.5l-81 -1v0zM177 -53h-81q-43 71 -65.5 156.5t-22.5 173.5v13.5v12.5q4 82 26 161.5t62 145.5h81q-38 -90 -57.5 -171.5t-19.5 -161.5q0 -79 19.5 -160.5t57.5 -168.5v-1z" />
    <glyph glyph-name="glyph12" unicode=")" horiz-adv-x="180" 
d="M81 -53h-81q38 88 57 169.5t19 160.5q0 80 -19 161.5t-57 171.5h81q40 -66 62 -145.5t25 -161.5v-12.5v-13.5q0 -88 -21.5 -173.5t-65.5 -155.5v-1z" />
    <glyph glyph-name="glyph13" unicode="*" horiz-adv-x="388" 
d="M193 278h-40l15 153l-123 -104l-45 49l150 89l-150 89l45 49l123 -104l-15 153h80l-15 -154l123 105l45 -49l-148 -89l148 -89l-45 -49l-122 105l14 -154h-40v0z" />
    <glyph glyph-name="glyph14" unicode="+" horiz-adv-x="407" 
d="M14 383h146v144h69v-144h161v-69h-161v-161h-69v161h-146v69v0z" />
    <glyph glyph-name="glyph15" unicode="," horiz-adv-x="151" 
d="M48 86h96l-77 -131h-63l44 131v0z" />
    <glyph glyph-name="glyph16" unicode="-" horiz-adv-x="463" 
d="M42 383h376v-69h-376v69v0z" />
    <glyph glyph-name="glyph17" unicode="." horiz-adv-x="189" 
d="M141 0h-97v86h97v-86v0z" />
    <glyph glyph-name="glyph18" unicode="/" horiz-adv-x="312" 
d="M248 605h89l-278 -691h-88l277 691v0z" />
    <glyph glyph-name="glyph19" unicode="0" horiz-adv-x="642" 
d="M619 297q0 -153 -94.5 -228.5t-207.5 -75.5h-1.5h-1.5q-112 1 -206 76t-94 226l1 2l-1 2q0 151 94 227t206 77h1.5h1.5q113 0 207.5 -76.5t94.5 -229.5v0zM316 517q-73 -1 -133 -56t-60 -164t60 -163.5t133 -55.5l1 -1h2.5h3.5q70 2 129 57.5t59 162.5t-59 162.5
t-129 57.5h-3.5h-2.5h-1v0z" />
    <glyph glyph-name="glyph20" unicode="1" 
d="M190 0v504l-180 -84v83l205 96h72v-599h-97v0z" />
    <glyph glyph-name="glyph21" unicode="2" horiz-adv-x="530" 
d="M37 74q98 66 173.5 118.5t118.5 102.5q24 27 36.5 55t12.5 58q0 57 -45 90t-112 33q-35 0 -74.5 -10.5t-80.5 -31.5v88q28 11 58.5 18.5t61.5 10.5q14 2 27 2.5t26 0.5q97 0 171.5 -47.5t74.5 -154.5v-1q0 -45 -22 -85t-61 -80q-37 -38 -86 -76.5t-106 -81.5h290v-83
h-463v74v0z" />
    <glyph glyph-name="glyph22" unicode="3" horiz-adv-x="501" 
d="M484 207q0 -109 -78 -158t-171 -55q-10 -1 -19.5 -1.5t-19.5 -0.5q-54 0 -102 10t-77 27v89q55 -22 102.5 -33.5t86.5 -11.5q82 0 127 39t45 95q0 65 -51.5 91t-125.5 26q-18 0 -37.5 -1.5t-39.5 -3.5v66l178 132h-265v82h403v-77l-167 -124q92 0 151.5 -53t59.5 -138v0z
" />
    <glyph glyph-name="glyph23" unicode="4" horiz-adv-x="558" 
d="M5 297l329 302h99v-302h118v-83h-118v-214h-96v214h-332v83v0zM336 486l-200 -189h200v189v0z" />
    <glyph glyph-name="glyph24" unicode="5" horiz-adv-x="510" 
d="M56 332l66 267h314v-82h-247l-20 -85q12 1 23.5 1h21.5q141 0 210.5 -55.5t69.5 -155.5q0 -120 -83.5 -171.5t-183.5 -56.5q-6 -1 -12 -1h-12q-54 0 -105 11t-86 30v85q9 -4 17.5 -7.5t16.5 -6.5q39 -14 77.5 -21.5t72.5 -7.5q83 0 139.5 38.5t56.5 108.5q0 53 -53 90.5
t-147 37.5q-30 0 -64 -5t-72 -14v0z" />
    <glyph glyph-name="glyph25" unicode="6" horiz-adv-x="558" 
d="M139 380q33 23 76.5 35t89.5 12h4.5h4.5q84 -2 154.5 -50.5t72.5 -154.5q0 -111 -79 -168t-185 -57q-127 0 -189.5 84t-62.5 202q0 14 1.5 28t2.5 28q8 70 38.5 126t85.5 96q35 23 82.5 35t105.5 12h20q23 -1 47.5 -4t50.5 -9v-86q-6 1 -12 2.5t-11 2.5q-24 5 -47 7.5
t-45 2.5q-68 0 -123 -32t-82 -112v0zM296 342q-18 0 -36.5 -3t-37.5 -9q-25 -7 -50.5 -18.5t-48.5 -25.5q0 -3 -0.5 -6t-0.5 -6q0 -4 -0.5 -7t-0.5 -6q0 -88 47.5 -131.5t104.5 -48.5h4h4q2 -1 4 -1h4q55 0 100 33.5t45 93.5q0 72 -38.5 103.5t-93.5 31.5h-6v0z" />
    <glyph glyph-name="glyph26" unicode="7" horiz-adv-x="463" 
d="M449 514l-322 -514h-110l322 517h-362v83h472v-86v0z" />
    <glyph glyph-name="glyph27" unicode="8" horiz-adv-x="548" 
d="M271 -8q-131 1 -191.5 56t-65.5 121q-1 4 -1 7.5v6.5q0 56 32 104.5t86 64.5q-26 14 -40.5 40.5t-14.5 56.5q0 5 0.5 10.5t1.5 11.5q8 51 55.5 93t137.5 42t137.5 -42t55.5 -93q1 -6 1.5 -11.5t0.5 -10.5q0 -30 -14.5 -56.5t-40.5 -40.5q54 -16 85.5 -64.5t31.5 -104.5
v-6.5t-1 -7.5q-5 -66 -65 -121t-191 -55v-1zM271 293q-12 0 -28 -2t-33 -6q-33 -10 -61 -33t-28 -67q0 -43 28 -66.5t61 -32.5q17 -5 33 -7t28 -2q13 0 28.5 2t32.5 7q33 9 61 32.5t28 66.5q0 44 -28 67t-61 33q-17 4 -32.5 6t-28.5 2v0zM362 449q0 29 -23 52t-68 23
t-68 -23t-23 -52q0 -30 23 -52.5t68 -22.5t68 22.5t23 52.5v0z" />
    <glyph glyph-name="glyph28" unicode="9" horiz-adv-x="539" 
d="M25 111q47 -19 89 -28.5t76 -9.5q92 0 144 47t69 104q3 11 5 22.5t3 22.5q-17 -9 -35 -16.5t-36 -12.5q-28 -10 -56.5 -14.5t-54.5 -4.5q-88 0 -151 47t-63 137q2 95 74 148.5t162 53.5q9 0 18 -0.5t17 -1.5q91 -11 158 -75t70 -214q0 -122 -71.5 -223.5t-235.5 -101.5
q-40 0 -85.5 6.5t-96.5 22.5v91v0zM415 364q0 67 -40.5 107.5t-89.5 52.5q-10 3 -20 4t-19 1q-49 0 -89 -37.5t-40 -83.5h1q0 -55 36 -81.5t88 -26.5q18 0 37 3t38 9q26 8 51 21t47 31v0z" />
    <glyph glyph-name="glyph29" unicode=":" horiz-adv-x="189" 
d="M141 87v-87h-97v87h97v0zM44 317h97v-88h-97v88v0z" />
    <glyph glyph-name="glyph30" unicode=";" horiz-adv-x="189" 
d="M44 86h97l-78 -131h-63l44 131v0zM44 229v88h97v-88h-97v0z" />
    <glyph glyph-name="glyph31" unicode="&#x3c;" horiz-adv-x="501" 
d="M483 40l-462 226v102l462 224v-105l-362 -170l362 -172v-105v0z" />
    <glyph glyph-name="glyph32" unicode="=" horiz-adv-x="473" 
d="M51 282h376v-70h-376v70v0zM51 374v69h376v-69h-376v0z" />
    <glyph glyph-name="glyph33" unicode="&#x3e;" horiz-adv-x="510" 
d="M18 40v105l361 172l-361 170v105l462 -224v-102l-462 -226v0z" />
    <glyph glyph-name="glyph34" unicode="?" horiz-adv-x="435" 
d="M124 0v86h95v-86h-95v0zM124 242q90 11 136.5 50.5t54.5 84.5q1 5 1.5 9.5t0.5 9.5q0 47 -39.5 85.5t-112.5 38.5q-32 0 -71 -9.5t-83 -30.5v86q47 17 89.5 24.5t78.5 7.5q116 0 176 -62.5t60 -138.5v-5.5v-5.5q-4 -65 -52.5 -121.5t-143.5 -72.5v-56h-95v106v0z" />
    <glyph glyph-name="glyph35" unicode="@" horiz-adv-x="595" 
d="M473 152l88 -29q-45 -52 -100.5 -89.5t-160.5 -37.5l-14 -1q-115 2 -204 83.5t-89 228.5v12t1 13q0 6 0.5 12t1.5 12q13 116 74 178t131 85q26 9 52 13t49 4h2q71 0 123.5 -24t84.5 -53q4 -3 7 -6l6 -6q20 -19 36 -55t20 -82v-18q0 -8 -0.5 -15.5t-1.5 -15.5
q-5 -35 -21 -66.5t-43 -48.5q-16 -10 -31.5 -15.5t-29.5 -5.5q-24 0 -43.5 13.5t-31.5 32.5q-10 -18 -40.5 -32.5t-67.5 -14.5h-6.5t-6.5 1q-20 2 -39.5 10t-36.5 23q-13 13 -20.5 30t-7.5 37q0 14 4 30.5t10 32.5l3.5 7l3.5 7q19 32 40 47t58 24q3 1 6.5 1.5t6.5 0.5
q7 1 13.5 1h12.5q33 0 61.5 -12.5t56.5 -40.5l7.5 -7.5t6.5 -7.5l-24 -79q2 -21 11 -29.5t22 -8.5h2t2 1h1h2q21 2 35.5 29t14.5 66v21q-3 30 -17 55t-32 41q-26 25 -63.5 40t-91.5 17h-8q-14 0 -29 -3t-30 -8q-54 -21 -100.5 -75.5t-54.5 -140.5q-1 -6 -1 -12.5v-13.5
q0 -92 57 -158.5t154 -73.5h2.5h2.5q1 -1 2.5 -1h2.5q60 0 97.5 18.5t57.5 40.5q4 4 7.5 9t6.5 9v0zM319 425h-6q-29 0 -46 -15t-31 -36q-2 -4 -3.5 -8t-2.5 -8q-2 -6 -3 -12.5t-1 -11.5q0 -19 11 -32.5t29 -15.5h1.5h1.5q1 -1 1.5 -1h1.5q31 0 50.5 14t36.5 43l12 41
q-1 2 -1.5 3.5t-1.5 3.5q-7 12 -19.5 22.5t-25.5 12.5h-2h-2v0z" />
    <glyph glyph-name="glyph36" unicode="A" horiz-adv-x="642" 
d="M124 299h-65v84h102l88 222h144l241 -605h-120l-113 299h-172l-116 -299h-108l119 299v0zM263 383h108l-54 136l-54 -136v0z" />
    <glyph glyph-name="glyph37" unicode="B" horiz-adv-x="615" 
d="M47 0v605h304q73 0 114.5 -42.5t41.5 -93.5v-5.5v-4.5q-3 -25 -16 -49.5t-39 -43.5q65 -12 102.5 -57.5t42.5 -96.5q1 -4 1 -8.5v-8.5q0 -76 -52.5 -135.5t-137.5 -59.5h-361v0zM154 299v-215h219q53 0 85.5 34t33.5 74v1.5v1.5v1q0 40 -32.5 71.5t-88.5 31.5h-217v0z
M154 520v-137h173q39 0 59 20.5t21 45.5v1.5v1.5q0 26 -19.5 47t-60.5 21h-173v0z" />
    <glyph glyph-name="glyph38" unicode="C" horiz-adv-x="595" 
d="M124 304q2 -91 67.5 -153.5t156.5 -62.5q24 0 49.5 5t51.5 16q18 8 36.5 19t36.5 25l58 -73q-43 -39 -95 -60.5t-107 -27.5q-9 -1 -19 -1.5t-20 -0.5q-124 0 -224 80.5t-102 232.5q0 152 97.5 235.5t224.5 83.5q16 0 33 -1.5t33 -4.5q46 -8 91 -27.5t86 -51.5l-46 -75
q-17 13 -34 23.5t-35 18.5q-30 14 -60 21t-58 7q-92 0 -156.5 -63.5t-64.5 -164.5v0z" />
    <glyph glyph-name="glyph39" unicode="D" horiz-adv-x="671" 
d="M343 0h-296v605h273q157 0 241.5 -93t84.5 -205v-1q-2 -124 -69 -215t-234 -91v0zM317 84q125 0 172.5 65t48.5 153q0 82 -52 150t-171 68h-161v-436h163v0z" />
    <glyph glyph-name="glyph40" unicode="E" horiz-adv-x="501" 
d="M46 0v605h414v-85h-306v-137h326v-84h-326v-215h326v-84h-434v0z" />
    <glyph glyph-name="glyph41" unicode="F" horiz-adv-x="473" 
d="M46 605h385v-85h-277v-137h301v-84h-301v-299h-108v605v0z" />
    <glyph glyph-name="glyph42" unicode="G" horiz-adv-x="624" 
d="M493 498q-37 16 -73.5 23.5t-68.5 7.5q-101 0 -165.5 -64t-64.5 -168q0 -82 42 -138t129 -76q7 -1 14.5 -2.5t15.5 -2.5q4 -1 7.5 -1h7.5q22 0 45 4.5t46 12.5q15 6 30.5 13.5t30.5 17.5v174h-170v84h277l1 -290l-2.5 -2.5l-2.5 -2.5q-26 -25 -61.5 -48t-78.5 -35
q-12 -3 -23.5 -5.5t-23.5 -4.5q-18 -3 -36 -4.5t-35 -1.5q-127 0 -224.5 78.5t-97.5 229.5q0 146 97 232t232 86q32 0 66 -5.5t69 -16.5q12 -4 23.5 -8.5t22.5 -9.5l-29 -77v0z" />
    <glyph glyph-name="glyph43" unicode="H" horiz-adv-x="605" 
d="M551 605v-605h-107v299h-277v-299h-108v299h-48v84h48v222h108v-222h277v222h107v0z" />
    <glyph glyph-name="glyph44" unicode="I" horiz-adv-x="208" 
d="M156 0h-108v605h108v-605v0z" />
    <glyph glyph-name="glyph45" unicode="J" horiz-adv-x="359" 
d="M29 113q7 -6 14 -10.5t15 -8.5q18 -10 35.5 -15t33.5 -5q33 0 56.5 20t24.5 57v454h108v-462q0 -76 -57 -112.5t-125 -36.5h-5.5h-5.5q-34 2 -66.5 12t-57.5 29l30 78v0z" />
    <glyph glyph-name="glyph46" unicode="K" horiz-adv-x="595" 
d="M473 -9l-166 258q-18 28 -37 39t-45 11h-70v-299h-108v605h108v-223l220 223h126l-223 -225q23 -3 42 -9.5t36 -22.5l6.5 -6.5t6.5 -7.5l223 -333l-119 -10v0z" />
    <glyph glyph-name="glyph47" unicode="L" horiz-adv-x="454" 
d="M445 84v-84h-399v605h108v-521h291v0z" />
    <glyph glyph-name="glyph48" unicode="M" horiz-adv-x="766" 
d="M705 0h-107v454l-187 -269h-57l-186 269v-454h-108v605h116l208 -293l203 293h118v-605v0z" />
    <glyph glyph-name="glyph49" unicode="N" horiz-adv-x="605" 
d="M48 605h109l286 -300v300h108v-605h-108v164l-288 303v-467h-107v605v0z" />
    <glyph glyph-name="glyph50" unicode="O" horiz-adv-x="671" 
d="M657 303q0 -148 -95 -229.5t-226 -81.5q-130 0 -226.5 81t-96.5 229t96 230t226 82q131 0 226.5 -81.5t95.5 -229.5v0zM549 301q0 105 -64.5 164t-150.5 59q-84 0 -149 -58.5t-65 -162.5l1 -2q1 -106 65.5 -163.5t149.5 -57.5t149 57.5t64 163.5v0z" />
    <glyph glyph-name="glyph51" unicode="P" horiz-adv-x="530" 
d="M47 0v605h246q113 0 169 -48.5t57 -123.5q0 -63 -51 -115.5t-154 -52.5h-160v-265h-107v0zM154 520v-171h155q51 0 77 26t26 57q0 33 -28 60.5t-85 27.5h-145v0z" />
    <glyph glyph-name="glyph52" unicode="Q" horiz-adv-x="671" 
d="M646 23l-40 -82q-7 4 -15.5 6.5t-17.5 5.5q-26 7 -57.5 14.5t-64.5 12.5q-28 5 -56 8t-52 3h-1.5h-1.5h-0.5t-0.5 -1h-2h-1q-130 0 -226.5 81t-97.5 229q0 146 95.5 230.5t225.5 84.5q131 0 226.5 -85t95.5 -230q0 -99 -40 -153.5t-95 -90.5l126 -33v0zM547 300
q0 87 -57 157.5t-157 71.5q-100 -1 -156.5 -71.5t-56.5 -157.5l-1 -3q0 -89 57.5 -155t157.5 -66q97 0 155 66.5t58 157.5v0z" />
    <glyph glyph-name="glyph53" unicode="R" horiz-adv-x="577" 
d="M293 605q95 0 140 -44t47 -96v-3.5v-2.5v-2v-2q-1 -45 -31.5 -84t-85.5 -50q5 -3 43 -52.5t177 -256.5l-107 -22q-133 201 -172 255t-51 54h-98v-299h-107v605h245v0zM293 383q44 0 66.5 20.5t23.5 45.5v1.5v1.5q0 26 -22.5 47t-67.5 21h-138v-137h138v0z" />
    <glyph glyph-name="glyph54" unicode="S" horiz-adv-x="510" 
d="M439 497q-52 17 -96 24t-78 7q-60 0 -90.5 -19t-30.5 -43q0 -4 1 -7.5t2 -7.5q7 -18 32 -34t67 -24q92 -18 162.5 -63.5t80.5 -131.5v-4.5t1 -5.5v-5.5v-4.5q0 -79 -68 -135.5t-186 -56.5q-49 0 -105.5 11.5t-118.5 37.5l-2 106l21 -10.5t22 -10.5q16 -6 31.5 -12.5
t28.5 -10.5q34 -10 64 -15.5t56 -5.5q71 0 109.5 32t38.5 80v3.5v2.5q-3 30 -35 57t-97 44q-94 27 -154.5 64t-60.5 108v1.5v1.5v0.5v0.5q1 1 1 2v1q3 78 70 109.5t151 31.5h14.5t15.5 -1q40 -2 78.5 -10t70.5 -19l4 -88v0z" />
    <glyph glyph-name="glyph55" unicode="T" horiz-adv-x="510" 
d="M503 605v-85h-195v-520h-107v520h-195v85h497v0z" />
    <glyph glyph-name="glyph56" unicode="U" horiz-adv-x="595" 
d="M157 188q0 -40 34.5 -74t103.5 -34q64 0 101 30.5t42 67.5q1 2 1 4.5v5.5v417h107v-429q0 -87 -76 -135.5t-173 -48.5t-172.5 48.5t-75.5 135.5v429h108v-417v0z" />
    <glyph glyph-name="glyph57" unicode="V" horiz-adv-x="633" 
d="M253 0l-243 605h104l201 -504l202 504h104l-243 -605h-125v0z" />
    <glyph glyph-name="W" unicode="W" horiz-adv-x="851" 
d="M350 0h-97l-254 605h95l203 -478l79 200l-107 278h95l60 -170l60 170h97l-108 -278l80 -200l203 478h96l-254 -605h-98l-76 207l-74 -207v0z" />
    <glyph glyph-name="glyph59" unicode="X" horiz-adv-x="633" 
d="M460 605h118l-203 -272l249 -333h-125l-182 253l-183 -253h-125l248 332l-201 273h117l144 -196l143 196v0z" />
    <glyph glyph-name="glyph60" unicode="Y" horiz-adv-x="548" 
d="M314 0h-96v358l-214 247h120l142 -159l147 159h121l-220 -247v-358v0z" />
    <glyph glyph-name="glyph61" unicode="Z" horiz-adv-x="539" 
d="M505 605v-85l-347 -437h352v-83h-480v83l355 437h-340v85h460v0z" />
    <glyph glyph-name="glyph62" unicode="[" horiz-adv-x="312" 
d="M47 -216v907h233v-86h-142v-735h142v-86h-233v0z" />
    <glyph glyph-name="glyph63" unicode="\" horiz-adv-x="445" 
d="M77 605l409 -736h-98l-407 736h96v0z" />
    <glyph glyph-name="glyph64" unicode="]" horiz-adv-x="312" 
d="M259 -216h-233v86h142v735h-142v86h233v-907v0z" />
    <glyph glyph-name="glyph65" unicode="^" horiz-adv-x="388" 
d="M5 462l138 221h103l138 -221h-104l-85 142l-87 -142h-103v0z" />
    <glyph glyph-name="glyph66" unicode="_" horiz-adv-x="473" 
d="M5 -25h466v-68h-466v68v0z" />
    <glyph glyph-name="glyph67" unicode="`" horiz-adv-x="133" 
d="M96 550h-97l77 131h64l-44 -131v0z" />
    <glyph glyph-name="glyph68" unicode="a" horiz-adv-x="473" 
d="M89 451q15 6 31 10t32 7q22 4 44 6t43 2q33 0 63.5 -5t52.5 -15q40 -18 60.5 -55t20.5 -88v-313h-82v22q-22 -13 -61.5 -22t-83.5 -9h-9.5h-8.5q-67 4 -123 37.5t-56 114.5q0 87 68.5 123t150.5 36q8 0 16.5 -0.5t16.5 -0.5q22 -2 44 -6t41 -9q0 57 -13 79t-39 31l-16 4
t-16 3t-16 1.5t-16 0.5q-31 0 -67 -9t-77 -26v81v0zM104 143q0 -41 38 -59t87 -18h9.5t9.5 1q29 2 55.5 9t45.5 17v118q-3 1 -8.5 2.5t-11.5 3.5q-17 4 -41.5 7t-51.5 3h-5.5h-5.5q-45 -2 -83 -19.5t-38 -64.5v0z" />
    <glyph glyph-name="glyph69" unicode="b" horiz-adv-x="501" 
d="M488 226q0 -100 -74 -167.5t-184 -67.5q-44 0 -92.5 12.5t-98.5 40.5v561h88l1 -154q32 11 63.5 16.5t60.5 5.5q101 0 168.5 -64t67.5 -183v0zM391 232q0 83 -44.5 124.5t-103.5 41.5q-14 0 -28.5 -2.5t-28.5 -6.5q-15 -5 -29.5 -12t-28.5 -16l-1 -262q21 -11 46.5 -17.5
t51.5 -6.5h2.5h3.5q60 2 110 38.5t50 118.5v0z" />
    <glyph glyph-name="glyph70" unicode="c" horiz-adv-x="463" 
d="M419 111l37 -70q-32 -21 -69.5 -32t-75.5 -14q-7 0 -14 -0.5t-14 -0.5q-102 0 -183 61.5t-81 182.5q0 122 81 182.5t183 60.5q10 0 20.5 -0.5t20.5 -1.5q35 -4 68.5 -15t63.5 -29l-37 -71q-5 3 -11 5.5t-11 5.5q-28 12 -55 18t-52 6q-73 0 -123.5 -43.5t-50.5 -117.5
t50.5 -116t123.5 -42q31 0 63.5 7.5t65.5 23.5v0z" />
    <glyph glyph-name="glyph71" unicode="d" horiz-adv-x="501" 
d="M463 0h-88v27q-25 -15 -56.5 -22.5t-65.5 -7.5q-8 0 -17 0.5t-17 1.5q-80 9 -147 66.5t-67 172.5q0 114 69.5 172.5t153.5 66.5q7 0 14 0.5t14 0.5q32 0 63 -7t56 -21v155h88v-605v0zM375 360q-17 21 -46.5 32.5t-62.5 11.5h-8.5t-9.5 -1q-54 -5 -99.5 -45t-45.5 -120
q0 -87 48.5 -126t106.5 -42h4h4q31 0 60 9t49 25v256v0z" />
    <glyph glyph-name="glyph72" unicode="e" horiz-adv-x="530" 
d="M520 250h-409v-3v-4q-1 -2 -1 -3.5v-3.5q0 -9 1 -18.5t3 -19.5q12 -50 52 -92t104 -43h5q56 0 97 24t76 67l62 -59q-49 -58 -107 -82t-126 -24l-10 -1q-124 4 -188.5 80.5t-64.5 173.5q0 6 0.5 12.5t1.5 13.5q9 78 72 143t179 65q122 0 186 -69.5t67 -156.5v0zM270 405
h-2q-12 0 -24.5 -2t-25.5 -6q-27 -9 -51.5 -27t-38.5 -46h286q-14 26 -38.5 44t-51.5 27q-13 5 -26.5 7.5t-25.5 2.5h-2v0z" />
    <glyph glyph-name="glyph73" unicode="f" horiz-adv-x="321" 
d="M70 477q0 67 44 100t105 33q11 0 23.5 -1t25.5 -4q8 -1 15.5 -3t14.5 -4v-76q-22 10 -42.5 15t-36.5 5q-29 0 -45 -16.5t-16 -48.5v-13h159v-73h-159v-391h-88v391h-77v73h77v13v0z" />
    <glyph glyph-name="glyph74" unicode="g" horiz-adv-x="492" 
d="M341 81q67 -13 110.5 -48t45.5 -98v-3q0 -71 -74 -118t-176 -47l-1 -1q-113 1 -174.5 51.5t-63.5 111.5v1.5v1.5q0 40 27 76t82 60q-22 12 -35 29.5t-16 36.5v3v4v3.5v3.5q2 18 16 35.5t40 29.5q-46 22 -65.5 50.5t-19.5 67.5v2t1 2v2v2q3 56 59.5 95t147.5 39q7 0 15 -1
t15 -2q18 -2 34.5 -5.5t30.5 -8.5l47 74h106l-96 -98q29 -19 40 -42.5t11 -52.5v-3q-1 -57 -44.5 -101t-140.5 -44q-3 0 -6.5 0.5t-6.5 0.5q-4 0 -7.5 0.5t-6.5 0.5h-10q-29 0 -49.5 -12t-23.5 -27q-1 -1 -1 -2.5v-2.5v-2.5t1 -2.5q2 -12 17 -22.5t45 -16.5q13 -2 28.5 -4.5
t31.5 -5.5q3 0 5.5 -0.5t4.5 -1.5q15 -3 29.5 -5.5t26.5 -4.5v0zM184 29q-41 -12 -67 -35t-30 -48q-1 -3 -1 -5.5v-4.5q0 -3 0.5 -6.5t1.5 -6.5q3 -12 12 -24.5t25 -23.5q8 -5 15 -9.5t15 -8.5q23 -11 47.5 -15.5t56.5 -4.5q59 1 99.5 26.5t47.5 56.5q1 4 1.5 7t0.5 6v3
q-4 35 -41 50.5t-101 27.5q-18 4 -38.5 7.5t-43.5 7.5v0zM249 256q48 0 82.5 20.5t34.5 57.5q0 33 -26.5 49.5t-57.5 21.5q-10 2 -20 2.5t-19 0.5t-18.5 -1t-19.5 -3q-31 -7 -57 -24t-26 -43q0 -42 36 -61.5t91 -19.5v0z" />
    <glyph glyph-name="glyph75" unicode="h" horiz-adv-x="492" 
d="M127 427q39 30 77.5 39t75.5 10q67 0 120 -34.5t53 -102.5v-339h-87v321q0 41 -28.5 61t-68.5 20q-12 0 -25 -2t-26 -6q-25 -9 -49 -24.5t-42 -38.5v-331h-88v605h88v-178v0z" />
    <glyph glyph-name="glyph76" unicode="i" horiz-adv-x="171" 
d="M127 0h-87v464h87v-464v0zM40 592h87v-78h-87v78v0z" />
    <glyph glyph-name="glyph77" unicode="j" horiz-adv-x="171" 
d="M-97 -134q27 -9 48 -14t36 -5q28 0 40 19t12 54l1 544h87v-567q0 -54 -32 -92.5t-95 -38.5q-21 0 -47 5t-54 16l4 79v0zM127 514h-87v78h87v-78v0z" />
    <glyph glyph-name="glyph78" unicode="k" horiz-adv-x="473" 
d="M386 -12l-120 210q-12 23 -33.5 37.5t-44.5 14.5h-63v-250h-87v605h87v-290l172 149h115l-176 -150q44 -1 72 -26t52 -73q1 -2 2 -3.5t2 -3.5l114 -203l-92 -17v0z" />
    <glyph glyph-name="glyph79" unicode="l" horiz-adv-x="171" 
d="M40 605h87v-605h-87v605v0z" />
    <glyph glyph-name="glyph80" unicode="m" horiz-adv-x="794" 
d="M438 339v-339h-87v317q0 38 -32.5 61.5t-75.5 23.5q-8 0 -16.5 -1t-16.5 -3q-23 -6 -45.5 -21t-39.5 -39v-338h-87v464h87v-42q6 5 12 9.5t12 8.5q30 21 60.5 30t62.5 9q45 -1 80 -17.5t57 -48.5q27 24 57 37.5t60 19.5q15 3 30 4.5t30 1.5q67 0 114.5 -40t49.5 -97v-339
h-87v320q0 36 -32.5 58.5t-73.5 22.5q-7 0 -13.5 -0.5t-13.5 -2.5q-25 -4 -49.5 -19t-42.5 -40v0z" />
    <glyph glyph-name="glyph81" unicode="n" horiz-adv-x="492" 
d="M127 422q21 19 48 31t55 18q13 2 26 3.5t25 1.5h2h5.5h5.5q60 -3 109.5 -38t49.5 -99v-339h-87v328q0 35 -30 55t-71 20q-11 0 -22 -1.5t-22 -4.5q-26 -7 -51 -22.5t-43 -40.5v-334h-88v464h88v-42v0z" />
    <glyph glyph-name="glyph82" unicode="o" horiz-adv-x="539" 
d="M269 -13q-103 1 -177.5 68t-74.5 181l1 1q0 113 75.5 176t171.5 63h4q97 -1 173.5 -63.5t77.5 -175.5v-1q0 -111 -74 -179t-176 -68l-1 -2v0zM268 62q63 0 109 46.5t46 120.5t-43.5 122t-111.5 48h-1q-68 -1 -110.5 -48t-42.5 -122q0 -74 45.5 -120.5t108.5 -46.5v0z" />
    <glyph glyph-name="glyph83" unicode="p" horiz-adv-x="510" 
d="M132 10v-239h-87v693h87v-22q30 15 62 22.5t64 7.5q90 0 162.5 -59t72.5 -174q0 -118 -69.5 -181t-177.5 -63q-26 0 -55 3.5t-59 11.5v0zM132 356v-261q22 -11 47.5 -17.5t51.5 -6.5q62 0 113 38t51 124q0 81 -45 120t-104 39q-9 0 -19 -1t-19 -3q-20 -4 -39 -12t-37 -20
v0z" />
    <glyph glyph-name="glyph84" unicode="q" horiz-adv-x="520" 
d="M22 239q0 105 82 168.5t199 63.5q25 0 51.5 -3.5t53.5 -9.5q15 -4 30.5 -9t30.5 -11v-667h-87v236q-28 -7 -56 -10.5t-54 -3.5q-107 0 -178.5 62t-71.5 184v0zM119 234q0 -86 51.5 -124t112.5 -38q6 0 12.5 0.5t13.5 1.5q19 2 38 8t35 14v279q-16 8 -38 11.5t-46 3.5
q-7 0 -15 -0.5t-15 -1.5q-56 -6 -102.5 -41.5t-46.5 -112.5v0z" />
    <glyph glyph-name="glyph85" unicode="r" horiz-adv-x="293" 
d="M289 399h-20q-34 0 -63.5 -8t-57.5 -32q-5 -4 -10.5 -9t-10.5 -11v-339h-88v464h88v-42q28 27 62.5 38t72.5 11h6.5h6.5q1 -1 2.5 -1h2.5h4.5h4.5v-71v0z" />
    <glyph glyph-name="glyph86" unicode="s" horiz-adv-x="435" 
d="M369 368q-9 4 -17.5 7.5t-17.5 6.5q-26 10 -52.5 15t-54.5 5t-53 -9t-33 -22q-1 -2 -2 -4.5t-1 -5.5q-1 -1 -1 -2.5v-2.5q0 -3 0.5 -5.5t1.5 -5.5q5 -13 22 -25t45 -18q89 -16 147.5 -50t60.5 -108v-9q0 -67 -54 -105t-143 -40l-12 -1q-25 1 -52 5t-54 11q-23 6 -46 15.5
t-45 21.5l37 81q52 -25 94.5 -39.5t75.5 -15.5q49 1 75.5 21t26.5 45v4t-1 4q-3 23 -28.5 43.5t-72.5 29.5q-94 26 -131 61t-37 82q1 50 52.5 82t123.5 32q29 0 54.5 -2.5t49.5 -7.5q17 -4 34.5 -9t35.5 -12l-28 -73v0z" />
    <glyph glyph-name="glyph87" unicode="t" horiz-adv-x="350" 
d="M62 91v301h-64v72h64v68l87 25v-93h171v-72h-171v-273q0 -22 19.5 -33.5t47.5 -11.5q11 0 23 1.5t24 5.5q14 4 27.5 9.5t26.5 13.5l41 -63q-23 -14 -50 -24.5t-55 -15.5q-16 -3 -31.5 -4.5t-30.5 -1.5q-50 0 -87.5 22t-41.5 74v0z" />
    <glyph glyph-name="glyph88" unicode="u" horiz-adv-x="510" 
d="M375 0l-1 39q-45 -22 -86.5 -32t-76.5 -10q-79 0 -125.5 41.5t-46.5 96.5v329h87v-296q0 -53 32.5 -77t75.5 -24q9 0 18.5 1t19.5 3q28 6 55 19t47 32l1 342h87v-464h-87v0z" />
    <glyph glyph-name="glyph89" unicode="v" horiz-adv-x="558" 
d="M0 464h106l172 -367l171 367h106l-225 -464h-104l-226 464v0z" />
    <glyph glyph-name="glyph90" unicode="w" horiz-adv-x="775" 
d="M528 464l-94 -208l71 -155l162 363h106l-223 -464h-88l-74 158l-71 -158h-88l-227 464h106l166 -363l70 155l-97 208h92l49 -119l48 119h92v0z" />
    <glyph glyph-name="glyph91" unicode="x" horiz-adv-x="482" 
d="M373 0l-134 194l-130 -194h-114l190 265l-148 199h105l97 -133l88 133h105l-140 -198l195 -266h-114v0z" />
    <glyph glyph-name="glyph92" unicode="y" horiz-adv-x="539" 
d="M188 -99l50 101l-233 462h104l176 -357l160 357h97l-271 -597q-19 -41 -52 -63.5t-68 -29.5q-9 -1 -17.5 -2t-16.5 -1q-19 0 -37.5 3.5t-32.5 11.5v71q3 0 6.5 -1t7.5 -1q10 -3 20 -4t19 -1q28 0 51.5 12t36.5 40v-1z" />
    <glyph glyph-name="glyph93" unicode="z" horiz-adv-x="482" 
d="M29 0v73l302 319h-289v72h404v-69l-293 -322h302v-73h-426v0z" />
    <glyph glyph-name="glyph94" unicode="{" horiz-adv-x="246" 
d="M23 232q27 5 39 30t12 66v212q0 34 18.5 56t40.5 27q3 1 6.5 1.5t6.5 0.5h81v-50h-42q-11 0 -18.5 -12.5t-7.5 -31.5l1 -186q0 -52 -17 -91.5t-64 -56.5q47 -16 64.5 -56t17.5 -92v-184q0 -19 7.5 -31t18.5 -12l43 -1v-51h-81q-4 1 -7.5 1.5t-7.5 1.5q-22 6 -40 28
t-18 56l-1 209v4v5q-2 31 -14.5 57t-37.5 29l-15 3v66l15 2v0z" />
    <glyph glyph-name="glyph95" unicode="|" horiz-adv-x="180" 
d="M136 -229h-90v854h90v-854v0z" />
    <glyph glyph-name="glyph96" unicode="}" horiz-adv-x="246" 
d="M218 232l15 -2v-66l-15 -3q-25 -3 -37.5 -29t-14.5 -57v-5v-4l-1 -210q0 -33 -18 -55t-40 -28q-4 -1 -7.5 -1.5t-7.5 -0.5l-81 -1v51h43q11 1 18.5 13t7.5 32v183q0 52 17.5 92t64.5 56q-46 17 -63.5 56.5t-17.5 91.5l1 186q0 19 -7.5 31.5t-18.5 12.5h-42v50h81
q3 0 6.5 -0.5t6.5 -1.5q22 -5 40.5 -27t18.5 -56v-212q0 -41 11.5 -66t39.5 -30v0z" />
    <glyph glyph-name="glyph97" unicode="~" horiz-adv-x="293" 
d="M41 546h-28v44q0 22 22 37t49 15q3 0 6.5 -0.5t7.5 -0.5q4 -1 7.5 -2t6.5 -2q11 -4 21.5 -12t20.5 -17q14 -13 26 -23t23 -10q6 0 12 4t11 11v28h44v-37q0 -5 -2.5 -11t-6.5 -12q-9 -15 -29 -28t-47 -13h-4.5t-4.5 1q-3 0 -5.5 0.5t-4.5 0.5q-18 5 -32.5 15t-25.5 21
t-19.5 20.5t-15.5 14.5q-2 2 -4.5 3t-5.5 2h-2.5h-2.5q-7 0 -12 -4t-5 -10v-35v0z" />
    <glyph glyph-name="uni007F" horiz-adv-x="416" 
 />
    <glyph glyph-name="F" 
d="M307 208v-94l-279 152v102l279 151v-95l-179 -107l179 -109v0z" />
    <glyph glyph-name="uni0081" 
d="M307 208v-94l-279 152v102l279 151v-95l-179 -107l179 -109v0z" />
    <glyph glyph-name="D" 
d="M307 208v-94l-279 152v102l279 151v-95l-179 -107l179 -109v0z" />
    <glyph glyph-name="N" 
d="M307 208v-94l-279 152v102l279 151v-95l-179 -107l179 -109v0z" />
    <glyph glyph-name="bullet" 
d="M307 208v-94l-279 152v102l279 151v-95l-179 -107l179 -109v0z" />
    <glyph glyph-name="guilsinglleft" 
d="M307 208v-94l-279 152v102l279 151v-95l-179 -107l179 -109v0z" />
    <glyph glyph-name="O" 
d="M307 208v-94l-279 152v102l279 151v-95l-179 -107l179 -109v0z" />
    <glyph glyph-name="tilde" 
d="M307 208v-94l-279 152v102l279 151v-95l-179 -107l179 -109v0z" />
    <glyph glyph-name="uni00A0" unicode="&#xa0;" 
 />
    <glyph glyph-name="Z" unicode="&#xa1;" horiz-adv-x="624" 
d="M497 605h127l-453 -605h-118l200 273l-246 332h127l182 -252l181 252v0zM173 721h276v-77h-276v77v0z" />
    <glyph glyph-name="cent" unicode="&#xa2;" horiz-adv-x="558" 
d="M188 -99l50 101l-233 462h104l176 -357l160 357h97l-271 -597q-19 -41 -52 -63.5t-68 -29.5q-9 -1 -17.5 -2t-16.5 -1q-19 0 -37.5 3.5t-32.5 11.5v71q3 0 6.5 -1t7.5 -1q10 -3 20 -4t19 -1q28 0 51.5 12t36.5 40v-1zM403 592v-78h-247v78h247v0z" />
    <glyph glyph-name="endash" unicode="&#xa3;" horiz-adv-x="321" 
d="M216 86h97l-77 -132h-64l44 132v0zM77 86h97l-77 -131h-64l44 131v0z" />
    <glyph glyph-name="currency" unicode="&#xa4;" horiz-adv-x="473" 
d="M47 296q0 33 10 60t28 49l-49 38l21 21l50 -39q25 21 56.5 32t68.5 11t68.5 -11t56.5 -32l49 39l21 -21l-49 -38q18 -22 28 -48.5t10 -59.5t-10 -61t-28 -49l49 -39l-21 -21l-49 40q-25 -22 -56.5 -32.5t-68.5 -10.5t-68.5 10.5t-56.5 32.5l-50 -40l-21 21l49 39
q-18 21 -28 48.5t-10 60.5v0zM87 296l-1 -3q0 -58 39 -98t107 -40t106 40t38 98v4q0 59 -38 99t-106 40t-107 -40t-39 -99l1 -1v0z" />
    <glyph glyph-name="emdash" unicode="&#xa5;" horiz-adv-x="407" 
d="M412 658v-138h-258v-520h-107v605h290l75 53v0z" />
    <glyph glyph-name="circumflex" unicode="&#xa6;" horiz-adv-x="189" 
d="M136 -229h-90v412h90v-412v0zM46 266v359h90v-359h-90v0z" />
    <glyph glyph-name="scaron" unicode="&#xa7;" horiz-adv-x="492" 
d="M32 -107l8 112q38 -30 84 -54t101 -24h5.5h5.5q3 1 5.5 1h5.5q47 4 70.5 22.5t23.5 41.5q0 5 -1 9t-3 9q-8 19 -32 37t-63 29q-86 24 -156.5 78t-75.5 114v2.5v3.5q-1 1 -1 2.5v2.5q0 44 28 83t77 64q-3 3 -6.5 5.5t-6.5 5.5q-21 17 -38 42t-17 57q0 9 2 20t6 22
q17 56 75.5 80t126.5 24h10.5t10.5 -1q44 -2 85 -12.5t70 -26.5l-14 -97q-45 32 -85.5 45t-72.5 13q-43 0 -69.5 -20t-26.5 -46q0 -5 1 -11t4 -11q7 -16 24 -30.5t46 -25.5q93 -26 158.5 -72t75.5 -105q0 -3 0.5 -6.5t0.5 -6.5q1 -6 1.5 -12t0.5 -12q0 -43 -22.5 -75.5
t-68.5 -61.5q1 -1 2 -1.5t2 -1.5q29 -22 43 -47t14 -66v-2q0 -67 -45.5 -102.5t-108.5 -45.5q-9 -1 -18.5 -2t-19.5 -2q-7 -1 -13.5 -1h-12.5h-11.5t-10.5 1q-49 2 -95 16.5t-79 39.5v-1zM184 376q-26 -8 -45 -30.5t-23 -47.5q-1 -3 -1 -5.5v-5.5v-2t1 -1v-2v-2q1 -4 2.5 -9
t3.5 -9q16 -30 66 -58.5t113 -47.5q9 7 17 13.5t15 13.5q13 13 20.5 27t7.5 30q0 6 -1 12.5t-3 13.5q-1 2 -1.5 4.5t-1.5 4.5q-11 27 -51.5 51t-87.5 40q-8 3 -15.5 5.5t-15.5 4.5v0z" />
    <glyph glyph-name="H" unicode="&#xa8;" horiz-adv-x="492" 
d="M46 0v605h414v-85h-306v-137h326v-84h-326v-215h326v-84h-434v0zM117 644v78h86v-78h-86v0zM307 644v78h87v-78h-87v0z" />
    <glyph glyph-name="I" unicode="&#xa9;" horiz-adv-x="671" 
d="M655 300q0 -148 -95.5 -227.5t-225.5 -79.5t-225.5 79.5t-96.5 227.5q0 146 96 229t226 83t225.5 -83.5t95.5 -228.5v0zM334 52q121 0 186 74.5t65 174.5q0 106 -66 179.5t-185 73.5q-118 0 -185 -73.5t-67 -177.5l1 -2q0 -100 65 -174.5t186 -74.5v0zM165 303
q0 87 50 131t117 44q12 0 25 -1.5t26 -4.5q23 -6 45.5 -16.5t42.5 -26.5l-24 -44q-5 3 -9.5 6t-9.5 6q-23 14 -45.5 20t-43.5 6q-50 0 -84.5 -33t-34.5 -86q0 -52 36 -90t86 -38q14 0 28.5 3.5t29.5 10.5q12 6 24 14.5t23 19.5l36 -36q-24 -29 -59.5 -45.5t-73.5 -18.5h-3.5
h-3.5h-2.5h-3.5q-64 2 -118 47t-54 132v0z" />
    <glyph glyph-name="J" unicode="&#xaa;" horiz-adv-x="605" 
d="M130 299v-3v-4q-1 -2 -1 -3.5v-3.5q0 -86 60.5 -146t151.5 -60q45 0 96 17.5t103 55.5l52 -74q-46 -38 -103 -59t-116 -26q-8 0 -15.5 -0.5t-15.5 -0.5q-123 0 -222 77t-99 234q0 151 99.5 229.5t226.5 78.5q16 0 31.5 -1t31.5 -4q47 -7 93.5 -25.5t87.5 -47.5l-51 -71
q-52 35 -102.5 51t-94.5 16q-76 0 -131 -40.5t-71 -105.5h274v-84h-285v0z" />
    <glyph glyph-name="ampersand" unicode="&#xab;" horiz-adv-x="568" 
d="M129 317l179 -109v-94l-279 152v102l279 151v-95l-179 -107v0zM535 208v-94l-279 152v102l279 151v-95l-179 -107l179 -109v0z" />
    <glyph glyph-name="quotesingle" unicode="&#xac;" horiz-adv-x="605" 
d="M544 383v-273h-107v204h-388v69h495v0z" />
    <glyph glyph-name="daggerdbl" unicode="&#xad;" horiz-adv-x="463" 
d="M42 383h376v-69h-376v69v0z" />
    <glyph glyph-name="dagger" unicode="&#xae;" horiz-adv-x="671" 
d="M334 612q130 0 225.5 -83.5t95.5 -228.5q0 -148 -95.5 -227.5t-225.5 -79.5t-225.5 79.5t-96.5 227.5q0 146 96 229t226 83v0zM334 52q121 0 186 74.5t65 174.5q0 106 -66 179.5t-185 73.5q-118 0 -185 -73.5t-67 -177.5l1 -2q0 -100 65 -174.5t186 -74.5v0zM221 146v320
h133q48 0 72.5 -23t27.5 -50v-4v-4q0 -23 -15 -43t-44 -25q3 -1 22.5 -28.5t92.5 -136.5l-57 -11q-73 107 -93.5 135t-27.5 28h-53v-158h-58v0zM280 422v-73h73q24 0 35.5 11.5t11.5 24.5v1.5v1.5q-1 13 -13 23.5t-33 10.5h-74v0z" />
    <glyph glyph-name="macron" unicode="&#xaf;" horiz-adv-x="198" 
d="M146 0h-107v605h107v-605v0zM-19 625v78h86v-78h-86v0zM120 625v78h86v-78h-86v0z" />
    <glyph glyph-name="degree" unicode="&#xb0;" horiz-adv-x="407" 
d="M201 334q-61 0 -112 39t-51 117q0 77 51 116t112 39h1.5h1.5q60 -1 110 -40t50 -115q0 -77 -50 -116t-110 -40h-1.5h-1.5v0zM116 490q0 -39 20.5 -65.5t64.5 -26.5t64.5 26.5t20.5 65.5q0 38 -20.5 64.5t-64.5 26.5t-64.5 -26.5t-20.5 -64.5v0z" />
    <glyph glyph-name="at" unicode="&#xb1;" horiz-adv-x="407" 
d="M391 76h-377v61h377v-61v0zM14 369h146v128h70v-128h161v-61h-161v-140h-70v140h-146v61v0z" />
    <glyph glyph-name="P" unicode="&#xb2;" horiz-adv-x="208" 
d="M156 0h-108v605h108v-605v0zM48 625v78h108v-78h-108v0z" />
    <glyph glyph-name="S" unicode="&#xb3;" horiz-adv-x="180" 
d="M127 0h-87v464h87v-464v0zM40 592h87v-78h-87v78v0z" />
    <glyph glyph-name="T" unicode="&#xb4;" horiz-adv-x="236" 
d="M91 624h112l-100 -134h-73l61 134v0z" />
    <glyph glyph-name="U" unicode="&#xb5;" horiz-adv-x="350" 
d="M123 391v-391h-87v464h238l86 52v-125h-237v0z" />
    <glyph glyph-name="V" unicode="&#xb6;" horiz-adv-x="454" 
d="M166 209q-57 23 -97 79.5t-54 120.5q-4 15 -5.5 29.5t-1.5 28.5q0 64 37 111t121 47h90v-854h-90v438v0zM313 -229v854h90v-854h-90v0z" />
    <glyph glyph-name="quoteleft" unicode="&#xb8;" horiz-adv-x="520" 
d="M110 250q0 -2 -0.5 -4t-0.5 -5v-1v-2q-1 -1 -1 -2.5v-3.5q0 -53 28.5 -96.5t77.5 -58.5q7 -2 13.5 -3.5t13.5 -2.5q6 -1 12.5 -1.5t13.5 -0.5q54 0 103 26.5t76 63.5l64 -62q-48 -54 -103 -76.5t-111 -26.5q-7 0 -14.5 -0.5t-15.5 -0.5q-128 0 -192.5 74.5t-65.5 164.5
v1.5v1.5v4v5q3 88 68 162t190 74q12 0 25 -1.5t26 -4.5q68 -15 125.5 -71.5t57.5 -152.5h-390v0zM399 324q-12 26 -39.5 47t-57.5 30q-8 2 -16.5 3.5t-16.5 1.5h-2q-12 0 -25.5 -2.5t-26.5 -7.5q-27 -9 -51.5 -27.5t-38.5 -44.5h274v0zM158 592v-78h-86v78h86v0zM455 514
h-87v78h87v-78v0z" />
    <glyph glyph-name="one" unicode="&#xb9;" horiz-adv-x="908" 
d="M741 -12q-61 1 -112 39.5t-51 116.5q0 77 51 116t112 39h1.5h1.5q60 -1 110 -40t50 -115q0 -77 -50 -115.5t-110 -39.5h-1.5h-1.5v-1zM656 144q0 -39 21 -65t64 -26q44 0 64.5 26t20.5 65q0 38 -20.5 64.5t-64.5 26.5q-43 0 -64 -26.5t-21 -64.5v0zM50 605h113l283 -295
v295h107v-605h-107v163l-288 303v-466h-108v605v0z" />
    <glyph glyph-name="G" unicode="&#xba;" horiz-adv-x="463" 
d="M453 39q-32 -20 -69.5 -31t-75.5 -14q-7 0 -14 -0.5t-14 -0.5q-102 0 -183.5 61t-81.5 182q0 76 38 132.5t91 84.5q21 8 42.5 13.5t43.5 7.5q10 2 21 2.5t22 0.5q52 0 99.5 -14t81.5 -38l-39 -62q-8 5 -16.5 9t-17.5 8q-29 13 -58 19.5t-55 6.5q-49 0 -86.5 -21
t-53.5 -61h244v-74h-259q0 -1 -0.5 -3t-0.5 -5v-0.5v-0.5q-1 -2 -1 -3.5v-3.5q0 -6 0.5 -12.5t1.5 -13.5q10 -52 53.5 -95.5t114.5 -43.5q29 0 63 10t71 31l38 -71v0z" />
    <glyph glyph-name="bracketleft" unicode="&#xbb;" horiz-adv-x="568" 
d="M30 208l179 109l-179 107v95l280 -151v-102l-280 -152v94v0zM436 317l-179 107v95l280 -151v-102l-280 -152v94l179 109v0z" />
    <glyph glyph-name="w" unicode="&#xbc;" horiz-adv-x="482" 
d="M191 239h96v-87h-96v87v0zM49 383h376v-69h-376v69v0zM191 529h96v-87h-96v87v0z" />
    <glyph glyph-name="bracketright" unicode="&#xbd;" 
d="M168 365l74 84l78 -41l-95 -105l104 -115l-76 -42l-84 93l-85 -93l-76 42l103 115l-96 105l78 41l75 -84v0z" />
    <glyph glyph-name="R" unicode="&#xbe;" horiz-adv-x="454" 
d="M43 0v86h97v-86h-97v0zM174 86h96v-86h-96v86v0zM402 86v-86h-97v86h97v0z" />
    <glyph glyph-name="underscore" unicode="&#xbf;" horiz-adv-x="227" 
d="M68 464h87v-464h-87v464v0zM85 514h-87v78h87v-78v0zM224 514h-87v78h87v-78v0z" />
    <glyph glyph-name="grave" unicode="&#xc0;" horiz-adv-x="653" 
d="M130 299h-66v84h102l89 222h143l241 -605h-119l-114 299h-172l-116 -299h-107l119 299v0zM269 383h107l-53 136l-54 -136v0z" />
    <glyph glyph-name="grave" unicode="&#x410;" horiz-adv-x="653" 
d="M130 299h-66v84h102l89 222h143l241 -605h-119l-114 299h-172l-116 -299h-107l119 299v0zM269 383h107l-53 136l-54 -136v0z" />
    <glyph glyph-name="a" unicode="&#xc1;" horiz-adv-x="558" 
d="M46 0v605h380v-85h-273v-137h157q113 0 172 -57t63 -126v-4v-4q0 -72 -59 -132t-178 -60h-262v0zM296 84q68 0 101.5 34t33.5 74v1.5v1.5q-1 39 -34.5 71.5t-99.5 32.5h-144v-215h143v0z" />
    <glyph glyph-name="a" unicode="&#x411;" horiz-adv-x="558" 
d="M46 0v605h380v-85h-273v-137h157q113 0 172 -57t63 -126v-4v-4q0 -72 -59 -132t-178 -60h-262v0zM296 84q68 0 101.5 34t33.5 74v1.5v1.5q-1 39 -34.5 71.5t-99.5 32.5h-144v-215h143v0z" />
    <glyph glyph-name="b" unicode="&#xc2;" horiz-adv-x="624" 
d="M47 0v605h304q73 0 114.5 -42.5t41.5 -93.5v-5.5v-4.5q-3 -25 -16 -49.5t-39 -43.5q65 -12 102.5 -57.5t42.5 -96.5q1 -4 1 -8.5v-8.5q0 -76 -52.5 -135.5t-137.5 -59.5h-361v0zM154 299v-215h220q53 0 85 34t33 74v1.5v1.5v1q0 40 -32.5 71.5t-88.5 31.5h-217v0z
M154 520v-137h173q39 0 59 20.5t21 45.5v1.5v1.5q0 26 -19.5 47t-60.5 21h-173v0z" />
    <glyph glyph-name="b" unicode="&#x412;" horiz-adv-x="624" 
d="M47 0v605h304q73 0 114.5 -42.5t41.5 -93.5v-5.5v-4.5q-3 -25 -16 -49.5t-39 -43.5q65 -12 102.5 -57.5t42.5 -96.5q1 -4 1 -8.5v-8.5q0 -76 -52.5 -135.5t-137.5 -59.5h-361v0zM154 299v-215h220q53 0 85 34t33 74v1.5v1.5v1q0 40 -32.5 71.5t-88.5 31.5h-217v0z
M154 520v-137h173q39 0 59 20.5t21 45.5v1.5v1.5q0 26 -19.5 47t-60.5 21h-173v0z" />
    <glyph glyph-name="c" unicode="&#xc3;" horiz-adv-x="407" 
d="M412 605v-85h-258v-520h-107v605h365v0z" />
    <glyph glyph-name="c" unicode="&#x413;" horiz-adv-x="407" 
d="M412 605v-85h-258v-520h-107v605h365v0z" />
    <glyph glyph-name="d" unicode="&#xc4;" horiz-adv-x="653" 
d="M117 0l43 -143l-111 -7l-43 150q0 1 -0.5 2.5t-0.5 3.5q-1 1 -1 2.5v3.5q-1 1 -1 3v3v1.5v1.5q1 23 21 42.5t62 20.5l129 415q0 2 1 4.5t3 5.5q1 2 1.5 3.5t1.5 2.5q1 2 2 3l2 2h-65v85h407v-521q42 -1 61.5 -20.5t20.5 -42.5v-1.5v-1.5v-3v-3q-1 -3 -1 -6t-1 -6
l-43 -150l-111 7l43 143h-420v0zM195 84h265v436h-119h-2h-1q-6 -1 -11.5 -6t-7.5 -13l-124 -417v0z" />
    <glyph glyph-name="d" unicode="&#x414;" horiz-adv-x="653" 
d="M117 0l43 -143l-111 -7l-43 150q0 1 -0.5 2.5t-0.5 3.5q-1 1 -1 2.5v3.5q-1 1 -1 3v3v1.5v1.5q1 23 21 42.5t62 20.5l129 415q0 2 1 4.5t3 5.5q1 2 1.5 3.5t1.5 2.5q1 2 2 3l2 2h-65v85h407v-521q42 -1 61.5 -20.5t20.5 -42.5v-1.5v-1.5v-3v-3q-1 -3 -1 -6t-1 -6
l-43 -150l-111 7l43 143h-420v0zM195 84h265v436h-119h-2h-1q-6 -1 -11.5 -6t-7.5 -13l-124 -417v0z" />
    <glyph glyph-name="e" unicode="&#xc5;" horiz-adv-x="501" 
d="M46 0v605h414v-85h-306v-137h326v-84h-326v-215h326v-84h-434v0z" />
    <glyph glyph-name="e" unicode="&#x415;" horiz-adv-x="501" 
d="M46 0v605h414v-85h-306v-137h326v-84h-326v-215h326v-84h-434v0z" />
    <glyph glyph-name="f" unicode="&#xc6;" horiz-adv-x="983" 
d="M117 -9l-119 10l232 346q7 10 21.5 18.5t31.5 12.5q5 2 10 2.5t10 0.5h5l-219 224h126l220 -223v223h109v-223l220 223h126l-224 -224h4q6 0 13.5 -1t14.5 -3q16 -5 30.5 -13t20.5 -17l232 -346l-119 -10l-166 258q-2 3 -3.5 5t-2.5 5q-16 22 -32.5 31t-38.5 9h-75v-299
h-109v299h-75q-19 0 -33.5 -6.5t-28.5 -22.5q-4 -5 -7.5 -10t-7.5 -11l-166 -258v0z" />
    <glyph glyph-name="f" unicode="&#x416;" horiz-adv-x="983" 
d="M117 -9l-119 10l232 346q7 10 21.5 18.5t31.5 12.5q5 2 10 2.5t10 0.5h5l-219 224h126l220 -223v223h109v-223l220 223h126l-224 -224h4q6 0 13.5 -1t14.5 -3q16 -5 30.5 -13t20.5 -17l232 -346l-119 -10l-166 258q-2 3 -3.5 5t-2.5 5q-16 22 -32.5 31t-38.5 9h-75v-299
h-109v299h-75q-19 0 -33.5 -6.5t-28.5 -22.5q-4 -5 -7.5 -10t-7.5 -11l-166 -258v0z" />
    <glyph glyph-name="g" unicode="&#xc7;" horiz-adv-x="539" 
d="M81 605h186l1 -1q73 0 114.5 -42t41.5 -93v-5.5v-4.5q-3 -25 -16 -49.5t-39 -43.5q65 -12 103 -57.5t43 -96.5q1 -4 1 -8.5v-8.5q-1 -76 -53 -135.5t-138 -59.5h-306v84h270q53 0 86 34t34 74v1.5v1.5v1q0 40 -32.5 71.5t-87.5 31.5h-270v84h226q39 0 58.5 20.5
t20.5 45.5v1.5v1.5q0 26 -19.5 47t-59.5 21h-164v85v0z" />
    <glyph glyph-name="g" unicode="&#x417;" horiz-adv-x="539" 
d="M81 605h186l1 -1q73 0 114.5 -42t41.5 -93v-5.5v-4.5q-3 -25 -16 -49.5t-39 -43.5q65 -12 103 -57.5t43 -96.5q1 -4 1 -8.5v-8.5q-1 -76 -53 -135.5t-138 -59.5h-306v84h270q53 0 86 34t34 74v1.5v1.5v1q0 40 -32.5 71.5t-87.5 31.5h-270v84h226q39 0 58.5 20.5
t20.5 45.5v1.5v1.5q0 26 -19.5 47t-59.5 21h-164v85v0z" />
    <glyph glyph-name="h" unicode="&#xc8;" horiz-adv-x="595" 
d="M547 605v-605h-108v473l-286 -306v-167h-107v605h107v-302l286 302h108v0z" />
    <glyph glyph-name="h" unicode="&#x418;" horiz-adv-x="595" 
d="M547 605v-605h-108v473l-286 -306v-167h-107v605h107v-302l286 302h108v0z" />
    <glyph glyph-name="i" unicode="&#xc9;" horiz-adv-x="595" 
d="M547 605v-605h-108v473l-286 -306v-167h-107v605h107v-302l286 302h108v0zM155 721h276v-77h-276v77v0z" />
    <glyph glyph-name="i" unicode="&#x419;" horiz-adv-x="595" 
d="M547 605v-605h-108v473l-286 -306v-167h-107v605h107v-302l286 302h108v0zM155 721h276v-77h-276v77v0z" />
    <glyph glyph-name="j" unicode="&#xca;" horiz-adv-x="595" 
d="M473 -9l-166 258q-4 6 -7.5 11t-7.5 10q-14 16 -28.5 22.5t-33.5 6.5h-75v-299h-108v605h108v-223l220 223h126l-222 -221q30 -4 53.5 -17.5t33.5 -29.5l226 -336l-119 -10v0z" />
    <glyph glyph-name="j" unicode="&#x41a;" horiz-adv-x="595" 
d="M473 -9l-166 258q-4 6 -7.5 11t-7.5 10q-14 16 -28.5 22.5t-33.5 6.5h-75v-299h-108v605h108v-223l220 223h126l-222 -221q30 -4 53.5 -17.5t33.5 -29.5l226 -336l-119 -10v0z" />
    <glyph glyph-name="k" unicode="&#xcb;" horiz-adv-x="568" 
d="M263 501l-148 -508l-109 7l155 505q1 1 1.5 2.5t1.5 3.5q2 3 5 5.5t6 3.5h-69v85h405v-605h-107v520h-118q-8 0 -14.5 -5.5t-8.5 -13.5v0z" />
    <glyph glyph-name="k" unicode="&#x41b;" horiz-adv-x="568" 
d="M263 501l-148 -508l-109 7l155 505q1 1 1.5 2.5t1.5 3.5q2 3 5 5.5t6 3.5h-69v85h405v-605h-107v520h-118q-8 0 -14.5 -5.5t-8.5 -13.5v0z" />
    <glyph glyph-name="l" unicode="&#xcc;" horiz-adv-x="737" 
d="M692 0h-107v454l-186 -269h-58l-187 269v-454h-107v605h116l206 -288l205 288h118v-605v0z" />
    <glyph glyph-name="l" unicode="&#x41c;" horiz-adv-x="737" 
d="M692 0h-107v454l-186 -269h-58l-187 269v-454h-107v605h116l206 -288l205 288h118v-605v0z" />
    <glyph glyph-name="m" unicode="&#xcd;" horiz-adv-x="605" 
d="M551 605v-605h-107v299h-277v-299h-108v299h-48v84h48v222h108v-222h277v222h107v0z" />
    <glyph glyph-name="m" unicode="&#x41d;" horiz-adv-x="605" 
d="M551 605v-605h-107v299h-277v-299h-108v299h-48v84h48v222h108v-222h277v222h107v0z" />
    <glyph glyph-name="n" unicode="&#xce;" horiz-adv-x="671" 
d="M657 303q0 -148 -95 -229.5t-226 -81.5q-130 0 -226.5 81t-96.5 229t96 230t226 82q131 0 226.5 -81.5t95.5 -229.5v0zM549 301q0 105 -64.5 164t-150.5 59q-84 0 -149 -58.5t-65 -162.5l1 -2q1 -106 65.5 -163.5t149.5 -57.5t149 57.5t64 163.5v0z" />
    <glyph glyph-name="n" unicode="&#x41e;" horiz-adv-x="671" 
d="M657 303q0 -148 -95 -229.5t-226 -81.5q-130 0 -226.5 81t-96.5 229t96 230t226 82q131 0 226.5 -81.5t95.5 -229.5v0zM549 301q0 105 -64.5 164t-150.5 59q-84 0 -149 -58.5t-65 -162.5l1 -2q1 -106 65.5 -163.5t149.5 -57.5t149 57.5t64 163.5v0z" />
    <glyph glyph-name="o" unicode="&#xcf;" horiz-adv-x="595" 
d="M542 605v-605h-107v520h-278v-520h-108v605h493v0z" />
    <glyph glyph-name="o" unicode="&#x41f;" horiz-adv-x="595" 
d="M542 605v-605h-107v520h-278v-520h-108v605h493v0z" />
    <glyph glyph-name="p" unicode="&#xd0;" horiz-adv-x="539" 
d="M47 0v605h246q104 0 163.5 -43.5t59.5 -120.5q0 -79 -49.5 -127.5t-152.5 -48.5h-160v-265h-107v0zM154 520v-171h155q51 0 77 26t26 57q0 33 -28 60.5t-85 27.5h-145v0z" />
    <glyph glyph-name="p" unicode="&#x420;" horiz-adv-x="539" 
d="M47 0v605h246q104 0 163.5 -43.5t59.5 -120.5q0 -79 -49.5 -127.5t-152.5 -48.5h-160v-265h-107v0zM154 520v-171h155q51 0 77 26t26 57q0 33 -28 60.5t-85 27.5h-145v0z" />
    <glyph glyph-name="q" unicode="&#xd1;" horiz-adv-x="595" 
d="M124 304q0 -92 56.5 -161t153.5 -69q43 0 93.5 17t106.5 54l51 -67q-46 -38 -103 -59t-116 -26q-8 0 -16 -0.5t-16 -0.5q-123 0 -222 77t-99 234q0 151 99.5 229.5t226.5 78.5q16 0 31.5 -1t31.5 -4q47 -7 93.5 -25.5t87.5 -47.5l-51 -71q-50 34 -98.5 49.5t-90.5 15.5
q-97 0 -158 -65.5t-61 -157.5v0z" />
    <glyph glyph-name="q" unicode="&#x421;" horiz-adv-x="595" 
d="M124 304q0 -92 56.5 -161t153.5 -69q43 0 93.5 17t106.5 54l51 -67q-46 -38 -103 -59t-116 -26q-8 0 -16 -0.5t-16 -0.5q-123 0 -222 77t-99 234q0 151 99.5 229.5t226.5 78.5q16 0 31.5 -1t31.5 -4q47 -7 93.5 -25.5t87.5 -47.5l-51 -71q-50 34 -98.5 49.5t-90.5 15.5
q-97 0 -158 -65.5t-61 -157.5v0z" />
    <glyph glyph-name="Scaron" unicode="&#xd2;" horiz-adv-x="501" 
d="M503 605v-85h-195v-520h-107v520h-195v85h497v0z" />
    <glyph glyph-name="Scaron" unicode="&#x422;" horiz-adv-x="501" 
d="M503 605v-85h-195v-520h-107v520h-195v85h497v0z" />
    <glyph glyph-name="r" unicode="&#xd3;" horiz-adv-x="624" 
d="M497 605h127l-453 -605h-118l200 273l-246 332h127l182 -252l181 252v0z" />
    <glyph glyph-name="r" unicode="&#x423;" horiz-adv-x="624" 
d="M497 605h127l-453 -605h-118l200 273l-246 332h127l182 -252l181 252v0z" />
    <glyph glyph-name="t" unicode="&#xd4;" horiz-adv-x="870" 
d="M380 0v265h-160q-103 0 -152 48.5t-49 127.5q0 77 59 120.5t163 43.5h387q104 0 163.5 -43.5t59.5 -120.5q0 -79 -49.5 -127.5t-152.5 -48.5h-159v-265h-110v0zM380 520h-144q-57 0 -85.5 -27.5t-28.5 -60.5q0 -31 26.5 -57t76.5 -26h155v171v0zM490 520v-171h154
q51 0 77 26t26 57q0 33 -28 60.5t-85 27.5h-144v0z" />
    <glyph glyph-name="t" unicode="&#x424;" horiz-adv-x="870" 
d="M380 0v265h-160q-103 0 -152 48.5t-49 127.5q0 77 59 120.5t163 43.5h387q104 0 163.5 -43.5t59.5 -120.5q0 -79 -49.5 -127.5t-152.5 -48.5h-159v-265h-110v0zM380 520h-144q-57 0 -85.5 -27.5t-28.5 -60.5q0 -31 26.5 -57t76.5 -26h155v171v0zM490 520v-171h154
q51 0 77 26t26 57q0 33 -28 60.5t-85 27.5h-144v0z" />
    <glyph glyph-name="u" unicode="&#xd5;" horiz-adv-x="633" 
d="M460 605h115l-201 -272l247 -333h-121l-185 259l-184 -259h-122l248 332l-201 273h112l147 -197l145 197v0z" />
    <glyph glyph-name="u" unicode="&#x425;" horiz-adv-x="633" 
d="M460 605h115l-201 -272l247 -333h-121l-185 259l-184 -259h-122l248 332l-201 273h112l147 -197l145 197v0z" />
    <glyph glyph-name="zero" unicode="&#xd6;" horiz-adv-x="624" 
d="M512 0h-466v605h108v-521h277v521h107v-518q42 -1 62 -20.5t22 -42.5v-3.5v-2.5v-3t-1 -3v-3.5t-1 -2.5q0 -2 -0.5 -3.5t-0.5 -2.5l-43 -150l-107 7l43 143v0z" />
    <glyph glyph-name="zero" unicode="&#x426;" horiz-adv-x="624" 
d="M512 0h-466v605h108v-521h277v521h107v-518q42 -1 62 -20.5t22 -42.5v-3.5v-2.5v-3t-1 -3v-3.5t-1 -2.5q0 -2 -0.5 -3.5t-0.5 -2.5l-43 -150l-107 7l43 143v0z" />
    <glyph glyph-name="parenright" unicode="&#xd7;" horiz-adv-x="577" 
d="M517 0h-107v265h-157q-84 1 -130 36t-61 81l-62 223h108l54 -200q8 -25 32.5 -39.5t55.5 -16.5h160v256h107v-605v0z" />
    <glyph glyph-name="parenright" unicode="&#x427;" horiz-adv-x="577" 
d="M517 0h-107v265h-157q-84 1 -130 36t-61 81l-62 223h108l54 -200q8 -25 32.5 -39.5t55.5 -16.5h160v256h107v-605v0z" />
    <glyph glyph-name="x" unicode="&#xd8;" horiz-adv-x="945" 
d="M45 0v605h106v-521h267v521h107v-521h266v521h107v-605h-853v0z" />
    <glyph glyph-name="x" unicode="&#x428;" horiz-adv-x="945" 
d="M45 0v605h106v-521h267v521h107v-521h266v521h107v-605h-853v0z" />
    <glyph glyph-name="y" unicode="&#xd9;" horiz-adv-x="983" 
d="M792 84v521h107v-521q43 -1 61 -21t20 -44v-3.5v-2.5v-3v-3q-1 -2 -1 -3.5v-3.5l-43 -150l-104 7l40 143h-826v605h107v-521h266v521h107v-521h266v0z" />
    <glyph glyph-name="y" unicode="&#x429;" horiz-adv-x="983" 
d="M792 84v521h107v-521q43 -1 61 -21t20 -44v-3.5v-2.5v-3v-3q-1 -2 -1 -3.5v-3.5l-43 -150l-104 7l40 143h-826v605h107v-521h266v521h107v-521h266v0z" />
    <glyph glyph-name="z" unicode="&#xda;" horiz-adv-x="633" 
d="M114 0v520h-118v85h226v-222h161q115 0 172.5 -59.5t57.5 -130.5v-1.5v-1.5q-1 -71 -60.5 -130.5t-177.5 -59.5h-261v0zM222 299v-215h146q68 0 101.5 34t33.5 74v1.5v1.5q-1 39 -34 71.5t-98 32.5h-149v0z" />
    <glyph glyph-name="z" unicode="&#x42a;" horiz-adv-x="633" 
d="M114 0v520h-118v85h226v-222h161q115 0 172.5 -59.5t57.5 -130.5v-1.5v-1.5q-1 -71 -60.5 -130.5t-177.5 -59.5h-261v0zM222 299v-215h146q68 0 101.5 34t33.5 74v1.5v1.5q-1 39 -34 71.5t-98 32.5h-149v0z" />
    <glyph glyph-name="braceleft" unicode="&#xdb;" horiz-adv-x="775" 
d="M48 605h107v-222h162q114 0 171.5 -59.5t57.5 -130.5v-1.5v-1.5q-1 -71 -60.5 -130.5t-176.5 -59.5h-261v605v0zM301 84q68 0 101.5 34t33.5 74v1.5v1.5q-1 39 -34 71.5t-99 32.5h-148v-215h146v0zM726 0h-107v605h107v-605v0z" />
    <glyph glyph-name="braceleft" unicode="&#x42b;" horiz-adv-x="775" 
d="M48 605h107v-222h162q114 0 171.5 -59.5t57.5 -130.5v-1.5v-1.5q-1 -71 -60.5 -130.5t-176.5 -59.5h-261v605v0zM301 84q68 0 101.5 34t33.5 74v1.5v1.5q-1 39 -34 71.5t-99 32.5h-148v-215h146v0zM726 0h-107v605h107v-605v0z" />
    <glyph glyph-name="bar" unicode="&#xdc;" horiz-adv-x="558" 
d="M46 605h108v-222h161q115 0 172.5 -59.5t57.5 -130.5v-1.5v-1.5q-1 -71 -60.5 -130.5t-177.5 -59.5h-261v605v0zM154 84h146q68 0 102 34t34 74v1.5v1.5q-1 39 -34.5 71.5t-99.5 32.5h-148v-215v0z" />
    <glyph glyph-name="bar" unicode="&#x42c;" horiz-adv-x="558" 
d="M46 605h108v-222h161q115 0 172.5 -59.5t57.5 -130.5v-1.5v-1.5q-1 -71 -60.5 -130.5t-177.5 -59.5h-261v605v0zM154 84h146q68 0 102 34t34 74v1.5v1.5q-1 39 -34.5 71.5t-99.5 32.5h-148v-215v0z" />
    <glyph glyph-name="braceright" unicode="&#xdd;" horiz-adv-x="595" 
d="M465 299h-283v84h270q-22 63 -77 103.5t-129 40.5q-42 0 -90.5 -15.5t-98.5 -49.5l-51 71q43 30 90.5 48.5t96.5 25.5q14 2 28 3t28 1q128 0 227.5 -78.5t99.5 -229.5q0 -157 -99 -234t-223 -77h-11.5t-10.5 1q-62 3 -121 24t-106 61l52 74q56 -37 108.5 -54.5
t97.5 -17.5q91 0 146.5 59t55.5 144v16v0z" />
    <glyph glyph-name="braceright" unicode="&#x42d;" horiz-adv-x="595" 
d="M465 299h-283v84h270q-22 63 -77 103.5t-129 40.5q-42 0 -90.5 -15.5t-98.5 -49.5l-51 71q43 30 90.5 48.5t96.5 25.5q14 2 28 3t28 1q128 0 227.5 -78.5t99.5 -229.5q0 -157 -99 -234t-223 -77h-11.5t-10.5 1q-62 3 -121 24t-106 61l52 74q56 -37 108.5 -54.5
t97.5 -17.5q91 0 146.5 59t55.5 144v16v0z" />
    <glyph glyph-name="asciitilde" unicode="&#xde;" horiz-adv-x="946" 
d="M67 0v299h-48v85h48v221h108v-222h111q26 111 113.5 171t199.5 60q131 0 226.5 -81.5t95.5 -229.5t-95 -229.5t-226 -81.5q-130 0 -225.5 80t-97.5 227h-102v-299h-108v0zM813 301q0 105 -64.5 164t-150.5 59q-84 0 -148.5 -58.5t-64.5 -162.5v-2q1 -106 65.5 -163.5
t149.5 -57.5q86 0 149.5 57.5t63.5 163.5v0z" />
    <glyph glyph-name="asciitilde" unicode="&#x42e;" horiz-adv-x="946" 
d="M67 0v299h-48v85h48v221h108v-222h111q26 111 113.5 171t199.5 60q131 0 226.5 -81.5t95.5 -229.5t-95 -229.5t-226 -81.5q-130 0 -225.5 80t-97.5 227h-102v-299h-108v0zM813 301q0 105 -64.5 164t-150.5 59q-84 0 -148.5 -58.5t-64.5 -162.5v-2q1 -106 65.5 -163.5
t149.5 -57.5q86 0 149.5 57.5t63.5 163.5v0z" />
    <glyph glyph-name="germandbls" unicode="&#xdf;" horiz-adv-x="586" 
d="M241 605h299v-605h-108v299h-98q-15 -4 -60 -62t-164 -246l-106 21q103 165 148.5 229.5t63.5 72.5q-63 8 -100.5 50.5t-37.5 94.5q0 8 1 15.5t3 15.5q5 20 16.5 40.5t30.5 37.5q20 18 47.5 27.5t64.5 9.5v0zM279 384l153 -1v137h-161q-41 0 -63 -20t-23 -44v-1.5v-1.5
v-1.5v-1.5q1 -25 25 -45.5t69 -20.5v0z" />
    <glyph glyph-name="germandbls" unicode="&#x42f;" horiz-adv-x="586" 
d="M241 605h299v-605h-108v299h-98q-15 -4 -60 -62t-164 -246l-106 21q103 165 148.5 229.5t63.5 72.5q-63 8 -100.5 50.5t-37.5 94.5q0 8 1 15.5t3 15.5q5 20 16.5 40.5t30.5 37.5q20 18 47.5 27.5t64.5 9.5v0zM279 384l153 -1v137h-161q-41 0 -63 -20t-23 -44v-1.5v-1.5
v-1.5v-1.5q1 -25 25 -45.5t69 -20.5v0z" />
    <glyph glyph-name="agrave" unicode="&#xe0;" horiz-adv-x="463" 
d="M89 451q15 6 31 10t32 7q22 4 44 6t43 2q33 0 63.5 -5t52.5 -15q40 -18 60.5 -55t20.5 -88v-313h-82v22q-22 -13 -61.5 -22t-83.5 -9h-9.5h-8.5q-67 4 -123 37.5t-56 114.5q0 87 68.5 123t150.5 36q8 0 16.5 -0.5t16.5 -0.5q22 -2 44 -6t41 -9q0 57 -13 79t-39 31l-16 4
t-16 3t-16 1.5t-16 0.5q-31 0 -67 -9t-77 -26v81v0zM104 143q0 -41 38 -59t87 -18h9.5t9.5 1q29 2 55.5 9t45.5 17v118q-3 1 -8.5 2.5t-11.5 3.5q-17 4 -41.5 7t-51.5 3h-5.5h-5.5q-45 -2 -83 -19.5t-38 -64.5v0z" />
    <glyph glyph-name="agrave" unicode="&#x430;" horiz-adv-x="463" 
d="M89 451q15 6 31 10t32 7q22 4 44 6t43 2q33 0 63.5 -5t52.5 -15q40 -18 60.5 -55t20.5 -88v-313h-82v22q-22 -13 -61.5 -22t-83.5 -9h-9.5h-8.5q-67 4 -123 37.5t-56 114.5q0 87 68.5 123t150.5 36q8 0 16.5 -0.5t16.5 -0.5q22 -2 44 -6t41 -9q0 57 -13 79t-39 31l-16 4
t-16 3t-16 1.5t-16 0.5q-31 0 -67 -9t-77 -26v81v0zM104 143q0 -41 38 -59t87 -18h9.5t9.5 1q29 2 55.5 9t45.5 17v118q-3 1 -8.5 2.5t-11.5 3.5q-17 4 -41.5 7t-51.5 3h-5.5h-5.5q-45 -2 -83 -19.5t-38 -64.5v0z" />
    <glyph glyph-name="K" unicode="&#xe1;" horiz-adv-x="530" 
d="M391 531q-14 2 -25 3.5t-21 1.5q-8 1 -16.5 1h-17.5h-50q-10 -1 -21 -3.5t-23 -7.5q-17 -6 -33 -16.5t-27 -22.5q-3 -3 -7 -9.5t-8 -14.5q-6 -12 -11.5 -27.5t-7.5 -31.5q0 -2 -0.5 -4.5t-0.5 -5.5q26 31 57.5 46.5t63.5 20.5q8 2 16 2.5t16 0.5h5q96 0 163 -60.5
t67 -167.5q-1 -107 -65 -176.5t-180 -69.5q-115 0 -178 69t-65 173v10v4.5v4.5q0 71 10 139t36 117q22 41 62.5 66.5t90.5 35.5q8 1 16 1.5t17 1.5h16h16q25 0 48 -1.5t41 -2.5q18 -2 30 -3.5t15 -1.5l-29 -72v0zM266 68q68 0 108 47.5t41 120.5q0 74 -44 113t-103 39h-2
q-58 0 -102 -42t-44 -109v-2q0 -73 39.5 -120t106.5 -47v0z" />
    <glyph glyph-name="K" unicode="&#x431;" horiz-adv-x="530" 
d="M391 531q-14 2 -25 3.5t-21 1.5q-8 1 -16.5 1h-17.5h-50q-10 -1 -21 -3.5t-23 -7.5q-17 -6 -33 -16.5t-27 -22.5q-3 -3 -7 -9.5t-8 -14.5q-6 -12 -11.5 -27.5t-7.5 -31.5q0 -2 -0.5 -4.5t-0.5 -5.5q26 31 57.5 46.5t63.5 20.5q8 2 16 2.5t16 0.5h5q96 0 163 -60.5
t67 -167.5q-1 -107 -65 -176.5t-180 -69.5q-115 0 -178 69t-65 173v10v4.5v4.5q0 71 10 139t36 117q22 41 62.5 66.5t90.5 35.5q8 1 16 1.5t17 1.5h16h16q25 0 48 -1.5t41 -2.5q18 -2 30 -3.5t15 -1.5l-29 -72v0zM266 68q68 0 108 47.5t41 120.5q0 74 -44 113t-103 39h-2
q-58 0 -102 -42t-44 -109v-2q0 -73 39.5 -120t106.5 -47v0z" />
    <glyph glyph-name="quotedbl" unicode="&#xe2;" horiz-adv-x="482" 
d="M297 0h-258v464h220q73 0 108.5 -31t35.5 -69q0 -4 -0.5 -7.5t-0.5 -6.5q-3 -16 -13 -31.5t-26 -27.5q50 -9 77.5 -47.5t29.5 -82.5v-3.5v-3.5v-2.5v-3.5q-2 -55 -44.5 -101.5t-128.5 -46.5v0zM126 250v-177h159q45 0 68 26t23 58v4v4q-3 32 -30 58.5t-80 26.5h-140v0z
M270 324q25 0 37 10t12 22v3.5t-1 3.5q-3 10 -15.5 19t-35.5 9h-141v-67h144v0z" />
    <glyph glyph-name="quotedbl" unicode="&#x432;" horiz-adv-x="482" 
d="M297 0h-258v464h220q73 0 108.5 -31t35.5 -69q0 -4 -0.5 -7.5t-0.5 -6.5q-3 -16 -13 -31.5t-26 -27.5q50 -9 77.5 -47.5t29.5 -82.5v-3.5v-3.5v-2.5v-3.5q-2 -55 -44.5 -101.5t-128.5 -46.5v0zM126 250v-177h159q45 0 68 26t23 58v4v4q-3 32 -30 58.5t-80 26.5h-140v0z
M270 324q25 0 37 10t12 22v3.5t-1 3.5q-3 10 -15.5 19t-35.5 9h-141v-67h144v0z" />
    <glyph glyph-name="atilde" unicode="&#xe3;" horiz-adv-x="350" 
d="M123 391v-391h-87v464h324v-73h-237v0z" />
    <glyph glyph-name="atilde" unicode="&#x433;" horiz-adv-x="350" 
d="M123 391v-391h-87v464h324v-73h-237v0z" />
    <glyph glyph-name="adieresis" unicode="&#xe4;" horiz-adv-x="492" 
d="M158 391h-58v73h344v-391q24 0 37 -15t13 -39q0 -5 -1 -12t-3 -14l-41 -138l-84 8l42 137h-325l42 -137l-85 -8l-41 137v5t-1 3q0 4 -0.5 8.5t-0.5 7.5q0 26 15.5 41.5t39.5 16.5l107 317v0zM357 73v318h-87q-15 0 -25 -6.5t-13 -16.5l-97 -295h222v0z" />
    <glyph glyph-name="adieresis" unicode="&#x434;" horiz-adv-x="492" 
d="M158 391h-58v73h344v-391q24 0 37 -15t13 -39q0 -5 -1 -12t-3 -14l-41 -138l-84 8l42 137h-325l42 -137l-85 -8l-41 137v5t-1 3q0 4 -0.5 8.5t-0.5 7.5q0 26 15.5 41.5t39.5 16.5l107 317v0zM357 73v318h-87q-15 0 -25 -6.5t-13 -16.5l-97 -295h222v0z" />
    <glyph glyph-name="yright" unicode="&#xe5;" horiz-adv-x="520" 
d="M502 250h-391v-3v-4q-1 -2 -1 -3.5v-3.5q0 -64 44 -117t116 -56q56 1 90.5 17.5t65.5 48.5q5 6 10.5 12t11.5 13l62 -59q-49 -58 -107 -82t-126 -24l-10 -1q-124 4 -188.5 80.5t-64.5 173.5q0 89 64 161.5t189 72.5q12 0 25 -1.5t26 -4.5q69 -14 126 -69t58 -151v0z
M128 324h271q-13 27 -40.5 46.5t-58.5 27.5q-7 2 -14.5 3t-14.5 1h-2q-12 0 -25 -2t-26 -7q-27 -8 -51.5 -25.5t-38.5 -43.5v0z" />
    <glyph glyph-name="yright" unicode="&#x435;" horiz-adv-x="520" 
d="M502 250h-391v-3v-4q-1 -2 -1 -3.5v-3.5q0 -64 44 -117t116 -56q56 1 90.5 17.5t65.5 48.5q5 6 10.5 12t11.5 13l62 -59q-49 -58 -107 -82t-126 -24l-10 -1q-124 4 -188.5 80.5t-64.5 173.5q0 89 64 161.5t189 72.5q12 0 25 -1.5t26 -4.5q69 -14 126 -69t58 -151v0z
M128 324h271q-13 27 -40.5 46.5t-58.5 27.5q-7 2 -14.5 3t-14.5 1h-2q-12 0 -25 -2t-26 -7q-27 -8 -51.5 -25.5t-38.5 -43.5v0z" />
    <glyph glyph-name="guilsinglright" unicode="&#xe6;" horiz-adv-x="785" 
d="M436 464v-147l176 147h115l-180 -150q40 -1 68.5 -28.5t48.5 -60.5q3 -4 5.5 -8.5t4.5 -8.5l107 -203l-87 -10l-117 203q-11 21 -31.5 35.5t-42.5 16.5h-2.5h-2.5h-62v-250h-86v250h-63q-23 0 -44.5 -14.5t-34.5 -37.5l-117 -203l-94 10l114 203q2 4 4.5 8.5t5.5 8.5
q20 33 48.5 60.5t69.5 28.5l-180 150h114l177 -147v147h86v0z" />
    <glyph glyph-name="guilsinglright" unicode="&#x436;" horiz-adv-x="785" 
d="M436 464v-147l176 147h115l-180 -150q40 -1 68.5 -28.5t48.5 -60.5q3 -4 5.5 -8.5t4.5 -8.5l107 -203l-87 -10l-117 203q-11 21 -31.5 35.5t-42.5 16.5h-2.5h-2.5h-62v-250h-86v250h-63q-23 0 -44.5 -14.5t-34.5 -37.5l-117 -203l-94 10l114 203q2 4 4.5 8.5t5.5 8.5
q20 33 48.5 60.5t69.5 28.5l-180 150h114l177 -147v147h86v0z" />
    <glyph glyph-name="florin" unicode="&#xe7;" horiz-adv-x="397" 
d="M212 0h-193v73h183q48 0 72.5 26.5t24.5 58.5v5.5t-1 4.5q-4 31 -32.5 56.5t-81.5 25.5h-165v74h157q21 0 33 9.5t13 20.5v1.5v1.5v1.5v1.5q-1 11 -12.5 20.5t-33.5 9.5l-118 1v73h118q59 0 92.5 -28.5t37.5 -62.5v-4v-4q0 -20 -11.5 -39t-34.5 -31q59 -15 91 -48
t32 -100q0 -64 -50 -105.5t-121 -41.5v0z" />
    <glyph glyph-name="florin" unicode="&#x437;" horiz-adv-x="397" 
d="M212 0h-193v73h183q48 0 72.5 26.5t24.5 58.5v5.5t-1 4.5q-4 31 -32.5 56.5t-81.5 25.5h-165v74h157q21 0 33 9.5t13 20.5v1.5v1.5v1.5v1.5q-1 11 -12.5 20.5t-33.5 9.5l-118 1v73h118q59 0 92.5 -28.5t37.5 -62.5v-4v-4q0 -20 -11.5 -39t-34.5 -31q59 -15 91 -48
t32 -100q0 -64 -50 -105.5t-121 -41.5v0z" />
    <glyph glyph-name="comma" unicode="&#xe8;" horiz-adv-x="510" 
d="M381 359l-255 -266v-93h-87v464h87v-266l255 266h87v-464h-87v359v0z" />
    <glyph glyph-name="comma" unicode="&#x438;" horiz-adv-x="510" 
d="M381 359l-255 -266v-93h-87v464h87v-266l255 266h87v-464h-87v359v0z" />
    <glyph glyph-name="L" unicode="&#xe9;" horiz-adv-x="530" 
d="M390 359l-255 -266v-93h-87v464h87v-266l255 266h87v-464h-87v359v0zM137 592h248v-78h-248v78v0z" />
    <glyph glyph-name="L" unicode="&#x439;" horiz-adv-x="530" 
d="M390 359l-255 -266v-93h-87v464h87v-266l255 266h87v-464h-87v359v0zM137 592h248v-78h-248v78v0z" />
    <glyph glyph-name="asterisk" unicode="&#xea;" horiz-adv-x="473" 
d="M384 -5l-118 203q-12 23 -33.5 37.5t-44.5 14.5h-63v-250h-87v464h87v-147l177 147h114l-180 -150q41 -1 69.5 -28.5t48.5 -60.5q3 -4 5.5 -8.5t4.5 -8.5l114 -203l-94 -10v0z" />
    <glyph glyph-name="asterisk" unicode="&#x43a;" horiz-adv-x="473" 
d="M384 -5l-118 203q-12 23 -33.5 37.5t-44.5 14.5h-63v-250h-87v464h87v-147l177 147h114l-180 -150q41 -1 69.5 -28.5t48.5 -60.5q3 -4 5.5 -8.5t4.5 -8.5l114 -203l-94 -10v0z" />
    <glyph glyph-name="edieresis" unicode="&#xeb;" horiz-adv-x="463" 
d="M92 -5l-90 5l135 391h-54v73h344v-464h-87v391h-94q-14 0 -19.5 -5t-9.5 -12q-1 -1 -1.5 -2t-0.5 -2l-123 -375v0z" />
    <glyph glyph-name="edieresis" unicode="&#x43b;" horiz-adv-x="463" 
d="M92 -5l-90 5l135 391h-54v73h344v-464h-87v391h-94q-14 0 -19.5 -5t-9.5 -12q-1 -1 -1.5 -2t-0.5 -2l-123 -375v0z" />
    <glyph glyph-name="igrave" unicode="&#xec;" horiz-adv-x="624" 
d="M483 464h88v-464h-88v334l-139 -179h-77l-139 179v-334h-87v464h87l178 -225l177 225v0z" />
    <glyph glyph-name="igrave" unicode="&#x43c;" horiz-adv-x="624" 
d="M483 464h88v-464h-88v334l-139 -179h-77l-139 179v-334h-87v464h87l178 -225l177 225v0z" />
    <glyph glyph-name="ellipsis" unicode="&#xed;" horiz-adv-x="530" 
d="M57 324v140h87v-140h249v140h87v-464h-87v250h-249v-250h-87v250h-60v74h60v0z" />
    <glyph glyph-name="ellipsis" unicode="&#x43d;" horiz-adv-x="530" 
d="M57 324v140h87v-140h249v140h87v-464h-87v250h-249v-250h-87v250h-60v74h60v0z" />
    <glyph glyph-name="percent" unicode="&#xee;" horiz-adv-x="539" 
d="M269 -13q-103 1 -177.5 68t-74.5 181l1 1q0 113 75.5 176t171.5 63h4q97 -1 173.5 -63.5t77.5 -175.5v-1q0 -111 -74 -179t-176 -68l-1 -2v0zM268 62q63 0 109 46.5t46 120.5t-43.5 122t-111.5 48h-1q-68 -1 -110.5 -48t-42.5 -122q0 -74 45.5 -120.5t108.5 -46.5v0z" />
    <glyph glyph-name="percent" unicode="&#x43e;" horiz-adv-x="539" 
d="M269 -13q-103 1 -177.5 68t-74.5 181l1 1q0 113 75.5 176t171.5 63h4q97 -1 173.5 -63.5t77.5 -175.5v-1q0 -111 -74 -179t-176 -68l-1 -2v0zM268 62q63 0 109 46.5t46 120.5t-43.5 122t-111.5 48h-1q-68 -1 -110.5 -48t-42.5 -122q0 -74 45.5 -120.5t108.5 -46.5v0z" />
    <glyph glyph-name="C" unicode="&#xef;" horiz-adv-x="501" 
d="M126 391v-391h-87v464h423v-464h-87v391h-249v0z" />
    <glyph glyph-name="C" unicode="&#x43f;" horiz-adv-x="501" 
d="M126 391v-391h-87v464h423v-464h-87v391h-249v0z" />
    <glyph glyph-name="eth" unicode="&#xf0;" horiz-adv-x="501" 
d="M123 6v-235h-87v693h87v-22q30 15 62 22.5t64 7.5q90 0 162 -59t72 -174q0 -122 -72 -184t-179 -62q-25 0 -52.5 3t-56.5 10v0zM123 360v-265q19 -10 41.5 -16t45.5 -8h6h6h2.5h3.5q59 2 108.5 40t49.5 122q0 82 -47 121t-107 39q-7 0 -14 -0.5t-14 -1.5
q-21 -3 -41.5 -11t-39.5 -20v0z" />
    <glyph glyph-name="eth" unicode="&#x440;" horiz-adv-x="501" 
d="M123 6v-235h-87v693h87v-22q30 15 62 22.5t64 7.5q90 0 162 -59t72 -174q0 -122 -72 -184t-179 -62q-25 0 -52.5 3t-56.5 10v0zM123 360v-265q19 -10 41.5 -16t45.5 -8h6h6h2.5h3.5q59 2 108.5 40t49.5 122q0 82 -47 121t-107 39q-7 0 -14 -0.5t-14 -1.5
q-21 -3 -41.5 -11t-39.5 -20v0z" />
    <glyph glyph-name="quotedblleft" unicode="&#xf1;" horiz-adv-x="463" 
d="M412 111l38 -70q-35 -22 -74.5 -33.5t-80.5 -13.5h-8.5h-9.5q-102 0 -183.5 61.5t-81.5 182.5t81.5 183t183.5 62h9.5h8.5q41 -3 80.5 -14.5t74.5 -33.5l-38 -71q-9 5 -18.5 8.5t-18.5 6.5q-24 8 -47 12t-44 4q-73 0 -123.5 -41.5t-50.5 -115.5t50.5 -116t123.5 -42
q21 0 44 4t47 12q9 3 18.5 7t18.5 8v0z" />
    <glyph glyph-name="quotedblleft" unicode="&#x441;" horiz-adv-x="463" 
d="M412 111l38 -70q-35 -22 -74.5 -33.5t-80.5 -13.5h-8.5h-9.5q-102 0 -183.5 61.5t-81.5 182.5t81.5 183t183.5 62h9.5h8.5q41 -3 80.5 -14.5t74.5 -33.5l-38 -71q-9 5 -18.5 8.5t-18.5 6.5q-24 8 -47 12t-44 4q-73 0 -123.5 -41.5t-50.5 -115.5t50.5 -116t123.5 -42
q21 0 44 4t47 12q9 3 18.5 7t18.5 8v0z" />
    <glyph glyph-name="two" unicode="&#xf2;" horiz-adv-x="435" 
d="M429 464v-73h-168v-391h-87v391h-168v73h423v0z" />
    <glyph glyph-name="two" unicode="&#x442;" horiz-adv-x="435" 
d="M429 464v-73h-168v-391h-87v391h-168v73h423v0z" />
    <glyph glyph-name="three" unicode="&#xf3;" horiz-adv-x="548" 
d="M188 -99l50 101l-227 462h98l176 -357l160 357h97l-271 -597q-19 -41 -52 -63.5t-68 -29.5q-9 -1 -17.5 -2t-16.5 -1q-19 0 -37.5 3.5t-32.5 11.5v71q3 0 6.5 -1t7.5 -1q10 -3 20 -4t19 -1q28 0 51.5 12t36.5 40v-1z" />
    <glyph glyph-name="three" unicode="&#x443;" horiz-adv-x="548" 
d="M188 -99l50 101l-227 462h98l176 -357l160 357h97l-271 -597q-19 -41 -52 -63.5t-68 -29.5q-9 -1 -17.5 -2t-16.5 -1q-19 0 -37.5 3.5t-32.5 11.5v71q3 0 6.5 -1t7.5 -1q10 -3 20 -4t19 -1q28 0 51.5 12t36.5 40v-1z" />
    <glyph glyph-name="ocircumflex" unicode="&#xf4;" horiz-adv-x="700" 
d="M353 464h93q92 0 162.5 -54.5t77.5 -162.5q0 -3 0.5 -5.5t0.5 -5.5v-9v-8q0 -105 -74 -162t-166 -57h-51v-233h-86v233h-52q-95 0 -167.5 57t-72.5 161v7t1 8v7v7q6 111 78 164t163 53h93v0zM106 247v-4v-4q-1 -2 -1 -4.5v-4.5q0 -78 48 -117.5t106 -39.5h50v317h-49
q-64 0 -106 -37.5t-48 -105.5v0zM446 390h-49v-317h49q59 0 106.5 39t47.5 119v16q-5 68 -47.5 105.5t-106.5 37.5v0z" />
    <glyph glyph-name="ocircumflex" unicode="&#x444;" horiz-adv-x="700" 
d="M353 464h93q92 0 162.5 -54.5t77.5 -162.5q0 -3 0.5 -5.5t0.5 -5.5v-9v-8q0 -105 -74 -162t-166 -57h-51v-233h-86v233h-52q-95 0 -167.5 57t-72.5 161v7t1 8v7v7q6 111 78 164t163 53h93v0zM106 247v-4v-4q-1 -2 -1 -4.5v-4.5q0 -78 48 -117.5t106 -39.5h50v317h-49
q-64 0 -106 -37.5t-48 -105.5v0zM446 390h-49v-317h49q59 0 106.5 39t47.5 119v16q-5 68 -47.5 105.5t-106.5 37.5v0z" />
    <glyph glyph-name="otilde" unicode="&#xf5;" horiz-adv-x="492" 
d="M378 0l-137 195l-137 -195h-103l187 269l-135 195h103l85 -122l84 122h104l-137 -195l189 -269h-103v0z" />
    <glyph glyph-name="otilde" unicode="&#x445;" horiz-adv-x="492" 
d="M378 0l-137 195l-137 -195h-103l187 269l-135 195h103l85 -122l84 122h104l-137 -195l189 -269h-103v0z" />
    <glyph glyph-name="odieresis" unicode="&#xf6;" horiz-adv-x="510" 
d="M460 73q24 0 37 -15t13 -39q0 -5 -0.5 -12t-2.5 -14l-41 -138l-85 8l42 137h-386v464h87v-391h249v391h87v-391v0z" />
    <glyph glyph-name="odieresis" unicode="&#x446;" horiz-adv-x="510" 
d="M460 73q24 0 37 -15t13 -39q0 -5 -0.5 -12t-2.5 -14l-41 -138l-85 8l42 137h-386v464h87v-391h249v391h87v-391v0z" />
    <glyph glyph-name="divide" unicode="&#xf7;" horiz-adv-x="454" 
d="M232 262h96v202h87v-464h-87v188h-106q-12 0 -26 2t-28 6q-31 9 -59.5 31t-42.5 59l-64 178h92l51 -148q8 -25 32 -39.5t55 -14.5v0z" />
    <glyph glyph-name="divide" unicode="&#x447;" horiz-adv-x="454" 
d="M232 262h96v202h87v-464h-87v188h-106q-12 0 -26 2t-28 6q-31 9 -59.5 31t-42.5 59l-64 178h92l51 -148q8 -25 32 -39.5t55 -14.5v0z" />
    <glyph glyph-name="oslash" unicode="&#xf8;" horiz-adv-x="785" 
d="M435 464v-391h224v391h88v-464h-707v464h87v-391h220v391h88v0z" />
    <glyph glyph-name="oslash" unicode="&#x448;" horiz-adv-x="785" 
d="M435 464v-391h224v391h88v-464h-707v464h87v-391h220v391h88v0z" />
    <glyph glyph-name="question" unicode="&#xf9;" horiz-adv-x="795" 
d="M747 73q24 0 36 -15.5t12 -40.5v-11t-2 -13l-41 -138l-84 8l42 137h-670v464h87v-391h220v391h88v-391h224v391h88v-391v0z" />
    <glyph glyph-name="question" unicode="&#x449;" horiz-adv-x="795" 
d="M747 73q24 0 36 -15.5t12 -40.5v-11t-2 -13l-41 -138l-84 8l42 137h-670v464h87v-391h220v391h88v-391h224v391h88v-391v0z" />
    <glyph glyph-name="A" unicode="&#xfa;" horiz-adv-x="568" 
d="M122 391h-124v73h211v-140h155q93 0 139.5 -50t47.5 -110v-1.5v-1.5v-1.5v-1.5q-1 -59 -47.5 -108.5t-139.5 -49.5h-242v391v0zM209 250v-177h155q49 0 72.5 27.5t23.5 60.5v1.5v1.5q-1 32 -24.5 59t-71.5 27h-155v0z" />
    <glyph glyph-name="A" unicode="&#x44a;" horiz-adv-x="568" 
d="M122 391h-124v73h211v-140h155q93 0 139.5 -50t47.5 -110v-1.5v-1.5v-1.5v-1.5q-1 -59 -47.5 -108.5t-139.5 -49.5h-242v391v0zM209 250v-177h155q49 0 72.5 27.5t23.5 60.5v1.5v1.5q-1 32 -24.5 59t-71.5 27h-155v0z" />
    <glyph glyph-name="slash" unicode="&#xfb;" horiz-adv-x="643" 
d="M276 324q90 0 137 -48.5t50 -106.5v-4v-4q0 -61 -46.5 -111t-140.5 -50h-242v464h87v-140h155v0zM276 73q48 0 71.5 27.5t23.5 60.5v1.5v1.5q-1 32 -24.5 59t-70.5 27h-155v-177h155v0zM517 464h87v-464h-87v464v0z" />
    <glyph glyph-name="slash" unicode="&#x44b;" horiz-adv-x="643" 
d="M276 324q90 0 137 -48.5t50 -106.5v-4v-4q0 -61 -46.5 -111t-140.5 -50h-242v464h87v-140h155v0zM276 73q48 0 71.5 27.5t23.5 60.5v1.5v1.5q-1 32 -24.5 59t-70.5 27h-155v-177h155v0zM517 464h87v-464h-87v464v0z" />
    <glyph glyph-name="udieresis" unicode="&#xfc;" horiz-adv-x="473" 
d="M117 324h155q92 0 139 -50t48 -110v-1.5v-1.5v-1.5v-1.5q-1 -59 -48 -108.5t-139 -49.5h-243v464h88v-140v0zM272 250h-155v-177h155q48 0 72 27.5t24 60.5v1.5v1.5q-1 32 -25 59t-71 27v0z" />
    <glyph glyph-name="udieresis" unicode="&#x44c;" horiz-adv-x="473" 
d="M117 324h155q92 0 139 -50t48 -110v-1.5v-1.5v-1.5v-1.5q-1 -59 -48 -108.5t-139 -49.5h-243v464h88v-140v0zM272 250h-155v-177h155q48 0 72 27.5t24 60.5v1.5v1.5q-1 32 -25 59t-71 27v0z" />
    <glyph glyph-name="period" unicode="&#xfd;" horiz-adv-x="454" 
d="M3 39l38 71q38 -21 71.5 -31t62.5 -10q73 0 117 45.5t51 99.5q0 5 0.5 9.5t0.5 8.5v18h-260v74h244q-16 40 -53.5 61t-86.5 21q-26 0 -55 -6.5t-58 -19.5q-9 -4 -17.5 -8t-16.5 -9l-39 62q36 21 76 34t80 16q9 1 17 1.5t16 0.5q9 0 18 -0.5t17 -1.5q23 -2 45 -7.5
t42 -14.5q53 -28 90.5 -84.5t37.5 -132.5q0 -121 -82 -182t-184 -61q-8 0 -16 0.5t-16 0.5q-37 4 -72.5 14.5t-67.5 30.5v0z" />
    <glyph glyph-name="period" unicode="&#x44d;" horiz-adv-x="454" 
d="M3 39l38 71q38 -21 71.5 -31t62.5 -10q73 0 117 45.5t51 99.5q0 5 0.5 9.5t0.5 8.5v18h-260v74h244q-16 40 -53.5 61t-86.5 21q-26 0 -55 -6.5t-58 -19.5q-9 -4 -17.5 -8t-16.5 -9l-39 62q36 21 76 34t80 16q9 1 17 1.5t16 0.5q9 0 18 -0.5t17 -1.5q23 -2 45 -7.5
t42 -14.5q53 -28 90.5 -84.5t37.5 -132.5q0 -121 -82 -182t-184 -61q-8 0 -16 0.5t-16 0.5q-37 4 -72.5 14.5t-67.5 30.5v0z" />
    <glyph glyph-name="thorn" unicode="&#xfe;" horiz-adv-x="747" 
d="M222 250h-58v-250h-88v250h-60v74h60v140h88v-140h74q26 71 89.5 110t141.5 39q100 0 177.5 -62t77.5 -172t-71.5 -177.5t-180.5 -67.5q-107 0 -178.5 68t-71.5 177v11v0zM473 67h2.5h3.5q58 3 107 50.5t49 119.5q0 78 -50 120t-112 42q-63 0 -110.5 -42t-47.5 -120
q0 -70 48.5 -120t109.5 -50v0z" />
    <glyph glyph-name="thorn" unicode="&#x44e;" horiz-adv-x="747" 
d="M222 250h-58v-250h-88v250h-60v74h60v140h88v-140h74q26 71 89.5 110t141.5 39q100 0 177.5 -62t77.5 -172t-71.5 -177.5t-180.5 -67.5q-107 0 -178.5 68t-71.5 177v11v0zM473 67h2.5h3.5q58 3 107 50.5t49 119.5q0 78 -50 120t-112 42q-63 0 -110.5 -42t-47.5 -120
q0 -70 48.5 -120t109.5 -50v0z" />
    <glyph glyph-name="ydieresis" unicode="&#xff;" horiz-adv-x="473" 
d="M161 256q-46 14 -69 41t-23 57v2.5v3.5q3 39 41.5 71.5t102.5 32.5h221v-464h-87v250h-67q-20 0 -37 -15t-31 -42l-114 -198l-97 10l126 217q10 15 16.5 22t13.5 10q1 1 2 1.5t2 0.5v0zM212 391q-25 0 -39.5 -9.5t-16.5 -21.5q-1 -1 -1 -2.5v-2.5q0 -12 12.5 -21.5
t35.5 -9.5h144v67h-135v0z" />
    <glyph glyph-name="ydieresis" unicode="&#x44f;" horiz-adv-x="473" 
d="M161 256q-46 14 -69 41t-23 57v2.5v3.5q3 39 41.5 71.5t102.5 32.5h221v-464h-87v250h-67q-20 0 -37 -15t-31 -42l-114 -198l-97 10l126 217q10 15 16.5 22t13.5 10q1 1 2 1.5t2 0.5v0zM212 391q-25 0 -39.5 -9.5t-16.5 -21.5q-1 -1 -1 -2.5v-2.5q0 -12 12.5 -21.5
t35.5 -9.5h144v67h-135v0z" />
    <glyph glyph-name="amacron" unicode="&#x101;" 
 />
    <glyph glyph-name="OE" unicode="&#x152;" 
d="M307 208v-94l-279 152v102l279 151v-95l-179 -107l179 -109v0z" />
    <glyph glyph-name="glyph258" unicode="&#x153;" 
d="M307 208v-94l-279 152v102l279 151v-95l-179 -107l179 -109v0z" />
    <glyph glyph-name="perthousand" unicode="&#x160;" 
d="M307 208v-94l-279 152v102l279 151v-95l-179 -107l179 -109v0z" />
    <glyph glyph-name="eight" unicode="&#x161;" 
d="M307 208v-94l-279 152v102l279 151v-95l-179 -107l179 -109v0z" />
    <glyph glyph-name="greater" unicode="&#x192;" 
d="M307 208v-94l-279 152v102l279 151v-95l-179 -107l179 -109v0z" />
    <glyph glyph-name="glyph237" unicode="&#x2c6;" 
d="M307 208v-94l-279 152v102l279 151v-95l-179 -107l179 -109v0z" />
    <glyph glyph-name="seven" unicode="&#x2dc;" 
d="M307 208v-94l-279 152v102l279 151v-95l-179 -107l179 -109v0z" />
    <glyph glyph-name="dollar" unicode="&#x2013;" horiz-adv-x="595" 
d="M544 383v-69h-495v69h495v0z" />
    <glyph glyph-name="numbersign" unicode="&#x2014;" horiz-adv-x="737" 
d="M690 383v-69h-641v69h641v0z" />
    <glyph glyph-name="four" unicode="&#x2018;" horiz-adv-x="189" 
d="M136 514h-97l78 131h63l-44 -131v0z" />
    <glyph glyph-name="quoteright" unicode="&#x2019;" horiz-adv-x="208" 
d="M108 645h97l-78 -131h-63l44 131v0z" />
    <glyph glyph-name="parenleft" unicode="&#x201a;" 
d="M307 208v-94l-279 152v102l279 151v-95l-179 -107l179 -109v0z" />
    <glyph glyph-name="oe" unicode="&#x201c;" horiz-adv-x="321" 
d="M275 513h-97l78 131h63l-44 -131v0zM136 514h-97l78 131h63l-44 -131v0z" />
    <glyph glyph-name="B" unicode="&#x201d;" horiz-adv-x="359" 
d="M215 513l44 131h97l-77 -131h-64v0zM120 645h97l-77 -131h-64l44 131v0z" />
    <glyph glyph-name="quotedblbase" unicode="&#x201e;" 
d="M307 208v-94l-279 152v102l279 151v-95l-179 -107l179 -109v0z" />
    <glyph glyph-name="glyph233" unicode="&#x2020;" 
d="M307 208v-94l-279 152v102l279 151v-95l-179 -107l179 -109v0z" />
    <glyph glyph-name="glyph236" unicode="&#x2021;" 
d="M307 208v-94l-279 152v102l279 151v-95l-179 -107l179 -109v0z" />
    <glyph glyph-name="glyph257" unicode="&#x2022;" 
d="M307 208v-94l-279 152v102l279 151v-95l-179 -107l179 -109v0z" />
    <glyph glyph-name="glyph232" unicode="&#x2026;" 
d="M307 208v-94l-279 152v102l279 151v-95l-179 -107l179 -109v0z" />
    <glyph glyph-name="v" unicode="&#x2030;" 
d="M307 208v-94l-279 152v102l279 151v-95l-179 -107l179 -109v0z" />
    <glyph glyph-name="glyph243" unicode="&#x2039;" 
d="M307 208v-94l-279 152v102l279 151v-95l-179 -107l179 -109v0z" />
    <glyph glyph-name="less" unicode="&#x203a;" 
d="M307 208v-94l-279 152v102l279 151v-95l-179 -107l179 -109v0z" />
    <glyph glyph-name="six" unicode="&#x2122;" 
d="M307 208v-94l-279 152v102l279 151v-95l-179 -107l179 -109v0z" />
    <glyph glyph-name="periodcentered" unicode="&#x2219;" horiz-adv-x="171" 
d="M19 262q0 27 15.5 45t48.5 18t48.5 -18t15.5 -45t-15.5 -45.5t-48.5 -18.5t-48.5 18.5t-15.5 45.5v0z" />
    <glyph glyph-name="s" 
 />
    <glyph glyph-name="backslash" 
 />
    <glyph glyph-name="nine" 
 />
    <glyph glyph-name="colon" 
 />
    <glyph glyph-name="Y" 
 />
    <glyph glyph-name="X" 
 />
    <glyph glyph-name="asciicircum" 
 />
    <glyph glyph-name="semicolon" 
 />
    <glyph glyph-name="equal" 
 />
    <glyph glyph-name="exclam" 
 />
    <glyph glyph-name="five" 
 />
    <glyph glyph-name="Q" 
 />
    <glyph glyph-name="quotedblright" 
 />
    <glyph glyph-name="hyphen" 
 />
    <glyph glyph-name="space" 
 />
    <glyph glyph-name="E" 
 />
    <glyph glyph-name="M" 
 />
    <glyph glyph-name="plus" 
 />
    <glyph glyph-name="glyph229" 
 />
    <glyph glyph-name="glyph230" 
 />
    <glyph glyph-name="glyph231" 
 />
    <glyph glyph-name="glyph234" 
 />
    <glyph glyph-name="glyph235" 
 />
    <glyph glyph-name="glyph238" 
 />
    <glyph glyph-name="glyph239" 
 />
    <glyph glyph-name="glyph240" 
 />
    <glyph glyph-name="glyph241" 
 />
    <glyph glyph-name="glyph242" 
 />
    <glyph glyph-name="glyph244" 
 />
    <glyph glyph-name="glyph245" 
 />
    <glyph glyph-name="glyph246" 
 />
    <glyph glyph-name="glyph247" 
 />
    <glyph glyph-name="glyph248" 
 />
    <glyph glyph-name="glyph249" 
 />
    <glyph glyph-name="glyph250" 
 />
    <glyph glyph-name="glyph251" 
 />
    <glyph glyph-name="glyph252" 
 />
    <glyph glyph-name="glyph253" 
 />
    <glyph glyph-name="glyph254" 
 />
    <glyph glyph-name="glyph255" 
 />
    <glyph glyph-name="glyph256" 
 />
    <glyph glyph-name="glyph267" 
 />
    <glyph glyph-name="glyph268" 
 />
    <glyph glyph-name="glyph269" 
 />
    <glyph glyph-name="glyph270" 
 />
    <glyph glyph-name="glyph271" 
 />
    <glyph glyph-name="glyph272" 
 />
    <glyph glyph-name="glyph273" 
 />
    <glyph glyph-name="glyph274" 
 />
    <glyph glyph-name="glyph275" 
 />
    <glyph glyph-name="glyph276" 
 />
    <glyph glyph-name="glyph277" 
 />
    <glyph glyph-name="glyph278" 
 />
    <glyph glyph-name="glyph279" 
 />
    <glyph glyph-name="glyph280" 
 />
    <glyph glyph-name="glyph281" 
 />
    <glyph glyph-name="glyph282" 
 />
    <glyph glyph-name="glyph283" 
 />
    <glyph glyph-name="glyph284" 
 />
    <glyph glyph-name="glyph285" 
 />
    <glyph glyph-name="glyph286" 
 />
    <glyph glyph-name="glyph287" 
 />
    <glyph glyph-name="glyph288" 
 />
    <glyph glyph-name="glyph289" 
 />
    <glyph glyph-name="glyph290" 
 />
    <glyph glyph-name="glyph291" 
 />
    <glyph glyph-name="glyph292" 
 />
    <glyph glyph-name="glyph293" 
 />
    <glyph glyph-name="glyph294" 
 />
    <glyph glyph-name="glyph295" 
 />
    <glyph glyph-name="glyph296" 
 />
    <glyph glyph-name="glyph297" 
 />
    <glyph glyph-name="glyph298" 
 />
    <glyph glyph-name="glyph299" 
 />
    <glyph glyph-name="glyph300" 
 />
    <glyph glyph-name="glyph301" 
 />
    <glyph glyph-name="glyph302" 
 />
    <glyph glyph-name="glyph303" 
 />
    <glyph glyph-name="glyph304" 
 />
    <glyph glyph-name="glyph305" 
 />
    <glyph glyph-name="glyph306" 
 />
    <glyph glyph-name="glyph307" 
 />
    <glyph glyph-name="glyph308" 
 />
    <glyph glyph-name="glyph309" 
 />
    <glyph glyph-name="glyph310" 
 />
    <glyph glyph-name="glyph311" 
 />
    <glyph glyph-name="glyph312" 
 />
    <glyph glyph-name="glyph313" 
 />
    <glyph glyph-name="glyph314" 
 />
    <glyph glyph-name="glyph315" 
 />
    <glyph glyph-name="glyph316" 
 />
    <glyph glyph-name="glyph317" 
 />
    <glyph glyph-name="glyph318" 
 />
    <glyph glyph-name="glyph319" 
 />
    <glyph glyph-name="glyph320" 
 />
    <glyph glyph-name="glyph321" 
 />
    <glyph glyph-name="glyph322" 
 />
    <glyph glyph-name="glyph323" 
 />
    <glyph glyph-name="glyph324" 
 />
    <glyph glyph-name="glyph325" 
 />
    <glyph glyph-name="glyph326" 
 />
    <glyph glyph-name="glyph327" 
 />
    <glyph glyph-name="glyph328" 
 />
    <glyph glyph-name="glyph329" 
 />
    <glyph glyph-name="glyph330" 
 />
    <glyph glyph-name="glyph331" 
 />
    <glyph glyph-name="glyph332" 
 />
    <glyph glyph-name="glyph333" 
 />
    <glyph glyph-name="glyph334" 
 />
    <glyph glyph-name="glyph335" 
 />
    <glyph glyph-name="glyph336" 
 />
    <glyph glyph-name="glyph337" 
 />
    <glyph glyph-name="glyph338" 
 />
    <glyph glyph-name="glyph339" 
 />
    <glyph glyph-name="glyph340" 
 />
    <glyph glyph-name="glyph341" 
 />
    <glyph glyph-name="glyph342" 
 />
    <glyph glyph-name="glyph343" 
 />
    <glyph glyph-name="glyph344" 
 />
    <glyph glyph-name="glyph345" 
 />
    <glyph glyph-name="glyph346" 
 />
    <glyph glyph-name="glyph347" 
 />
    <glyph glyph-name="glyph348" 
 />
    <glyph glyph-name="glyph349" 
 />
    <glyph glyph-name="glyph350" 
 />
    <glyph glyph-name="glyph351" 
 />
    <glyph glyph-name="glyph352" 
 />
    <glyph glyph-name="glyph353" 
 />
    <glyph glyph-name="glyph354" 
 />
    <glyph glyph-name="glyph355" 
 />
    <glyph glyph-name="glyph356" 
 />
    <glyph glyph-name="glyph357" 
 />
    <glyph glyph-name="glyph358" 
 />
    <glyph glyph-name="glyph359" 
 />
    <glyph glyph-name="glyph360" 
 />
    <glyph glyph-name="glyph361" 
 />
    <glyph glyph-name="glyph362" 
 />
    <glyph glyph-name="glyph363" 
 />
    <glyph glyph-name="glyph364" 
 />
    <glyph glyph-name="glyph365" 
 />
    <glyph glyph-name="glyph366" 
 />
    <glyph glyph-name="glyph367" 
 />
    <glyph glyph-name="glyph368" 
 />
    <glyph glyph-name="glyph369" 
 />
    <glyph glyph-name="glyph370" 
 />
    <glyph glyph-name="glyph371" 
 />
    <glyph glyph-name="glyph372" 
 />
    <glyph glyph-name="glyph373" 
 />
    <glyph glyph-name="glyph374" 
 />
    <glyph glyph-name="glyph375" 
 />
    <glyph glyph-name="glyph376" 
 />
    <glyph glyph-name="glyph377" 
 />
    <glyph glyph-name="glyph378" 
 />
    <glyph glyph-name="glyph379" 
 />
    <glyph glyph-name="glyph380" 
 />
    <glyph glyph-name="glyph381" 
 />
    <glyph glyph-name="glyph382" 
 />
    <glyph glyph-name="glyph383" 
 />
    <glyph glyph-name="glyph384" 
 />
    <glyph glyph-name="glyph385" 
 />
    <glyph glyph-name="glyph386" 
 />
    <glyph glyph-name="glyph387" 
 />
    <glyph glyph-name="glyph388" 
 />
    <glyph glyph-name="glyph389" 
 />
    <glyph glyph-name="glyph390" 
 />
    <glyph glyph-name="glyph391" 
 />
    <glyph glyph-name="glyph392" 
 />
    <glyph glyph-name="glyph393" 
 />
    <glyph glyph-name="glyph394" 
 />
    <glyph glyph-name="glyph395" 
 />
    <glyph glyph-name="glyph396" 
 />
    <glyph glyph-name="glyph397" 
 />
    <glyph glyph-name="glyph398" 
 />
    <glyph glyph-name="glyph399" 
 />
    <glyph glyph-name="glyph400" 
 />
    <glyph glyph-name="glyph401" 
 />
    <glyph glyph-name="glyph402" 
 />
    <glyph glyph-name="glyph403" 
 />
    <glyph glyph-name="glyph404" 
 />
    <glyph glyph-name="glyph405" 
 />
    <glyph glyph-name="glyph406" 
 />
    <glyph glyph-name="glyph407" 
 />
    <glyph glyph-name="glyph408" 
 />
    <glyph glyph-name="glyph409" 
 />
    <glyph glyph-name="glyph410" 
 />
    <glyph glyph-name="glyph411" 
 />
    <glyph glyph-name="glyph412" 
 />
    <glyph glyph-name="glyph413" 
 />
    <glyph glyph-name="glyph414" 
 />
    <glyph glyph-name="glyph415" 
 />
    <glyph glyph-name="glyph416" 
 />
    <glyph glyph-name="glyph417" 
 />
    <glyph glyph-name="glyph418" 
 />
    <glyph glyph-name="glyph419" 
 />
    <glyph glyph-name="glyph420" 
 />
    <glyph glyph-name="glyph421" 
 />
    <glyph glyph-name="glyph422" 
 />
    <glyph glyph-name="glyph423" 
 />
    <glyph glyph-name="glyph424" 
 />
    <glyph glyph-name="glyph425" 
 />
    <glyph glyph-name="glyph426" 
 />
    <glyph glyph-name="glyph427" 
 />
    <glyph glyph-name="glyph428" 
 />
    <glyph glyph-name="glyph429" 
 />
    <glyph glyph-name="glyph430" 
 />
    <glyph glyph-name="glyph431" 
 />
    <glyph glyph-name="glyph432" 
 />
    <glyph glyph-name="glyph433" 
 />
    <glyph glyph-name="glyph434" 
 />
    <glyph glyph-name="glyph435" 
 />
    <glyph glyph-name="glyph436" 
 />
    <glyph glyph-name="glyph437" 
 />
    <glyph glyph-name="glyph438" 
 />
    <glyph glyph-name="glyph439" 
 />
    <glyph glyph-name="glyph440" 
 />
    <glyph glyph-name="glyph441" 
 />
    </font>
</defs>
</svg>
