<svg xmlns="http://www.w3.org/2000/svg" width="450" height="102" viewBox="0 0 450 102"><path d="M39.41 12.85v38.295c-.346-.02-.78-.05-1.305-.096-.524-.047-.91-.07-1.155-.07-.292 0-.716.023-1.27.07l-1.19.095V15.653c-3.974-.11-7.898-.165-11.77-.165-3.838 0-7.776.056-11.814.165v35.492c-.32-.02-.748-.05-1.285-.096a15.36 15.36 0 0 0-1.175-.07c-.292 0-.716.023-1.27.07l-1.19.095V12.85H39.41zm7.452 19.14c0-2.998.526-5.74 1.58-8.223s2.523-4.6 4.415-6.35c1.89-1.75 4.095-3.09 6.61-4.02S64.69 12 67.587 12c2.726 0 5.35.38 7.876 1.136 2.524.757 4.792 1.92 6.802 3.486s3.603 3.573 4.778 6.016 1.764 5.282 1.764 8.518c0 3.07-.518 5.88-1.552 8.43-1.035 2.547-2.516 4.738-4.443 6.575s-4.2 3.24-6.815 4.205c-2.616.966-5.46 1.45-8.53 1.45-3.045 0-5.84-.468-8.39-1.402-2.547-.935-4.732-2.278-6.555-4.033-1.823-1.755-3.222-3.855-4.197-6.303-.975-2.447-1.463-5.142-1.463-8.086zm32.922-12.7a13.662 13.662 0 0 0-5.154-4.033 15.463 15.463 0 0 0-6.48-1.408c-3.236 0-6.048.773-8.436 2.323-2.388 1.55-4.213 3.746-5.476 6.59s-1.894 6.147-1.894 9.912c0 3.646.68 6.776 2.037 9.393 1.36 2.616 3.205 4.587 5.538 5.913 2.333 1.327 4.908 1.99 7.725 1.99 2.68 0 5.022-.58 7.027-1.743 2.005-1.162 3.644-2.675 4.915-4.54s2.212-3.863 2.823-6c.61-2.14.916-4.164.916-6.078 0-2.6-.25-4.866-.752-6.803-.5-1.937-1.43-3.776-2.788-5.517zm21.342 31.855c-.32-.02-.748-.05-1.285-.096a15.36 15.36 0 0 0-1.175-.07c-.292 0-.716.023-1.27.07l-1.19.095V12.85h10.02c3.665 0 6.536.294 8.614.882s3.57 1.543 4.477 2.864c.907 1.32 1.36 3.13 1.36 5.428 0 1.668-.253 3.133-.76 4.396s-1.252 2.34-2.24 3.233c-.99.894-2.23 1.65-3.72 2.27s-3.247 1.13-5.27 1.53c-.84.184-1.924.274-3.255.274-.684 0-1.522-.027-2.516-.082a51.152 51.152 0 0 0-1.79-.082v17.582zm0-19.77c1.084.082 1.946.123 2.584.123.538 0 1.526-.04 2.967-.123 2.77-.282 4.938-1.236 6.5-2.86 1.564-1.627 2.346-3.692 2.346-6.196 0-1.32-.226-2.5-.677-3.532-.45-1.034-1.148-1.874-2.092-2.52s-2.13-1.04-3.562-1.176c-.784-.073-2.22-.11-4.307-.11-1.94 0-3.195.02-3.76.056v16.337zm51.857 19.77a71.83 71.83 0 0 1-1.51-.096 21.026 21.026 0 0 0-1.402-.07c-.364 0-.88.023-1.544.07l-1.436.095a220.2 220.2 0 0 0-1.73-4.806 204.593 204.593 0 0 0-4.148-10.316h-14.22c-2.807 7.073-4.657 12.113-5.55 15.12-.3-.018-.668-.05-1.1-.095a10 10 0 0 0-.965-.07c-.255 0-.608.026-1.06.076s-.75.08-.896.09L134.895 12h1.285l16.803 39.143zm-18.826-31.8L128.06 33.67h12.317l-6.22-14.328zm21.439 28.943c1.176-2.58 2.89-6.42 5.143-11.525a1252.03 1252.03 0 0 0 6.33-14.588c1.97-4.62 3.243-7.73 3.817-9.324h2.694l2.278 5.49c1.035 2.493 2.537 6.098 4.507 10.814s3.643 8.71 5.02 11.983a826.11 826.11 0 0 0 3.036 7.15h2.408c-.11.61-.164 1.358-.164 2.242 0 1.248.055 2.182.164 2.8h-.506c-.493-.737-1.202-1.276-2.127-1.62-.925-.34-2.03-.548-3.316-.62-1.287-.074-3.206-.11-5.76-.11h-13.663c-2.553 0-4.49.036-5.813.11-1.322.072-2.496.28-3.522.62-1.026.343-1.876.882-2.55 1.62h-.384c.11-.554.164-1.49.164-2.8 0-.266-.055-1.013-.164-2.243h2.408zm27.558 0l-2.626-6.542a7207.106 7207.106 0 0 0-7.187-17.849 2084.88 2084.88 0 0 0-2.003-4.95h-.232c-1.733 3.82-3.194 7.115-4.384 9.886s-2.452 5.863-3.788 9.276-2.587 6.806-3.754 10.178h23.976zm39.761-35.438c.61.11 1.244.164 1.9.164.137 0 .335-.012.595-.034s.52-.048.787-.075c.264-.027.48-.046.643-.055-.43.702-1.418 2.522-2.968 5.462s-3.527 6.76-5.934 11.464-4.6 9.04-6.583 13.01-3.338 6.755-4.067 8.36c-.766-.11-1.345-.165-1.736-.165-.884 0-1.723.056-2.516.165 1.285-2.015 2.57-4.163 3.855-6.446s2.225-3.978 2.817-5.08c-1.194-1.74-2.89-4.21-5.086-7.403s-4.832-6.995-7.908-11.402-4.96-7.062-5.653-7.964c1.667.11 2.824.165 3.472.165.183 0 .476-.012.882-.034.405-.02.815-.047 1.23-.074.414-.027.718-.046.91-.055 5.05 8.295 9.86 15.404 14.437 21.33h.63a242 242 0 0 1 1.415-2.872c.733-1.477 1.764-3.543 3.09-6.2s2.465-4.983 3.418-6.98a111.13 111.13 0 0 0 2.372-5.278zm9.135 0c.554.118 1.374.178 2.46.178 1.13 0 1.95-.06 2.46-.178v29.23h.562l25.484-29.23h2.46v38.295c-1.01-.11-1.83-.164-2.46-.164-.547 0-1.367.056-2.46.165v-30.57h-.562c-1.887 2.188-4.55 5.282-7.992 9.283s-7.297 8.485-11.566 13.453-6.506 7.58-6.705 7.835h-1.68V12.85zm28.505-4.642c-3.61 2.13-7.475 3.193-11.594 3.193-4.046 0-7.894-1.045-11.538-3.138l1.45-2.303c2.833 1.83 6.196 2.747 10.09 2.747 3.882 0 7.294-.916 10.24-2.748l1.353 2.248zm72.242 40.408c-3.182 2.133-7.31 3.2-12.387 3.2-3.035 0-5.773-.464-8.21-1.39s-4.52-2.267-6.24-4.025-3.03-3.877-3.92-6.356-1.33-5.236-1.33-8.27c0-4.066.92-7.598 2.767-10.597s4.377-5.277 7.596-6.836c3.217-1.558 6.8-2.337 10.746-2.337 4.054 0 8.065.86 12.03 2.584-.438 1.12-.83 2.556-1.176 4.305l-.383.057c-.354-.466-1.038-1.08-2.05-1.847s-2.28-1.45-3.8-2.058a13.007 13.007 0 0 0-4.855-.91c-2.488 0-4.703.468-6.645 1.402-1.94.934-3.56 2.223-4.854 3.867-1.295 1.645-2.268 3.544-2.92 5.7-.652 2.153-.977 4.447-.977 6.88 0 3.508.63 6.6 1.892 9.28s3.035 4.742 5.318 6.19 4.883 2.173 7.8 2.173c2.58 0 4.913-.51 7-1.53 2.087-1.022 3.71-2.024 4.868-3.01l-.27 3.53zM345.84 29.53h8.682c.674 0 1.607-.043 2.803-.13a89.095 89.095 0 0 1 2.174-.144c-.01.082-.032.224-.064.424s-.057.395-.074.58c-.02.188-.027.336-.027.445 0 .09.01.24.033.45s.05.41.076.603.045.364.055.52c-.54-.02-1.335-.07-2.388-.157s-1.916-.13-2.59-.13h-8.682v16.353c2.287 0 5.664-.073 10.13-.22a39.478 39.478 0 0 0 5.155-.505c-.01.137-.027.313-.055.526s-.053.43-.076.643-.033.385-.033.513c0 .255.02.528.062.82s.076.58.104.86H340.92V12.85h19.878c-.02.23-.053.506-.104.83-.05.325-.074.61-.074.858 0 .238.023.528.074.872.05.343.084.61.104.803-1.35-.265-3.03-.47-5.045-.615l-5.605-.11h-4.307V29.53zm23.187-16.68h22.682c-.12.412-.18.975-.18 1.688 0 .64.06 1.2.18 1.675-2.106-.41-3.788-.615-5.046-.615l-6.727-.11h-5.988v14.097h5.153c5.387 0 9.234.768 11.545 2.304s3.467 4.017 3.467 7.443c0 2.224-.518 4.186-1.553 5.886s-2.494 3.036-4.38 4.012-4.095 1.54-6.618 1.695c-1.678.036-5.857.055-12.537.055V12.85zm4.922 35.834h5.604c1.813 0 3.436-.405 4.867-1.217 1.43-.812 2.536-1.905 3.315-3.28s1.17-2.9 1.17-4.567c0-2.015-.61-3.77-1.832-5.27-1.223-1.5-2.89-2.34-5.004-2.523-.64-.073-1.778-.11-3.42-.11-.683 0-1.57.01-2.665.028s-1.773.027-2.037.027v16.912zm52.364 2.461c-.22-.02-.613-.05-1.184-.096s-.997-.07-1.278-.07c-.266 0-.666.023-1.203.07-.54.045-.958.076-1.26.095V32.442h-2.132l-4.484 5.264-6.604 8.572a248.19 248.19 0 0 0-3.527 4.867c-.338-.02-.867-.05-1.586-.096a27.62 27.62 0 0 0-1.613-.07c-.338 0-.857.023-1.56.07a94.09 94.09 0 0 1-1.68.095l1.065-1.395 2.68-3.13 11.538-14.63c-2.023-.355-3.904-.966-5.64-1.832s-3.146-2.04-4.226-3.52-1.62-3.243-1.62-5.285c0-2.853 1.005-4.983 3.015-6.392s5.152-2.11 9.428-2.11h11.867v38.295zm-4.922-36.23c-.4 0-1.147-.02-2.24-.055s-1.94-.055-2.53-.055c-1.715 0-2.87.055-3.473.164-4.102.655-6.152 3.007-6.152 7.054 0 2.114.66 3.867 1.982 5.257 1.32 1.39 3.05 2.31 5.182 2.756 1.202.228 2.733.342 4.593.342.482 0 1.03-.01 1.64-.027.61-.018.944-.026 1-.026v-15.41zM440.71 44.87c.9 0 1.677.336 2.33 1.007s.978 1.454.978 2.35c0 .913-.328 1.703-.984 2.37s-1.432 1-2.324 1c-.922 0-1.72-.333-2.4-1s-1.018-1.457-1.018-2.37.342-1.7 1.025-2.363 1.48-.994 2.392-.994zm.56-3.596h-1.12l-2.134-23.67v-1.68c0-2.614.88-3.922 2.64-3.922 1.02 0 1.714.37 2.083 1.114.368.742.57 1.678.608 2.808 0 .82-.023 1.38-.068 1.68l-2.01 23.67z" fill="#ae1db3"/><path d="M79.234 71.64v18.53c0 1.197.08 2.09.24 2.674.266.934.773 1.545 1.52 1.838l-7.6.12c.72-.32 1.213-.946 1.48-1.878.187-.666.28-1.557.28-2.676V72.876c0-1.066-.094-1.904-.28-2.516-.267-.88-.76-1.452-1.48-1.72l26.16-.12c-.747.32-1.234.9-1.46 1.737-.227.84-.34 1.818-.34 2.938V90.17c0 1.225.08 2.117.24 2.676.266.932.786 1.545 1.56 1.838l-7.64.12c.586-.267 1.026-.706 1.32-1.317.293-.613.44-1.664.44-3.156V71.64a17.247 17.247 0 0 0-1.88-.2 50.384 50.384 0 0 0-2.24-.04h-6.24c-.72 0-1.42.008-2.1.02-.68.014-1.34.086-1.98.22zm33.16-3.12c2.693 0 4.893.62 6.6 1.856 1.706 1.236 2.56 2.945 2.56 5.125 0 2.208-.874 4.01-2.62 5.407-1.747 1.396-3.807 2.094-6.18 2.094-.667 0-1.194-.032-1.58-.1-.387-.065-.833-.22-1.34-.46 1.84 0 3.466-.545 4.88-1.635 1.52-1.168 2.28-2.67 2.28-4.502 0-1.648-.52-2.877-1.56-3.688s-2.414-1.217-4.12-1.217c-.934 0-1.867.08-2.8.24v18.01c0 1.41.08 2.383.24 2.914.267.88.88 1.584 1.84 2.117l-7.96.118c.747-.32 1.253-.96 1.52-1.92.187-.693.28-1.613.28-2.76v-16.96c0-1.2-.08-2.093-.24-2.68-.267-.933-.773-1.56-1.52-1.88l9.72-.077zm30.879 21.076V73.938l-12.86 17.57c-.957 1.22-1.793 2.135-2.51 2.744-.905.77-2.008 1.365-3.31 1.79V73.63c0-1.437-.08-2.407-.24-2.915-.268-.852-.88-1.557-1.84-2.115l8.24-.08c-.96.61-1.575 1.344-1.84 2.195-.16.533-.24 1.518-.24 2.953V88.8l13.458-18.464.552-.814c.29-.32.485-.654.59-1h5.84c-.72.453-1.194 1.03-1.42 1.736-.227.707-.34 1.484-.34 2.338v18.491c0 .854.113 1.56.34 2.117.226.56.713 1.053 1.46 1.48l-8.28.118c.986-.64 1.653-1.387 2-2.242.268-.67.4-1.656.4-2.964zm12.68-10.716a20.023 20.023 0 0 0 2.2.122c1.493 0 2.76-.32 3.8-.96 1.2-.747 1.8-1.786 1.8-3.12 0-1.307-.44-2.307-1.32-3s-2.107-1.04-3.68-1.04c-2.534 0-4.64.692-6.32 2.08l-.12-4.12c1.466-.293 2.667-.52 3.6-.68 1.44-.24 2.64-.36 3.6-.36 2.293 0 4.226.48 5.8 1.44 1.84 1.12 2.76 2.72 2.76 4.8 0 1.413-.387 2.626-1.16 3.64-.614.826-1.467 1.494-2.56 2 1.68.48 2.973 1.162 3.88 2.045 1.2 1.15 1.8 2.674 1.8 4.572 0 3.02-1.254 5.345-3.76 6.976-2.213 1.443-4.987 2.166-8.32 2.166-.934 0-1.8-.074-2.6-.22-.8-.147-1.68-.38-2.64-.7l-1.84-4.64c2.106 1.626 4.64 2.438 7.6 2.438 2.053 0 3.706-.467 4.96-1.404 1.36-1.018 2.04-2.477 2.04-4.377 0-3.187-2.12-4.778-6.36-4.778-1.2 0-2.254.146-3.16.44v-3.32zm33.68 3.08v8.202c0 1.2.08 2.094.24 2.68.266.934.772 1.547 1.52 1.84l-7.6.12c.72-.32 1.213-.946 1.478-1.878.19-.666.282-1.557.282-2.676V72.876c0-1.066-.094-1.904-.28-2.516-.267-.88-.76-1.452-1.48-1.72l7.6-.12c-.72.32-1.193.878-1.42 1.675-.227.797-.34 1.766-.34 2.908v5.977h14.44v-6.215c0-1.063-.094-1.9-.28-2.512-.267-.875-.76-1.447-1.48-1.713l7.64-.12c-.746.32-1.232.9-1.46 1.737-.226.84-.34 1.818-.34 2.938V90.17c0 1.225.08 2.117.24 2.676.267.932.786 1.545 1.56 1.838l-7.64.12c.587-.267 1.026-.706 1.32-1.32.294-.614.44-1.667.44-3.16v-8.36h-14.44zm29.697 2.962l-2.088 5.645c-.217.56-.38 1.02-.488 1.38s-.162.71-.162 1.058c0 .373.113.7.34.98s.593.51 1.1.698l-7.36.12c1.014-.56 1.84-1.4 2.48-2.52.267-.48.733-1.573 1.4-3.28l6.68-16.682c.187-.5.34-.93.46-1.284s.18-.666.18-.932c0-.367-.086-.672-.26-.908-.174-.238-.5-.422-.98-.555l6.32-.118 8.32 20.48c.668 1.68 1.146 2.76 1.44 3.24.64 1.12 1.466 1.934 2.48 2.44l-8.2.118c.96-.48 1.44-.988 1.44-1.523 0-.32-.115-.775-.348-1.363a27.48 27.48 0 0 1-.502-1.365l-2.156-5.628H219.33zm4.968-13.05l-3.954 10.09h7.88l-3.926-10.09zm28.694 2.241v-1.238c0-1.066-.094-1.904-.28-2.516-.267-.88-.76-1.452-1.48-1.72l9.48-.12c2.612 0 4.66.52 6.14 1.556 1.48 1.035 2.22 2.443 2.22 4.225 0 1.276-.374 2.353-1.12 3.228-.64.746-1.6 1.396-2.88 1.953 1.894.4 3.427 1.19 4.6 2.362 1.28 1.28 1.92 2.854 1.92 4.72 0 1.466-.452 2.833-1.358 4.1a8.94 8.94 0 0 1-3.44 2.9c-1.2.587-2.667.96-4.4 1.12-.854.08-2.374.12-4.56.12h-6.6c.72-.32 1.213-.946 1.48-1.878.187-.666.28-1.57.28-2.715V74.112zm5.4 4.97c1.626 0 3-.28 4.12-.837 1.467-.717 2.2-1.818 2.2-3.305 0-1.22-.44-2.188-1.32-2.903-.88-.717-1.92-1.076-3.12-1.076h-.52l-2.68.282v7.84h1.32zm2.16 12.84c.187.024.466.038.84.038 1.626 0 2.96-.4 4-1.198 1.173-.906 1.76-2.188 1.76-3.84 0-1.787-.774-3.16-2.32-4.12-1.333-.827-2.985-1.24-4.96-1.24l-2.8.16v9.88l3.48.32zM284.27 94.8h-9.72c.72-.345 1.213-.983 1.48-1.915.186-.666.28-1.56.28-2.676V73.114c0-1.2-.08-2.078-.24-2.637-.267-.96-.788-1.57-1.56-1.838l7.96-.12c-.96.612-1.575 1.345-1.84 2.196-.16.533-.24 1.518-.24 2.955v18.01c.933.16 1.866.24 2.8.24 1.732 0 3.08-.372 4.04-1.12 1.093-.854 1.64-2.12 1.64-3.8 0-1.84-.734-3.325-2.2-4.46-1.468-1.133-3.12-1.7-4.96-1.7a4.8 4.8 0 0 1 1.36-.44c.48-.08 1-.12 1.56-.12 2.4 0 4.426.628 6.08 1.882 1.813 1.387 2.72 3.266 2.72 5.64 0 2.187-.854 3.9-2.56 5.14-1.706 1.24-3.905 1.86-6.6 1.86zm12.28-20.648v-1.277c0-1.066-.093-1.904-.278-2.516-.268-.88-.76-1.452-1.48-1.72l7.6-.12c-.72.32-1.193.886-1.42 1.698s-.34 1.777-.34 2.896V90.17c0 1.198.08 2.09.24 2.675.266.932.773 1.545 1.52 1.838l-7.6.12c.72-.293 1.213-.918 1.48-1.877.186-.666.28-1.557.28-2.676V74.152zm14.92-2.472v19.922l3.48.32a6.8 6.8 0 0 0 .84.04c1.628 0 2.962-.4 4-1.2 1.175-.906 1.76-2.188 1.76-3.84 0-1.975-.726-3.547-2.18-4.72s-3.554-1.76-6.3-1.76c1.146-.722 2.682-1.08 4.602-1.08.586 0 1.186.038 1.8.118 1.92.268 3.485 1.035 4.7 2.3 1.213 1.27 1.818 2.86 1.818 4.78 0 1.467-.453 2.834-1.36 4.102a8.92 8.92 0 0 1-3.438 2.898c-1.2.588-2.668.96-4.4 1.12-.854.08-2.373.12-4.56.12h-6.6c.72-.318 1.212-.945 1.48-1.877.185-.666.278-1.57.278-2.715V73.313c0-1.25-.08-2.17-.24-2.755-.266-.986-.787-1.625-1.56-1.918l12.8-.12h.76c.48 0 .854-.08 1.12-.24l.12 4.722c-.613-.64-1.313-1.066-2.1-1.28-.787-.214-1.7-.32-2.74-.32-.934 0-1.688.02-2.26.06-.573.04-1.18.112-1.82.218zm46.04 9.68c0 4.028-1.44 7.382-4.32 10.062-2.88 2.68-6.346 4.02-10.398 4.02-4.08 0-7.508-1.28-10.28-3.84-2.88-2.64-4.32-5.986-4.32-10.04 0-3.814 1.446-7.06 4.34-9.74 2.894-2.68 6.446-4.02 10.66-4.02 4.106 0 7.546 1.36 10.32 4.08 2.664 2.612 3.998 5.772 3.998 9.48zm-24.76-.16c0 2.962.92 5.548 2.76 7.76 2 2.4 4.494 3.6 7.48 3.6s5.393-.978 7.22-2.938c1.827-1.96 2.74-4.445 2.74-7.46 0-3.093-.88-5.733-2.64-7.92-1.92-2.374-4.387-3.56-7.4-3.56-3.04 0-5.494.986-7.36 2.96-1.866 1.973-2.8 4.493-2.8 7.56zm36.84-12.68c2.693 0 4.893.62 6.6 1.856s2.56 2.945 2.56 5.125c0 2.208-.872 4.01-2.618 5.407-1.748 1.396-3.81 2.094-6.182 2.094-.666 0-1.193-.032-1.58-.1-.387-.065-.832-.22-1.34-.46 1.84 0 3.467-.545 4.88-1.635 1.52-1.168 2.28-2.67 2.28-4.502 0-1.648-.52-2.877-1.56-3.688-1.04-.81-2.413-1.217-4.12-1.217-.934 0-1.867.08-2.8.24v18.01c0 1.41.08 2.383.24 2.914.267.88.88 1.584 1.84 2.117l-7.96.118c.746-.32 1.254-.96 1.52-1.92.188-.693.28-1.613.28-2.76v-16.96c0-1.2-.08-2.093-.24-2.68-.267-.933-.772-1.56-1.52-1.88l9.72-.077z" fill="#ed028c"/></svg>