<svg xmlns="http://www.w3.org/2000/svg" width="245" height="114" viewBox="0 0 245 114"><path d="M12.468 102.225v9.047h-1.01v-8.11H6.83v8.11H5.82v-9.047h6.648zm11.329 9.045H22.79v-9.046h1.87c.698 0 1.264.127 1.694.383.43.257.737.576.917.96.18.387.27.786.27 1.2a2.8 2.8 0 0 1-.168.98c-.11.302-.286.57-.52.806-.236.236-.537.422-.904.557s-.796.2-1.286.2H23.8v3.962h-.003zm0-4.894h.864c.538 0 .984-.124 1.34-.372.356-.248.533-.668.533-1.26 0-.572-.18-.98-.535-1.223-.355-.24-.802-.36-1.337-.36h-.863v3.216zm20.773 4.894h-1.01v-6.853l-6.286 7.26v-9.453h1.008v6.887l6.287-7.27v9.43zm17.233-7.07a3.906 3.906 0 0 0-1.268-.884 3.67 3.67 0 0 0-1.493-.315c-.496 0-.965.1-1.406.297a3.716 3.716 0 0 0-1.172.825c-.338.353-.6.756-.787 1.21-.188.452-.28.924-.28 1.414 0 .654.164 1.27.494 1.85.33.577.777 1.037 1.343 1.38a3.46 3.46 0 0 0 1.834.518c.498 0 .986-.107 1.465-.324.48-.215.902-.508 1.27-.877v1.248a4.5 4.5 0 0 1-2.7.89 4.635 4.635 0 0 1-2.34-.624 4.704 4.704 0 0 1-1.732-1.69 4.44 4.44 0 0 1-.642-2.33c0-.845.212-1.63.636-2.356.424-.725.998-1.3 1.722-1.724a4.573 4.573 0 0 1 2.356-.636c1.006 0 1.906.295 2.7.885v1.244zm19.02 2.56c0 .852-.213 1.635-.638 2.35-.425.716-1 1.28-1.727 1.695-.726.414-1.51.622-2.354.622s-1.628-.208-2.354-.622a4.675 4.675 0 0 1-1.725-1.695 4.514 4.514 0 0 1-.637-2.35c0-.848.213-1.63.64-2.352.425-.72 1-1.29 1.723-1.71a4.621 4.621 0 0 1 2.354-.632c.633 0 1.236.12 1.81.36a4.743 4.743 0 0 1 2.54 2.517c.244.57.37 1.176.37 1.817zm-8.423-.014c0 .67.166 1.293.498 1.87a3.75 3.75 0 0 0 1.352 1.368c.57.34 1.188.508 1.856.508.67 0 1.29-.17 1.857-.508a3.765 3.765 0 0 0 1.36-5.11 3.684 3.684 0 0 0-1.35-1.368 3.616 3.616 0 0 0-1.867-.505c-.676 0-1.3.17-1.868.506a3.696 3.696 0 0 0-1.346 1.368 3.71 3.71 0 0 0-.492 1.872zm18.24-4.521h4.69v.936h-3.683v2.69h3.574v.935h-3.573v3.554h3.683v.935h-4.69v-9.05zm15.095 0h5.124v8.112h.61v2.423h-1.008v-1.488h-4.86v1.488h-1.007v-2.423c.274 0 .487-.123.64-.37.152-.244.263-.66.334-1.242.07-.584.116-1.347.136-2.29.02-.943.03-2.347.03-4.21zm4.117 8.112v-7.178h-3.132a165 165 0 0 1-.034 3.8c-.022.853-.086 1.572-.19 2.158-.104.586-.27.99-.496 1.22h3.852zm18.624.933h-1.008v-6.853l-6.287 7.26v-9.453h1.01v6.887l6.286-7.27v9.43zm15.962-5.374v-3.672h1.01v9.047h-1.01v-4.44h-4.63v4.44h-1.01v-9.046h1.01v3.672h4.63zm14.904 1.404h-.253l-2.736 3.972h-1.235l2.882-4.055c-.46-.04-.862-.17-1.205-.39a2.18 2.18 0 0 1-.79-.872 2.693 2.693 0 0 1-.275-1.234c0-.642.15-1.146.446-1.517.3-.37.69-.625 1.18-.766.488-.144 1.05-.213 1.688-.213h1.308v9.047h-1.008V107.3h-.004zm0-4.14h-.3c-.352 0-.657.017-.922.052a2.13 2.13 0 0 0-.71.218 1.18 1.18 0 0 0-.493.496c-.12.22-.18.508-.18.865 0 .636.21 1.064.627 1.287.42.223.976.334 1.666.334h.312v-3.25zm18.625 8.11h-1.01v-6.853l-6.286 7.26v-9.453h1.01v6.887l6.287-7.27v9.43zm-4.787-10.677c.203.543.582.814 1.14.814.553 0 .934-.27 1.14-.814h.83a1.794 1.794 0 0 1-.343.855 1.883 1.883 0 0 1-.71.573 2.11 2.11 0 0 1-.917.204c-.5 0-.937-.15-1.31-.45s-.595-.695-.66-1.183l.83.003zm17.458 10.677h-1.008v-8.11h-2.184v-.936h5.4v.935h-2.21l.002 8.11zm11.692-9.045h4.687v.936h-3.683v2.69h3.574v.935h-3.574v3.554h3.683v.935h-4.688v-9.05zm21.716 1.975a3.895 3.895 0 0 0-1.268-.884 3.664 3.664 0 0 0-1.492-.315c-.496 0-.965.1-1.408.297-.44.197-.832.473-1.17.825s-.602.756-.79 1.21c-.186.452-.28.924-.28 1.414 0 .654.167 1.27.497 1.85.33.577.776 1.037 1.342 1.38s1.176.518 1.834.518c.5 0 .986-.107 1.466-.324.48-.215.902-.508 1.27-.877v1.248a4.495 4.495 0 0 1-2.7.89 4.645 4.645 0 0 1-2.342-.624 4.706 4.706 0 0 1-1.73-1.69 4.44 4.44 0 0 1-.643-2.33c0-.845.215-1.63.64-2.356a4.73 4.73 0 0 1 1.72-1.724 4.57 4.57 0 0 1 2.357-.636c1.006 0 1.905.295 2.7.885v1.244zm11.101-1.975v3.672h1.02c.46 0 .877.062 1.254.187.376.123.694.3.954.533.26.23.46.513.598.845s.208.706.208 1.122c0 .896-.276 1.567-.83 2.02-.554.445-1.325.67-2.314.67h-1.896v-9.046h1.008v-.003zm0 8.112h.78c1.495 0 2.243-.576 2.243-1.73 0-1.185-.688-1.776-2.065-1.776h-.958v3.507z" fill="#DF75E2"/><path fill="none" stroke="#DF75E2" stroke-miterlimit="10" d="M.22 87.5h244.56"/><path d="M82.277 40.327L64.402.24h-2.628l20.523 46.067L102.47.24h-2.62zm-82.684 5.98h2.612l5.8-13.445h23.272l5.898 13.445h2.62L19.52.24-.408 46.307zM30.225 30.46H9.04l10.5-24.353L30.226 30.46zM241.753.24v39.717L204.42.24v46.067h2.4V6.59l37.332 39.717V.24zm-91.966 0c-12.7 0-23.034 10.333-23.034 23.033 0 12.7 10.333 23.033 23.034 23.033 12.7 0 23.033-10.332 23.033-23.033 0-12.7-10.334-23.033-23.033-23.033zm0 43.666c-11.378 0-20.635-9.256-20.635-20.633S138.41 2.64 149.787 2.64c11.377 0 20.633 9.256 20.633 20.633s-9.256 20.633-20.633 20.633zM67.096 61.025a12.183 12.183 0 0 1 1.647-.225c.594-.04 1.18-.063 1.755-.063.612 0 1.233.054 1.863.162.63.106 1.204.305 1.72.593s.94.688 1.27 1.197.494 1.167.494 1.97c0 .757-.15 1.4-.45 1.937-.3.533-.7.97-1.197 1.305a5.24 5.24 0 0 1-1.71.738 8.445 8.445 0 0 1-2.322.224l-.468-.018c-.162-.006-.318-.016-.468-.027s-.262-.025-.334-.037V73.5h-1.8V61.025zm3.456 1.297c-.324 0-.64.006-.945.018-.306.012-.543.04-.71.09v4.77c.06.024.158.04.296.046.138.006.282.014.432.026.15.012.294.018.432.018h.315c.432 0 .858-.032 1.278-.098s.8-.192 1.143-.382c.342-.19.618-.455.828-.798s.316-.786.316-1.33c0-.474-.102-.864-.306-1.172a2.222 2.222 0 0 0-.792-.728 3.338 3.338 0 0 0-1.09-.363 7.488 7.488 0 0 0-1.196-.098zM84.484 67.2c0-1.032.13-1.953.387-2.763.26-.81.63-1.494 1.117-2.053a4.77 4.77 0 0 1 1.782-1.277c.7-.295 1.496-.44 2.384-.44.948 0 1.78.158 2.493.476a4.85 4.85 0 0 1 1.782 1.332c.473.57.827 1.258 1.06 2.062.235.804.352 1.692.352 2.664 0 1.033-.13 1.953-.387 2.764-.258.81-.633 1.494-1.125 2.053a4.85 4.85 0 0 1-1.79 1.277c-.703.294-1.498.44-2.386.44-.96 0-1.794-.16-2.502-.477s-1.296-.762-1.764-1.332c-.468-.57-.82-1.257-1.053-2.062-.234-.802-.35-1.69-.35-2.663zm1.908 0c0 .68.075 1.316.225 1.912.15.596.378 1.12.684 1.572.307.453.697.81 1.17 1.072s1.036.394 1.684.394c1.164 0 2.085-.4 2.763-1.197.678-.8 1.017-2.05 1.017-3.753 0-.667-.075-1.3-.225-1.895a4.92 4.92 0 0 0-.685-1.572 3.432 3.432 0 0 0-1.17-1.08c-.474-.27-1.04-.403-1.7-.403-1.153 0-2.068.405-2.746 1.215-.68.81-1.018 2.056-1.018 3.735zm28.206 5.76c-.396.288-.9.49-1.512.603-.612.114-1.26.172-1.944.172-.804 0-1.57-.13-2.295-.387a5.263 5.263 0 0 1-1.917-1.188c-.552-.534-.99-1.212-1.314-2.034-.324-.822-.486-1.797-.486-2.925 0-1.176.18-2.178.54-3.006.36-.827.828-1.502 1.404-2.024a5.44 5.44 0 0 1 1.944-1.144 6.77 6.77 0 0 1 2.142-.36c.792 0 1.44.043 1.944.127s.93.192 1.278.324l-.396 1.548c-.588-.275-1.482-.414-2.682-.414-.54 0-1.065.09-1.575.263-.51.174-.967.455-1.37.846-.4.39-.722.898-.962 1.528s-.36 1.4-.36 2.313c0 .816.114 1.533.342 2.152.228.617.543 1.133.945 1.547a3.92 3.92 0 0 0 1.422.936 4.95 4.95 0 0 0 1.79.315c.59 0 1.1-.054 1.53-.16a4.47 4.47 0 0 0 1.1-.415l.43 1.385zm17.965 0c-.396.288-.9.49-1.512.603-.61.114-1.26.172-1.943.172-.804 0-1.57-.13-2.295-.387a5.263 5.263 0 0 1-1.917-1.188c-.553-.534-.99-1.212-1.314-2.034s-.485-1.797-.485-2.925c0-1.176.18-2.178.54-3.006.36-.827.83-1.502 1.404-2.024a5.44 5.44 0 0 1 1.943-1.144 6.77 6.77 0 0 1 2.143-.36c.79 0 1.44.043 1.943.127s.93.192 1.276.324l-.396 1.548c-.588-.275-1.48-.414-2.683-.414-.54 0-1.064.09-1.574.263s-.967.455-1.368.846c-.4.39-.724.898-.963 1.528-.24.63-.36 1.4-.36 2.313 0 .816.114 1.533.342 2.152.23.617.543 1.133.945 1.547s.875.726 1.42.936c.548.21 1.145.315 1.792.315.588 0 1.098-.054 1.53-.16a4.478 4.478 0 0 0 1.1-.415l.43 1.385zm17.91-7.794l.107-1.387h-.07l-.865 1.422-6.462 8.298h-1.1V60.9h1.802v8.388l-.162 1.368h.09l.9-1.422 6.443-8.334h1.116v12.6h-1.8v-8.334zm20.231 8.334h-1.8v-5.363l-1.926.396-3.366 4.968h-2.088l3.042-4.394 1.188-.792c-.468-.084-.9-.22-1.296-.405a3.526 3.526 0 0 1-1.035-.73c-.294-.3-.52-.653-.684-1.062-.163-.407-.244-.882-.244-1.42 0-.733.138-1.35.414-1.855s.648-.912 1.116-1.225a4.8 4.8 0 0 1 1.656-.674 9.504 9.504 0 0 1 2.033-.207c.444 0 .934.02 1.468.063.533.043 1.04.117 1.52.225V73.5zm-3.096-11.178c-.42 0-.822.035-1.206.106-.385.07-.724.196-1.018.374s-.53.418-.71.72c-.18.304-.27.692-.27 1.167 0 .437.083.808.25 1.11s.4.547.694.73c.294.184.636.317 1.025.4s.807.125 1.25.125h1.28v-4.628a2.614 2.614 0 0 0-.54-.09c-.19-.01-.443-.015-.755-.015z" fill="#DF75E2"/></svg>